<svg width="30" height="30" viewBox="0 0 30 30" fill="none" xmlns="http://www.w3.org/2000/svg">
<path fill-rule="evenodd" clip-rule="evenodd" d="M24.5668 8.50277C24.5668 7.12205 23.4475 6.00277 22.0668 6.00277H7.60681C6.33819 5.94332 5.22811 6.84817 5.03057 8.10272C4.83302 9.35728 5.61131 10.5595 6.83681 10.8928V19.8928C6.8368 21.7445 8.33504 23.2473 10.1868 23.2528H19.4668C20.3597 23.2554 21.2169 22.9026 21.8492 22.2722C22.4814 21.6418 22.8368 20.7856 22.8368 19.8928V10.8928C23.8742 10.5603 24.575 9.59209 24.5668 8.50277ZM19.4768 21.7428H10.1968C9.70616 21.7428 9.23561 21.5479 8.88866 21.2009C8.54172 20.854 8.34681 20.3834 8.34681 19.8928V11.0028H21.3468V19.8928C21.3468 20.3869 21.1492 20.8605 20.7979 21.208C20.4466 21.5556 19.9709 21.7481 19.4768 21.7428ZM7.60645 9.50281H22.0664C22.6187 9.50281 23.0664 9.05509 23.0664 8.50281C23.0664 7.95052 22.6187 7.50281 22.0664 7.50281H7.60645C7.05416 7.50281 6.60645 7.95052 6.60645 8.50281C6.60645 9.05509 7.05416 9.50281 7.60645 9.50281Z" fill="black"/>
<path d="M17.0868 13.6328H12.5868C12.1726 13.6328 11.8368 13.9686 11.8368 14.3828C11.8368 14.797 12.1726 15.1328 12.5868 15.1328H17.0868C17.501 15.1328 17.8368 14.797 17.8368 14.3828C17.8368 13.9686 17.501 13.6328 17.0868 13.6328V13.6328Z" fill="black"/>
</svg>
