<svg width="30" height="30" viewBox="0 0 30 30" fill="none" xmlns="http://www.w3.org/2000/svg">
<path fill-rule="evenodd" clip-rule="evenodd" d="M24.4748 20.8875L24.7748 22.3125C25.059 23.5445 24.7783 24.8391 24.0093 25.8427C23.2403 26.8463 22.0633 27.4541 20.7998 27.5H9.19975C7.93622 27.4541 6.75921 26.8463 5.99019 25.8427C5.22116 24.8391 4.94046 23.5445 5.22475 22.3125L5.52475 20.8875C5.8698 18.9585 7.52803 17.5409 9.48725 17.5H20.5123C22.4715 17.5409 24.1297 18.9585 24.4748 20.8875ZM20.7998 25.6125C21.4345 25.6052 22.0318 25.3111 22.4248 24.8125V24.825C22.9069 24.2203 23.0947 23.4323 22.9373 22.675L22.6373 21.25C22.4708 20.194 21.5805 19.4033 20.5123 19.3625H9.48726C8.41896 19.4033 7.52871 20.194 7.36226 21.25L7.06226 22.675C6.9087 23.4283 7.09633 24.2108 7.57476 24.8125C7.96767 25.3111 8.56502 25.6052 9.19976 25.6125H20.7998Z" />
<path fill-rule="evenodd" clip-rule="evenodd" d="M15.625 15H14.375C11.6136 15 9.37502 12.7614 9.37502 10V6.70002C9.37169 5.58509 9.81311 4.51487 10.6015 3.72649C11.3899 2.93811 12.4601 2.49669 13.575 2.50002H16.425C17.5399 2.49669 18.6102 2.93811 19.3985 3.72649C20.1869 4.51487 20.6284 5.58509 20.625 6.70002V10C20.625 12.7614 18.3864 15 15.625 15ZM13.575 4.37502C12.291 4.37502 11.25 5.41596 11.25 6.70002V10C11.25 11.7259 12.6491 13.125 14.375 13.125H15.625C17.3509 13.125 18.75 11.7259 18.75 10V6.70002C18.75 6.08339 18.5051 5.49202 18.069 5.056C17.633 4.61998 17.0417 4.37502 16.425 4.37502H13.575Z" />
</svg>
