<svg width="1440.000000" height="77.000000" viewBox="0 0 1440 77" fill="none" xmlns="http://www.w3.org/2000/svg" xmlns:xlink="http://www.w3.org/1999/xlink">
	<desc>
			Created with Pixso.
	</desc>
	<defs/>
	<path id="Union" d="M452.35 0L436.9 0L433.5 0L339.26 0L323.81 0L229.57 0L226.17 0L210.72 0L113.08 0L18.84 0L0 0L0 64.36L18.84 57.2C37.69 50.05 75.39 35.75 113.08 32.17C150.78 28.6 188.48 35.75 226.17 48.27C234.25 50.95 242.33 53.88 250.41 56.8C258.81 59.85 267.22 62.9 275.63 65.67C290.61 71.49 307.21 76.08 323.81 76.87C326.38 76.99 328.96 77.02 331.53 76.97C334.11 77.02 336.69 76.99 339.26 76.87C355.86 76.08 372.45 71.49 387.44 65.67C395.85 62.9 404.26 59.85 412.66 56.8C420.74 53.88 428.82 50.95 436.9 48.27C474.59 35.75 512.29 28.6 549.98 32.17C587.68 35.75 625.38 50.05 644.23 57.2L647.72 58.53C666.44 67.36 689.45 75.78 712.46 76.87C742.07 78.28 771.69 67.54 801.31 56.8C809.39 53.88 817.47 50.95 825.55 48.27C863.24 35.75 900.94 28.6 938.63 32.17C976.33 35.75 1014.03 50.05 1032.88 57.2L1034.51 57.82C1053.49 66.91 1077.11 75.75 1100.73 76.87C1130.35 78.28 1159.97 67.54 1189.59 56.8C1197.67 53.88 1205.74 50.95 1213.81 48.27C1251.52 35.75 1289.21 28.6 1326.91 32.17C1364.61 35.75 1402.3 50.05 1421.15 57.2L1440 64.36L1440 0L1421.15 0L1326.91 0L1213.81 0L1100.73 0L1051.73 0L1032.88 0L1006.49 0L987.64 0L938.63 0L825.55 0L712.46 0L663.07 0L644.23 0L618.21 0L599.37 0L549.98 0L452.35 0Z" fill="#FEECEE" fill-opacity="1.000000" fill-rule="evenodd"/>
</svg>
