<svg xmlns="http://www.w3.org/2000/svg"  viewBox="0 0 18 16" fill="none">
<path d="M17.0505 7.47L10.0505 0.469996C9.85754 0.282431 9.57921 0.212038 9.32032 0.285332C9.06142 0.358627 8.86129 0.564474 8.79531 0.825333C8.72934 1.08619 8.80755 1.36243 9.00047 1.55L14.7105 7.25H1.48047C1.06626 7.25 0.730469 7.58578 0.730469 8C0.730469 8.41421 1.06626 8.75 1.48047 8.75H14.7005L9.00047 14.45C8.85752 14.5893 8.7769 14.7804 8.7769 14.98C8.7769 15.1796 8.85752 15.3707 9.00047 15.51C9.13831 15.6546 9.33072 15.7345 9.53047 15.73C9.72954 15.7309 9.92058 15.6516 10.0605 15.51L17.0605 8.51C17.3529 8.21718 17.3529 7.74281 17.0605 7.45L17.0505 7.47Z" fill="#5D5FEF"/>
</svg>