<svg width="35" height="35" viewBox="0 0 35 35" fill="none" xmlns="http://www.w3.org/2000/svg">
<path d="M28.0587 8.13744H27.4753L22.5462 3.20828C22.1524 2.81453 21.5107 2.81453 21.1024 3.20828C20.7087 3.60203 20.7087 4.24369 21.1024 4.65203L24.5878 8.13744H10.4128L13.8982 4.65203C14.292 4.25828 14.292 3.61661 13.8982 3.20828C13.5045 2.81453 12.8628 2.81453 12.4545 3.20828L7.53991 8.13744H6.95658C5.64408 8.13744 2.91699 8.13744 2.91699 11.8708C2.91699 13.2854 3.20866 14.2187 3.82116 14.8312C4.17116 15.1958 4.59408 15.3854 5.04616 15.4874C5.46908 15.5895 5.92116 15.6041 6.35866 15.6041H28.642C29.0941 15.6041 29.517 15.5749 29.9253 15.4874C31.1503 15.1958 32.0837 14.3208 32.0837 11.8708C32.0837 8.13744 29.3566 8.13744 28.0587 8.13744Z" fill="#5D5FEF"/>
<path d="M27.7822 17.5H7.10302C6.19885 17.5 5.51344 18.3021 5.65927 19.1917L6.88427 26.6875C7.2926 29.1958 8.38635 32.0833 13.2426 32.0833H21.4239C26.3384 32.0833 27.2134 29.6187 27.7384 26.8625L29.2114 19.2354C29.3864 18.3312 28.7009 17.5 27.7822 17.5ZM17.5009 28.4375C14.0884 28.4375 11.303 25.6521 11.303 22.2396C11.303 21.6417 11.7989 21.1458 12.3968 21.1458C12.9947 21.1458 13.4905 21.6417 13.4905 22.2396C13.4905 24.4562 15.2843 26.25 17.5009 26.25C19.7176 26.25 21.5114 24.4562 21.5114 22.2396C21.5114 21.6417 22.0072 21.1458 22.6051 21.1458C23.203 21.1458 23.6989 21.6417 23.6989 22.2396C23.6989 25.6521 20.9134 28.4375 17.5009 28.4375Z" fill="#5D5FEF"/>
</svg>
