<svg width="30" height="30" viewBox="0 0 30 30" fill="none" xmlns="http://www.w3.org/2000/svg">
<path d="M21.79 9.99963C21.3537 9.99963 21 10.3533 21 10.7896V19.6296C21 21.4908 19.4912 22.9996 17.63 22.9996H11.95C10.0888 22.9996 8.58 21.4908 8.58 19.6296V10.7896C8.58 10.3533 8.22631 9.99963 7.79 9.99963C7.3537 9.99963 7 10.3533 7 10.7896V19.6296C7.02742 22.3715 9.25799 24.5798 12 24.5796H17.68C20.4025 24.5525 22.6029 22.3521 22.63 19.6296V10.7896C22.6304 10.5712 22.5404 10.3622 22.3812 10.2126C22.2221 10.0629 22.008 9.9858 21.79 9.99963Z" fill="#D21C1C"/>
<path fill-rule="evenodd" clip-rule="evenodd" d="M21.79 8.58H7.79C7.3537 8.58 7 8.22631 7 7.79C7 7.35369 7.3537 7 7.79 7H10.44L11.62 5.72C12.0711 5.26141 12.6868 5.00218 13.33 5H16.25C16.8839 4.99999 17.4918 5.25179 17.94 5.7L19.14 7H21.79C22.2263 7 22.58 7.35369 22.58 7.79C22.58 8.22631 22.2263 8.58 21.79 8.58ZM16.2496 6.58005H13.3296C13.1297 6.58012 12.937 6.65504 12.7896 6.79005L12.5996 6.99005H16.9796L16.7896 6.79005C16.6432 6.65332 16.4499 6.57812 16.2496 6.58005Z" fill="#D21C1C"/>
<path d="M11.04 11.7891V14.7891C11.04 15.2033 11.3758 15.5391 11.79 15.5391C12.2043 15.5391 12.54 15.2033 12.54 14.7891V11.7891C12.54 11.3748 12.2043 11.0391 11.79 11.0391C11.3758 11.0391 11.04 11.3748 11.04 11.7891Z" fill="#D21C1C"/>
<path d="M14.04 11.7891V19.7891C14.04 20.2033 14.3758 20.5391 14.79 20.5391C15.2043 20.5391 15.54 20.2033 15.54 19.7891V11.7891C15.54 11.3748 15.2043 11.0391 14.79 11.0391C14.3758 11.0391 14.04 11.3748 14.04 11.7891Z" fill="#D21C1C"/>
<path d="M17.04 11.7891V14.7891C17.04 15.2033 17.3758 15.5391 17.79 15.5391C18.2043 15.5391 18.54 15.2033 18.54 14.7891V11.7891C18.54 11.3748 18.2043 11.0391 17.79 11.0391C17.3758 11.0391 17.04 11.3748 17.04 11.7891Z" fill="#D21C1C"/>
</svg>
