<svg width="1440" height="77" viewBox="0 0 1440 77" fill="none" xmlns="http://www.w3.org/2000/svg">
<path fill-rule="evenodd" clip-rule="evenodd" d="M452.356 0H436.901H433.508H339.267H323.812H229.571H226.178H210.723H113.089H18.8482H0V64.361L18.8482 57.2098C37.6964 50.0586 75.3927 35.7561 113.089 32.1805C150.785 28.6049 188.482 35.7561 226.178 48.2708C234.256 50.9525 242.334 53.8804 250.411 56.8084C258.818 59.8557 267.225 62.903 275.632 65.6726C290.62 71.4897 307.216 76.0886 323.812 76.8756C326.388 76.9978 328.963 77.0282 331.539 76.9746C334.115 77.0282 336.691 76.9978 339.267 76.8756C355.863 76.0886 372.459 71.4897 387.447 65.6726C395.854 62.903 404.26 59.8557 412.667 56.8084C420.745 53.8804 428.823 50.9525 436.901 48.2708C474.597 35.7561 512.293 28.6049 549.99 32.1805C587.686 35.7561 625.382 50.0586 644.231 57.2098L647.725 58.5356C666.447 67.368 689.454 75.7845 712.461 76.8756C742.079 78.2803 771.698 67.5444 801.316 56.8084C809.394 53.8805 817.472 50.9525 825.55 48.2708C863.246 35.7561 900.942 28.6049 938.639 32.1805C976.335 35.7561 1014.03 50.0586 1032.88 57.2098L1034.51 57.8271C1053.49 66.9132 1077.11 75.7554 1100.73 76.8756C1130.35 78.2803 1159.97 67.5444 1189.59 56.8085C1197.67 53.8805 1205.74 50.9525 1213.82 48.2708C1251.52 35.7561 1289.21 28.6049 1326.91 32.1805C1364.61 35.7561 1402.3 50.0586 1421.15 57.2098L1440 64.361V0H1421.15H1326.91H1213.82H1100.73H1051.73H1032.88H1006.49H987.644H938.639H825.55H712.461H663.079H644.231H618.22H599.372H549.99H452.356Z" fill="#FCA1A9"/>
</svg>
