<svg width="200%" height="154" viewBox="0 0 1440 154" fill="none" xmlns="http://www.w3.org/2000/svg">
<path fill-rule="evenodd" clip-rule="evenodd" d="M0 154L1440 154V41.5312L1421.15 32.5586C1402.3 23.586 1364.61 5.64119 1326.91 1.15486C1289.21 -3.33145 1251.52 5.64119 1213.82 21.3431C1205.75 24.7055 1197.68 28.3767 1189.61 32.048L1189.59 32.0553C1159.97 45.5254 1130.35 58.9956 1100.73 57.2331C1077.11 55.8277 1053.49 44.7332 1034.51 33.3333L1032.88 32.5586C1014.03 23.586 976.335 5.64119 938.639 1.15486C900.942 -3.33145 863.246 5.64119 825.55 21.3431C817.472 24.7079 809.394 28.3816 801.316 32.0553C771.698 45.5254 742.079 58.9956 712.46 57.2331C689.454 55.8641 666.447 45.3041 647.725 34.2223L644.23 32.5586C625.382 23.586 587.686 5.64119 549.99 1.15486C512.293 -3.33145 474.597 5.64119 436.901 21.3431C428.823 24.7079 420.745 28.3816 412.667 32.0553C404.261 35.8787 395.854 39.7017 387.447 43.177C372.459 50.4757 355.863 56.2459 339.267 57.2331C337.602 57.3323 335.937 57.3834 334.271 57.3892C333.361 57.3922 332.45 57.3815 331.54 57.3576C328.963 57.4247 326.388 57.3863 323.812 57.2331C307.216 56.2459 290.62 50.4757 275.632 43.177C267.225 39.7017 258.818 35.8787 250.411 32.0553C242.333 28.3816 234.256 24.7079 226.178 21.3431C188.481 5.64119 150.785 -3.33145 113.089 1.15486C75.3926 5.64119 37.6963 23.586 18.8481 32.5586L0 41.5312V154Z" fill="#FEEEE1"/>
</svg>
