<svg width="201" height="120" viewBox="0 0 201 120" fill="none" xmlns="http://www.w3.org/2000/svg">
<path d="M156.455 70.6844L116.803 64.9785L67.4768 73.7411L42.9376 80.4659L31.6294 92.8965L36.9641 107.976L70.8908 115.516L120.394 118.573L156.455 113.682L176.085 99.8251L173.524 88.6171L156.455 70.6844Z" fill="#FEF4D0"/>
<path d="M47.3975 57.0641L58.0729 45.5627L67.7942 40.0769L85.9936 37.0039H97.7108L118.152 39.6368L130.368 41.8315L145.076 44.9045L153.8 53.0231L156.858 58.8085L140.089 71.0191L55.5785 76.945L47.3975 57.0641Z" fill="#100174"/>
<path d="M70.7744 37.3563C70.6015 35.3857 70.8416 35.5447 71.867 34.0245C73.2139 32.0254 75.7083 28.6059 78.2943 28.3797C81.6229 28.0883 81.5395 28.557 84.4469 30.1506C85.4642 30.7028 87.1488 34.6867 87.2566 35.9115C87.4459 38.0838 86.2393 40.0605 84.9901 41.654C83.6269 43.4045 82.1193 44.6781 79.7368 44.886C78.249 45.0288 76.7561 44.6702 75.4947 43.8671C73.1732 42.5792 71.0227 40.2031 70.7744 37.3563Z" fill="#FED9DB"/>
<path d="M53.7696 41.0387C53.5966 39.0701 53.8367 39.227 54.8621 37.7068C56.209 35.7098 58.7034 32.2883 61.2894 32.0621C64.618 31.7707 64.5447 32.2394 67.442 33.833C68.4593 34.3872 70.1439 38.3691 70.2518 39.5938C70.441 41.7662 69.2345 43.7428 67.9852 45.3364C66.6221 47.0869 65.1144 48.3605 62.7319 48.5704C61.2441 48.7122 59.7516 48.3537 58.4898 47.5515C56.1683 46.2636 54.0096 43.8855 53.7696 41.0387Z" fill="#FED9DB"/>
<path d="M59.5212 68.3004C59.3706 66.5907 59.5802 66.7272 60.4693 65.4088C61.6392 63.6725 63.806 60.7014 66.0502 60.5058C68.9434 60.251 68.8681 60.6606 71.3951 62.0443C72.2699 62.5252 73.7409 65.9834 73.8366 67.0471C74.0014 68.9342 72.9454 70.65 71.8691 72.0337C70.687 73.5539 69.3747 74.6604 67.3055 74.8418C66.0144 74.9663 64.7187 74.6565 63.6229 73.9615C61.6046 72.8386 59.7369 70.7743 59.5212 68.3004Z" fill="#FED9DB"/>
<path d="M51.2426 37.1871C52.7522 38.4567 52.4633 38.5158 52.8194 40.3151C53.2771 42.6831 53.9303 46.8687 52.2619 48.8597C50.1134 51.4253 49.8387 51.034 46.6607 51.9653C45.5559 52.2893 41.5457 50.6713 40.6057 49.8806C38.9394 48.4786 38.4023 46.2126 38.1541 44.2155C37.8814 42.0106 38.0483 40.0441 39.5783 38.208C40.5288 37.0539 41.8359 36.2494 43.2934 35.9216C45.855 35.1921 49.0533 35.3531 51.2426 37.1871Z" fill="#FED9DB"/>
<path d="M65.2 55.7029C65.3729 57.6734 65.1328 57.5145 64.1074 59.0347C62.7585 61.0419 60.262 64.4532 57.672 64.6794C54.3414 64.9708 54.4268 64.5021 51.5194 62.9086C50.5021 62.3563 48.8154 58.3724 48.7096 57.1477C48.5204 54.9754 49.7269 52.9987 50.9762 51.4051C52.3393 49.6546 53.847 48.381 56.2295 48.1711C57.7166 48.0288 59.2087 48.3874 60.4695 49.19C62.7971 50.4779 64.9477 52.854 65.2 55.7029Z" fill="#FED9DB"/>
<path d="M79.2771 46.8526C80.7888 48.1242 80.5081 48.1833 80.856 49.9827C81.3138 52.3507 81.9669 56.5363 80.2985 58.5273C78.15 61.0908 77.8753 60.6996 74.6973 61.6329C73.5925 61.9549 69.5823 60.3389 68.6424 59.5482C66.974 58.1462 66.4389 55.8801 66.1907 53.8831C65.918 51.6782 66.0849 49.7117 67.6149 47.8756C68.5648 46.7207 69.8722 45.9161 71.33 45.5892C73.8916 44.8597 77.09 45.0186 79.2771 46.8526Z" fill="#FED9DB"/>
<path d="M62.4695 30.1873C60.7442 25.8264 61.4055 18.9793 62.4695 14.5369C63.5682 9.94977 65.6598 5.93324 68.0769 1.89023C67.9853 0.259975 66.8561 -0.542922 66.0932 0.728673C63.5272 5.20427 61.5929 10.0144 60.3454 15.0219C60.0157 16.8596 59.8023 18.7164 59.7066 20.581C59.6822 21.2841 59.6801 22.0238 59.7066 22.8226C59.8135 25.6313 60.277 28.4149 61.086 31.1063C61.1345 31.1893 61.1988 31.2618 61.2752 31.3199C61.3517 31.3779 61.4388 31.4203 61.5316 31.4446C61.7127 31.4833 61.9385 31.3713 62.4655 31.1063L62.4695 30.1873Z" fill="#94B7BD"/>
<path d="M54.6567 19.1384L53.2793 17.3044V14.537L54.1969 9.93359L56.028 12.2343L57.8754 14.9874C57.8754 14.9874 58.3332 15.4479 58.3332 16.8214C58.3332 18.1949 58.793 18.6554 58.793 18.6554L59.6944 21.1416L59.7127 22.7983L56.0362 20.9643L54.6567 19.1384Z" fill="#94B7BD"/>
<path d="M136.868 22.4111C136.868 22.4111 131.863 21.3046 129.474 26.9676C127.086 32.6307 125.664 38.6137 122.939 42.0189C120.215 45.4241 114.76 50.6164 115.261 54.0053C115.761 57.3942 115.35 71.7669 124.882 75.4309C134.414 79.0949 140.852 77.4504 144.227 75.3331C147.603 73.2158 155.955 67.3591 156.573 62.1933C157.192 57.0274 158.947 53.3002 156.028 49.1166C153.108 44.933 147.267 38.1817 145.798 34.4749C144.329 30.7682 142.374 26.9024 140.754 25.3048C139.573 24.1957 138.269 23.2249 136.868 22.4111Z" fill="#FCC812"/>
<path d="M148.484 12.2873L146.331 12.0733L144.109 12.5787L142.604 13.1554L139.914 14.7021L138.227 16.0898C138.646 15.2339 138.85 13.9929 139.401 13.0331C140.17 11.1209 141.39 9.42343 142.956 8.0853L146.604 3.46558L144.431 3.11304L143.387 4.21346C143.387 4.21346 140.945 8.15255 139.385 9.80521C138.332 11.3936 137.423 13.0734 136.669 14.8243L135.342 17.8912L134.376 21.2659L134.447 22.2216L133.188 27.1123C134.114 26.7458 135.091 26.5232 136.085 26.4521C136.031 25.1058 136.047 23.7576 136.136 22.4132C136.328 21.299 136.61 20.2024 136.98 19.1343L140.276 18.3681C141.601 18.4635 142.931 18.4744 144.258 18.4007C145.899 18.2732 147.467 17.6723 148.774 16.6706L151.533 14.4046L153.501 12.7865L148.484 12.2873Z" fill="#FD6769"/>
<path d="M86.8481 71.4652C87.2852 71.4652 87.6395 70.874 87.6395 70.1447C87.6395 69.4154 87.2852 68.8242 86.8481 68.8242C86.411 68.8242 86.0566 69.4154 86.0566 70.1447C86.0566 70.874 86.411 71.4652 86.8481 71.4652Z" fill="white"/>
<path d="M96.3374 80.9716C96.7745 80.9716 97.1288 80.3804 97.1288 79.6511C97.1288 78.9218 96.7745 78.3306 96.3374 78.3306C95.9002 78.3306 95.5459 78.9218 95.5459 79.6511C95.5459 80.3804 95.9002 80.9716 96.3374 80.9716Z" fill="white"/>
<path d="M88.9576 18.3987C84.213 65.3927 78.9414 61.1683 80.7867 73.0487C81.8834 80.1199 92.6464 91.4726 105.564 87.3134C121.116 82.2963 122.581 72.7023 123.751 65.3988C125.283 55.8394 110.046 30.5522 100.557 18.4048C95.743 12.2424 89.452 13.4774 88.9576 18.3987Z" fill="#94B7BD"/>
<path d="M90.5366 49.8156C90.9737 49.8156 91.328 49.2244 91.328 48.4951C91.328 47.7658 90.9737 47.1746 90.5366 47.1746C90.0995 47.1746 89.7451 47.7658 89.7451 48.4951C89.7451 49.2244 90.0995 49.8156 90.5366 49.8156Z" fill="white"/>
<path d="M87.9018 60.9054C88.3389 60.9054 88.6933 60.3142 88.6933 59.5849C88.6933 58.8556 88.3389 58.2644 87.9018 58.2644C87.4647 58.2644 87.1104 58.8556 87.1104 59.5849C87.1104 60.3142 87.4647 60.9054 87.9018 60.9054Z" fill="white"/>
<path d="M92.6464 74.1063C93.0835 74.1063 93.4379 73.5151 93.4379 72.7858C93.4379 72.0565 93.0835 71.4653 92.6464 71.4653C92.2093 71.4653 91.855 72.0565 91.855 72.7858C91.855 73.5151 92.2093 74.1063 92.6464 74.1063Z" fill="white"/>
<path d="M98.9721 71.4652C99.4092 71.4652 99.7636 70.874 99.7636 70.1447C99.7636 69.4154 99.4092 68.8242 98.9721 68.8242C98.535 68.8242 98.1807 69.4154 98.1807 70.1447C98.1807 70.874 98.535 71.4652 98.9721 71.4652Z" fill="white"/>
<path d="M95.2832 64.0741C95.7203 64.0741 96.0746 63.4829 96.0746 62.7536C96.0746 62.0243 95.7203 61.4331 95.2832 61.4331C94.846 61.4331 94.4917 62.0243 94.4917 62.7536C94.4917 63.4829 94.846 64.0741 95.2832 64.0741Z" fill="white"/>
<path d="M86.5833 8.62929C87.1103 9.68487 88.4328 10.4735 88.6912 11.7981C88.8783 12.7477 89.1489 13.5832 88.6912 14.437C87.2853 17.0638 87.6372 17.6058 86.0564 20.7746C85.5416 21.7936 84.0116 22.4762 82.8926 23.4238C83.9465 24.4794 84.7237 25.0051 86.0564 25.0092C87.1042 25.0092 87.7532 23.4829 88.6912 23.9516C90.1154 24.6628 90.5365 25.9629 91.6637 27.0695C91.7689 27.171 91.9011 27.24 92.0444 27.2683C92.1878 27.2966 92.3362 27.2829 92.472 27.229C92.6079 27.1751 92.7253 27.0831 92.8103 26.9641C92.8954 26.8451 92.9444 26.7041 92.9516 26.558C93.096 24.4631 92.5447 20.7726 92.3595 18.6839C93.4063 19.3843 94.2047 20.3987 94.6403 21.5816C94.6501 21.6103 94.6655 21.6367 94.6856 21.6594C94.7056 21.6821 94.73 21.7006 94.7572 21.7139C94.7844 21.7271 94.814 21.7349 94.8442 21.7367C94.8744 21.7384 94.9047 21.7342 94.9333 21.7243C94.9697 21.7112 95.0024 21.6893 95.0283 21.6605C95.0542 21.6317 95.0726 21.5969 95.0818 21.5592C95.4561 20.0337 95.5621 18.4546 95.3951 16.8926C96.9924 17.9431 98.3308 19.3429 99.3097 20.9866C99.3726 21.0911 99.4743 21.1663 99.5926 21.1958C99.7109 21.2252 99.836 21.2064 99.9404 21.1435C99.9992 21.1074 100.049 21.0587 100.087 21.0008C101.261 19.2361 102.793 17.5875 104.848 17.2492C102.732 16.8417 100.691 14.7733 98.7115 13.9215C96.7318 13.0697 94.7929 13.3876 93.7084 11.5209C93.6473 11.431 93.6089 11.3275 93.5965 11.2193C93.606 11.0773 93.6585 10.9415 93.7471 10.8301L95.5782 7.97719C95.5477 7.56963 95.5477 7.56963 95.0594 7.08667C94.0075 7.50849 92.9109 7.03979 91.8529 7.03979C90.8153 7.49626 89.7573 7.95477 88.6912 7.56759L86.5833 8.62929Z" fill="black"/>
<path d="M47.3975 66.3483L49.432 75.926L53.9081 83.2621L61.4361 88.968L69.5745 94.2663L88.6996 100.584L112.097 104.863L129.595 100.584L140.378 94.2663L150.348 86.7264L156.858 70.6277V58.8084L127.357 68.3861H102.128L79.137 66.3483L47.3975 56.9744V66.3483Z" fill="#FD6769"/>
</svg>
