<svg width="100%" height="auto" viewBox="0 0 201 120" fill="none" xmlns="http://www.w3.org/2000/svg">
<g clip-path="url(#clip0_516_2626)">
<path d="M155.664 11.9127L118.374 -0.0737305L101.029 5.63214L71.5439 26.1835C71.5439 26.1835 45.959 21.0462 39.4564 26.1835C32.9539 31.3208 26.4473 65.5662 26.4473 65.5662L50.5022 84.7808L102.329 80.4076L138.15 86.5109L169.017 90.291L179.233 32.0096L155.664 11.9127Z" fill="#FEF4D0"/>
<path d="M136.531 42.4597C136.602 41.561 136.236 40.534 135.463 40.2181C135.192 40.1081 134.722 40.2813 134.407 40.3078C133.566 40.3911 132.773 40.736 132.138 41.2941C129.9 43.1403 126.624 47.0203 123.713 48.5181C120.801 50.0159 116.262 52.5937 113.21 51.8826C111.1 51.3583 109.022 50.7133 106.986 49.9507L106.899 49.912C106.614 49.7714 104.805 48.9175 103.629 49.3006C103.207 49.3879 102.815 49.5839 102.492 49.8692C102.349 50.0088 102.241 50.1809 102.177 50.371C102.114 50.561 102.097 50.7635 102.128 50.9615C102.635 52.7246 103.743 54.254 105.259 55.2837C108.128 57.1931 112.177 60.1398 114.295 60.582C116.413 61.0242 120.669 61.0853 123.322 59.669C126.575 57.9146 129.46 55.5507 131.823 52.7058C134.242 49.6675 134.295 48.3164 135.564 45.8506C136.108 44.7958 136.437 43.6431 136.531 42.4597Z" fill="#FCC812"/>
<path d="M135.351 40.7011C134.303 43.3665 133.218 45.6856 131.458 47.97C129.737 50.2115 127.389 51.7623 124.934 53.0645C122.802 54.2625 120.486 55.0952 118.081 55.5282C115.538 55.9215 113.029 55.463 110.628 54.5908C107.819 53.5719 105.159 51.8703 102.626 50.3114C102.546 50.3995 102.478 50.4974 102.423 50.6028C106.885 53.3559 111.739 56.7916 117.208 56.3392C119.748 56.0572 122.212 55.2966 124.47 54.0976C126.964 52.8546 129.369 51.3731 131.261 49.2945C133.511 46.8206 134.545 43.5887 135.756 40.5116C135.674 40.4698 135.581 40.4555 135.491 40.4708L135.351 40.7011Z" fill="black"/>
<path d="M137.904 41.7667C137.306 40.8191 136.177 40.0692 135.17 40.3402C134.818 40.434 134.48 40.9516 134.187 41.2165C133.407 41.9256 132.869 42.8611 132.647 43.8921C131.796 47.4013 131.426 53.7164 129.633 57.3845C127.841 61.0526 125.253 67.0193 121.676 68.5925C119.181 69.6412 116.629 70.5454 114.03 71.3007C113.993 71.3117 113.955 71.3205 113.916 71.3272C113.526 71.4006 111.088 71.9019 110.197 73.1612C109.841 73.5633 109.596 74.0515 109.487 74.5775C109.469 75.2072 109.603 75.6963 109.937 75.9408C111.757 77.3161 113.999 78.0116 116.276 77.9073C120.549 77.6648 126.783 77.5772 129.233 76.4421C131.682 75.307 135.959 72.181 137.548 68.7881C139.137 65.3951 140.685 60.323 140.834 55.4893C140.982 50.6556 140.02 49.2699 139.454 45.8647C139.215 44.4091 138.688 43.0159 137.904 41.7667Z" fill="#FCC812"/>
<path d="M135.371 42.9506C136.535 48.31 136.364 54.507 134.582 59.6973C132.681 65.2239 128.734 70.2226 123.3 72.6782C120.319 74.0252 112.72 74.5591 109.521 75.1521L109.57 75.4313C112.256 75.7003 120.14 74.6814 122.946 73.5667C125.733 72.4567 128.225 70.7126 130.223 68.4721C134.166 64.0908 136.124 57.9387 136.673 52.1187C136.976 48.9336 136.51 46.0053 136.315 42.8079C136.21 41.9278 135.982 41.0669 135.637 40.2505L135.172 40.33L135.371 42.9506Z" fill="black"/>
<path d="M135.171 40.3341L133.843 38.1495L135.361 37.1714L137.662 37.9865L135.639 40.2526L135.171 40.3341Z" fill="black"/>
<path d="M85.45 32.0178C80.4266 32.7107 76.3798 35.0623 74.2089 37.74C72.449 41.9012 75.9363 46.6717 81.33 52.8911C85.8305 59.1431 91.2994 65.3442 96.6199 72.018C98.1763 73.9641 99.7186 75.953 101.226 77.9929C101.672 78.6042 103.59 77.1533 103.8 76.4278C102.705 70.2838 102.311 69.5482 99.2465 60.8936C97.8223 55.0736 95.2567 49.0274 92.9393 43.7312C91.0044 37.2958 87.8752 33.5645 85.45 32.0178Z" fill="#94B7BD"/>
<path d="M78.0504 34.5304L74.7279 31.979C74.5316 31.8285 74.3976 31.6109 74.3515 31.3677L73.9934 29.5112C73.9934 29.5112 73.4257 26.5788 73.8957 25.7718C73.9995 25.5925 74.4105 24.5777 74.6119 24.6307C75.1389 24.7692 75.4888 26.7724 75.8001 27.2187C76.5285 28.26 78.4613 30.0574 78.8947 31.2515C78.9862 31.8708 79.0026 32.499 78.9435 33.1222L79.6556 33.8192L78.0504 34.5304Z" fill="#FD6769"/>
<path d="M98.0218 57.4579C98.0828 51.5055 100.044 47.9658 109.275 45.1984C111.294 44.6159 113.448 44.7235 115.399 45.5041C124.49 49.6123 130.598 53.743 129.713 60.533C129.22 64.3111 126.567 68.9532 123.664 71.2621C120.502 73.7726 116.899 74.1557 112.337 73.7074C111.377 73.6157 110.174 73.6381 109.285 73.4018C101.983 71.4842 97.9567 64.8205 98.0218 57.4579Z" fill="#FED9DB"/>
<path d="M122.287 45.9627C122.287 45.9627 123.507 45.9627 126.879 40.75C125.048 42.2824 119.072 43.0507 119.072 43.0507C119.223 40.7239 119.578 38.4149 120.134 36.1506C118.736 36.1506 117.082 37.3733 116.268 40.1712L115.861 42.2824C115.861 42.2824 107.29 39.837 105.76 41.9767C108.811 42.2824 111.882 44.1226 111.882 44.1226C105.168 45.6876 104.392 47.8986 103.617 48.4162C107.597 46.5822 106.059 46.5822 113.874 47.0346C114.868 49.5268 114.179 52.555 113.082 54.8883C113.042 55.6483 113.102 56.4102 113.261 57.1544C116.171 55.1614 119.078 48.2613 119.078 48.2613C119.078 48.2613 121.833 49.1824 126.73 55.0085C127.644 51.636 122.287 45.9627 122.287 45.9627Z" fill="#94B7BD"/>
<path d="M72.7808 47.9393C71.5601 54.4889 64.6262 65.2179 71.4075 74.0987C74.6872 78.3924 86.2925 79.6008 86.2925 79.6008C86.2925 79.6008 90.3353 79.1423 92.7096 80.5708C93.1379 80.4131 93.5474 80.208 93.9304 79.9595L93.2915 75.8492C93.2915 75.8492 96.439 64.845 91.9589 58.8009C89.8429 54.5643 78.3841 49.5594 77.0514 48.9888C76.9705 48.9545 76.9053 48.8913 76.8683 48.8115C76.732 48.516 76.378 47.7926 76.1399 47.6418C75.438 47.2363 73.4197 47.4075 72.7808 47.9393Z" fill="#FCC812"/>
<path d="M66.3105 38.1434C66.9209 39.3661 67.6147 43.3011 67.6147 43.3011L70.9738 44.2487C70.9738 44.2487 73.7632 47.4582 73.69 48.8664C73.9565 49.0192 74.1193 48.8093 74.9108 48.8664C74.4937 47.6987 74.8111 46.1683 75.1142 45.2513C75.5557 43.9593 79.6066 42.2842 79.6066 42.2842L80.9901 37.636C80.9901 37.636 77.2058 37.8887 76.3309 38.7018C75.3136 39.6473 74.9067 41.6953 73.4825 43.4601C73.1107 41.9178 72.3158 40.5103 71.1875 39.3967C70.2963 38.5245 67.5354 38.1536 66.3105 38.1434Z" fill="#FD6769"/>
<path d="M169.074 28.2091L166.235 28.3599L154.665 44.2182L143.094 59.4671L138.024 63.4327H69.6027L49.7125 36.9697L41.4745 26.0083L38.8071 26.4077L53.8773 45.4388L67.8834 67.2292V120.157H138.221V69.2547L149.491 54.2626L160.516 39.5944L169.074 28.2091Z" fill="#100174"/>
<path d="M126.471 80.5117H81.4072V100.03H126.471V80.5117Z" fill="#94B7BD"/>
</g>
<defs>
<clipPath id="clip0_516_2626">
<rect width="200" height="120" fill="white" transform="translate(0.5)"/>
</clipPath>
</defs>
</svg>
