<svg width="24" height="24" viewBox="0 0 24 24" fill="none" xmlns="http://www.w3.org/2000/svg">
<path d="M6.10776 3.15205C6.43023 3.05136 6.7648 3 7.10163 3C8.72066 3 9.92016 4.42565 9.92015 6.03791L9.92015 9.65441C9.92015 11.2667 8.72065 12.6923 7.10163 12.6923C6.7648 12.6923 6.43023 12.641 6.10776 12.5403L5.86125 12.4633C5.77709 12.437 5.69428 12.4079 5.61291 12.376C6.89717 14.9841 9.01298 17.0999 11.6211 18.3842C11.5892 18.3028 11.5601 18.22 11.5338 18.1358L11.4568 17.8893C11.3561 17.5668 11.3048 17.2323 11.3048 16.8954C11.3048 15.2764 12.7304 14.0769 14.3427 14.0769H17.9592C19.5714 14.0769 20.9971 15.2764 20.9971 16.8954C20.9971 17.2323 20.9457 17.5668 20.845 17.8893L20.7681 18.1358C20.3197 19.5717 19.0372 20.6116 17.5031 20.882C16.6099 21.0393 15.692 21.0394 14.7988 20.882C14.7636 20.8758 14.7286 20.8692 14.6937 20.8622C8.83992 19.7359 4.26111 15.1571 3.13489 9.30329C3.1279 9.26843 3.12131 9.23344 3.11512 9.19831C2.95772 8.3051 2.95772 7.38721 3.11512 6.494C3.38545 4.95989 4.42534 3.67739 5.86126 3.22902L6.10776 3.15205Z" fill="#5D5FEF"/>
<path d="M13.1098 4.59113C14.8836 4.08573 16.8152 4.50846 18.1519 5.84518C19.4886 7.1819 19.9114 9.11346 19.406 10.8872C19.3012 11.255 19.5143 11.638 19.8821 11.7428C20.2498 11.8475 20.6328 11.6344 20.7376 11.2667C21.3698 9.04776 20.8502 6.58533 19.131 4.86611C17.4118 3.14689 14.9493 2.62729 12.7304 3.25951C12.3627 3.36428 12.1496 3.74731 12.2543 4.11503C12.3591 4.48274 12.7421 4.6959 13.1098 4.59113Z" fill="#5D5FEF"/>
<path d="M14.8433 7.10736C15.3104 7.01432 15.9021 7.1712 16.364 7.63309C16.8259 8.09498 16.9828 8.68667 16.8897 9.15381C16.815 9.52879 17.0585 9.89332 17.4335 9.96801C17.8084 10.0427 18.173 9.79926 18.2477 9.42428C18.4387 8.46535 18.1036 7.41451 17.3431 6.65402C16.5826 5.89353 15.5317 5.55843 14.5728 5.74942C14.1978 5.82411 13.9544 6.18864 14.0291 6.56363C14.1038 6.93861 14.4683 7.18205 14.8433 7.10736Z" fill="#5D5FEF"/>
</svg>
