<svg width="200" height="220" viewBox="0 0 200 220" fill="none" xmlns="http://www.w3.org/2000/svg">
<path d="M40.2847 153.766C40.2847 149.116 40.4332 140.893 42.3966 137.008C44.7913 132.256 48.4635 128.262 53.0024 125.474C57.5412 122.685 62.7678 121.212 68.0975 121.219C76.0141 121.219 81.1189 124.671 86.3193 129.834C91.5583 135.034 93.9917 133.662 94.95 148.021C95.2918 153.155 92.1728 160.153 90.0812 165.045C89.4942 166.41 88.525 167.577 87.2898 168.406C80.8686 172.744 77.1677 176.732 68.0955 176.732C59.9307 176.732 55.1107 175.483 49.8737 170.031C44.9276 164.881 44.128 161.424 40.2847 153.766Z" fill="#FD6769"/>
<path d="M136.692 157.129C132.033 157.129 123.797 156.981 119.904 155.019C115.142 152.628 111.14 148.962 108.346 144.431C105.552 139.899 104.076 134.681 104.084 129.36C104.084 121.457 107.542 116.363 112.714 111.171C117.925 105.941 116.549 103.513 130.936 102.556C136.081 102.215 143.091 105.33 147.992 107.416C149.36 108.002 150.529 108.969 151.359 110.202C155.707 116.609 159.701 120.305 159.701 129.36C159.701 137.51 158.452 142.319 152.987 147.548C147.827 152.511 144.364 153.299 136.692 157.129Z" fill="#FD6769"/>
<path d="M121.392 105.747L120.244 103.888C115.68 96.5777 110.513 88.2901 104.171 81.6738C102.881 80.3315 101.646 79.0724 100.45 77.86C96.0054 73.5876 91.9558 68.9244 88.3498 63.9269C88.5004 63.6669 88.6713 63.3846 88.8564 63.0821C90.6306 60.1638 93.5991 55.2798 90.7832 49.3906C88.2664 44.1288 84.537 41.696 80.8035 42.8799L80.537 43.0018C79.992 43.3353 79.5213 43.7768 79.1539 44.299C78.7865 44.8211 78.5301 45.4129 78.4007 46.0378C77.6174 49.4413 79.7435 54.3132 82.3702 58.9027C78.4341 56.378 74.2504 54.2604 69.8839 52.583C68.8196 52.2975 67.7009 52.2808 66.6286 52.5342L66.5065 52.5545C65.6551 52.7128 64.8676 53.1133 64.2388 53.7077C63.61 54.3022 63.1667 55.0653 62.9622 55.9053C62.9146 56.6604 63.036 57.4166 63.3176 58.1191C63.5991 58.8216 64.0337 59.4528 64.5899 59.9669C66.5607 62.0187 68.9333 63.6442 71.5601 64.7422C74.1869 65.8402 77.0119 66.3873 79.8595 66.3496C81.5621 66.3492 83.2588 66.1508 84.9154 65.7586C82.3071 72.0012 79.6743 79.0805 77.0741 86.8645C71.6967 102.969 66.4943 119.954 66.716 135.42C66.7235 135.737 66.856 136.038 67.0847 136.257C67.3133 136.477 67.6196 136.597 67.9368 136.592H67.9551C68.1362 136.543 68.1443 136.241 68.1362 135.577C67.9124 120.486 74.0365 103.517 79.3427 87.6118C81.9368 79.8096 84.5818 72.7018 87.1962 66.4552C90.6894 71.1138 94.5476 75.4883 98.7343 79.5374C99.9226 80.7559 101.153 81.9987 102.433 83.339C108.608 89.7746 113.709 97.9505 118.209 105.164L119.369 107.022C123.845 114.182 124.92 115.574 126.62 122.184C126.785 122.819 127.416 123.784 128.045 123.621C128.692 123.461 128.696 122.829 128.529 122.184C126.755 115.275 125.975 113.066 121.392 105.747ZM80.7201 46.5678C80.8294 45.979 81.1663 45.4567 81.6581 45.1138C85.1657 44.1471 87.6743 48.4848 88.6001 50.4161C90.8259 55.0707 88.5716 58.8966 86.8625 61.7133V61.7032C85.1107 58.9596 79.7903 50.607 80.7201 46.5678ZM66.3254 58.3463C65.5441 57.4954 65.2043 56.8273 65.2939 56.3155C65.412 55.9683 65.6182 55.6574 65.8924 55.4133C66.1665 55.1692 66.4994 55.0001 66.8585 54.9224L66.9826 54.9021C67.4066 54.8184 67.8365 54.7682 68.2684 54.7518C68.5898 54.7539 68.9091 54.8025 69.2165 54.896C72.5553 55.8241 82.9276 61.7011 83.8534 62.9704C83.9917 63.2019 84.0873 63.3643 84.1525 63.4821C80.9894 64.2335 77.6852 64.1548 74.5616 63.2538C71.438 62.3527 68.6013 60.66 66.3274 58.3402L66.3254 58.3463Z" fill="black"/>
</svg>
