<svg width="14" height="14" viewBox="0 0 14 14" fill="none" xmlns="http://www.w3.org/2000/svg">
<path d="M12.5009 0.812816L7.37437 5.93934L2.24784 0.812816C1.95495 0.519923 1.48008 0.519923 1.18718 0.812816C0.894291 1.10571 0.894291 1.58058 1.18718 1.87348L6.31371 7L1.18718 12.1265C0.894291 12.4194 0.894291 12.8943 1.18718 13.1872C1.48008 13.4801 1.95495 13.4801 2.24784 13.1872L7.37437 8.06066L12.5009 13.1872C12.7938 13.4801 13.2687 13.4801 13.5616 13.1872C13.8544 12.8943 13.8544 12.4194 13.5616 12.1265L8.43503 7L13.5616 1.87348C13.8544 1.58058 13.8544 1.10571 13.5616 0.812816C13.2687 0.519923 12.7938 0.519923 12.5009 0.812816Z" fill="#567343"/>
</svg>
