<svg xmlns="http://www.w3.org/2000/svg" width="20" height="18" viewBox="0 0 20 18" fill="none">
  <path fill-rule="evenodd" clip-rule="evenodd" d="M19.7401 11.7401L19.8801 12.4301C20.0326 13.0196 19.9082 13.6464 19.5423 14.133C19.1764 14.6196 18.6087 14.913 18.0001 14.9301H14.1901C14.191 16.5487 12.9078 17.8762 11.2901 17.9301H3.00011C2.08464 17.9149 1.22623 17.4825 0.669114 16.756C0.112001 16.0294 -0.0828134 15.0882 0.140105 14.2001L0.350105 13.2001C0.59429 11.8226 1.78124 10.8118 3.18011 10.7901H11.1201C11.4745 10.3666 11.9979 10.1214 12.5501 10.1201H17.8401C18.7741 10.1499 19.563 10.8225 19.7401 11.7401ZM17.9801 13.4201C18.1021 13.4156 18.2157 13.3569 18.2901 13.2601C18.4209 13.1281 18.4868 12.9452 18.4701 12.7601L18.3301 12.0701C18.303 11.8466 18.1242 11.6719 17.9001 11.6501H12.6101C12.495 11.6509 12.3872 11.7066 12.3201 11.8001C12.0333 12.1304 11.6175 12.3201 11.1801 12.3201H3.2401C2.55552 12.3368 1.98189 12.8429 1.8801 13.5201L1.6701 14.5201C1.56754 15.0126 1.68837 15.5253 2.0001 15.9201C2.2436 16.2272 2.60854 16.4133 3.0001 16.4301H11.2601C12.0649 16.3767 12.6834 15.6964 12.6601 14.8901C12.6764 14.0734 13.3433 13.42 14.1601 13.4201H17.9801Z" />
  <path fill-rule="evenodd" clip-rule="evenodd" d="M11.1001 5.00031C11.1001 7.20945 9.30924 9.00031 7.1001 9.00031C4.89096 9.00031 3.1001 7.20945 3.1001 5.00031V3.43031C3.1001 1.57464 4.60442 0.0703125 6.4601 0.0703125H7.7701C9.61405 0.086777 11.1002 1.58629 11.1001 3.43031V5.00031ZM6.4601 1.57031C5.43285 1.57031 4.6001 2.40306 4.6001 3.43031L4.6301 5.00031C4.78969 6.25949 5.86085 7.20345 7.1301 7.20345C8.39934 7.20345 9.47051 6.25949 9.6301 5.00031V3.43031C9.6301 2.40306 8.79735 1.57031 7.7701 1.57031H6.4601Z" />
  <path fill-rule="evenodd" clip-rule="evenodd" d="M18.6802 5.25008C18.6802 6.90693 17.337 8.25008 15.6802 8.25008C14.0233 8.25008 12.6802 6.90693 12.6802 5.25008V4.10008C12.68 2.72379 13.7841 1.60192 15.1602 1.58008H16.1602C17.5519 1.58008 18.6802 2.70832 18.6802 4.10008V5.25008ZM15.1802 3.10008C14.6279 3.10008 14.1802 3.54779 14.1802 4.10008V5.25008C14.1802 6.07851 14.8517 6.75008 15.6802 6.75008C16.5086 6.75008 17.1802 6.07851 17.1802 5.25008V4.10008C17.1802 3.54779 16.7325 3.10008 16.1802 3.10008H15.1802Z" />
</svg>