<svg width="35" height="35" viewBox="0 0 35 35" fill="none" xmlns="http://www.w3.org/2000/svg">
<path d="M20.9268 2.91699H14.0727C12.556 2.91699 11.3164 4.14199 11.3164 5.65866V7.02949C11.3164 8.54616 12.5414 9.77116 14.0581 9.77116H20.9268C22.4435 9.77116 23.6685 8.54616 23.6685 7.02949V5.65866C23.6831 4.14199 22.4435 2.91699 20.9268 2.91699Z" fill="#5D5FEF"/>
<path d="M25.1406 7.02956C25.1406 9.34831 23.2448 11.2441 20.926 11.2441H14.0719C11.7531 11.2441 9.85729 9.34831 9.85729 7.02956C9.85729 6.2129 8.98229 5.70248 8.25312 6.08165C6.19687 7.1754 4.79688 9.34831 4.79688 11.8421V25.565C4.79688 29.1525 7.72813 32.0837 11.3156 32.0837H23.6823C27.2698 32.0837 30.201 29.1525 30.201 25.565V11.8421C30.201 9.34831 28.801 7.1754 26.7448 6.08165C26.0156 5.70248 25.1406 6.2129 25.1406 7.02956ZM18.0531 24.7192H11.6656C11.0677 24.7192 10.5719 24.2233 10.5719 23.6254C10.5719 23.0275 11.0677 22.5316 11.6656 22.5316H18.0531C18.651 22.5316 19.1469 23.0275 19.1469 23.6254C19.1469 24.2233 18.651 24.7192 18.0531 24.7192ZM21.874 18.8858H11.6656C11.0677 18.8858 10.5719 18.39 10.5719 17.7921C10.5719 17.1941 11.0677 16.6983 11.6656 16.6983H21.874C22.4719 16.6983 22.9677 17.1941 22.9677 17.7921C22.9677 18.39 22.4719 18.8858 21.874 18.8858Z" fill="#5D5FEF"/>
</svg>
