<svg width="30" height="30" viewBox="0 0 30 30" fill="none" xmlns="http://www.w3.org/2000/svg">
<path d="M16.1665 15.008L23.762 7.43822C24.0793 7.11791 24.0793 6.599 23.762 6.27868C23.4503 5.95264 22.9355 5.94285 22.6118 6.2568L15.0163 13.8266L7.51839 6.2568C7.36467 6.09288 7.15078 6 6.92702 6C6.70327 6 6.48938 6.09288 6.33566 6.2568C6.0543 6.56628 6.0543 7.04123 6.33566 7.35071L13.8335 14.9096L6.238 22.4685C5.92067 22.7888 5.92067 23.3077 6.238 23.628C6.38907 23.784 6.59685 23.871 6.81309 23.8687C7.03351 23.8867 7.25202 23.8159 7.42074 23.6718L15.0163 16.102L22.6118 23.7593C22.7629 23.9153 22.9707 24.0022 23.1869 24C23.4029 24.001 23.6102 23.9142 23.762 23.7593C24.0793 23.439 24.0793 22.9201 23.762 22.5998L16.1665 15.008Z" fill="#567343"/>
</svg>
