<svg xmlns="http://www.w3.org/2000/svg" width="24" height="24" viewBox="0 0 24 24" fill="none">
<path d="M17.5009 5.81282L12.3744 10.9393L7.24784 5.81282C6.95495 5.51992 6.48008 5.51992 6.18718 5.81282C5.89429 6.10571 5.89429 6.58058 6.18718 6.87348L11.3137 12L6.18718 17.1265C5.89429 17.4194 5.89429 17.8943 6.18718 18.1872C6.48008 18.4801 6.95495 18.4801 7.24784 18.1872L12.3744 13.0607L17.5009 18.1872C17.7938 18.4801 18.2687 18.4801 18.5616 18.1872C18.8544 17.8943 18.8544 17.4194 18.5616 17.1265L13.435 12L18.5616 6.87348C18.8544 6.58058 18.8544 6.10571 18.5616 5.81282C18.2687 5.51992 17.7938 5.51992 17.5009 5.81282Z" fill="#059691"/>
</svg>