<svg width="31" height="30" viewBox="0 0 31 30" fill="none"
     xmlns="http://www.w3.org/2000/svg">
  <path fill-rule="evenodd" clip-rule="evenodd"
        d="M12.8811 17.0098C13.7975 17.0098 14.6714 17.3967 15.2874 18.0752C16.5837 19.5292 16.5944 21.721 15.3124 23.1877L12.2999 26.4252C11.8401 26.9345 11.186 27.2252 10.4999 27.2252C9.8137 27.2252 9.15966 26.9345 8.69986 26.4252L5.68736 23.1877C4.40369 21.7252 4.40369 19.5376 5.68736 18.0752C6.30336 17.3967 7.17719 17.0098 8.09361 17.0098C9.00385 17.0098 9.87207 17.3915 10.4874 18.0615C11.1026 17.3915 11.9709 17.0098 12.8811 17.0098ZM10.8874 25.1377L13.8999 21.9127C14.5161 21.1539 14.5109 20.0655 13.8874 19.3127C13.638 19.0149 13.2695 18.8429 12.8811 18.8429C12.4927 18.8429 12.1242 19.0149 11.8749 19.3127L11.1624 20.1127C10.9862 20.3145 10.7303 20.4288 10.4624 20.4252C10.1952 20.4255 9.94049 20.3118 9.76236 20.1127L9.04986 19.3127C8.81425 18.993 8.44074 18.8043 8.04361 18.8043C7.64647 18.8043 7.27297 18.993 7.03736 19.3127C6.41254 20.0667 6.41254 21.1586 7.03736 21.9127L10.0374 25.1377C10.1468 25.2582 10.2997 25.3301 10.4624 25.3377C10.6257 25.333 10.7797 25.2605 10.8874 25.1377Z"
        fill="#5D5FEF"/>
  <path fill-rule="evenodd" clip-rule="evenodd"
        d="M17.2878 3.025L26.0378 11.775C26.2271 11.9674 26.3269 12.2305 26.3128 12.5V21.25C26.3128 24.5292 23.6545 27.1875 20.3753 27.1875H16.7503C16.2326 27.1875 15.8128 26.7678 15.8128 26.25C15.8128 25.7322 16.2326 25.3125 16.7503 25.3125H20.3753C22.6161 25.3056 24.431 23.4908 24.4378 21.25V13.4375H19.1253C17.2269 13.4375 15.6878 11.8985 15.6878 10V4.6625H12.8753C11.7935 4.66248 10.7564 5.09392 9.99383 5.8612C9.23124 6.62849 8.80617 7.66823 8.81283 8.75V15C8.81283 15.5178 8.3931 15.9375 7.87533 15.9375C7.35756 15.9375 6.93783 15.5178 6.93783 15V8.75C6.92114 7.16448 7.53932 5.63814 8.65463 4.51109C9.76994 3.38404 11.2897 2.74991 12.8753 2.75H16.6253C16.8739 2.75022 17.1122 2.84913 17.2878 3.025ZM17.5628 5.9625V10C17.5765 10.8532 18.2721 11.5376 19.1253 11.5375H23.1378L17.5628 5.9625Z"
        fill="#5D5FEF"/>
</svg>
