<svg width="18" height="18" viewBox="0 0 18 18" fill="none" xmlns="http://www.w3.org/2000/svg">
<path d="M10.1665 9.00805L17.762 1.43822C18.0793 1.11791 18.0793 0.598995 17.762 0.278681C17.4503 -0.0473594 16.9355 -0.0571515 16.6118 0.256802L9.01628 7.82663L1.51839 0.256802C1.36467 0.0928811 1.15078 0 0.927025 0C0.703266 0 0.489378 0.0928811 0.335658 0.256802C0.0543006 0.566276 0.0543006 1.04123 0.335658 1.35071L7.83354 8.9096L0.238001 16.4685C-0.0793336 16.7888 -0.0793336 17.3077 0.238001 17.628C0.389074 17.784 0.596845 17.871 0.813092 17.8687C1.03351 17.8867 1.25202 17.8159 1.42074 17.6718L9.01628 10.102L16.6118 17.7593C16.7629 17.9153 16.9707 18.0022 17.1869 18C17.4029 18.001 17.6102 17.9142 17.762 17.7593C18.0793 17.439 18.0793 16.9201 17.762 16.5998L10.1665 9.00805Z" fill="white"/>
</svg>
