<svg width="16" height="20" viewBox="0 0 16 20" fill="none" xmlns="http://www.w3.org/2000/svg">
<path d="M14.79 4.99963C14.3537 4.99963 14 5.35333 14 5.78963V14.6296C14 16.4908 12.4912 17.9996 10.63 17.9996H4.95C3.0888 17.9996 1.58 16.4908 1.58 14.6296V5.78963C1.58 5.35333 1.22631 4.99963 0.79 4.99963C0.353695 4.99963 1.30029e-08 5.35333 0 5.78963V14.6296C0.0274201 17.3715 2.25799 19.5798 5 19.5796H10.68C13.4025 19.5525 15.6029 17.3521 15.63 14.6296V5.78963C15.6304 5.57115 15.5404 5.36225 15.3812 5.21257C15.2221 5.06289 15.008 4.9858 14.79 4.99963Z" fill="#E11D48"/>
<path fill-rule="evenodd" clip-rule="evenodd" d="M14.79 3.58H0.79C0.353695 3.58 0 3.22631 0 2.79C0 2.35369 0.353695 2 0.79 2H3.44L4.62 0.72C5.07107 0.261411 5.68675 0.00217586 6.33 1.83388e-10H9.25C9.88387 -7.84652e-06 10.4918 0.25179 10.94 0.7L12.14 2H14.79C15.2263 2 15.58 2.35369 15.58 2.79C15.58 3.22631 15.2263 3.58 14.79 3.58ZM9.24961 1.58005H6.32961C6.12969 1.58012 5.93705 1.65504 5.78961 1.79005L5.59961 1.99005H9.97961L9.78961 1.79005C9.64325 1.65332 9.44989 1.57812 9.24961 1.58005Z" fill="#E11D48"/>
<path d="M4.04004 6.79004V9.79004C4.04004 10.2043 4.37583 10.54 4.79004 10.54C5.20425 10.54 5.54004 10.2043 5.54004 9.79004V6.79004C5.54004 6.37583 5.20425 6.04004 4.79004 6.04004C4.37583 6.04004 4.04004 6.37583 4.04004 6.79004Z" fill="#E11D48"/>
<path d="M7.04004 6.79004V14.79C7.04004 15.2043 7.37583 15.54 7.79004 15.54C8.20425 15.54 8.54004 15.2043 8.54004 14.79V6.79004C8.54004 6.37583 8.20425 6.04004 7.79004 6.04004C7.37583 6.04004 7.04004 6.37583 7.04004 6.79004Z" fill="#E11D48"/>
<path d="M10.04 6.79004V9.79004C10.04 10.2043 10.3758 10.54 10.79 10.54C11.2043 10.54 11.54 10.2043 11.54 9.79004V6.79004C11.54 6.37583 11.2043 6.04004 10.79 6.04004C10.3758 6.04004 10.04 6.37583 10.04 6.79004Z" fill="#E11D48"/>
</svg>
