<svg width="24" height="24" viewBox="0 0 24 24" fill="none" xmlns="http://www.w3.org/2000/svg">
<path fill-rule="evenodd" clip-rule="evenodd" d="M20.3026 14.7618L20.9885 19.5265C21.038 19.8934 20.9265 20.2638 20.6826 20.5423C20.4387 20.8208 20.0862 20.9802 19.7161 20.9794H19.5265L14.7618 20.2936C14.1159 20.2046 13.5169 19.9066 13.0562 19.4453L4.2666 10.6467C2.55664 8.87627 2.58109 6.06204 4.32157 4.32157C6.06204 2.58109 8.87627 2.55664 10.6467 4.2666L19.4544 13.0562C19.9157 13.5169 20.2136 14.1159 20.3026 14.7618ZM14.0586 18.4887C14.3082 18.7284 14.6214 18.8913 14.961 18.958L19.6626 19.5807L19.0039 14.9151C18.9372 14.5756 18.7743 14.2623 18.5346 14.0127L9.73599 5.22313C9.14316 4.61452 8.32957 4.27124 7.47994 4.27124C6.63031 4.27124 5.81673 4.61452 5.22389 5.22313C4.62927 5.81429 4.29492 6.61815 4.29492 7.45663C4.29492 8.2951 4.62927 9.09896 5.22389 9.69012L14.0586 18.4887Z" fill="#64748B"/>
<path d="M7.903 6.9463C7.63633 6.69781 7.22076 6.70514 6.96302 6.96288C6.70528 7.22063 6.69795 7.63619 6.94644 7.90287L10.7456 11.7021C11.0099 11.966 11.438 11.966 11.7022 11.7021C11.9661 11.4378 11.9661 11.0097 11.7022 10.7455L7.903 6.9463Z" fill="#64748B"/>
</svg>
