<svg width="30.000000" height="30.000000" viewBox="0 0 30 30" fill="none" xmlns="http://www.w3.org/2000/svg" xmlns:xlink="http://www.w3.org/1999/xlink">
	<defs>
		<clipPath id="clip11_51734">
			<rect id="Heart" width="25.374994" height="22.250000" transform="translate(2.500000 3.750000)" fill="white" fill-opacity="0"/>
		</clipPath>
	</defs>
	<g clip-path="url(#clip11_51734)">
		<path id="Vector" d="M15.125 26C14.5 26 13.75 25.75 13.25 25.25C5.125 18.125 5 18 5 17.875L4.875 17.75C3.375 16.25 2.5 14.125 2.5 12L2.5 11.75C2.625 7.25 6.25 3.75 10.75 3.75C12.125 3.75 14 4.5 15.125 6C16.25 4.5 18.25 3.75 19.625 3.75C24.125 3.75 27.625 7.25 27.875 11.75L27.875 12C27.875 14.25 27 16.25 25.5 17.875L25.375 18C25.25 18.125 24.25 19 17.125 25.375C16.5 25.75 15.875 26 15.125 26ZM6.875 17.5C7.375 18 9.875 19.75 14.5 23.75C14.875 24.125 15.375 24.125 15.75 23.75C20.5 19.5 23.25 17.125 23.875 16.625L24 16.5C25.25 15.25 25.875 13.625 25.875 12L25.875 11.75C25.75 8.25 23 5.625 19.5 5.625C18.625 5.625 16.875 6.25 16.25 7.625C16 8.125 15.5 8.375 15 8.375C14.5 8.375 14 8.125 13.75 7.625C13.125 6.375 11.5 5.625 10.5 5.625C7.125 5.625 4.25 8.375 4.125 11.75L4.125 12.125C4.125 13.75 4.875 15.375 6 16.5L6.875 17.5Z" fill-opacity="1.000000" fill-rule="nonzero"/>
	</g>
</svg>
