<svg width="30" height="30" viewBox="0 0 30 30" fill="none" xmlns="http://www.w3.org/2000/svg">
<path d="M27.5923 11.7668C27.465 7.43777 24.0272 4 19.6981 4C18.2976 4 16.133 5.0186 15.2418 6.67382C15.1144 7.05579 14.6052 7.05579 14.4778 6.67382C13.4592 5.14592 11.422 4.12732 9.89413 4.12732C5.69242 4.12732 2.12732 7.56509 2 11.7668V11.8941V12.0215C2 14.186 2.89127 16.2232 4.41917 17.7511C4.41917 17.7511 4.41917 17.7511 4.41917 17.8784C4.54649 18.0057 10.6581 23.3534 13.4592 25.7725C14.2232 26.4092 15.3691 26.4092 16.133 25.7725C18.9342 23.3534 24.9185 18.0057 25.1731 17.8784C25.1731 17.8784 25.1731 17.8784 25.1731 17.7511C26.701 16.3505 27.5923 14.3133 27.5923 12.0215V11.7668Z" fill="#567343"/>
</svg>
