<svg width="30.000000" height="30.000000" viewBox="0 0 30 30" fill="none" xmlns="http://www.w3.org/2000/svg" xmlns:xlink="http://www.w3.org/1999/xlink">
	<defs/>
	<g clip-path="url(#clip11_51734)">
		<path id="Vector" d="M15.125 26C14.5 26 13.75 25.75 13.25 25.25C5.125 18.125 5 18 5 17.875L4.875 17.75C3.375 16.25 2.5 14.125 2.5 12L2.5 11.75C2.625 7.25 6.25 3.75 10.75 3.75C12.125 3.75 14 4.5 15.125 6C16.25 4.5 18.25 3.75 19.625 3.75C24.125 3.75 27.625 7.25 27.875 11.75L27.875 12C27.875 14.25 27 16.25 25.5 17.875L25.375 18C25.25 18.125 24.25 19 17.125 25.375C16.5 25.75 15.875 26 15.125 26ZM6.875 17.5C7.375 18 9.875 19.75 14.5 23.75C14.875 24.125 15.375 24.125 15.75 23.75C20.5 19.5 23.25 17.125 23.875 16.625L24 16.5C25.25 15.25 25.875 13.625 25.875 12L25.875 11.75C25.75 8.25 23 5.625 19.5 5.625C18.625 5.625 16.875 6.25 16.25 7.625C16 8.125 15.5 8.375 15 8.375C14.5 8.375 14 8.125 13.75 7.625C13.125 6.375 11.5 5.625 10.5 5.625C7.125 5.625 4.25 8.375 4.125 11.75L4.125 12.125C4.125 13.75 4.875 15.375 6 16.5L6.875 17.5Z" fill="#E11D48" fill-opacity="1.000000" fill-rule="nonzero"/>
	</g>
	<path id="Heart" d="M27.5918 11.7668C27.4648 7.43774 24.0273 4 19.6982 4C18.2979 4 16.1328 5.01862 15.2422 6.67383C15.1143 7.05579 14.6055 7.05579 14.4775 6.67383C13.459 5.14594 11.4219 4.12732 9.89453 4.12732C5.69238 4.12732 2.12695 7.56506 2 11.7668L2 11.8942L2 12.0215C2 14.186 2.8916 16.2231 4.41895 17.7511C4.41895 17.7511 4.41895 17.7511 4.41895 17.8784C4.54688 18.0057 10.6582 23.3534 13.459 25.7725C14.2236 26.4092 15.3691 26.4092 16.1328 25.7725C18.9346 23.3534 24.918 18.0057 25.1729 17.8784C25.1729 17.8784 25.1729 17.8784 25.1729 17.7511C26.7012 16.3505 27.5918 14.3133 27.5918 12.0215L27.5918 11.7668Z" fill="#E11D48" fill-opacity="1.000000" fill-rule="nonzero"/>
</svg>
