<svg width="16" height="20" viewBox="0 0 16 20" fill="none" xmlns="http://www.w3.org/2000/svg">
<path fill-rule="evenodd" clip-rule="evenodd" d="M15.6166 7.44016L8.77823 0.44016C8.63429 0.313885 8.44999 0.246253 8.26047 0.25016H5.32975C2.76699 0.25016 0.689453 2.37681 0.689453 5.00016V15.0002C0.689453 17.6235 2.76699 19.7502 5.32975 19.7502H11.1912C13.754 19.7502 15.8315 17.6235 15.8315 15.0002V8.00016C15.8348 7.79178 15.7576 7.5905 15.6166 7.44016ZM8.99315 2.79016L13.3501 7.25016H10.2143C9.53987 7.25016 8.99315 6.69052 8.99315 6.00016V2.79016ZM5.33022 18.2501H11.1916C12.9429 18.2446 14.3612 16.7928 14.3666 15.0001V8.75012H10.2147C8.73103 8.75012 7.52825 7.51891 7.52825 6.00012V1.75012H5.33022C3.57897 1.75561 2.16064 3.20748 2.15527 5.00012V15.0001C2.16064 16.7928 3.57897 18.2446 5.33022 18.2501Z" fill="#64748B"/>
</svg>
