<svg width="30" height="30" viewBox="0 0 30 30" fill="none" xmlns="http://www.w3.org/2000/svg">
<path fill-rule="evenodd" clip-rule="evenodd" d="M3.96794 4H5.25852L5.32305 4.01291C7.112 4.04761 8.67512 5.23037 9.1948 6.94253L9.45291 7.83303H22.9137C24.1024 7.83844 25.231 8.35576 26.0111 9.25267C26.7889 10.1553 27.1331 11.3529 26.9532 12.5308L26.1789 17.8738C25.921 19.9218 24.1905 21.4649 22.1264 21.4874H14.5378C12.7249 21.4807 11.1284 20.2924 10.6015 18.5578L7.33636 7.5491C7.08632 6.60463 6.2355 5.94405 5.25852 5.93587H3.96794C3.43336 5.93587 3 5.50251 3 4.96794C3 4.43336 3.43336 4 3.96794 4ZM12.4605 17.9383C12.7344 18.8572 13.5794 19.487 14.5383 19.487H22.1269C23.1951 19.4754 24.0997 18.6961 24.2693 17.6414L25.0437 12.2855C25.1491 11.6621 24.9772 11.0237 24.5729 10.5375C24.1686 10.0514 23.5722 9.76594 22.94 9.75598H10.0342L12.4605 17.9383Z"/>
<path d="M14.2408 23.0361C13.528 23.0361 12.9502 23.6139 12.9502 24.3267C12.9502 25.0394 13.528 25.6173 14.2408 25.6173C14.9535 25.6173 15.5314 25.0394 15.5314 24.3267C15.5314 23.6139 14.9535 23.0361 14.2408 23.0361Z"/>
<path d="M21.9839 23.0361C21.2712 23.0361 20.6934 23.6139 20.6934 24.3267C20.6934 25.0395 21.2712 25.6173 21.9839 25.6173C22.6967 25.6173 23.2745 25.0395 23.2745 24.3267C23.2745 23.6139 22.6967 23.0361 21.9839 23.0361Z"/>
</svg>
