<svg width="30" height="30" viewBox="0 0 30 30" fill="none" xmlns="http://www.w3.org/2000/svg">
<path fill-rule="evenodd" clip-rule="evenodd" d="M24.1736 18.0336L24.9336 23.3136C24.9884 23.7201 24.8648 24.1305 24.5946 24.4391C24.3243 24.7477 23.9338 24.9244 23.5236 24.9236H23.3136L18.0336 24.1636C17.3179 24.0649 16.6541 23.7348 16.1436 23.2236L6.40356 13.4736C4.5087 11.5117 4.5358 8.39314 6.46447 6.46447C8.39314 4.5358 11.5117 4.5087 13.4736 6.40356L23.2336 16.1436C23.7448 16.6541 24.0749 17.3179 24.1736 18.0336ZM17.254 22.1635C17.5306 22.4291 17.8777 22.6096 18.254 22.6835L23.464 23.3735L22.734 18.2035C22.6601 17.8272 22.4796 17.4801 22.214 17.2035L12.464 7.46351C11.807 6.78909 10.9055 6.40869 9.96399 6.40869C9.02249 6.40869 8.12093 6.78909 7.46399 7.46351C6.80507 8.11859 6.43457 9.00937 6.43457 9.93851C6.43457 10.8677 6.80507 11.7584 7.46399 12.4135L17.254 22.1635Z" fill="black"/>
<path d="M10.4332 9.37317C10.1377 9.09781 9.67716 9.10593 9.39155 9.39155C9.10593 9.67716 9.09781 10.1377 9.37317 10.4332L13.5832 14.6432C13.876 14.9356 14.3504 14.9356 14.6432 14.6432C14.9356 14.3503 14.9356 13.876 14.6432 13.5832L10.4332 9.37317Z" fill="black"/>
</svg>
