<svg width="108" height="60" viewBox="0 0 108 60" fill="none" xmlns="http://www.w3.org/2000/svg">
<mask id="mask0_903_897" style="mask-type:luminance" maskUnits="userSpaceOnUse" x="0" y="0" width="16" height="33">
<path d="M0 0H15.4774V32.0934H0V0Z" fill="white"/>
</mask>
<g mask="url(#mask0_903_897)">
<path fill-rule="evenodd" clip-rule="evenodd" d="M0.790156 21.088C-1.72605 12.7482 2.83984 3.7274 10.9886 0.940603C19.1373 -1.84688 27.782 2.65461 30.2982 10.9945C32.8144 19.335 28.2478 28.3551 20.0998 31.1426C11.9511 33.9301 3.30567 29.4286 0.790156 21.088Z" fill="#EE8D13"/>
</g>
<mask id="mask1_903_897" style="mask-type:luminance" maskUnits="userSpaceOnUse" x="0" y="1" width="16" height="30">
<path d="M0.876953 1.22768H15.4775V30.6905H0.876953V1.22768Z" fill="white"/>
</mask>
<g mask="url(#mask1_903_897)">
<path fill-rule="evenodd" clip-rule="evenodd" d="M1.5085 20.6969C-0.811777 13.0051 3.48625 4.65638 11.1088 2.04907C18.7321 -0.558249 26.7925 3.56372 29.1127 11.2548C31.433 18.9466 27.1343 27.2954 19.5117 29.9027C11.8891 32.51 3.82878 28.3887 1.5085 20.6969Z" fill="#FAF4A7"/>
</g>
<mask id="mask2_903_897" style="mask-type:luminance" maskUnits="userSpaceOnUse" x="1" y="1" width="15" height="30">
<path d="M1.22754 1.57832H15.4773V30.1643H1.22754V1.57832Z" fill="white"/>
</mask>
<g mask="url(#mask2_903_897)">
<path d="M17.9591 8.20833C17.9591 8.20833 19.8375 4.49876 21.2932 4.14116C22.749 3.78493 26.8751 4.90088 26.3668 8.01994C25.9968 9.91274 22.7072 11.3007 22.7072 11.3007C22.7072 11.3007 26.6168 8.84063 27.1854 9.81957C27.7554 10.7985 29.7694 13.0893 28.4411 14.7965C27.1135 16.5043 25.9221 16.0495 25.9221 16.0495C25.9221 16.0495 31.2628 16.2002 27.9807 22.0868C25.5091 26.5191 22.3325 22.4437 22.3325 22.4437C22.3325 22.4437 24.9268 24.8455 23.9848 26.2629C23.0436 27.6803 21.6871 27.1124 19.9156 24.514C19.9156 24.514 22.2331 28.2283 18.305 30.0191C15.1764 30.8048 14.4023 26.8329 14.4023 26.8329C14.4023 26.8329 13.746 30.4212 11.1606 29.8136C8.57522 29.2066 2.966 24.9415 3.52775 23.3967C4.09017 21.8532 4.84373 21.2435 4.84373 21.2435C4.84373 21.2435 1.66166 22.3629 1.31845 18.7383C1.05813 15.9823 4.4512 15.4315 4.4512 15.4315C4.4512 15.4315 0.546392 15.1082 1.70756 12.2323C2.86804 9.35579 3.25646 8.43439 4.4512 8.90571C5.64593 9.37703 5.8076 9.29345 5.8076 9.29345C5.8076 9.29345 4.16211 8.33643 4.22376 7.93567C4.2861 7.53492 7.92716 1.42287 11.1606 5.80036C12.3985 7.476 12.828 8.47618 12.828 8.47618C12.828 8.47618 10.8928 4.64878 11.0517 3.65203C11.2113 2.65596 17.6529 0.585045 19.1394 2.19903C19.969 3.09919 19.0387 5.07009 17.9591 8.20833Z" fill="#F9F5E1"/>
</g>
<mask id="mask3_903_897" style="mask-type:luminance" maskUnits="userSpaceOnUse" x="14" y="17" width="2" height="13">
<path d="M14.3809 17.8882H15.4776V29.8136H14.3809V17.8882Z" fill="white"/>
</mask>
<g mask="url(#mask3_903_897)">
<path fill-rule="evenodd" clip-rule="evenodd" d="M14.606 24.4606C14.393 21.4915 14.6334 18.2081 15.311 17.9286C15.9892 17.6491 17.7367 20.9387 18.8136 23.274C20.1933 26.2657 21.2326 29.0059 18.1875 29.6937C14.9958 30.415 14.8438 27.7844 14.606 24.4606Z" fill="#EF8A13"/>
</g>
<path fill-rule="evenodd" clip-rule="evenodd" d="M14.2862 14.5601C13.6546 15.3945 5.86143 9.1489 5.37504 8.09117C4.88797 7.03345 5.54425 6.29291 8.16458 4.42271C10.7842 2.55251 15.172 13.5175 14.2862 14.5601Z" fill="#EF8A13"/>
<path fill-rule="evenodd" clip-rule="evenodd" d="M14.349 17.308C15.0313 17.658 14.5476 27.281 13.3652 28.8497C11.8225 30.896 2.09679 25.9903 4.1725 22.7418C4.74041 21.1922 14.349 17.308 14.349 17.308Z" fill="#EF8A13"/>
<mask id="mask4_903_897" style="mask-type:luminance" maskUnits="userSpaceOnUse" x="11" y="1" width="5" height="14">
<path d="M11.5747 1.57832H15.4775V14.7314H11.5747V1.57832Z" fill="white"/>
</mask>
<g mask="url(#mask4_903_897)">
<path fill-rule="evenodd" clip-rule="evenodd" d="M15.604 14.5855C14.7792 14.1731 11.1635 4.79398 11.7513 3.52937C12.3377 2.26545 16.9399 0.473348 18.6991 2.52577C20.459 4.57819 16.4288 14.9979 15.604 14.5855Z" fill="#EF8A13"/>
</g>
<path fill-rule="evenodd" clip-rule="evenodd" d="M13.8769 16.5688C14.029 17.434 4.44236 21.569 3.28873 21.221C2.1351 20.8737 0.854051 19.0795 1.95973 16.9367C2.89209 15.1288 13.7248 15.7043 13.8769 16.5688Z" fill="#EF8A13"/>
<path fill-rule="evenodd" clip-rule="evenodd" d="M13.7991 15.8042C13.5977 16.4303 2.39706 14.9609 2.00795 13.5969C1.76202 12.7331 2.47242 10.3244 3.88363 9.12558C5.29416 7.92605 14.0005 15.178 13.7991 15.8042Z" fill="#EF8A13"/>
<path d="M5.35254 13.2292C6.50617 13.6354 7.06586 13.8902 7.06038 13.9074C7.06038 13.9074 6.24928 13.7519 5.27856 13.4593C4.31606 13.1696 3.55017 12.8442 3.57072 12.7811C3.59127 12.7174 4.40922 12.8976 5.35254 13.2292Z" fill="#F1AC0E"/>
<path d="M8.31398 8.39662C9.11481 9.32213 9.47515 9.82222 9.46144 9.83387C9.46144 9.83387 8.83462 9.29541 8.13655 8.55898C7.44396 7.8294 6.94045 7.16627 6.98908 7.12105C7.03841 7.07652 7.65975 7.63964 8.31398 8.39662Z" fill="#F1AC0E"/>
<path d="M10.3389 6.59785C10.8226 7.54528 11.0165 8.04537 11.0007 8.05359C11.0007 8.05359 10.5705 7.47678 10.1286 6.71363C9.69156 5.95664 9.40932 5.2894 9.46755 5.2572C9.52578 5.22569 9.94366 5.82306 10.3389 6.59785Z" fill="#F1AC0E"/>
<path d="M11.0958 11.1562C11.7623 11.9844 12.0542 12.4345 12.0405 12.4462C12.0405 12.4462 11.5013 11.9694 10.9135 11.3124C10.3313 10.6602 9.91885 10.0649 9.96954 10.0218C10.0196 9.9786 10.5512 10.478 11.0958 11.1562Z" fill="#F1AC0E"/>
<path d="M9.31887 14.2745C10.3293 14.6013 10.8198 14.8171 10.8143 14.8342C10.8143 14.8342 10.1026 14.7322 9.25173 14.5054C8.40775 14.2807 7.73708 14.0094 7.75626 13.945C7.77476 13.882 8.49201 14.0074 9.31887 14.2745Z" fill="#F1AC0E"/>
<path d="M10.2321 16.285C11.2933 16.3316 11.8235 16.409 11.8228 16.4275C11.8228 16.4275 11.1097 16.518 10.2294 16.5248C9.35592 16.533 8.63799 16.4488 8.63867 16.3823C8.64004 16.3159 9.36483 16.2467 10.2321 16.285Z" fill="#F1AC0E"/>
<path d="M6.42257 11.1349C7.28026 11.7617 7.67896 12.12 7.66869 12.1351C7.66869 12.1351 7.02474 11.8151 6.28693 11.3329C5.55529 10.8554 5.00383 10.3875 5.04082 10.3327C5.0785 10.2779 5.72108 10.6218 6.42257 11.1349Z" fill="#F1AC0E"/>
<path d="M10.2439 12.9072C11.1016 13.5347 11.5003 13.8923 11.49 13.9073C11.49 13.9073 10.8461 13.5874 10.1083 13.1058C9.37665 12.6277 8.82449 12.1598 8.86217 12.1057C8.89985 12.0502 9.54174 12.3941 10.2439 12.9072Z" fill="#F1AC0E"/>
<path d="M11.2612 9.45786C11.8538 10.3409 12.1059 10.8143 12.0915 10.8245C12.0915 10.8245 11.5955 10.3032 11.0666 9.5983C10.5412 8.89886 10.1822 8.26998 10.2363 8.23162C10.2898 8.19257 10.7769 8.73582 11.2612 9.45786Z" fill="#F1AC0E"/>
<path d="M13.1551 5.1132C13.4846 6.12503 13.5976 6.64909 13.5805 6.65457C13.5805 6.65457 13.2462 6.01816 12.9297 5.19472C12.6159 4.37814 12.4419 3.67527 12.5043 3.65267C12.5659 3.63006 12.8858 4.28566 13.1551 5.1132Z" fill="#F1AC0E"/>
<path d="M11.4115 22.4966C12.1095 21.484 12.5041 21.0072 12.5192 21.0175C12.5192 21.0175 12.1527 21.7629 11.6122 22.6281C11.0765 23.4858 10.5593 24.1441 10.5038 24.1071C10.4483 24.0708 10.8401 23.3248 11.4115 22.4966Z" fill="#F1AC0E"/>
<path d="M9.91908 26.1047C10.5041 25.0223 10.8446 24.5058 10.861 24.514C10.861 24.514 10.5767 25.2949 10.1328 26.2136C9.6937 27.1247 9.47722 28.0002 9.13675 27.7673C9.08263 27.7296 9.4416 26.9905 9.91908 26.1047Z" fill="#F1AC0E"/>
<path d="M12.8174 25.8205C13.136 24.6313 13.3484 24.0496 13.3655 24.0544C13.3655 24.0544 13.2703 24.8799 13.0504 25.8767C12.8332 26.8645 12.825 27.7667 12.44 27.6188C12.3783 27.5955 12.5564 26.7926 12.8174 25.8205Z" fill="#F1AC0E"/>
<path d="M7.08273 22.295C8.06579 21.5559 8.59054 21.2291 8.6015 21.2435C8.6015 21.2435 8.01852 21.834 7.23208 22.4834C6.45248 23.1267 5.89074 23.8323 5.67906 23.4774C5.64481 23.4213 6.27917 22.8992 7.08273 22.295Z" fill="#F1AC0E"/>
<path d="M7.42941 24.1235C8.31518 23.272 8.79746 22.8835 8.80979 22.8966C8.80979 22.8966 8.30217 23.5535 7.5993 24.2927C6.90329 25.0257 6.4306 25.7937 6.17782 25.4676C6.1374 25.4155 6.70394 24.8209 7.42941 24.1235Z" fill="#F1AC0E"/>
<path d="M11.0733 20.7427C11.9598 19.8905 12.4421 19.5027 12.4544 19.5157C12.4544 19.5157 11.9461 20.1727 11.2439 20.9119C10.5472 21.6449 10.0745 22.4128 9.82242 22.0868C9.78131 22.034 10.3479 21.4394 11.0733 20.7427Z" fill="#F1AC0E"/>
<path d="M5.66316 16.214C6.88667 16.1002 7.50459 16.0968 7.50664 16.1146C7.50664 16.1146 6.70102 16.3119 5.69125 16.4524C4.69107 16.5921 3.84435 16.8983 3.84914 16.4859C3.84983 16.4195 4.66299 16.3071 5.66316 16.214Z" fill="#F1AC0E"/>
<path d="M10.6274 17.4902C11.8036 17.1333 12.4085 17.0058 12.4133 17.0237C12.4133 17.0237 11.6638 17.3785 10.7027 17.7183C9.75117 18.056 8.98254 18.526 8.90444 18.1204C8.89211 18.0554 9.66622 17.7827 10.6274 17.4902Z" fill="#F1AC0E"/>
<path d="M5.3173 19.733C6.50655 19.4234 7.11625 19.3206 7.12036 19.3384C7.12036 19.3384 6.35721 19.6625 5.38375 19.9632C4.41851 20.2619 3.63207 20.7003 3.57041 20.292C3.56014 20.2263 4.34452 19.9858 5.3173 19.733Z" fill="#F1AC0E"/>
<path d="M4.6712 18.2485C5.87827 18.0156 6.49345 17.9525 6.49619 17.9703C6.49619 17.9703 5.71385 18.2451 4.72327 18.4835C3.7409 18.7198 2.92774 19.1069 2.89212 18.6958C2.88664 18.6294 3.68473 18.4389 4.6712 18.2485Z" fill="#F1AC0E"/>
<path d="M6.65524 14.1499C7.83628 14.4657 8.41446 14.6767 8.41035 14.6945C8.41035 14.6945 7.58966 14.6006 6.59976 14.3842C5.61739 14.1691 4.82889 13.9039 4.84396 13.8396C4.85972 13.7745 5.68932 13.8909 6.65524 14.1499Z" fill="#EC6D18"/>
<path d="M7.75557 8.93923C8.59476 9.83048 8.97565 10.3141 8.96263 10.3271C8.96263 10.3271 8.31389 9.81541 7.58499 9.10912C6.86157 8.40968 6.33066 7.76847 6.37793 7.72188C6.42451 7.67462 7.06914 8.21101 7.75557 8.93923Z" fill="#EC6D18"/>
<path d="M9.23652 6.5936C9.75991 7.51911 9.97501 8.01029 9.95926 8.01988C9.95926 8.01988 9.50507 7.46156 9.03169 6.7176C8.56175 5.98048 8.2521 5.32625 8.30896 5.292C8.36582 5.25706 8.80905 5.83593 9.23652 6.5936Z" fill="#EC6D18"/>
<path d="M11.5157 12.355C12.3193 13.0504 12.6872 13.4402 12.6748 13.4546C12.6748 13.4546 12.0597 13.0826 11.3643 12.5414C10.6745 12.005 10.1627 11.4933 10.2045 11.4419C10.2463 11.3898 10.8581 11.7858 11.5157 12.355Z" fill="#EC6D18"/>
<path d="M11.0744 15.0239C12.1123 15.2479 12.622 15.4137 12.6185 15.4315C12.6185 15.4315 11.8999 15.4007 11.0306 15.2603C10.1688 15.1212 9.47483 14.9184 9.48647 14.8527C9.4988 14.7876 10.225 14.841 11.0744 15.0239Z" fill="#EC6D18"/>
<path d="M9.87652 16.9976C10.9219 16.8126 11.4563 16.7736 11.4597 16.7914C11.4597 16.7914 10.7835 17.0346 9.92516 17.2332C9.07432 17.4298 8.3557 17.5045 8.342 17.4394C8.3283 17.3744 9.02157 17.149 9.87652 16.9976Z" fill="#EC6D18"/>
<path d="M5.87256 12.0119C6.75628 12.6017 7.16937 12.9435 7.15978 12.9586C7.15978 12.9586 6.50281 12.6661 5.74583 12.216C4.99432 11.77 4.42299 11.3261 4.45861 11.2699C4.49355 11.2131 5.14983 11.5296 5.87256 12.0119Z" fill="#EC6D18"/>
<path d="M9.76465 13.6203C10.6484 14.2095 11.0615 14.5513 11.0519 14.5664C11.0519 14.5664 10.3949 14.2739 9.63792 13.8238C8.88641 13.3778 8.31508 12.9339 8.3507 12.877C8.38564 12.8209 9.04192 13.1374 9.76465 13.6203Z" fill="#EC6D18"/>
<path d="M14.3121 8.38855C14.4903 9.43736 14.5259 9.97239 14.5081 9.97582C14.5081 9.97582 14.2697 9.29693 14.0779 8.43513C13.886 7.58224 13.8169 6.86087 13.8826 6.84786C13.947 6.83484 14.1676 7.53086 14.3121 8.38855Z" fill="#EC6D18"/>
<path d="M13.2487 20.318C13.7139 19.1794 13.9982 18.6286 14.0153 18.6355C14.0153 18.6355 13.8159 19.4425 13.4727 20.4036C13.1329 21.3565 12.7685 22.1101 12.7062 22.0861C12.6438 22.0628 12.8678 21.2496 13.2487 20.318Z" fill="#EC6D18"/>
<path d="M12.0132 24.7545C12.2803 23.5529 12.468 22.9624 12.4858 22.9665C12.4858 22.9665 12.4249 23.7955 12.2481 24.8004C12.0728 25.7972 12.1029 26.6987 11.7124 26.5672C11.6501 26.5466 11.7933 25.7362 12.0132 24.7545Z" fill="#EC6D18"/>
<path d="M8.57266 24.6825C9.42212 23.7933 9.88727 23.385 9.90029 23.3974C9.90029 23.3974 9.42075 24.0749 8.75009 24.8435C8.08558 25.606 7.64578 26.3931 7.37929 26.078C7.33682 26.028 7.87801 25.4094 8.57266 24.6825Z" fill="#EC6D18"/>
<path d="M11.0186 19.7048C12.0852 19.0931 12.6463 18.8341 12.6552 18.8499C12.6552 18.8499 12.0037 19.3637 11.1433 19.9097C10.2904 20.4522 9.64573 21.0818 9.47926 20.7043C9.45254 20.644 10.1465 20.2049 11.0186 19.7048Z" fill="#EC6D18"/>
<path d="M5.32933 17.1188C6.54667 16.9523 7.16459 16.9235 7.16733 16.9413C7.16733 16.9413 6.37061 17.1722 5.36769 17.3558C4.37436 17.538 3.54134 17.8799 3.52832 17.4675C3.52695 17.401 4.33395 17.2544 5.32933 17.1188Z" fill="#EC6D18"/>
<path d="M8.77579 18.8918C9.9349 18.4849 10.5343 18.3322 10.5405 18.3493C10.5405 18.3493 9.80611 18.7357 8.86073 19.1165C7.92358 19.494 7.17619 19.9968 7.08028 19.5947C7.06589 19.5303 7.82767 19.2248 8.77579 18.8918Z" fill="#EC6D18"/>
<path d="M4.42461 19.1939C5.62003 18.9103 6.23178 18.8206 6.23589 18.8384C6.23589 18.8384 5.46589 19.146 4.48627 19.4262C3.51555 19.7043 2.71951 20.1256 2.66608 19.7159C2.65786 19.6509 3.44704 19.4262 4.42461 19.1939Z" fill="#EC6D18"/>
<mask id="mask5_903_897" style="mask-type:luminance" maskUnits="userSpaceOnUse" x="14" y="14" width="2" height="4">
<path d="M14.0298 14.5561H15.4773V17.8882H14.0298V14.5561Z" fill="white"/>
</mask>
<g mask="url(#mask5_903_897)">
<path d="M15.5198 14.6965C16.3076 14.6965 16.9461 15.3727 16.9461 16.2064C16.9461 17.0408 16.3076 17.7169 15.5198 17.7169C14.7327 17.7169 14.0942 17.0408 14.0942 16.2064C14.0942 15.3727 14.7327 14.6965 15.5198 14.6965Z" fill="#FAF4A7"/>
</g>
<path d="M14.8281 15.2014C14.9918 15.2014 15.1247 15.5377 15.1247 15.9529C15.1247 16.368 14.9918 16.7044 14.8281 16.7044C14.6637 16.7044 14.5308 16.368 14.5308 15.9529C14.5308 15.5377 14.6637 15.2014 14.8281 15.2014Z" fill="#F5F5E9"/>
<mask id="mask6_903_897" style="mask-type:luminance" maskUnits="userSpaceOnUse" x="0" y="0" width="32" height="16">
<path d="M0 0H31.7427V15.9255H0V0Z" fill="white"/>
</mask>
<g mask="url(#mask6_903_897)">
<path fill-rule="evenodd" clip-rule="evenodd" d="M0.838008 21.4922C-1.72615 12.9989 2.92674 3.81233 11.2303 0.974833C19.5338 -1.86403 28.3436 2.72035 30.9078 11.2136C33.4712 19.7069 28.8183 28.8935 20.5148 31.7317C12.2113 34.5699 3.40148 29.9862 0.838008 21.4922Z" fill="#EE8D13"/>
</g>
<mask id="mask7_903_897" style="mask-type:luminance" maskUnits="userSpaceOnUse" x="0" y="1" width="31" height="15">
<path d="M0.876953 1.22768H30.5151V15.9255H0.876953V1.22768Z" fill="white"/>
</mask>
<g mask="url(#mask7_903_897)">
<path fill-rule="evenodd" clip-rule="evenodd" d="M1.57041 21.0942C-0.794397 13.2613 3.58584 4.75911 11.3537 2.10316C19.1215 -0.551428 27.3353 3.6459 29.7001 11.4788C32.0642 19.311 27.684 27.8139 19.9162 30.4692C12.149 33.1245 3.93453 28.9271 1.57041 21.0942Z" fill="#FAF4A7"/>
</g>
<mask id="mask8_903_897" style="mask-type:luminance" maskUnits="userSpaceOnUse" x="1" y="1" width="29" height="15">
<path d="M1.22754 1.57832H29.6381V15.9254H1.22754V1.57832Z" fill="white"/>
</mask>
<g mask="url(#mask8_903_897)">
<path d="M18.3339 8.37616C18.3339 8.37616 20.248 4.59809 21.7318 4.23433C23.215 3.87125 27.4191 5.00775 26.9012 8.18435C26.5245 10.1121 23.1718 11.5254 23.1718 11.5254C23.1718 11.5254 27.1561 9.01943 27.7363 10.0169C28.3166 11.0143 30.369 13.3469 29.0153 15.0856C27.6623 16.8242 26.4484 16.3612 26.4484 16.3612C26.4484 16.3612 31.8912 16.5146 28.546 22.5095C26.0278 27.0233 22.7902 22.8733 22.7902 22.8733C22.7902 22.8733 25.4345 25.3189 24.4748 26.7623C23.515 28.2057 22.1333 27.6275 20.3275 24.9812C20.3275 24.9812 22.6888 28.7641 18.6868 30.5877C15.4978 31.3878 14.7093 27.3426 14.7093 27.3426C14.7093 27.3426 14.0407 30.9966 11.406 30.3787C8.77128 29.7601 3.05588 25.4169 3.6279 23.844C4.2006 22.2711 4.96923 21.6505 4.96923 21.6505C4.96923 21.6505 1.72619 22.7904 1.37681 19.0993C1.11169 16.2933 4.56848 15.7316 4.56848 15.7316C4.56848 15.7316 0.589683 15.4028 1.77277 12.4735C2.95586 9.54487 3.35114 8.60566 4.56848 9.08588C5.7865 9.5661 5.9516 9.48047 5.9516 9.48047C5.9516 9.48047 4.2739 8.50632 4.33761 8.09803C4.40064 7.69042 8.11089 1.46602 11.406 5.92367C12.6672 7.63014 13.1049 8.64881 13.1049 8.64881C13.1049 8.64881 11.1333 4.75086 11.295 3.73561C11.4574 2.72104 18.0216 0.613132 19.5369 2.25589C20.3816 3.17318 19.4341 5.18039 18.3339 8.37616Z" fill="#F9F5E1"/>
</g>
<path fill-rule="evenodd" clip-rule="evenodd" d="M22.6357 12.3473C20.2969 14.0579 17.123 15.2143 17.0251 15.1163C16.9168 15.0094 18.2897 9.84209 19.4789 8.02258C21.2881 5.25496 23.1631 3.04224 25.8143 5.91193C27.8263 8.09109 25.2532 10.4326 22.6357 12.3473Z" fill="#EF8A13"/>
<path fill-rule="evenodd" clip-rule="evenodd" d="M14.5911 14.8444C13.9478 15.6939 6.00602 9.33382 5.51004 8.25623C5.01406 7.17933 5.68267 6.42508 8.35233 4.52063C11.022 2.61618 15.494 13.7826 14.5911 14.8444Z" fill="#EF8A13"/>
<path fill-rule="evenodd" clip-rule="evenodd" d="M15.9344 14.8704C15.0939 14.4505 11.4096 4.89879 12.0077 3.61157C12.6057 2.32367 17.2949 0.499374 19.0884 2.58947C20.8819 4.67889 16.7743 15.2904 15.9344 14.8704Z" fill="#EF8A13"/>
<mask id="mask9_903_897" style="mask-type:luminance" maskUnits="userSpaceOnUse" x="1" y="9" width="14" height="7">
<path d="M1.9292 9.11948H14.2054V15.9255H1.9292V9.11948Z" fill="white"/>
</mask>
<g mask="url(#mask9_903_897)">
<path fill-rule="evenodd" clip-rule="evenodd" d="M14.0944 16.1116C13.8895 16.7494 2.47586 15.2525 2.07921 13.8632C1.82848 12.9836 2.55258 10.5304 3.98983 9.30967C5.42775 8.08822 14.2999 15.4738 14.0944 16.1116Z" fill="#EF8A13"/>
</g>
<mask id="mask10_903_897" style="mask-type:luminance" maskUnits="userSpaceOnUse" x="17" y="10" width="13" height="6">
<path d="M17.5376 10.5224H29.6384V15.9254H17.5376V10.5224Z" fill="white"/>
</mask>
<g mask="url(#mask10_903_897)">
<path fill-rule="evenodd" clip-rule="evenodd" d="M17.626 16.131C17.2643 15.335 26.1015 10.6971 27.2291 10.6629C28.3574 10.6279 30.3413 13.3668 29.2123 15.0876C28.0834 16.8078 17.9871 16.927 17.626 16.131Z" fill="#EF8A13"/>
</g>
<path d="M5.48669 13.4894C6.66293 13.9024 7.23357 14.1621 7.22741 14.1799C7.22741 14.1799 6.40123 14.021 5.41202 13.723C4.43102 13.4284 3.65074 13.0968 3.6713 13.0324C3.69253 12.968 4.52556 13.1516 5.48669 13.4894Z" fill="#F1AC0E"/>
<path d="M8.50497 8.56798C9.32087 9.50993 9.68806 10.0196 9.67436 10.0319C9.67436 10.0319 9.03588 9.48322 8.32411 8.73308C7.61851 7.9898 7.10472 7.31502 7.15473 7.26912C7.20542 7.22322 7.83841 7.79661 8.50497 8.56798Z" fill="#F1AC0E"/>
<path d="M10.5685 6.7362C11.0617 7.70076 11.259 8.20975 11.2433 8.21866C11.2433 8.21866 10.8041 7.63088 10.3547 6.85403C9.90877 6.08266 9.62105 5.40377 9.68065 5.37089C9.73956 5.33869 10.1657 5.94634 10.5685 6.7362Z" fill="#F1AC0E"/>
<path d="M11.3404 11.3773C12.0193 12.2213 12.3166 12.6796 12.3022 12.6912C12.3022 12.6912 11.7528 12.2055 11.1541 11.5369C10.5608 10.8731 10.1409 10.2668 10.1922 10.223C10.2436 10.1791 10.7848 10.6874 11.3404 11.3773Z" fill="#F1AC0E"/>
<path d="M9.52849 14.5539C10.5588 14.8862 11.0582 15.1061 11.0534 15.1239C11.0534 15.1239 10.328 15.0198 9.46067 14.7889C8.60093 14.5601 7.91725 14.2833 7.93643 14.2183C7.95561 14.1532 8.68656 14.2813 9.52849 14.5539Z" fill="#F1AC0E"/>
<path d="M6.57741 11.3562C7.45222 11.9947 7.85777 12.3598 7.8475 12.3749C7.8475 12.3749 7.19122 12.0488 6.43971 11.5583C5.69437 11.0719 5.13195 10.5951 5.17031 10.5396C5.20799 10.4834 5.8629 10.8342 6.57741 11.3562Z" fill="#F1AC0E"/>
<path d="M10.4712 13.1613C11.346 13.7998 11.7515 14.1649 11.7412 14.18C11.7412 14.18 11.085 13.8539 10.3328 13.3634C9.58812 12.877 9.02501 12.4002 9.06337 12.3447C9.10174 12.2885 9.75596 12.6386 10.4712 13.1613Z" fill="#F1AC0E"/>
<path d="M11.5081 9.64893C12.1116 10.5477 12.3685 11.03 12.3541 11.0403C12.3541 11.0403 11.8485 10.5094 11.3094 9.79142C10.7744 9.07897 10.4086 8.43913 10.4641 8.39939C10.5182 8.36034 11.0141 8.91318 11.5081 9.64893Z" fill="#F1AC0E"/>
<path d="M13.4389 5.22421C13.7746 6.25385 13.8897 6.78819 13.8725 6.79367C13.8725 6.79367 13.5314 6.14492 13.2087 5.30642C12.8888 4.47545 12.7114 3.75957 12.7751 3.73628C12.8381 3.71367 13.1642 4.3816 13.4389 5.22421Z" fill="#F1AC0E"/>
<path d="M18.2247 5.12499C18.0952 6.37179 17.9753 6.99108 17.9575 6.98971C17.9575 6.98971 17.9205 6.14367 17.9808 5.10581C18.0404 4.07686 18.1815 3.2363 18.2487 3.24178C18.3158 3.24657 18.3302 4.10495 18.2247 5.12499Z" fill="#F1AC0E"/>
<path d="M16.3407 7.61646C16.2112 8.86326 16.0913 9.48255 16.0729 9.48049C16.0729 9.48049 16.0365 8.63514 16.0968 7.59728C16.1564 6.56833 16.2975 5.72777 16.3647 5.73256C16.4318 5.73804 16.4462 6.5971 16.3407 7.61646Z" fill="#F1AC0E"/>
<path d="M21.8492 6.99373C21.2004 7.86101 20.8305 8.26245 20.8154 8.25149C20.8154 8.25149 21.1497 7.59932 21.6498 6.85329C22.1451 6.11344 22.6281 5.5558 22.6836 5.59485C22.7384 5.6339 22.3801 6.2847 21.8492 6.99373Z" fill="#F1AC0E"/>
<path d="M24.0455 7.32453C23.3967 8.1918 23.0268 8.59325 23.0117 8.58228C23.0117 8.58228 23.346 7.93011 23.8461 7.18409C24.3414 6.44423 24.8244 5.8866 24.8799 5.92564C24.9347 5.96469 24.5764 6.61549 24.0455 7.32453Z" fill="#F1AC0E"/>
<path d="M23.4969 11.0266C22.5261 11.8185 22.0048 12.1727 21.9932 12.1583C21.9932 12.1583 22.5631 11.5336 23.3372 10.841C24.1045 10.1539 24.7971 9.65789 24.8409 9.70927C24.8855 9.75996 24.2908 10.3792 23.4969 11.0266Z" fill="#F1AC0E"/>
<path d="M25.6042 11.8013C24.4437 12.2713 23.8415 12.4549 23.834 12.4378C23.834 12.4378 24.5629 12.0096 25.5076 11.5773C26.4434 11.1485 27.251 10.8786 27.2777 10.9409C27.3052 11.0026 26.5536 11.4177 25.6042 11.8013Z" fill="#F1AC0E"/>
<path d="M26.9208 15.3006C25.6795 15.4643 25.0499 15.4911 25.0479 15.4732C25.0479 15.4732 25.8603 15.241 26.8824 15.0588C27.8963 14.8779 28.7458 14.8197 28.756 14.8868C28.7663 14.9533 27.936 15.167 26.9208 15.3006Z" fill="#F1AC0E"/>
<path d="M22.369 15.2103C21.1277 15.374 20.4981 15.4008 20.4961 15.3829C20.4961 15.3829 21.3086 15.1507 22.3314 14.9685C23.3445 14.7876 24.1933 14.7294 24.2043 14.7965C24.2146 14.863 23.3843 15.0767 22.369 15.2103Z" fill="#F1AC0E"/>
<path d="M26.7743 12.8221C25.5659 13.1482 24.9452 13.2585 24.9404 13.2407C24.9404 13.2407 25.7152 12.9036 26.7044 12.5878C27.6854 12.2747 28.5198 12.1049 28.539 12.1699C28.5582 12.2343 27.7629 12.5563 26.7743 12.8221Z" fill="#F1AC0E"/>
<path d="M20.4121 11.4549C19.503 12.316 19.0091 12.7078 18.9961 12.6941C18.9961 12.6941 19.5188 12.029 20.2402 11.2816C20.9553 10.5403 21.6089 9.99434 21.6568 10.0423C21.7041 10.0903 21.1568 10.7506 20.4121 11.4549Z" fill="#F1AC0E"/>
<path d="M6.815 14.4266C8.01864 14.7479 8.60779 14.963 8.60299 14.9808C8.60299 14.9808 7.76723 14.8856 6.75814 14.665C5.75728 14.4465 4.95371 14.1766 4.96947 14.1101C4.98522 14.045 5.83058 14.1629 6.815 14.4266Z" fill="#EC6D18"/>
<path d="M7.93552 9.12082C8.79115 10.0278 9.17889 10.5204 9.16587 10.5334C9.16587 10.5334 8.5048 10.0128 7.76151 9.29345C7.02508 8.581 6.4832 7.92814 6.53184 7.88019C6.5798 7.83292 7.23608 8.37822 7.93552 9.12082Z" fill="#EC6D18"/>
<path d="M9.44544 6.7314C9.97841 7.67403 10.1976 8.17481 10.1819 8.1844C10.1819 8.1844 9.71878 7.6158 9.2365 6.85813C8.75765 6.10731 8.44184 5.44076 8.50007 5.40582C8.55761 5.37088 9.00975 5.96003 9.44544 6.7314Z" fill="#EC6D18"/>
<path d="M11.7682 12.5988C12.5868 13.3065 12.9615 13.7038 12.9499 13.7182C12.9499 13.7182 12.3224 13.3393 11.614 12.7886C10.9105 12.2426 10.3891 11.7212 10.4316 11.6685C10.4741 11.6157 11.0982 12.0192 11.7682 12.5988Z" fill="#EC6D18"/>
<path d="M11.3179 15.317C12.3764 15.5452 12.8949 15.7137 12.8915 15.7315C12.8915 15.7315 12.1599 15.7007 11.2734 15.5575C10.3952 15.4157 9.6882 15.2095 9.69985 15.1424C9.71218 15.0759 10.4527 15.13 11.3179 15.317Z" fill="#EC6D18"/>
<path d="M6.01712 12.2494C6.91797 12.8502 7.33859 13.1975 7.329 13.2133C7.329 13.2133 6.6597 12.9153 5.88765 12.457C5.12244 12.0028 4.54015 11.5507 4.57577 11.4938C4.61139 11.4362 5.28069 11.7582 6.01712 12.2494Z" fill="#EC6D18"/>
<path d="M9.98329 13.8874C10.8841 14.4875 11.3054 14.8355 11.2952 14.8505C11.2952 14.8505 10.6259 14.5532 9.85382 14.0949C9.08861 13.6401 8.50632 13.1879 8.54263 13.1304C8.57825 13.0735 9.24686 13.3955 9.98329 13.8874Z" fill="#EC6D18"/>
<path d="M14.6176 8.55905C14.7984 9.62705 14.8354 10.1724 14.8169 10.1758C14.8169 10.1758 14.5744 9.48387 14.3785 8.607C14.1832 7.73836 14.1127 7.00329 14.1791 6.99028C14.2449 6.97658 14.4696 7.68561 14.6176 8.55905Z" fill="#EC6D18"/>
<path d="M16.9101 4.13908C16.834 5.38998 16.7402 6.01407 16.7217 6.0127C16.7217 6.0127 16.6491 5.1694 16.6662 4.13017C16.6819 3.09985 16.7861 2.25381 16.8539 2.25586C16.9217 2.2586 16.9724 3.11561 16.9101 4.13908Z" fill="#EC6D18"/>
<path d="M17.1266 9.49959C16.904 10.7327 16.7375 11.3417 16.7197 11.3383C16.7197 11.3383 16.7471 10.4922 16.8855 9.46191C17.0225 8.44049 17.226 7.61226 17.2931 7.62322C17.3596 7.6335 17.3096 8.4905 17.1266 9.49959Z" fill="#EC6D18"/>
<path d="M22.5197 7.44722C21.9086 8.3419 21.5558 8.75842 21.54 8.74814C21.54 8.74814 21.8463 8.08227 22.3141 7.31569C22.7772 6.55528 23.2369 5.97778 23.2938 6.01477C23.35 6.05108 23.0198 6.71627 22.5197 7.44722Z" fill="#EC6D18"/>
<path d="M22.7716 10.7533C21.8358 11.5856 21.3302 11.9617 21.3179 11.948C21.3179 11.948 21.8604 11.2993 22.6044 10.5745C23.3415 9.85588 24.0129 9.32976 24.0588 9.37977C24.1047 9.42909 23.5368 10.0724 22.7716 10.7533Z" fill="#EC6D18"/>
<mask id="mask11_903_897" style="mask-type:luminance" maskUnits="userSpaceOnUse" x="20" y="15" width="5" height="1">
<path d="M20.519 15.2576H24.3773V15.9255H20.519V15.2576Z" fill="white"/>
</mask>
<g mask="url(#mask11_903_897)">
<path d="M22.4349 15.7597C21.1887 15.8789 20.5585 15.8837 20.5571 15.8652C20.5571 15.8652 21.3778 15.6624 22.4054 15.5165C23.4241 15.372 24.2756 15.3432 24.2831 15.411C24.2914 15.4775 23.4542 15.6617 22.4349 15.7597Z" fill="#EC6D18"/>
</g>
<path d="M21.5342 14.6663C20.5245 14.9232 20.0038 14.9985 19.999 14.9807C19.999 14.9807 20.6423 14.6896 21.4664 14.4313C22.2837 14.1744 22.9824 14.0511 23.0016 14.1162C23.0201 14.1813 22.3597 14.456 21.5342 14.6663Z" fill="#EC6D18"/>
<path d="M26.4411 13.8997C25.21 14.1272 24.5825 14.1868 24.5791 14.169C24.5791 14.169 25.3792 13.8956 26.3904 13.6607C27.3933 13.4277 28.238 13.3257 28.2524 13.3921C28.2667 13.4579 27.4474 13.7141 26.4411 13.8997Z" fill="#EC6D18"/>
<path d="M19.0992 11.822C18.6286 12.6522 18.3436 13.0414 18.3271 13.0325C18.3271 13.0325 18.534 12.4186 18.8827 11.7082C19.228 11.004 19.5945 10.4662 19.6548 10.4978C19.7144 10.5286 19.4842 11.1431 19.0992 11.822Z" fill="#EC6D18"/>
<mask id="mask12_903_897" style="mask-type:luminance" maskUnits="userSpaceOnUse" x="14" y="14" width="4" height="2">
<path d="M14.3809 14.9067H17.3622V15.9254H14.3809V14.9067Z" fill="white"/>
</mask>
<g mask="url(#mask12_903_897)">
<path d="M15.8487 14.9835C16.6509 14.9835 17.3017 15.672 17.3017 16.5215C17.3017 17.3709 16.6509 18.0594 15.8487 18.0594C15.0458 18.0594 14.395 17.3709 14.395 16.5215C14.395 15.672 15.0458 14.9835 15.8487 14.9835Z" fill="#FAF4A7"/>
</g>
<mask id="mask13_903_897" style="mask-type:luminance" maskUnits="userSpaceOnUse" x="14" y="15" width="2" height="1">
<path d="M14.7314 15.433H15.6083V15.9255H14.7314V15.433Z" fill="white"/>
</mask>
<g mask="url(#mask13_903_897)">
<path d="M15.1431 15.498C15.3103 15.498 15.4452 15.8405 15.4452 16.2632C15.4452 16.6859 15.3103 17.0284 15.1431 17.0284C14.976 17.0284 14.8403 16.6859 14.8403 16.2632C14.8403 15.8405 14.976 15.498 15.1431 15.498Z" fill="#F5F5E9"/>
</g>
<mask id="mask14_903_897" style="mask-type:luminance" maskUnits="userSpaceOnUse" x="0" y="1" width="16" height="31">
<path d="M0.876953 1.57832H15.8598V31.3919H0.876953V1.57832Z" fill="white"/>
</mask>
<g mask="url(#mask14_903_897)">
<path d="M15.8598 1.59205V31.3734C15.8598 31.3734 0.733826 31.6556 0.953044 16.4981C1.17226 1.59205 15.8598 1.59205 15.8598 1.59205Z" fill="white"/>
</g>
<mask id="mask15_903_897" style="mask-type:luminance" maskUnits="userSpaceOnUse" x="7" y="3" width="9" height="12">
<path d="M7.36572 3.33205H15.8597V14.3806H7.36572V3.33205Z" fill="white"/>
</mask>
<g mask="url(#mask15_903_897)">
<path d="M15.8596 14.1183V3.34581C12.6337 3.43966 9.68999 4.25351 7.46631 6.28949L15.1389 14.369C15.3581 14.2436 15.6089 14.1498 15.8596 14.1183Z" fill="#FFD922"/>
</g>
<path d="M14.4191 14.7444L6.49578 7.1972C4.24127 9.48391 3.27054 12.1453 3.20752 15.5905L13.8553 15.9659C13.9177 15.4959 14.1369 15.089 14.4191 14.7444Z" fill="#FFD922"/>
<path d="M13.8553 16.8112L3.20752 17.1873C3.30137 20.6318 4.27209 23.2939 6.52729 25.5799L14.4815 18.0018C14.1369 17.6881 13.9177 17.2497 13.8553 16.8112Z" fill="#FFD922"/>
<mask id="mask16_903_897" style="mask-type:luminance" maskUnits="userSpaceOnUse" x="7" y="18" width="9" height="12">
<path d="M7.36572 18.239H15.8597V29.4629H7.36572V18.239Z" fill="white"/>
</mask>
<g mask="url(#mask16_903_897)">
<path d="M15.1704 18.4088L7.46631 26.4883C9.68999 28.5236 12.6337 29.3381 15.8596 29.432V18.5965C15.6089 18.565 15.3896 18.5026 15.1704 18.4088Z" fill="#FFD922"/>
</g>
<mask id="mask17_903_897" style="mask-type:luminance" maskUnits="userSpaceOnUse" x="0" y="1" width="16" height="31">
<path d="M0.876953 1.4031H15.8598V31.5674H0.876953V1.4031Z" fill="white"/>
</mask>
<g mask="url(#mask17_903_897)">
<path d="M15.8599 31.3734V30.215C15.8599 30.215 2.23692 30.7788 2.23692 16.4982C2.23692 2.21822 15.8599 2.53129 15.8599 2.53129V1.59208C15.8599 1.59208 0.953125 0.213749 0.953125 16.4673C0.953125 32.7202 15.8599 31.3734 15.8599 31.3734Z" fill="#FFD922"/>
</g>
<path d="M6.24286 13.4141C6.25451 13.4497 6.24697 13.4894 6.22163 13.5346C6.19628 13.5792 6.15381 13.6244 6.09489 13.6716C6.03598 13.7182 5.96473 13.7628 5.88184 13.8045C5.79826 13.8463 5.70921 13.8826 5.61467 13.9135C5.51945 13.9443 5.42628 13.9669 5.33448 13.9813C5.242 13.9964 5.15842 14.0018 5.08307 13.9984C5.0084 13.995 4.94743 13.9827 4.90016 13.9614C4.85357 13.9402 4.82412 13.9121 4.81247 13.8765C4.80083 13.8408 4.80836 13.8011 4.83371 13.7566C4.85974 13.7121 4.90153 13.6662 4.96044 13.6189C5.01936 13.5723 5.0906 13.5278 5.17418 13.486C5.25707 13.4442 5.34613 13.4079 5.44135 13.3771C5.53589 13.3462 5.62906 13.3236 5.72154 13.3092C5.81333 13.2942 5.89691 13.2887 5.97227 13.2921C6.04762 13.2955 6.10859 13.3079 6.15518 13.3291C6.20245 13.3504 6.23122 13.3784 6.24286 13.4141Z" fill="#FFA023"/>
<path d="M9.40456 12.2282C9.47786 12.296 9.54362 12.3659 9.60185 12.4385C9.66008 12.5111 9.70598 12.581 9.74023 12.6481C9.77448 12.7152 9.79367 12.7742 9.79915 12.8255C9.80394 12.8769 9.79367 12.916 9.76832 12.9441C9.74297 12.9715 9.70461 12.9852 9.65323 12.9845C9.60185 12.9845 9.54088 12.9701 9.47101 12.942C9.40113 12.9139 9.32783 12.8742 9.25042 12.8228C9.17232 12.7707 9.09697 12.7111 9.02367 12.644C8.95036 12.5769 8.88391 12.507 8.82568 12.4337C8.76745 12.3611 8.72156 12.2912 8.6873 12.2241C8.65305 12.1569 8.63387 12.098 8.62907 12.0466C8.62428 11.9953 8.63455 11.9562 8.6599 11.9288C8.68525 11.9007 8.72361 11.887 8.77499 11.8877C8.82637 11.8877 8.88665 11.9021 8.95653 11.9302C9.02641 11.9583 9.10039 11.998 9.1778 12.0501C9.25521 12.1014 9.33057 12.161 9.40456 12.2282Z" fill="#FFA023"/>
<path d="M7.46357 21.7513C7.47521 21.7869 7.46768 21.8266 7.44233 21.8711C7.4163 21.9157 7.37451 21.9616 7.31559 22.0081C7.25668 22.0554 7.18543 22.0993 7.10186 22.1417C7.01897 22.1835 6.92991 22.2198 6.83537 22.2507C6.74015 22.2808 6.64698 22.3034 6.5545 22.3185C6.4627 22.3329 6.37913 22.339 6.30377 22.3356C6.2291 22.3322 6.16744 22.3198 6.12086 22.2986C6.07359 22.2774 6.04482 22.2493 6.03317 22.2137C6.02153 22.178 6.02906 22.1376 6.05441 22.0931C6.07976 22.0486 6.12223 22.0027 6.18115 21.9561C6.24006 21.9095 6.31131 21.865 6.3942 21.8232C6.47777 21.7807 6.56683 21.7444 6.66137 21.7143C6.75659 21.6834 6.84976 21.6608 6.94156 21.6458C7.03404 21.6314 7.11761 21.6259 7.19297 21.6293C7.26764 21.6327 7.32861 21.6451 7.37588 21.6656C7.42246 21.6869 7.45192 21.7156 7.46357 21.7513Z" fill="#FFA023"/>
<path d="M11.2124 6.1566C11.2384 6.2525 11.2563 6.34704 11.2665 6.44021C11.2761 6.53269 11.2775 6.61627 11.2706 6.69094C11.2631 6.7663 11.248 6.82658 11.2247 6.87248C11.2008 6.91838 11.1713 6.94578 11.135 6.95537C11.0987 6.96496 11.059 6.95605 11.0158 6.92797C10.9726 6.90057 10.9295 6.85535 10.8856 6.79438C10.8418 6.73341 10.8014 6.66011 10.7637 6.57448C10.726 6.48953 10.6938 6.39842 10.6685 6.30251C10.6424 6.20592 10.6246 6.11207 10.6144 6.0189C10.6041 5.92642 10.6027 5.84284 10.6103 5.76749C10.6178 5.69282 10.6329 5.63253 10.6561 5.58663C10.6801 5.54073 10.7096 5.51333 10.7459 5.50374C10.7822 5.49415 10.8219 5.50306 10.8651 5.53114C10.9082 5.55855 10.9514 5.60307 10.9953 5.66473C11.0391 5.7257 11.0795 5.799 11.1172 5.88395C11.1549 5.96958 11.1871 6.06 11.2124 6.1566Z" fill="#FFA023"/>
<path d="M11.3495 25.695C11.3611 25.7306 11.3543 25.7711 11.3283 25.8156C11.3029 25.8601 11.2604 25.906 11.2015 25.9526C11.1426 25.9992 11.0714 26.0437 10.9885 26.0855C10.9049 26.128 10.8158 26.1643 10.7213 26.1944C10.6261 26.2252 10.5329 26.2479 10.4411 26.2629C10.3486 26.2773 10.2651 26.2828 10.1904 26.2794C10.115 26.2759 10.0541 26.2636 10.0068 26.2424C9.9602 26.2218 9.93075 26.193 9.9191 26.1574C9.90814 26.1218 9.91499 26.0821 9.94034 26.0375C9.96637 25.993 10.0088 25.9471 10.0678 25.9005C10.1267 25.8533 10.1972 25.8094 10.2808 25.7669C10.3637 25.7252 10.4528 25.6888 10.548 25.658C10.6425 25.6279 10.7364 25.6046 10.8282 25.5902C10.92 25.5751 11.0035 25.5696 11.0789 25.5731C11.1543 25.5765 11.2152 25.5888 11.2618 25.6101C11.3091 25.6313 11.3378 25.6594 11.3495 25.695Z" fill="#FFA023"/>
<path d="M14.697 10.2313C14.7107 10.33 14.7161 10.4259 14.7141 10.5191C14.7127 10.6122 14.7031 10.6951 14.6867 10.7684C14.6696 10.8424 14.6469 10.9 14.6175 10.9424C14.5887 10.9849 14.5558 11.0089 14.5182 11.0137C14.4812 11.0185 14.4435 11.0048 14.4038 10.9712C14.3647 10.9383 14.327 10.8883 14.2914 10.8219C14.2558 10.7561 14.225 10.678 14.1982 10.5889C14.1715 10.4992 14.1517 10.4053 14.1386 10.3067C14.1249 10.2074 14.1195 10.1115 14.1215 10.0183C14.1229 9.92512 14.1325 9.84223 14.1489 9.76893C14.166 9.69563 14.1886 9.6374 14.2181 9.59493C14.2469 9.55245 14.2804 9.52916 14.3174 9.52368C14.3544 9.51889 14.3928 9.53327 14.4318 9.56616C14.4709 9.59904 14.5086 9.64905 14.5442 9.7155C14.5798 9.78195 14.6106 9.85936 14.6374 9.9491C14.6641 10.0382 14.6839 10.132 14.697 10.2313Z" fill="#FFA023"/>
<path d="M11.6629 17.834C11.6739 17.8696 11.667 17.91 11.6417 17.9546C11.6157 17.9991 11.5732 18.045 11.5143 18.0916C11.4554 18.1382 11.3848 18.1827 11.3012 18.2245C11.2183 18.2663 11.1293 18.3026 11.034 18.3334C10.9395 18.3642 10.8463 18.3868 10.7539 18.4019C10.6621 18.4163 10.5785 18.4218 10.5031 18.4183C10.4278 18.4149 10.3668 18.4026 10.3202 18.3814C10.2729 18.3608 10.2442 18.332 10.2325 18.2964C10.2209 18.2608 10.2277 18.2211 10.2538 18.1765C10.2791 18.132 10.3216 18.0861 10.3805 18.0395C10.4394 17.9922 10.5107 17.9477 10.5936 17.9059C10.6771 17.8641 10.7662 17.8278 10.8607 17.797C10.9559 17.7669 11.0491 17.7436 11.1409 17.7292C11.2334 17.7141 11.317 17.7086 11.3916 17.7121C11.467 17.7155 11.528 17.7278 11.5752 17.7491C11.6218 17.7703 11.6513 17.7984 11.6629 17.834Z" fill="#FFA023"/>
<path d="M14.2816 23.224C14.3055 23.3213 14.3213 23.4158 14.3302 23.509C14.3384 23.6015 14.3377 23.6851 14.3295 23.7597C14.3206 23.8351 14.3042 23.8947 14.2795 23.9399C14.2555 23.9858 14.2247 24.0125 14.1884 24.0214C14.1521 24.0303 14.113 24.0207 14.0699 23.992C14.0274 23.9632 13.9849 23.918 13.9425 23.8556C13.9 23.794 13.8603 23.72 13.8246 23.6337C13.7883 23.5481 13.7582 23.4563 13.7342 23.3597C13.7102 23.2631 13.6945 23.1685 13.6863 23.0754C13.678 22.9829 13.678 22.8986 13.6869 22.824C13.6952 22.7493 13.7123 22.689 13.7363 22.6438C13.7609 22.5986 13.7911 22.5719 13.8274 22.5623C13.8637 22.5534 13.9027 22.5636 13.9459 22.5924C13.9884 22.6212 14.0308 22.6664 14.074 22.728C14.1165 22.7904 14.1555 22.8644 14.1918 22.95C14.2275 23.0363 14.2576 23.1274 14.2816 23.224Z" fill="#FFA023"/>
<mask id="mask18_903_897" style="mask-type:luminance" maskUnits="userSpaceOnUse" x="1" y="1" width="31" height="16">
<path d="M1.05225 1.22768H31.2165V16.2776H1.05225V1.22768Z" fill="white"/>
</mask>
<g mask="url(#mask18_903_897)">
<path d="M31.0875 16.2776H1.07117C1.07117 16.2776 0.78687 1.02012 16.0636 1.24139C31.0875 1.46198 31.0875 16.2776 31.0875 16.2776Z" fill="white"/>
</g>
<mask id="mask19_903_897" style="mask-type:luminance" maskUnits="userSpaceOnUse" x="18" y="7" width="12" height="10">
<path d="M18.0635 7.71638H29.4628V16.2775H18.0635V7.71638Z" fill="white"/>
</mask>
<g mask="url(#mask19_903_897)">
<path d="M18.4627 16.2776H29.3202C29.2256 13.0236 28.4049 10.0545 26.3532 7.81167L18.21 15.5507C18.336 15.772 18.4305 16.0248 18.4627 16.2776Z" fill="#FFD922"/>
</g>
<path d="M17.8311 14.8245L25.438 6.83197C23.1335 4.55759 20.4508 3.57865 16.9789 3.51562L16.6001 14.2559C17.0735 14.3189 17.4838 14.5402 17.8311 14.8245Z" fill="#FFD922"/>
<path d="M15.7483 14.2559L15.3695 3.51562C11.8976 3.61016 9.21497 4.5891 6.91113 6.86417L14.5488 14.8875C14.8646 14.5402 15.3065 14.3189 15.7483 14.2559Z" fill="#FFD922"/>
<mask id="mask20_903_897" style="mask-type:luminance" maskUnits="userSpaceOnUse" x="2" y="7" width="13" height="10">
<path d="M2.98145 7.71638H14.2054V16.2775H2.98145V7.71638Z" fill="white"/>
</mask>
<g mask="url(#mask20_903_897)">
<path d="M14.1383 15.5822L5.99509 7.81167C3.94404 10.0545 3.12335 13.0236 3.02881 16.2776H13.9493C13.9808 16.0248 14.0438 15.8035 14.1383 15.5822Z" fill="#FFD922"/>
</g>
<mask id="mask21_903_897" style="mask-type:luminance" maskUnits="userSpaceOnUse" x="0" y="1" width="32" height="16">
<path d="M0.876953 1.22768H31.2166V16.2776H0.876953V1.22768Z" fill="white"/>
</mask>
<g mask="url(#mask21_903_897)">
<path d="M1.07136 16.2776H2.23938C2.23938 16.2776 1.67079 2.53611 16.0638 2.53611C30.4561 2.53611 30.1409 16.2776 30.1409 16.2776H31.0877C31.0877 16.2776 32.4763 1.24136 16.0953 1.24136C-0.285728 1.24136 1.07136 16.2776 1.07136 16.2776Z" fill="#FFD922"/>
</g>
<path d="M19.1726 6.57725C19.1363 6.58889 19.0959 6.58204 19.0514 6.55601C19.0062 6.52998 18.9603 6.4875 18.913 6.4279C18.8657 6.36831 18.8212 6.29706 18.7787 6.2128C18.7363 6.12922 18.7 6.03879 18.6691 5.94357C18.6383 5.84766 18.615 5.75381 18.6006 5.66064C18.5856 5.56816 18.5801 5.4839 18.5835 5.40786C18.5869 5.33182 18.5993 5.27016 18.6205 5.22289C18.6417 5.17563 18.6705 5.14617 18.7061 5.13452C18.7424 5.12288 18.7829 5.13041 18.8274 5.15576C18.8726 5.18179 18.9185 5.22426 18.9658 5.28386C19.013 5.34346 19.0576 5.41539 19.1 5.49897C19.1425 5.58323 19.1788 5.67298 19.2096 5.7682C19.2405 5.86411 19.2638 5.95864 19.2781 6.05113C19.2932 6.14429 19.2987 6.22855 19.2953 6.30391C19.2918 6.37995 19.2795 6.44161 19.2583 6.48887C19.237 6.53614 19.2083 6.5656 19.1726 6.57725Z" fill="#FFA023"/>
<path d="M20.3674 9.76612C20.2996 9.8401 20.2291 9.90656 20.1558 9.96547C20.0825 10.0244 20.0119 10.071 19.9441 10.1052C19.8769 10.1395 19.8173 10.1593 19.7653 10.1641C19.7139 10.1689 19.6742 10.1587 19.6461 10.1333C19.6187 10.1073 19.605 10.0689 19.605 10.0168C19.6057 9.96478 19.6201 9.90382 19.6481 9.83325C19.6762 9.76338 19.7166 9.68871 19.7687 9.61061C19.8208 9.53252 19.8811 9.45579 19.9489 9.3818C20.0167 9.30782 20.0873 9.24137 20.1606 9.18245C20.2339 9.12354 20.3044 9.07695 20.3716 9.0427C20.4394 9.00845 20.499 8.98858 20.5504 8.98379C20.6024 8.97899 20.6422 8.98927 20.6696 9.01461C20.6976 9.04065 20.7113 9.07901 20.7107 9.13107C20.7107 9.18314 20.6963 9.24411 20.6682 9.31467C20.6394 9.38523 20.5997 9.45922 20.5476 9.53731C20.4956 9.61541 20.4353 9.69213 20.3674 9.76612Z" fill="#FFA023"/>
<path d="M10.7698 7.80825C10.7341 7.81989 10.6937 7.81304 10.6485 7.78701C10.604 7.76098 10.5581 7.7185 10.5108 7.6589C10.4635 7.59999 10.4183 7.52806 10.3765 7.4438C10.3341 7.36022 10.2978 7.27048 10.2662 7.17457C10.2354 7.07866 10.2128 6.98481 10.1977 6.89164C10.1834 6.79916 10.1772 6.7149 10.1806 6.63886C10.1847 6.56282 10.1971 6.50185 10.2183 6.45389C10.2395 6.40662 10.2683 6.37717 10.3039 6.36552C10.3395 6.35388 10.38 6.36141 10.4252 6.38744C10.4697 6.41348 10.5163 6.45595 10.5629 6.51555C10.6101 6.57446 10.6554 6.64639 10.6971 6.73066C10.7396 6.81423 10.7759 6.90397 10.8074 6.99988C10.8383 7.0951 10.8609 7.18964 10.8759 7.28212C10.8903 7.37529 10.8965 7.45955 10.8931 7.53559C10.889 7.61095 10.8766 7.6726 10.8554 7.71987C10.8342 7.76783 10.8061 7.79728 10.7698 7.80825Z" fill="#FFA023"/>
<path d="M26.4869 11.5904C26.3903 11.6164 26.2951 11.6343 26.2012 11.6445C26.108 11.6541 26.0238 11.6555 25.9484 11.6486C25.8724 11.6411 25.8121 11.6253 25.7655 11.6021C25.7196 11.5781 25.6915 11.5479 25.6819 11.5116C25.6723 11.4753 25.6813 11.4356 25.7093 11.3917C25.7374 11.3479 25.7826 11.3041 25.8443 11.2602C25.906 11.2157 25.9799 11.1746 26.0656 11.1369C26.1512 11.0992 26.243 11.067 26.3403 11.041C26.4369 11.015 26.5321 10.9965 26.6253 10.9869C26.7191 10.9766 26.8034 10.9752 26.8787 10.9828C26.9541 10.9896 27.0151 11.0054 27.0616 11.0293C27.1075 11.0526 27.1356 11.0828 27.1452 11.1191C27.1548 11.1554 27.1459 11.1958 27.1178 11.239C27.0897 11.2828 27.0445 11.3267 26.9829 11.3712C26.9212 11.415 26.8472 11.4561 26.7616 11.4938C26.6753 11.5322 26.5842 11.5644 26.4869 11.5904Z" fill="#FFA023"/>
<path d="M6.79417 11.7281C6.75855 11.7398 6.71813 11.7329 6.67292 11.7069C6.62839 11.6808 6.58181 11.6384 6.53522 11.5788C6.48795 11.5192 6.44274 11.4479 6.40095 11.3637C6.35848 11.2801 6.32217 11.1897 6.29066 11.0944C6.25983 10.9985 6.23722 10.9047 6.22215 10.8115C6.20777 10.719 6.2016 10.6348 6.20503 10.5587C6.20914 10.4827 6.22147 10.421 6.2427 10.3738C6.26394 10.3265 6.29203 10.297 6.32834 10.2854C6.36396 10.2737 6.40438 10.2813 6.44959 10.3066C6.49412 10.3327 6.5407 10.3758 6.58729 10.4347C6.63456 10.4943 6.67977 10.5663 6.72156 10.6498C6.76403 10.7341 6.80034 10.8238 6.83185 10.9191C6.86268 11.015 6.88529 11.1095 6.90036 11.202C6.91474 11.2952 6.92091 11.3794 6.91748 11.4548C6.91337 11.5308 6.90104 11.5925 6.87981 11.6397C6.85857 11.687 6.8298 11.7165 6.79417 11.7281Z" fill="#FFA023"/>
<path d="M22.3809 15.1055C22.2816 15.1185 22.1843 15.1247 22.0905 15.1226C21.9966 15.1206 21.913 15.1117 21.8391 15.0946C21.7651 15.0774 21.7068 15.0548 21.6637 15.0254C21.6212 14.9959 21.5972 14.9623 21.5924 14.9253C21.587 14.8877 21.6014 14.8493 21.6349 14.8096C21.6685 14.7698 21.7185 14.7322 21.7849 14.6959C21.8521 14.6602 21.9302 14.6287 22.0206 14.602C22.1103 14.5753 22.2056 14.5554 22.3049 14.5417C22.4042 14.5287 22.5008 14.5225 22.5947 14.5246C22.6885 14.526 22.7728 14.5355 22.8468 14.5527C22.9208 14.5698 22.979 14.5924 23.0215 14.6219C23.0646 14.6513 23.0886 14.6849 23.0934 14.7219C23.0989 14.7596 23.0845 14.7979 23.0509 14.8377C23.0174 14.8774 22.9673 14.9151 22.9002 14.9507C22.8338 14.987 22.755 15.0185 22.6652 15.0452C22.5755 15.0719 22.4803 15.0918 22.3809 15.1055Z" fill="#FFA023"/>
<path d="M14.7176 12.0446C14.6813 12.0555 14.6408 12.0487 14.5963 12.0227C14.5511 11.9966 14.5052 11.9542 14.4579 11.8946C14.4107 11.8356 14.3661 11.7637 14.3237 11.6795C14.2812 11.5959 14.2449 11.5061 14.2141 11.4102C14.1832 11.315 14.1599 11.2205 14.1456 11.128C14.1305 11.0348 14.125 10.9506 14.1284 10.8745C14.1318 10.7992 14.1442 10.7375 14.1654 10.6902C14.1867 10.6423 14.2154 10.6128 14.251 10.6019C14.2874 10.5902 14.3278 10.5971 14.3723 10.6231C14.4175 10.6491 14.4634 10.6916 14.5107 10.7512C14.558 10.8101 14.6025 10.882 14.645 10.9663C14.6874 11.0499 14.7237 11.1396 14.7546 11.2355C14.7854 11.3314 14.8087 11.4253 14.8231 11.5185C14.8381 11.6109 14.8436 11.6952 14.8402 11.7712C14.8368 11.8473 14.8244 11.9083 14.8032 11.9562C14.782 12.0035 14.7532 12.0329 14.7176 12.0446Z" fill="#FFA023"/>
<path d="M9.28471 14.6855C9.18743 14.7095 9.0922 14.7259 8.99835 14.7341C8.90519 14.7424 8.82024 14.7424 8.74488 14.7335C8.66953 14.7246 8.60924 14.7081 8.56334 14.6834C8.51813 14.6588 8.49073 14.6286 8.48114 14.5917C8.47223 14.5553 8.48251 14.5156 8.51128 14.4725C8.54005 14.4293 8.58595 14.3861 8.64829 14.3437C8.71132 14.3005 8.7853 14.2608 8.8723 14.2245C8.95862 14.1882 9.0511 14.158 9.14838 14.1333C9.24566 14.1094 9.34156 14.0929 9.43473 14.0847C9.52858 14.0765 9.61285 14.0765 9.6882 14.0854C9.76356 14.0943 9.82453 14.1107 9.86974 14.1354C9.91564 14.1601 9.94304 14.1909 9.95195 14.2272C9.96085 14.2642 9.95126 14.3039 9.92249 14.3471C9.89303 14.3902 9.84713 14.4327 9.78479 14.4759C9.72245 14.519 9.64778 14.5588 9.56147 14.5951C9.47447 14.6314 9.38267 14.6615 9.28471 14.6855Z" fill="#FFA023"/>
<path d="M23.4649 34.7341C26.3127 34.8896 28.2411 34.967 29.2495 34.967C29.4886 34.967 29.6777 34.8979 29.8168 34.7588C29.9572 34.6183 30.0278 34.4286 30.0278 34.1888V32.7858H26.4436C25.3509 32.7858 24.5583 32.5392 24.0651 32.046C23.5718 31.5514 23.3252 30.7581 23.3252 29.6675V29.1989C23.3252 28.1083 23.5718 27.3164 24.0651 26.8231C24.5583 26.3285 25.3509 26.0805 26.4436 26.0805H31.9158V28.2645H27.0656C26.4422 28.2645 26.1312 28.5762 26.1312 29.1989V29.5113C26.1312 30.1347 26.4422 30.4457 27.0656 30.4457H29.8743C30.8916 30.4457 31.6397 30.6855 32.1185 31.1636C32.5967 31.6425 32.8365 32.3906 32.8365 33.4079V34.1888C32.8365 35.2068 32.5967 35.9549 32.1185 36.4331C31.6397 36.9119 30.8916 37.151 29.8743 37.151C29.3427 37.151 28.781 37.1407 28.1891 37.1209L26.7559 37.0578C25.6941 37.0044 24.5973 36.9318 23.4649 36.8386V34.7341Z" fill="#567343" fill-opacity="0.2"/>
<path d="M41.2545 26.0805H44.0605V34.0326C44.0605 35.1232 43.8139 35.9165 43.3206 36.4111C42.8274 36.9044 42.0341 37.151 40.9421 37.151H37.3552C36.2646 37.151 35.4713 36.9044 34.9767 36.4111C34.4834 35.9165 34.2368 35.1232 34.2368 34.0326V26.0805H37.0455V34.0326C37.0455 34.656 37.3566 34.967 37.98 34.967H40.3201C40.9428 34.967 41.2545 34.656 41.2545 34.0326V26.0805Z" fill="#567343" fill-opacity="0.2"/>
<path d="M45.6041 34.7341C48.4519 34.8896 50.3803 34.967 51.3887 34.967C51.6278 34.967 51.8169 34.8979 51.9559 34.7588C52.0964 34.6183 52.1669 34.4286 52.1669 34.1888V32.7858H48.5827C47.4901 32.7858 46.6975 32.5392 46.2042 32.046C45.711 31.5514 45.4644 30.7581 45.4644 29.6675V29.1989C45.4644 28.1083 45.711 27.3164 46.2042 26.8231C46.6975 26.3285 47.4901 26.0805 48.5827 26.0805H54.0549V28.2645H49.2047C48.5814 28.2645 48.2703 28.5762 48.2703 29.1989V29.5113C48.2703 30.1347 48.5814 30.4457 49.2047 30.4457H52.0135C53.0308 30.4457 53.7789 30.6855 54.2577 31.1636C54.7359 31.6425 54.9756 32.3906 54.9756 33.4079V34.1888C54.9756 35.2068 54.7359 35.9549 54.2577 36.4331C53.7789 36.9119 53.0308 37.151 52.0135 37.151C51.4819 37.151 50.9201 37.1407 50.3282 37.1209L48.8951 37.0578C47.8333 37.0044 46.7365 36.9318 45.6041 36.8386V34.7341Z" fill="#567343" fill-opacity="0.2"/>
<path d="M65.8873 36.9948H63.0813V32.5502H59.1847V36.9948H56.376V26.0805H59.1847V30.369H63.0813V26.0805H65.8873V36.9948Z" fill="#567343" fill-opacity="0.2"/>
<path d="M70.566 36.9948H67.7573V26.0805H70.566V30.369H71.969L74.3996 26.0805H77.3618L74.3064 31.4596L77.3481 36.9948H74.3859L71.969 32.5502H70.566V36.9948Z" fill="#567343" fill-opacity="0.2"/>
<path d="M80.2477 36.9948H77.2061L81.3383 26.0805H84.4567L88.5889 36.9948H85.5473L84.8458 35.0465H80.9492L80.2477 36.9948ZM81.6507 33.0187H84.1443L82.8975 29.3551L81.6507 33.0187Z" fill="#567343" fill-opacity="0.2"/>
<path d="M22.5084 34.5481C25.3562 34.7037 27.2846 34.7811 28.293 34.7811C28.5321 34.7811 28.7212 34.7119 28.8602 34.5728C29.0007 34.4324 29.0712 34.2426 29.0712 34.0028V32.5999H25.487C24.3944 32.5999 23.6017 32.3532 23.1085 31.86C22.6153 31.3654 22.3687 30.5721 22.3687 29.4815V29.0129C22.3687 27.9223 22.6153 27.1304 23.1085 26.6371C23.6017 26.1425 24.3944 25.8945 25.487 25.8945H30.9592V28.0785H26.109C25.4856 28.0785 25.1746 28.3902 25.1746 29.0129V29.3253C25.1746 29.9487 25.4856 30.2597 26.109 30.2597H28.9178C29.9351 30.2597 30.6831 30.4995 31.162 30.9776C31.6402 31.4565 31.8799 32.2046 31.8799 33.2219V34.0028C31.8799 35.0208 31.6402 35.7689 31.162 36.2471C30.6831 36.7259 29.9351 36.965 28.9178 36.965C28.3862 36.965 27.8244 36.9547 27.2325 36.9349L25.7994 36.8719C24.7376 36.8184 23.6408 36.7458 22.5084 36.6526V34.5481Z" fill="#567343"/>
<path d="M40.298 25.8945H43.1039V33.8467C43.1039 34.9373 42.8573 35.7306 42.3641 36.2252C41.8708 36.7184 41.0776 36.965 39.9856 36.965H36.3986C35.308 36.965 34.5147 36.7184 34.0201 36.2252C33.5269 35.7306 33.2803 34.9373 33.2803 33.8467V25.8945H36.089V33.8467C36.089 34.4701 36.4 34.7811 37.0234 34.7811H39.3636C39.9863 34.7811 40.298 34.4701 40.298 33.8467V25.8945Z" fill="#567343"/>
<path d="M44.6476 34.5481C47.4953 34.7037 49.4238 34.7811 50.4322 34.7811C50.6712 34.7811 50.8603 34.7119 50.9994 34.5728C51.1398 34.4324 51.2104 34.2426 51.2104 34.0028V32.5999H47.6262C46.5335 32.5999 45.7409 32.3532 45.2477 31.86C44.7544 31.3654 44.5078 30.5721 44.5078 29.4815V29.0129C44.5078 27.9223 44.7544 27.1304 45.2477 26.6371C45.7409 26.1425 46.5335 25.8945 47.6262 25.8945H53.0984V28.0785H48.2482C47.6248 28.0785 47.3138 28.3902 47.3138 29.0129V29.3253C47.3138 29.9487 47.6248 30.2597 48.2482 30.2597H51.0569C52.0742 30.2597 52.8223 30.4995 53.3012 30.9776C53.7793 31.4565 54.0191 32.2046 54.0191 33.2219V34.0028C54.0191 35.0208 53.7793 35.7689 53.3012 36.2471C52.8223 36.7259 52.0742 36.965 51.0569 36.965C50.5253 36.965 49.9636 36.9547 49.3717 36.9349L47.9386 36.8719C46.8767 36.8184 45.78 36.7458 44.6476 36.6526V34.5481Z" fill="#567343"/>
<path d="M64.9307 36.8088H62.1247V32.3642H58.2282V36.8088H55.4194V25.8945H58.2282V30.183H62.1247V25.8945H64.9307V36.8088Z" fill="#567343"/>
<path d="M69.6095 36.8088H66.8008V25.8945H69.6095V30.183H71.0125L73.4431 25.8945H76.4052L73.3499 31.2736L76.3915 36.8088H73.4294L71.0125 32.3642H69.6095V36.8088Z" fill="#567343"/>
<path d="M79.2912 36.8088H76.2495L80.3818 25.8945H83.5001L87.6324 36.8088H84.5907L83.8892 34.8605H79.9926L79.2912 36.8088ZM80.6941 32.8328H83.1877L81.9409 29.1691L80.6941 32.8328Z" fill="#567343"/>
<path d="M107.848 47.0886C107.848 48.7842 107.514 50.4631 106.865 52.0296C106.216 53.5961 105.265 55.0194 104.067 56.2183C102.868 57.4173 101.444 58.3683 99.8778 59.0172C98.3113 59.666 96.6323 60 94.9368 60C93.2412 60 91.5623 59.666 89.9958 59.0172C88.4293 58.3683 87.006 57.4173 85.807 56.2183C84.6081 55.0194 83.6571 53.5961 83.0082 52.0296C82.3594 50.4631 82.0254 48.7842 82.0254 47.0886L94.9368 47.0886H107.848Z" fill="#FFD922"/>
<path d="M107.848 47.0886C107.848 45.3931 107.514 43.7141 106.865 42.1476C106.216 40.5811 105.265 39.1578 104.067 37.9589C102.868 36.7599 101.444 35.8089 99.8778 35.16C98.3113 34.5112 96.6323 34.1772 94.9368 34.1772L94.9368 47.0886H107.848Z" fill="#6565D6"/>
<rect x="16.329" y="17.0886" width="78.2278" height="29.6203" stroke="#567343" stroke-width="0.759494"/>
</svg>
