<svg width="40" height="40" viewBox="0 0 40 40" fill="none" xmlns="http://www.w3.org/2000/svg">
<g clip-path="url(#clip0_855_1082)">
<path d="M20.125 31C19.5 31 18.75 30.75 18.25 30.25C10.125 23.125 10 23 10 22.875L9.875 22.75C8.375 21.25 7.5 19.125 7.5 17V16.75C7.625 12.25 11.25 8.75 15.75 8.75C17.125 8.75 19 9.5 20.125 11C21.25 9.5 23.25 8.75 24.625 8.75C29.125 8.75 32.625 12.25 32.875 16.75V17C32.875 19.25 32 21.25 30.5 22.875L30.375 23C30.25 23.125 29.25 24 22.125 30.375C21.5 30.75 20.875 31 20.125 31ZM11.875 22.5C12.375 23 14.875 24.75 19.5 28.75C19.875 29.125 20.375 29.125 20.75 28.75C25.5 24.5 28.25 22.125 28.875 21.625L29 21.5C30.25 20.25 30.875 18.625 30.875 17V16.75C30.75 13.25 28 10.625 24.5 10.625C23.625 10.625 21.875 11.25 21.25 12.625C21 13.125 20.5 13.375 20 13.375C19.5 13.375 19 13.125 18.75 12.625C18.125 11.375 16.5 10.625 15.5 10.625C12.125 10.625 9.25 13.375 9.125 16.75V17.125C9.125 18.75 9.875 20.375 11 21.5L11.875 22.5Z" fill="#567343"/>
</g>
<defs>
<clipPath id="clip0_855_1082">
<rect width="25.375" height="22.25" fill="white" transform="translate(7.5 8.75)"/>
</clipPath>
</defs>
</svg>
