<svg width="40" height="40" viewBox="0 0 40 40" fill="none" xmlns="http://www.w3.org/2000/svg">
<path fill-rule="evenodd" clip-rule="evenodd" d="M8.96794 9H10.2585L10.323 9.01291C12.112 9.04761 13.6751 10.2304 14.1948 11.9425L14.4529 12.833H27.9137C29.1024 12.8384 30.231 13.3558 31.0111 14.2527C31.7889 15.1553 32.1331 16.3529 31.9532 17.5308L31.1789 22.8738C30.921 24.9218 29.1905 26.4649 27.1264 26.4874H19.5378C17.7249 26.4807 16.1284 25.2924 15.6015 23.5578L12.3364 12.5491C12.0863 11.6046 11.2355 10.944 10.2585 10.9359H8.96794C8.43336 10.9359 8 10.5025 8 9.96794C8 9.43336 8.43336 9 8.96794 9ZM17.4605 22.9383C17.7344 23.8572 18.5794 24.487 19.5383 24.487H27.1269C28.1951 24.4754 29.0997 23.6961 29.2693 22.6414L30.0437 17.2855C30.1491 16.6621 29.9772 16.0237 29.5729 15.5375C29.1686 15.0514 28.5722 14.7659 27.94 14.756H15.0342L17.4605 22.9383Z" fill="#567343"/>
<path d="M19.2408 28.0361C18.528 28.0361 17.9502 28.6139 17.9502 29.3267C17.9502 30.0394 18.528 30.6173 19.2408 30.6173C19.9535 30.6173 20.5314 30.0394 20.5314 29.3267C20.5314 28.6139 19.9535 28.0361 19.2408 28.0361Z" fill="#567343"/>
<path d="M26.9839 28.0361C26.2712 28.0361 25.6934 28.6139 25.6934 29.3267C25.6934 30.0395 26.2712 30.6173 26.9839 30.6173C27.6967 30.6173 28.2745 30.0395 28.2745 29.3267C28.2745 28.6139 27.6967 28.0361 26.9839 28.0361Z" fill="#567343"/>
</svg>
