<svg width="40" height="40" viewBox="0 0 40 40" fill="none" xmlns="http://www.w3.org/2000/svg">
<path fill-rule="evenodd" clip-rule="evenodd" d="M29.4748 25.8875L29.7748 27.3125C30.059 28.5445 29.7783 29.8391 29.0093 30.8427C28.2403 31.8463 27.0633 32.4541 25.7998 32.5H14.1998C12.9362 32.4541 11.7592 31.8463 10.9902 30.8427C10.2212 29.8391 9.94046 28.5445 10.2248 27.3125L10.5248 25.8875C10.8698 23.9585 12.528 22.5409 14.4873 22.5H25.5123C27.4715 22.5409 29.1297 23.9585 29.4748 25.8875ZM25.7998 30.6125C26.4345 30.6052 27.0318 30.3111 27.4248 29.8125V29.825C27.9069 29.2203 28.0947 28.4323 27.9373 27.675L27.6373 26.25C27.4708 25.194 26.5805 24.4033 25.5123 24.3625H14.4873C13.419 24.4033 12.5287 25.194 12.3623 26.25L12.0623 27.675C11.9087 28.4283 12.0963 29.2108 12.5748 29.8125C12.9677 30.3111 13.565 30.6052 14.1998 30.6125H25.7998Z" fill="#567343"/>
<path fill-rule="evenodd" clip-rule="evenodd" d="M20.625 20H19.375C16.6136 20 14.375 17.7614 14.375 15V11.7C14.3717 10.5851 14.8131 9.51487 15.6015 8.72649C16.3899 7.93811 17.4601 7.49669 18.575 7.50002H21.425C22.5399 7.49669 23.6102 7.93811 24.3985 8.72649C25.1869 9.51487 25.6284 10.5851 25.625 11.7V15C25.625 17.7614 23.3864 20 20.625 20ZM18.575 9.37502C17.291 9.37502 16.25 10.416 16.25 11.7V15C16.25 16.7259 17.6491 18.125 19.375 18.125H20.625C22.3509 18.125 23.75 16.7259 23.75 15V11.7C23.75 11.0834 23.5051 10.492 23.069 10.056C22.633 9.61998 22.0417 9.37502 21.425 9.37502H18.575Z" fill="#567343"/>
</svg>
