<svg width="201" height="120" viewBox="0 0 201 120" fill="none" xmlns="http://www.w3.org/2000/svg">
<g clip-path="url(#clip0_516_2659)">
<path d="M150.326 73.6844L110.674 67.9785L61.3474 76.7411L36.8082 83.4659L25.5 95.8965L30.8347 110.976L64.7614 118.516L114.265 121.573L150.326 116.682L169.956 102.825L167.394 91.6171L150.326 73.6844Z" fill="#FEF4D0"/>
<path d="M106.949 28.4066C106.949 28.4066 88.351 28.4066 82.88 32.781C77.409 37.1553 66.467 48.0994 68.6562 59.0434C70.8454 69.9875 82.88 98.431 98.1964 104.997C113.513 111.562 126.644 113.745 134.302 108.278C141.96 102.811 153.094 100.116 157.277 84.2113C162.748 63.4239 157.277 39.3527 155.09 33.8817C153.273 29.3385 145.244 19.6579 139.773 18.5653C134.302 17.4727 126.644 15.2815 121.173 19.6599C116.69 22.9756 111.931 25.9018 106.949 28.4066Z" fill="#FD6769"/>
<path d="M101.267 10.2011C103.246 10.5608 105.052 11.5618 106.406 13.0495C107.743 14.9681 108.511 17.2246 108.624 19.5602C109.256 24.549 107.25 30.14 105.861 34.9722C105.277 37.0068 110.744 37.0068 111.332 34.9722C112.976 29.2591 112.607 23.5785 111.649 17.7168C111.343 15.0976 110.283 12.6236 108.597 10.5958C106.857 8.78577 104.606 7.5482 102.146 7.04747C100.089 6.57748 99.2117 9.74126 101.273 10.2113L101.267 10.2011Z" fill="black"/>
<path d="M101.468 34.4067C102.881 35.6372 104.568 36.512 106.387 36.9581C107.656 37.1108 108.942 37.0049 110.168 36.6468C112.139 36.2824 113.941 35.2946 115.309 33.8289" stroke="black" stroke-miterlimit="10"/>
</g>
<defs>
<clipPath id="clip0_516_2659">
<rect width="200" height="120" fill="white" transform="translate(0.5)"/>
</clipPath>
</defs>
</svg>
