<svg width="293" height="331" viewBox="0 0 293 331" fill="none" xmlns="http://www.w3.org/2000/svg">
<path d="M173.091 116.794C173.055 113.87 171.584 110.667 168.984 109.885C168.076 109.614 166.604 110.321 165.603 110.505C162.908 111.03 160.439 112.386 158.542 114.383C151.877 121.06 142.426 134.633 133.466 140.391C124.505 146.149 110.607 155.934 100.541 154.573C93.5768 153.543 86.68 152.111 79.8846 150.283C79.7811 150.256 79.6921 150.226 79.5911 150.189C78.6249 149.822 72.5399 147.634 68.8487 149.224C67.5122 149.635 66.3046 150.391 65.3464 151.415C64.9237 151.912 64.6252 152.504 64.4759 153.139C64.3266 153.774 64.3307 154.435 64.4881 155.067C66.645 160.602 70.6671 165.194 75.8584 168.049C85.6812 173.319 99.6138 181.57 106.597 182.357C113.58 183.145 127.322 181.978 135.477 176.574C145.468 169.875 154.097 161.321 160.893 151.377C167.815 140.796 167.589 136.407 170.96 128.036C172.406 124.463 173.131 120.642 173.091 116.794Z" fill="#FCC812"/>
<path d="M168.764 111.477C166.168 120.42 163.345 128.262 158.332 136.203C153.429 143.966 146.336 149.747 138.766 154.742C132.237 159.28 125.006 162.699 117.371 164.858C109.274 166.929 101.036 166.235 93.037 164.166C83.6641 161.749 74.5809 157.094 65.9441 152.84C65.7038 153.15 65.5065 153.491 65.3577 153.853C80.5722 161.347 97.2534 170.929 114.77 167.739C122.89 166.024 130.622 162.784 137.558 158.189C145.247 153.388 152.575 147.84 158.075 140.524C164.614 131.823 166.997 121.047 170.005 110.72C169.73 110.609 169.426 110.591 169.139 110.669L168.764 111.477Z" fill="black"/>
<path d="M177.322 114.122C175.12 111.24 171.248 109.176 168.071 110.345C166.961 110.755 166.02 112.557 165.154 113.478C162.847 116.016 161.385 119.209 160.971 122.611C159.257 134.226 159.89 154.76 155.205 167.179C150.52 179.597 143.89 199.707 132.795 205.9C125.058 210.091 117.09 213.834 108.931 217.11C108.813 217.158 108.692 217.2 108.569 217.235C107.332 217.59 99.6101 219.98 97.0985 224.32C96.0656 225.732 95.4177 227.388 95.2193 229.125C95.3464 231.161 95.9213 232.705 97.0739 233.388C103.352 237.264 110.797 238.807 118.119 237.75C131.868 235.621 151.945 233.375 159.521 228.937C167.098 224.5 179.985 213.047 184.131 201.581C188.278 190.115 191.766 173.225 190.836 157.557C189.906 141.889 186.4 137.695 183.548 126.869C182.337 122.243 180.221 117.91 177.322 114.122Z" fill="#FCC812"/>
<path d="M169.492 118.744C174.832 135.711 176.09 155.798 171.855 173.143C167.347 191.607 156.071 209.004 139.244 218.658C130.02 223.948 105.639 228.065 95.4899 230.987L95.7235 231.875C104.483 231.904 129.638 226.124 138.354 221.633C147.031 217.173 154.569 210.756 160.371 202.889C171.816 187.484 176.32 166.977 176.395 147.988C176.428 137.591 174.075 128.248 172.5 117.995C171.902 115.183 170.913 112.471 169.561 109.94L168.075 110.342L169.492 118.744Z" fill="black"/>
<path d="M168.077 110.352L163.145 103.71L167.76 100.068L175.422 101.977L169.556 109.943L168.077 110.352Z" fill="black"/>
</svg>
