<svg width="35" height="35" viewBox="0 0 35 35" fill="none" xmlns="http://www.w3.org/2000/svg">
<path fill-rule="evenodd" clip-rule="evenodd" d="M8.44007 20.4454C8.5039 20.467 8.56833 20.4822 8.6327 20.4915C8.70291 20.6566 8.7936 20.8699 8.89942 21.1195C9.15766 21.7285 9.5056 22.5523 9.86475 23.4115C10.5972 25.164 11.336 26.9704 11.4992 27.4876C11.7012 28.1267 11.9147 28.5613 12.1478 28.8581C12.2683 29.0115 12.4077 29.1454 12.5708 29.2469C12.6529 29.2979 12.7396 29.3398 12.8302 29.371C12.8341 29.3725 12.8381 29.3738 12.8421 29.3751C13.3088 29.5512 13.7343 29.4779 14.0007 29.3882C14.1432 29.3401 14.2585 29.2822 14.3403 29.2352C14.382 29.2112 14.4172 29.1889 14.4453 29.1699L14.4519 29.1655L18.5735 26.5952L23.3342 30.2451C23.4045 30.2989 23.481 30.3441 23.5623 30.3796C24.1342 30.6291 24.688 30.7162 25.209 30.645C25.7291 30.574 26.1421 30.3555 26.4495 30.1095C26.7505 29.8687 26.9545 29.5989 27.0817 29.3986C27.1466 29.2962 27.1953 29.2056 27.2295 29.1364C27.2469 29.1015 27.2607 29.0715 27.2714 29.0474L27.2852 29.0156L27.2903 29.0031L27.2925 28.9978L27.2936 28.9953L27.2944 28.993C27.3195 28.9304 27.3386 28.8657 27.3517 28.7996L31.698 6.88749C31.7119 6.81742 31.7189 6.74614 31.7189 6.67469C31.7189 6.03301 31.4771 5.42284 30.9086 5.05259C30.4227 4.73613 29.8814 4.72251 29.5392 4.74847C29.1703 4.77648 28.8295 4.86758 28.6007 4.94037C28.4817 4.97826 28.3819 5.0148 28.31 5.04269C28.2738 5.0567 28.2441 5.06873 28.2221 5.0779L28.2054 5.08488L3.83132 14.6465L3.82817 14.6477C3.81264 14.6533 3.79269 14.6608 3.76899 14.67C3.7218 14.6884 3.65855 14.7142 3.58468 14.7477C3.44063 14.813 3.23853 14.915 3.03114 15.057C2.69983 15.2839 1.93786 15.9053 2.06616 16.931C2.16853 17.7492 2.72908 18.2518 3.07061 18.4934C3.25813 18.6261 3.4363 18.7209 3.56605 18.7828C3.62623 18.8114 3.75121 18.8621 3.80543 18.8843L3.81913 18.8898L8.44007 20.4454ZM29.0586 7.09912L29.0551 7.10061C29.043 7.10589 29.0307 7.11094 29.0185 7.11578L4.61466 16.689C4.60191 16.694 4.58908 16.6988 4.57616 16.7033L4.56258 16.7084C4.54697 16.7146 4.52069 16.7252 4.4877 16.7401C4.46899 16.7485 4.44946 16.7579 4.42955 16.7678C4.45691 16.7832 4.48308 16.7965 4.50634 16.8076C4.52866 16.8182 4.5457 16.8255 4.55501 16.8293L9.13802 18.3722C9.2219 18.4005 9.3001 18.4379 9.37188 18.4831L24.5046 9.6244L24.5188 9.61603C24.5299 9.60952 24.5443 9.60114 24.5617 9.59133C24.5961 9.57186 24.6435 9.54595 24.6998 9.51729C24.8048 9.46384 24.9728 9.38449 25.1621 9.32599C25.2939 9.28525 25.6825 9.1705 26.1027 9.30526C26.362 9.38843 26.6304 9.56724 26.805 9.87013C26.8918 10.0206 26.938 10.1718 26.9603 10.3102C27.0198 10.5282 27.0105 10.7434 26.964 10.9293C26.8636 11.3296 26.5823 11.6418 26.3264 11.8807C26.1072 12.0855 23.2702 14.8211 20.4715 17.5216C19.0757 18.8682 17.6942 20.2017 16.6617 21.1984L15.9834 21.8531L24.5468 28.4183C24.7431 28.4886 24.8592 28.4851 24.913 28.4776C24.977 28.4689 25.0293 28.4442 25.0829 28.4015C25.1427 28.3537 25.195 28.2889 25.2341 28.2272L25.2357 28.2247L29.451 6.97248C29.3884 6.98752 29.3252 7.00543 29.2642 7.02482C29.1951 7.0468 29.1382 7.06774 29.1004 7.08237C29.0818 7.08962 29.0683 7.09511 29.0611 7.09815L29.0586 7.09912ZM16.7192 25.1736L15.0107 23.8637L14.5967 26.4971L16.7192 25.1736ZM13.4435 21.2647L15.1424 19.6245C16.1751 18.6277 17.5567 17.2942 18.9525 15.9473L20.3707 14.5791L10.8623 20.1453L10.9134 20.2656C11.1725 20.8768 11.522 21.7041 11.8831 22.568C12.153 23.2139 12.4354 23.8941 12.6925 24.5238L13.1053 21.8982C13.1451 21.645 13.2687 21.426 13.4435 21.2647Z" fill="#567343"/>
</svg>
