<svg width="20" height="20" viewBox="0 0 20 20" fill="none" xmlns="http://www.w3.org/2000/svg">
<path fill-rule="evenodd" clip-rule="evenodd" d="M9.79 0C4.38542 0.00551207 0.00551207 4.38542 0 9.79C0 15.1969 4.38313 19.58 9.79 19.58C15.1969 19.58 19.58 15.1969 19.58 9.79C19.5745 4.38542 15.1946 0.00551207 9.79 0ZM9.79 18.08C5.21156 18.08 1.5 14.3684 1.5 9.79C1.5 5.21156 5.21156 1.5 9.79 1.5C14.3684 1.5 18.08 5.21156 18.08 9.79C18.0745 14.3662 14.3662 18.0745 9.79 18.08ZM9.79 6.04C9.40648 6.08421 9.11703 6.40894 9.11703 6.795C9.11703 7.18106 9.40648 7.50579 9.79 7.55C9.9915 7.5528 10.1854 7.47329 10.327 7.32985C10.4685 7.18641 10.5455 6.99145 10.54 6.79C10.5346 6.37804 10.202 6.04539 9.79 6.04ZM9.79 8.92C9.59027 8.91728 9.39792 8.99543 9.25667 9.13667C9.11543 9.27792 9.03728 9.47027 9.04 9.67V12.79C9.04 13.2042 9.37579 13.54 9.79 13.54C10.2042 13.54 10.54 13.2042 10.54 12.79V9.69C10.5454 9.48765 10.4688 9.2917 10.3275 9.14669C10.1863 9.00169 9.99243 8.91993 9.79 8.92Z" fill="#D21C1C"/>
</svg>
