<svg width="35" height="35" viewBox="0 0 35 35" xmlns="http://www.w3.org/2000/svg">
<path d="M23.333 10.2083C23.333 9.40293 23.9859 8.75 24.7913 8.75C25.5968 8.75 26.2497 9.40293 26.2497 10.2083C26.2497 11.0137 25.5968 11.6667 24.7913 11.6667C23.9859 11.6667 23.333 11.0137 23.333 10.2083Z" />
<path d="M17.5003 10.5728C13.6746 10.5728 10.5732 13.6741 10.5732 17.4998C10.5732 21.3256 13.6746 24.4269 17.5003 24.4269C21.3261 24.4269 24.4274 21.3256 24.4274 17.4998C24.4274 13.6741 21.3261 10.5728 17.5003 10.5728ZM12.7607 17.4998C12.7607 14.8823 14.8828 12.7603 17.5003 12.7603C20.1179 12.7603 22.2399 14.8823 22.2399 17.4998C22.2399 20.1174 20.1179 22.2394 17.5003 22.2394C14.8828 22.2394 12.7607 20.1174 12.7607 17.4998Z" />
<path d="M25.1685 4.13129C20.1131 3.56626 14.8873 3.56626 9.83191 4.13129C6.89766 4.45923 4.52884 6.7707 4.18387 9.72022C3.57933 14.889 3.57933 20.1107 4.18387 25.2794C4.52884 28.2289 6.89766 30.5404 9.83191 30.8683C14.8873 31.4333 20.1131 31.4333 25.1685 30.8683C28.1027 30.5404 30.4715 28.2289 30.8165 25.2794C31.421 20.1107 31.421 14.889 30.8165 9.72022C30.4715 6.7707 28.1027 4.45923 25.1685 4.13129ZM10.0749 6.30525C14.9688 5.75828 20.0315 5.75828 24.9254 6.30525C26.8653 6.52204 28.419 8.05274 28.6439 9.97434C29.2287 14.9743 29.2287 20.0253 28.6439 25.0252C28.419 26.9469 26.8653 28.4776 24.9254 28.6944C20.0315 29.2413 14.9688 29.2413 10.0749 28.6944C8.13514 28.4776 6.5813 26.9469 6.35656 25.0252C5.77176 20.0253 5.77176 14.9743 6.35656 9.97434C6.5813 8.05274 8.13514 6.52204 10.0749 6.30525Z" />
</svg>
