<svg width="100%" height="40" viewBox="0 0 80 40" fill="none" xmlns="http://www.w3.org/2000/svg">
<g clip-path="url(#clip0_547_3958)">
<g clip-path="url(#clip1_547_3958)">
<path fill-rule="evenodd" clip-rule="evenodd" d="M65.2319 24.3971L65.0599 24.2464C64.6409 23.8804 64.5672 23.2131 64.9491 22.7844L69.4308 17.5437C69.7885 17.1151 70.4408 17.0397 70.8598 17.4304L71.0318 17.5817C71.4508 17.9471 71.5244 18.6151 71.1426 19.0431L66.6608 24.2837C66.3031 24.7124 65.6756 24.7624 65.2319 24.3971Z" fill="url(#paint0_linear_547_3958)"/>
<path opacity="0.4" fill-rule="evenodd" clip-rule="evenodd" d="M68.8278 18.4509L68.7412 18.3496L68.0518 19.1563L68.1254 19.2443C69.3081 20.4536 68.8031 21.6756 68.532 22.1043L68.6304 21.9909C68.7907 21.8016 69.037 21.5123 69.295 21.1976C69.5661 20.7183 69.9479 19.5843 68.8278 18.4509Z" fill="url(#paint1_linear_547_3958)"/>
<path opacity="0.4" fill-rule="evenodd" clip-rule="evenodd" d="M70.305 20.0254L70.4901 19.8114C70.5024 19.786 70.5266 19.7607 70.5389 19.7354C70.3421 19.962 70.133 20.202 69.9355 20.4407C70.0835 20.2774 70.2066 20.1387 70.305 20.0254Z" fill="url(#paint2_radial_547_3958)"/>
<path fill-rule="evenodd" clip-rule="evenodd" d="M71.1677 17.7069L66.6846 12.4669C66.3275 12.0375 65.6746 11.9615 65.2563 12.3535L65.0843 12.5035C64.6653 12.8689 64.5917 13.5369 64.9735 13.9649L68.7535 18.3489L68.8395 18.4502C69.9602 19.5969 69.5784 20.7302 69.2956 21.2089C69.5171 20.9442 69.7387 20.6795 69.9478 20.4402C70.1453 20.2009 70.3544 19.9615 70.5512 19.7349C70.7487 19.5082 70.9331 19.2942 71.0562 19.1549C71.4869 18.7269 71.5488 18.1349 71.167 17.7069H71.1677Z" fill="url(#paint3_linear_547_3958)"/>
<path fill-rule="evenodd" clip-rule="evenodd" d="M70.9213 24.3971L70.7493 24.2464C70.3303 23.8804 70.2567 23.2131 70.6385 22.7844L75.1203 17.5437C75.4774 17.1151 76.1303 17.0397 76.5486 17.4304L76.7213 17.5817C77.1396 17.9471 77.2139 18.6151 76.832 19.0431L72.3496 24.2837C71.9926 24.7124 71.3651 24.7624 70.9213 24.3971Z" fill="url(#paint4_linear_547_3958)"/>
<path opacity="0.4" fill-rule="evenodd" clip-rule="evenodd" d="M74.5661 18.4005L74.4801 18.2998L73.79 19.1065L73.8643 19.1945C75.0463 20.4038 74.542 21.6258 74.2703 22.0545L74.3693 21.9411C74.529 21.7518 74.7753 21.4618 75.034 21.1471C75.305 20.6685 75.6869 19.5338 74.5661 18.4005Z" fill="url(#paint5_linear_547_3958)"/>
<path opacity="0.4" fill-rule="evenodd" clip-rule="evenodd" d="M75.9827 20.0254L76.1678 19.8114C76.1795 19.786 76.2043 19.7607 76.2167 19.7354C76.0199 19.962 75.8107 20.202 75.6133 20.4407C75.7612 20.2774 75.8967 20.1387 75.9827 20.0254Z" fill="url(#paint6_radial_547_3958)"/>
<path fill-rule="evenodd" clip-rule="evenodd" d="M76.8447 17.7069L72.3623 12.4669C72.0053 12.0375 71.353 11.9615 70.934 12.3535L70.762 12.5035C70.343 12.8695 70.2694 13.5375 70.6512 13.9655L74.4312 18.3495L74.5172 18.4509C75.638 19.5975 75.2561 20.7309 74.9733 21.2095C75.1949 20.9449 75.4164 20.6802 75.6256 20.4409C75.8224 20.2015 76.0322 19.9622 76.229 19.7355C76.4258 19.5089 76.6108 19.2949 76.734 19.1555C77.1647 18.7275 77.2266 18.1349 76.8447 17.7069Z" fill="url(#paint7_linear_547_3958)"/>
<path fill-rule="evenodd" clip-rule="evenodd" d="M21.8997 12.0508C23.0693 12.0508 24.1034 12.3148 24.9655 12.8188C25.8399 13.3481 26.5046 14.0914 26.9724 15.0361C27.4409 15.9941 27.6749 17.1274 27.6749 18.4254C27.6749 19.8234 27.4038 21.0454 26.8493 22.0408C26.3078 23.0488 25.52 23.7794 24.4976 24.2461C25.0274 24.4221 25.4581 24.8254 25.8152 25.4174L26.4309 26.3621C26.5541 26.5768 26.6277 26.7781 26.6277 26.9921C26.6277 27.2568 26.53 27.4834 26.3202 27.6474C26.111 27.8114 25.864 27.9121 25.5936 27.9121C25.3845 27.9121 25.187 27.8614 25.0026 27.7608C24.8299 27.6601 24.6703 27.5088 24.5465 27.3201L23.5372 25.6068C23.3769 25.3294 23.1677 25.1274 22.909 25.0014C22.6503 24.8754 22.318 24.8001 21.899 24.8001C20.7053 24.8001 19.6829 24.5354 18.8085 24.0314C17.9347 23.5028 17.2694 22.7594 16.8015 21.8141C16.3337 20.8441 16.0997 19.7101 16.0997 18.4254C16.0997 17.1274 16.3461 16.0061 16.8015 15.0361C17.2694 14.0788 17.9464 13.3481 18.8085 12.8188C19.6829 12.2901 20.7046 12.0508 21.9003 12.0508H21.8997ZM51.3913 12.0628C51.6865 12.0628 51.9204 12.1894 52.1296 12.4534L55.6639 16.9388L59.1852 12.4534C59.3937 12.2014 59.653 12.0754 59.9482 12.0754C60.2069 12.0754 60.4408 12.1768 60.65 12.3908C60.8598 12.6048 60.9582 12.8314 60.9582 13.1341C60.9582 13.3608 60.8722 13.6001 60.6995 13.8141L56.7716 18.7148V23.6161C56.7716 23.9814 56.6732 24.2581 56.4634 24.4728C56.2543 24.6861 55.9956 24.7748 55.675 24.7748C55.3427 24.7748 55.0599 24.6741 54.8507 24.4728C54.6409 24.2708 54.5425 23.9941 54.5425 23.6161V18.7148L50.6394 13.8014C50.4667 13.5881 50.3807 13.3608 50.3807 13.1214C50.3807 12.8441 50.4791 12.5921 50.6882 12.3781C50.8981 12.1641 51.1444 12.0628 51.39 12.0628H51.3913ZM35.4075 12.1641C36.7126 12.1641 37.7226 12.4914 38.4491 13.1714C39.1757 13.8268 39.5451 14.7714 39.5451 15.9688C39.5451 17.1654 39.1757 18.1101 38.4491 18.7781C37.7226 19.4581 36.7126 19.7861 35.4075 19.7861H32.3169V23.5908C32.3169 23.9561 32.2185 24.2334 32.0093 24.4348C31.7995 24.6488 31.5291 24.7494 31.1838 24.7494C30.8514 24.7374 30.5686 24.6361 30.3836 24.4228C30.1744 24.2081 30.076 23.9308 30.076 23.5781V13.2348C30.076 12.8948 30.1738 12.6301 30.3712 12.4414C30.5686 12.2648 30.8273 12.1641 31.1596 12.1641H35.4075ZM12.6886 12.0628C13.0209 12.0628 13.3167 12.1641 13.5135 12.3781C13.7233 12.5921 13.8217 12.8568 13.8217 13.1968V23.5781C13.8217 23.9181 13.7233 24.2081 13.5135 24.4221C13.3044 24.6361 13.0333 24.7374 12.6886 24.7374C12.3687 24.7374 12.0976 24.6361 11.8884 24.4221C11.6793 24.2081 11.5802 23.9308 11.5802 23.5781V13.1968C11.5802 12.8568 11.6793 12.5921 11.8884 12.3781C12.0976 12.1641 12.3563 12.0628 12.6886 12.0628ZM45.2956 12.0508C45.5419 12.0508 45.7634 12.1134 45.9732 12.2268C46.1817 12.3534 46.342 12.5294 46.4528 12.7688L51.2434 23.2628C51.2923 23.4268 51.3294 23.5654 51.3294 23.7294C51.3294 23.9941 51.2187 24.2208 51.0095 24.4228C50.7997 24.5988 50.5534 24.6994 50.2706 24.6994C50.0979 24.6994 49.9135 24.6488 49.7532 24.5481C49.5929 24.4474 49.4574 24.2834 49.3714 24.0814L48.3249 21.7134H42.2662L41.2198 24.0821C41.1214 24.2961 40.9982 24.4474 40.8379 24.5481C40.6776 24.6488 40.5056 24.6994 40.3088 24.6994C40.0501 24.6994 39.7915 24.5988 39.5823 24.4221C39.3607 24.2461 39.2617 24.0061 39.2617 23.7288C39.2617 23.5781 39.2988 23.4141 39.3601 23.2628L44.1383 12.7688C44.2361 12.5421 44.397 12.3528 44.6185 12.2268C44.8277 12.1008 45.0486 12.0508 45.2956 12.0508ZM3.12108 12.0754C3.45339 12.0754 3.74857 12.1768 3.94601 12.3908C4.15517 12.6048 4.25357 12.8694 4.25357 13.2094V22.7714H9.09304C9.78243 22.7714 10.1395 23.0868 10.1395 23.7041C10.1395 24.3214 9.78243 24.6361 9.09304 24.6361H3.05917C2.72685 24.6361 2.46817 24.5361 2.28376 24.3468C2.11109 24.1701 2.0127 23.9054 2.0127 23.5781V13.2094C2.0127 12.8694 2.11109 12.6048 2.32025 12.3908C2.53007 12.1768 2.78876 12.0754 3.12108 12.0754ZM21.8743 13.8401C20.7418 13.8401 19.8673 14.2308 19.2398 15.0121C18.6117 15.8054 18.2917 16.9141 18.2917 18.4008C18.2917 19.8874 18.611 20.9961 19.2398 21.7894C19.8673 22.5834 20.7542 22.9741 21.8749 22.9741C22.9957 22.9741 23.8695 22.5834 24.4976 21.7894C25.1258 20.9961 25.4457 19.8628 25.4457 18.4008C25.4457 16.9141 25.1258 15.8054 24.4976 15.0121C23.8695 14.2181 23.0068 13.8401 21.8743 13.8401ZM45.2956 14.7094L43.0176 19.9501H47.586L45.2956 14.7094ZM35.124 13.9401H32.3169V18.0348L35.1247 18.0474C36.6514 18.0474 37.4274 17.3541 37.4274 15.9941C37.4274 14.6334 36.6514 13.9408 35.1247 13.9408L35.124 13.9401Z" fill="black"/>
</g>
</g>
<defs>
<linearGradient id="paint0_linear_547_3958" x1="146.902" y1="567.945" x2="681.599" y2="266.619" gradientUnits="userSpaceOnUse">
<stop stop-color="#1FADC3"/>
<stop offset="0.7072" stop-color="#36B98F"/>
</linearGradient>
<linearGradient id="paint1_linear_547_3958" x1="141.398" y1="161.335" x2="196.799" y2="116.111" gradientUnits="userSpaceOnUse">
<stop stop-color="#123F06" stop-opacity="0"/>
<stop offset="1" stop-color="#123F06"/>
</linearGradient>
<radialGradient id="paint2_radial_547_3958" cx="0" cy="0" r="1" gradientUnits="userSpaceOnUse" gradientTransform="translate(-140.121 101.524) scale(300.239 307.096)">
<stop offset="0.4185" stop-color="#123F06" stop-opacity="0"/>
<stop offset="1" stop-color="#123F06"/>
</radialGradient>
<linearGradient id="paint3_linear_547_3958" x1="168.164" y1="232.186" x2="650.568" y2="520.449" gradientUnits="userSpaceOnUse">
<stop stop-color="#9FDB57"/>
<stop offset="1" stop-color="#71CA5E"/>
</linearGradient>
<linearGradient id="paint4_linear_547_3958" x1="152.134" y1="568.266" x2="686.822" y2="266.954" gradientUnits="userSpaceOnUse">
<stop stop-color="#1FADC3"/>
<stop offset="0.7072" stop-color="#36B98F"/>
</linearGradient>
<linearGradient id="paint5_linear_547_3958" x1="147.164" y1="161.285" x2="202.569" y2="116.041" gradientUnits="userSpaceOnUse">
<stop stop-color="#123F06" stop-opacity="0"/>
<stop offset="1" stop-color="#123F06"/>
</linearGradient>
<radialGradient id="paint6_radial_547_3958" cx="0" cy="0" r="1" gradientUnits="userSpaceOnUse" gradientTransform="translate(-133.935 101.524) scale(300.239 307.096)">
<stop offset="0.4185" stop-color="#123F06" stop-opacity="0"/>
<stop offset="1" stop-color="#123F06"/>
</radialGradient>
<linearGradient id="paint7_linear_547_3958" x1="174.05" y1="232.43" x2="656.472" y2="520.683" gradientUnits="userSpaceOnUse">
<stop stop-color="#9FDB57"/>
<stop offset="1" stop-color="#71CA5E"/>
</linearGradient>
<clipPath id="clip0_547_3958">
<rect width="75.5862" height="16" fill="white" transform="translate(2 12)"/>
</clipPath>
<clipPath id="clip1_547_3958">
<rect width="76.2378" height="17.3333" fill="white" transform="translate(1.34863 11.3335)"/>
</clipPath>
</defs>
</svg>
