<svg width="142" height="79" viewBox="0 0 142 79" fill="none" xmlns="http://www.w3.org/2000/svg">
<mask id="mask0_516_2756" style="mask-type:luminance" maskUnits="userSpaceOnUse" x="0" y="0" width="21" height="43">
<path d="M0.125 0.125H20.4391V42.2476H0.125V0.125Z" fill="white"/>
</mask>
<g mask="url(#mask0_516_2756)">
<path fill-rule="evenodd" clip-rule="evenodd" d="M1.16202 27.8033C-2.1405 16.8572 3.85223 5.01742 14.5474 1.35974C25.2426 -2.29883 36.5888 3.60938 39.8913 14.5554C43.1938 25.5024 37.2002 37.3413 26.5059 40.9998C15.8107 44.6584 4.46364 38.7502 1.16202 27.8033Z" fill="#EE8D13"/>
</g>
<mask id="mask1_516_2756" style="mask-type:luminance" maskUnits="userSpaceOnUse" x="1" y="1" width="20" height="40">
<path d="M1.27588 1.73633H20.4391V40.4063H1.27588V1.73633Z" fill="white"/>
</mask>
<g mask="url(#mask1_516_2756)">
<path fill-rule="evenodd" clip-rule="evenodd" d="M2.105 27.2898C-0.940366 17.1943 4.70079 6.23656 14.7054 2.81446C24.711 -0.607639 35.2902 4.80245 38.3356 14.897C41.3809 24.9925 35.7389 35.9502 25.7342 39.3723C15.7296 42.7944 5.15036 37.3852 2.105 27.2898Z" fill="#FAF4A7"/>
</g>
<mask id="mask2_516_2756" style="mask-type:luminance" maskUnits="userSpaceOnUse" x="1" y="2" width="20" height="38">
<path d="M1.73633 2.19678H20.4392V39.7158H1.73633V2.19678Z" fill="white"/>
</mask>
<g mask="url(#mask2_516_2756)">
<path d="M23.6965 10.8981C23.6965 10.8981 26.1619 6.02933 28.0725 5.55998C29.9832 5.09243 35.3987 6.55712 34.7315 10.6509C34.246 13.1352 29.9283 14.9568 29.9283 14.9568C29.9283 14.9568 35.0597 11.728 35.806 13.0129C36.5541 14.2978 39.1975 17.3045 37.4541 19.5451C35.7116 21.7866 34.148 21.1896 34.148 21.1896C34.148 21.1896 41.1576 21.3874 36.8499 29.1137C33.6058 34.9311 29.4365 29.5821 29.4365 29.5821C29.4365 29.5821 32.8415 32.7345 31.6052 34.5948C30.3698 36.4551 28.5895 35.7097 26.2644 32.2993C26.2644 32.2993 29.3061 37.1744 24.1505 39.5247C20.0442 40.556 19.0282 35.3429 19.0282 35.3429C19.0282 35.3429 18.1668 40.0525 14.7735 39.255C11.3801 38.4584 4.01803 32.8604 4.75532 30.8328C5.49351 28.8071 6.48255 28.0068 6.48255 28.0068C6.48255 28.0068 2.30608 29.476 1.85561 24.7187C1.51394 21.1015 5.96735 20.3786 5.96735 20.3786C5.96735 20.3786 0.842292 19.9542 2.36632 16.1796C3.88945 12.4042 4.39926 11.1948 5.96735 11.8135C7.53544 12.4321 7.74763 12.3224 7.74763 12.3224C7.74763 12.3224 5.58792 11.0663 5.66884 10.5403C5.75066 10.0143 10.5296 1.99222 14.7735 7.73768C16.3982 9.93696 16.9619 11.2497 16.9619 11.2497C16.9619 11.2497 14.4219 6.22624 14.6305 4.918C14.84 3.61066 23.2945 0.892579 25.2457 3.01094C26.3345 4.1924 25.1135 6.77921 23.6965 10.8981Z" fill="#F9F5E1"/>
</g>
<mask id="mask3_516_2756" style="mask-type:luminance" maskUnits="userSpaceOnUse" x="18" y="23" width="3" height="17">
<path d="M18.9995 23.603H20.439V39.2551H18.9995V23.603Z" fill="white"/>
</mask>
<g mask="url(#mask3_516_2756)">
<path fill-rule="evenodd" clip-rule="evenodd" d="M19.2956 32.2294C19.016 28.3326 19.3315 24.023 20.2208 23.6562C21.1109 23.2893 23.4046 27.607 24.8181 30.6721C26.6289 34.5986 27.9929 38.1952 23.9963 39.0979C19.8072 40.0447 19.6076 36.592 19.2956 32.2294Z" fill="#EF8A13"/>
</g>
<path fill-rule="evenodd" clip-rule="evenodd" d="M18.8757 19.2354C18.0467 20.3305 7.81813 12.1331 7.17975 10.7449C6.54046 9.35661 7.40183 8.38465 10.841 5.93001C14.2793 3.47538 20.0382 17.8669 18.8757 19.2354Z" fill="#EF8A13"/>
<path fill-rule="evenodd" clip-rule="evenodd" d="M18.9579 22.8418C19.8534 23.3013 19.2186 35.9314 17.6667 37.9904C15.6419 40.6761 2.87689 34.2374 5.60126 29.9737C6.34664 27.9399 18.9579 22.8418 18.9579 22.8418Z" fill="#EF8A13"/>
<mask id="mask4_516_2756" style="mask-type:luminance" maskUnits="userSpaceOnUse" x="15" y="2" width="6" height="18">
<path d="M15.3169 2.19678H20.4393V19.4601H15.3169V2.19678Z" fill="white"/>
</mask>
<g mask="url(#mask4_516_2756)">
<path fill-rule="evenodd" clip-rule="evenodd" d="M20.6049 19.2678C19.5224 18.7265 14.7768 6.41651 15.5482 4.75671C16.3179 3.09781 22.3583 0.745678 24.6672 3.43948C26.9771 6.13329 21.6875 19.8091 20.6049 19.2678Z" fill="#EF8A13"/>
</g>
<path fill-rule="evenodd" clip-rule="evenodd" d="M18.3387 21.8718C18.5383 23.0074 5.95588 28.4345 4.44174 27.9778C2.9276 27.5219 1.24622 25.1671 2.69742 22.3546C3.92114 19.9818 18.1391 20.7371 18.3387 21.8718Z" fill="#EF8A13"/>
<path fill-rule="evenodd" clip-rule="evenodd" d="M18.2361 20.8678C17.9718 21.6897 3.27096 19.761 2.76025 17.9708C2.43747 16.837 3.36987 13.6757 5.22208 12.1022C7.0734 10.5278 18.5005 20.046 18.2361 20.8678Z" fill="#EF8A13"/>
<path d="M7.15021 17.4885C8.66435 18.0217 9.39894 18.3562 9.39175 18.3786C9.39175 18.3786 8.32718 18.1745 7.0531 17.7906C5.78982 17.4103 4.78459 16.9832 4.81157 16.9005C4.83854 16.8168 5.9121 17.0533 7.15021 17.4885Z" fill="#F1AC0E"/>
<path d="M11.0366 11.1457C12.0877 12.3604 12.5607 13.0168 12.5427 13.0321C12.5427 13.0321 11.72 12.3253 10.8038 11.3588C9.89474 10.4012 9.23388 9.53084 9.29772 9.4715C9.36245 9.41306 10.178 10.1521 11.0366 11.1457Z" fill="#F1AC0E"/>
<path d="M13.6947 8.78461C14.3295 10.0281 14.5839 10.6845 14.5632 10.6953C14.5632 10.6953 13.9986 9.93819 13.4186 8.93656C12.845 7.94302 12.4746 7.06726 12.551 7.025C12.6274 6.98364 13.1759 7.76769 13.6947 8.78461Z" fill="#F1AC0E"/>
<path d="M14.6883 14.7678C15.5631 15.8548 15.9462 16.4455 15.9282 16.4608C15.9282 16.4608 15.2206 15.835 14.4491 14.9728C13.6849 14.1168 13.1436 13.3354 13.2101 13.2788C13.2758 13.2222 13.9735 13.8776 14.6883 14.7678Z" fill="#F1AC0E"/>
<path d="M12.3561 18.8603C13.6824 19.2892 14.3261 19.5724 14.3189 19.5949C14.3189 19.5949 13.3847 19.4609 12.268 19.1633C11.1603 18.8684 10.28 18.5123 10.3052 18.4278C10.3295 18.3451 11.2709 18.5096 12.3561 18.8603Z" fill="#F1AC0E"/>
<path d="M13.5543 21.4993C14.947 21.5604 15.643 21.662 15.6421 21.6863C15.6421 21.6863 14.7061 21.805 13.5507 21.814C12.4043 21.8248 11.462 21.7142 11.4629 21.627C11.4647 21.5398 12.416 21.4489 13.5543 21.4993Z" fill="#F1AC0E"/>
<path d="M8.55463 14.7396C9.68034 15.5623 10.2036 16.0326 10.1902 16.0523C10.1902 16.0523 9.34497 15.6324 8.3766 14.9995C7.41632 14.3728 6.69252 13.7586 6.74108 13.6867C6.79053 13.6148 7.63391 14.0661 8.55463 14.7396Z" fill="#F1AC0E"/>
<path d="M13.5698 17.0655C14.6956 17.8891 15.2189 18.3585 15.2054 18.3783C15.2054 18.3783 14.3602 17.9584 13.3918 17.3263C12.4315 16.6987 11.7068 16.0846 11.7563 16.0136C11.8057 15.9407 12.6482 16.3921 13.5698 17.0655Z" fill="#F1AC0E"/>
<path d="M14.9049 12.5383C15.6827 13.6973 16.0135 14.3186 15.9947 14.3321C15.9947 14.3321 15.3437 13.6478 14.6496 12.7226C13.9599 11.8046 13.4888 10.9792 13.5598 10.9289C13.6299 10.8776 14.2692 11.5906 14.9049 12.5383Z" fill="#F1AC0E"/>
<path d="M17.3912 6.83615C17.8237 8.16417 17.972 8.85201 17.9495 8.8592C17.9495 8.8592 17.5108 8.02391 17.0954 6.94315C16.6836 5.87138 16.4552 4.94887 16.537 4.9192C16.6179 4.88953 17.0378 5.75 17.3912 6.83615Z" fill="#F1AC0E"/>
<path d="M15.103 29.6519C16.0192 28.323 16.5371 27.6972 16.5569 27.7107C16.5569 27.7107 16.0759 28.6889 15.3664 29.8245C14.6633 30.9502 13.9845 31.8143 13.9116 31.7658C13.8388 31.7181 14.3531 30.7389 15.103 29.6519Z" fill="#F1AC0E"/>
<path d="M13.1438 34.3872C13.9116 32.9666 14.3585 32.2887 14.3801 32.2994C14.3801 32.2994 14.0069 33.3245 13.4243 34.5302C12.848 35.726 12.5638 36.8751 12.117 36.5694C12.0459 36.52 12.5171 35.5498 13.1438 34.3872Z" fill="#F1AC0E"/>
<path d="M16.948 34.0143C17.3661 32.4534 17.6448 31.69 17.6673 31.6963C17.6673 31.6963 17.5423 32.7798 17.2537 34.088C16.9687 35.3846 16.9579 36.5687 16.4526 36.3745C16.3717 36.3439 16.6055 35.2902 16.948 34.0143Z" fill="#F1AC0E"/>
<path d="M9.42121 29.3871C10.7115 28.4169 11.4002 27.9881 11.4146 28.0069C11.4146 28.0069 10.6494 28.782 9.61722 29.6344C8.59401 30.4787 7.85672 31.4048 7.57889 30.939C7.53393 30.8653 8.36653 30.1801 9.42121 29.3871Z" fill="#F1AC0E"/>
<path d="M9.87586 31.787C11.0384 30.6694 11.6714 30.1596 11.6876 30.1767C11.6876 30.1767 11.0214 31.039 10.0988 32.0091C9.18532 32.9712 8.56492 33.9791 8.23314 33.5511C8.18009 33.4828 8.92367 32.7024 9.87586 31.787Z" fill="#F1AC0E"/>
<path d="M14.6587 27.3495C15.8222 26.231 16.4552 25.7221 16.4714 25.7392C16.4714 25.7392 15.8042 26.6015 14.8826 27.5716C13.9682 28.5337 13.3478 29.5416 13.0169 29.1136C12.963 29.0444 13.7066 28.264 14.6587 27.3495Z" fill="#F1AC0E"/>
<path d="M7.55818 21.4061C9.16403 21.2568 9.97505 21.2523 9.97775 21.2757C9.97775 21.2757 8.92036 21.5346 7.59504 21.7189C6.28231 21.9024 5.17098 22.3043 5.17727 21.763C5.17817 21.6758 6.24544 21.5283 7.55818 21.4061Z" fill="#F1AC0E"/>
<path d="M14.0735 23.0807C15.6173 22.6123 16.4113 22.4451 16.4176 22.4684C16.4176 22.4684 15.4339 22.9342 14.1724 23.3802C12.9235 23.8234 11.9147 24.4402 11.8122 23.9079C11.796 23.8225 12.812 23.4647 14.0735 23.0807Z" fill="#F1AC0E"/>
<path d="M7.10396 26.0244C8.66485 25.6179 9.46508 25.4831 9.47047 25.5065C9.47047 25.5065 8.46884 25.9317 7.19117 26.3265C5.92429 26.7185 4.89209 27.2939 4.81117 26.758C4.79768 26.6717 5.82719 26.3561 7.10396 26.0244Z" fill="#F1AC0E"/>
<path d="M6.25598 24.0763C7.84026 23.7706 8.64768 23.6879 8.65128 23.7112C8.65128 23.7112 7.62446 24.0718 6.32432 24.3847C5.03496 24.6949 3.96769 25.2029 3.92094 24.6634C3.91374 24.5762 4.96123 24.3262 6.25598 24.0763Z" fill="#F1AC0E"/>
<path d="M8.86001 18.6967C10.4101 19.1112 11.169 19.3881 11.1636 19.4115C11.1636 19.4115 10.0864 19.2883 8.78718 19.0042C7.49782 18.7219 6.46292 18.3739 6.4827 18.2894C6.50338 18.204 7.59223 18.3568 8.86001 18.6967Z" fill="#EC6D18"/>
<path d="M10.3042 11.8579C11.4056 13.0277 11.9055 13.6625 11.8885 13.6796C11.8885 13.6796 11.037 13.0079 10.0803 12.0809C9.13081 11.1629 8.43399 10.3213 8.49603 10.2602C8.55717 10.1981 9.40325 10.9021 10.3042 11.8579Z" fill="#EC6D18"/>
<path d="M12.2482 8.77917C12.9352 9.9939 13.2175 10.6386 13.1968 10.6512C13.1968 10.6512 12.6007 9.91837 11.9794 8.94192C11.3626 7.97445 10.9562 7.11578 11.0308 7.07082C11.1054 7.02496 11.6872 7.78473 12.2482 8.77917Z" fill="#EC6D18"/>
<path d="M15.2397 16.3408C16.2944 17.2534 16.7772 17.765 16.761 17.7839C16.761 17.7839 15.9536 17.2957 15.041 16.5854C14.1356 15.8813 13.4639 15.2097 13.5188 15.1423C13.5736 15.0739 14.3765 15.5936 15.2397 16.3408Z" fill="#EC6D18"/>
<path d="M14.6606 19.8437C16.0227 20.1377 16.6917 20.3553 16.6872 20.3786C16.6872 20.3786 15.744 20.3382 14.603 20.1539C13.4719 19.9713 12.5611 19.7052 12.5764 19.6189C12.5925 19.5335 13.5456 19.6036 14.6606 19.8437Z" fill="#EC6D18"/>
<path d="M13.0876 22.4344C14.4596 22.1917 15.161 22.1404 15.1655 22.1638C15.1655 22.1638 14.278 22.483 13.1514 22.7437C12.0347 23.0018 11.0915 23.0998 11.0735 23.0144C11.0555 22.929 11.9654 22.6331 13.0876 22.4344Z" fill="#EC6D18"/>
<path d="M7.83249 15.8906C8.99237 16.6648 9.53455 17.1134 9.52196 17.1332C9.52196 17.1332 8.65969 16.7493 7.66615 16.1586C6.6798 15.5732 5.92993 14.9906 5.97668 14.9169C6.02254 14.8422 6.88391 15.2576 7.83249 15.8906Z" fill="#EC6D18"/>
<path d="M12.9414 18.0016C14.1013 18.7748 14.6434 19.2235 14.6309 19.2433C14.6309 19.2433 13.7686 18.8594 12.775 18.2686C11.7887 17.6833 11.0388 17.1007 11.0856 17.026C11.1314 16.9523 11.9928 17.3677 12.9414 18.0016Z" fill="#EC6D18"/>
<path d="M18.9095 11.1352C19.1433 12.5118 19.19 13.214 19.1667 13.2185C19.1667 13.2185 18.8538 12.3274 18.602 11.1963C18.3502 10.0769 18.2594 9.13011 18.3458 9.11303C18.4303 9.09595 18.7198 10.0095 18.9095 11.1352Z" fill="#EC6D18"/>
<path d="M17.5143 26.7923C18.1248 25.298 18.4979 24.5751 18.5204 24.5841C18.5204 24.5841 18.2588 25.6432 17.8083 26.9047C17.3623 28.1554 16.884 29.1445 16.8022 29.113C16.7203 29.0824 17.0144 28.0152 17.5143 26.7923Z" fill="#EC6D18"/>
<path d="M15.8925 32.6153C16.2431 31.0382 16.4895 30.2632 16.5129 30.2686C16.5129 30.2686 16.4329 31.3565 16.2009 32.6756C15.9707 33.9838 16.0103 35.1671 15.4978 34.9944C15.4159 34.9675 15.6039 33.9038 15.8925 32.6153Z" fill="#EC6D18"/>
<path d="M11.377 32.5206C12.4919 31.3536 13.1024 30.8177 13.1195 30.8339C13.1195 30.8339 12.4901 31.7231 11.6099 32.7319C10.7377 33.7327 10.1605 34.7658 9.81069 34.3522C9.75494 34.2865 10.4653 33.4746 11.377 32.5206Z" fill="#EC6D18"/>
<path d="M14.5868 25.9878C15.9867 25.1848 16.7231 24.845 16.7348 24.8656C16.7348 24.8656 15.8797 25.54 14.7504 26.2566C13.631 26.9687 12.7849 27.795 12.5664 27.2996C12.5313 27.2205 13.4422 26.6441 14.5868 25.9878Z" fill="#EC6D18"/>
<path d="M7.11919 22.5934C8.71695 22.3749 9.52797 22.3372 9.53157 22.3605C9.53157 22.3605 8.48588 22.6635 7.16955 22.9045C5.8658 23.1437 4.77246 23.5923 4.75537 23.0511C4.75357 22.9639 5.81275 22.7714 7.11919 22.5934Z" fill="#EC6D18"/>
<path d="M11.6431 24.9203C13.1644 24.3863 13.9512 24.1858 13.9593 24.2082C13.9593 24.2082 12.9954 24.7153 11.7546 25.2153C10.5246 25.7107 9.54362 26.3706 9.41774 25.8429C9.39886 25.7583 10.3987 25.3573 11.6431 24.9203Z" fill="#EC6D18"/>
<path d="M5.93218 25.3171C7.50117 24.9449 8.3041 24.8271 8.30949 24.8505C8.30949 24.8505 7.29886 25.2542 6.0131 25.622C4.73903 25.987 3.69424 26.54 3.62411 26.0023C3.61332 25.9169 4.64912 25.622 5.93218 25.3171Z" fill="#EC6D18"/>
<mask id="mask5_516_2756" style="mask-type:luminance" maskUnits="userSpaceOnUse" x="18" y="19" width="3" height="5">
<path d="M18.5391 19.23H20.4389V23.6034H18.5391V19.23Z" fill="white"/>
</mask>
<g mask="url(#mask5_516_2756)">
<path d="M20.4946 19.4146C21.5286 19.4146 22.3666 20.302 22.3666 21.3962C22.3666 22.4914 21.5286 23.3788 20.4946 23.3788C19.4615 23.3788 18.6235 22.4914 18.6235 21.3962C18.6235 20.302 19.4615 19.4146 20.4946 19.4146Z" fill="#FAF4A7"/>
</g>
<path d="M19.587 20.0767C19.8019 20.0767 19.9763 20.5181 19.9763 21.063C19.9763 21.6079 19.8019 22.0494 19.587 22.0494C19.3712 22.0494 19.1968 21.6079 19.1968 21.063C19.1968 20.5181 19.3712 20.0767 19.587 20.0767Z" fill="#F5F5E9"/>
<mask id="mask6_516_2756" style="mask-type:luminance" maskUnits="userSpaceOnUse" x="0" y="0" width="42" height="22">
<path d="M0.125 0.125H41.7872V21.0272H0.125V0.125Z" fill="white"/>
</mask>
<g mask="url(#mask6_516_2756)">
<path fill-rule="evenodd" clip-rule="evenodd" d="M1.22473 28.3337C-2.14072 17.1862 3.96619 5.12884 14.8646 1.40463C25.763 -2.32138 37.3258 3.69562 40.6913 14.8431C44.0558 25.9905 37.9489 38.0479 27.0505 41.773C16.1521 45.4981 4.58929 39.482 1.22473 28.3337Z" fill="#EE8D13"/>
</g>
<mask id="mask7_516_2756" style="mask-type:luminance" maskUnits="userSpaceOnUse" x="1" y="1" width="40" height="21">
<path d="M1.27588 1.73633H40.176V21.0272H1.27588V1.73633Z" fill="white"/>
</mask>
<g mask="url(#mask7_516_2756)">
<path fill-rule="evenodd" clip-rule="evenodd" d="M2.18583 27.811C-0.917982 17.5303 4.83108 6.37115 15.0263 2.88521C25.2216 -0.598931 36.0022 4.91006 39.106 15.1907C42.2089 25.4705 36.4599 36.6306 26.2646 40.1156C16.0702 43.6007 5.28873 38.0917 2.18583 27.811Z" fill="#FAF4A7"/>
</g>
<mask id="mask8_516_2756" style="mask-type:luminance" maskUnits="userSpaceOnUse" x="1" y="2" width="39" height="20">
<path d="M1.73633 2.19678H39.0252V21.0273H1.73633V2.19678Z" fill="white"/>
</mask>
<g mask="url(#mask8_516_2756)">
<path d="M24.1884 11.1187C24.1884 11.1187 26.7005 6.16 28.6481 5.68256C30.5947 5.20602 36.1127 6.69769 35.4329 10.867C34.9384 13.3971 30.538 15.252 30.538 15.252C30.538 15.252 35.7674 11.963 36.529 13.2721C37.2905 14.5813 39.9843 17.6428 38.2077 19.9248C36.4319 22.2068 34.8386 21.599 34.8386 21.599C34.8386 21.599 41.9822 21.8004 37.5917 29.6687C34.2865 35.5931 30.0372 30.1462 30.0372 30.1462C30.0372 30.1462 33.5079 33.3561 32.2482 35.2506C30.9885 37.145 29.175 36.3862 26.8048 32.9128C26.8048 32.9128 29.9042 37.8778 24.6514 40.2713C20.466 41.3215 19.4311 36.0121 19.4311 36.0121C19.4311 36.0121 18.5535 40.8081 15.0954 39.9971C11.6374 39.1852 4.1359 33.4847 4.88668 31.4203C5.63835 29.3558 6.64718 28.5412 6.64718 28.5412C6.64718 28.5412 2.39068 30.0374 1.93212 25.1929C1.58416 21.51 6.12119 20.7727 6.12119 20.7727C6.12119 20.7727 0.899021 20.3411 2.45182 16.4964C4.00463 12.6526 4.52343 11.4199 6.12119 12.0502C7.71984 12.6805 7.93654 12.5681 7.93654 12.5681C7.93654 12.5681 5.73456 11.2896 5.81818 10.7537C5.9009 10.2187 10.7706 2.04917 15.0954 7.89983C16.7507 10.1396 17.3253 11.4766 17.3253 11.4766C17.3253 11.4766 14.7376 6.36051 14.9498 5.028C15.1629 3.69638 23.7784 0.929747 25.7672 3.08587C26.8759 4.28981 25.6324 6.92427 24.1884 11.1187Z" fill="#F9F5E1"/>
</g>
<path fill-rule="evenodd" clip-rule="evenodd" d="M29.8342 16.3306C26.7646 18.5758 22.5989 20.0935 22.4703 19.9649C22.3282 19.8247 24.1301 13.0425 25.691 10.6544C28.0656 7.02189 30.5265 4.11769 34.0062 7.88416C36.6469 10.7443 33.2698 13.8175 29.8342 16.3306Z" fill="#EF8A13"/>
<path fill-rule="evenodd" clip-rule="evenodd" d="M19.2755 19.6076C18.4312 20.7226 8.00756 12.375 7.35659 10.9607C6.70562 9.54724 7.58317 8.5573 11.0871 6.05771C14.591 3.55812 20.4606 18.214 19.2755 19.6076Z" fill="#EF8A13"/>
<path fill-rule="evenodd" clip-rule="evenodd" d="M21.0389 19.6424C19.9356 19.0913 15.1001 6.55466 15.885 4.86519C16.67 3.17482 22.8245 0.780428 25.1785 3.52368C27.5324 6.26604 22.1412 20.1936 21.0389 19.6424Z" fill="#EF8A13"/>
<mask id="mask9_516_2756" style="mask-type:luminance" maskUnits="userSpaceOnUse" x="2" y="12" width="17" height="10">
<path d="M2.65723 12.0938H18.7697V21.0266H2.65723V12.0938Z" fill="white"/>
</mask>
<g mask="url(#mask9_516_2756)">
<path fill-rule="evenodd" clip-rule="evenodd" d="M18.6242 21.2707C18.3553 22.1078 3.37487 20.1431 2.85427 18.3197C2.52519 17.1652 3.47557 13.9454 5.36195 12.3432C7.24923 10.74 18.8939 20.4336 18.6242 21.2707Z" fill="#EF8A13"/>
</g>
<mask id="mask10_516_2756" style="mask-type:luminance" maskUnits="userSpaceOnUse" x="23" y="13" width="17" height="9">
<path d="M23.1431 13.9355H39.0254V21.027H23.1431V13.9355Z" fill="white"/>
</mask>
<g mask="url(#mask10_516_2756)">
<path fill-rule="evenodd" clip-rule="evenodd" d="M23.2593 21.2969C22.7845 20.2522 34.3834 14.165 35.8633 14.1201C37.3442 14.0742 39.9481 17.6689 38.4663 19.9276C36.9846 22.1853 23.7331 22.3417 23.2593 21.2969Z" fill="#EF8A13"/>
</g>
<path d="M7.32609 17.8298C8.86991 18.372 9.61888 18.7128 9.61079 18.7362C9.61079 18.7362 8.52644 18.5276 7.22809 18.1364C5.94053 17.7498 4.91642 17.3146 4.94339 17.2301C4.97127 17.1456 6.06461 17.3866 7.32609 17.8298Z" fill="#F1AC0E"/>
<path d="M11.2878 11.3702C12.3587 12.6066 12.8406 13.2755 12.8227 13.2917C12.8227 13.2917 11.9847 12.5715 11.0505 11.5869C10.1244 10.6114 9.45 9.72573 9.51564 9.66549C9.58218 9.60524 10.413 10.3578 11.2878 11.3702Z" fill="#F1AC0E"/>
<path d="M13.9958 8.96643C14.6432 10.2324 14.9021 10.9005 14.8815 10.9122C14.8815 10.9122 14.3051 10.1407 13.7153 9.12108C13.13 8.10866 12.7523 7.21761 12.8305 7.17446C12.9079 7.1322 13.4671 7.92973 13.9958 8.96643Z" fill="#F1AC0E"/>
<path d="M15.0096 15.0576C15.9006 16.1653 16.2909 16.7668 16.272 16.7821C16.272 16.7821 15.5509 16.1446 14.765 15.2671C13.9864 14.3958 13.4352 13.6001 13.5026 13.5425C13.5701 13.485 14.2804 14.1521 15.0096 15.0576Z" fill="#F1AC0E"/>
<path d="M12.6311 19.2271C13.9834 19.6632 14.6389 19.9518 14.6326 19.9752C14.6326 19.9752 13.6804 19.8385 12.5421 19.5355C11.4137 19.2352 10.5164 18.872 10.5415 18.7865C10.5667 18.7011 11.5261 18.8693 12.6311 19.2271Z" fill="#F1AC0E"/>
<path d="M8.75745 15.0302C9.90565 15.8682 10.4379 16.3474 10.4244 16.3672C10.4244 16.3672 9.56308 15.9392 8.57673 15.2954C7.59847 14.657 6.86028 14.0313 6.91063 13.9584C6.96008 13.8847 7.81966 14.345 8.75745 15.0302Z" fill="#F1AC0E"/>
<path d="M13.8682 17.3993C15.0164 18.2373 15.5487 18.7166 15.5352 18.7364C15.5352 18.7364 14.6738 18.3084 13.6866 17.6646C12.7092 17.0262 11.9701 16.4004 12.0205 16.3276C12.0708 16.2538 12.9295 16.7133 13.8682 17.3993Z" fill="#F1AC0E"/>
<path d="M15.2296 12.7891C16.0218 13.9687 16.3589 14.6017 16.3401 14.6152C16.3401 14.6152 15.6765 13.9184 14.9689 12.9761C14.2666 12.041 13.7865 11.2012 13.8593 11.149C13.9304 11.0978 14.5813 11.8234 15.2296 12.7891Z" fill="#F1AC0E"/>
<path d="M17.7636 6.98148C18.2042 8.33288 18.3553 9.0342 18.3328 9.0414C18.3328 9.0414 17.885 8.18992 17.4615 7.08938C17.0416 5.99873 16.8087 5.05913 16.8924 5.02856C16.9751 4.99889 17.4031 5.87555 17.7636 6.98148Z" fill="#F1AC0E"/>
<path d="M24.0446 6.85164C23.8747 8.48806 23.7173 9.30087 23.6939 9.29908C23.6939 9.29908 23.6454 8.18865 23.7245 6.82646C23.8027 5.47596 23.988 4.37272 24.0761 4.37992C24.1642 4.38621 24.1831 5.51283 24.0446 6.85164Z" fill="#F1AC0E"/>
<path d="M21.5718 10.1216C21.4019 11.758 21.2446 12.5708 21.2203 12.5681C21.2203 12.5681 21.1726 11.4586 21.2518 10.0964C21.33 8.7459 21.5152 7.64266 21.6033 7.64895C21.6914 7.65615 21.7103 8.78366 21.5718 10.1216Z" fill="#F1AC0E"/>
<path d="M28.8021 9.30439C27.9506 10.4427 27.4651 10.9696 27.4453 10.9552C27.4453 10.9552 27.8841 10.0992 28.5405 9.12006C29.1905 8.149 29.8244 7.4171 29.8972 7.46836C29.9692 7.51961 29.4989 8.37378 28.8021 9.30439Z" fill="#F1AC0E"/>
<path d="M31.6844 9.73798C30.8329 10.8763 30.3474 11.4032 30.3276 11.3888C30.3276 11.3888 30.7664 10.5328 31.4228 9.55366C32.0729 8.58259 32.7067 7.8507 32.7796 7.90195C32.8515 7.9532 32.3813 8.80738 31.6844 9.73798Z" fill="#F1AC0E"/>
<path d="M30.9643 14.5976C29.6902 15.637 29.006 16.1018 28.9907 16.083C28.9907 16.083 29.7388 15.263 30.7548 14.3539C31.7619 13.4521 32.6709 12.8011 32.7284 12.8686C32.7869 12.9351 32.0064 13.7479 30.9643 14.5976Z" fill="#F1AC0E"/>
<path d="M33.7306 15.6137C32.2075 16.2305 31.4171 16.4714 31.4072 16.449C31.4072 16.449 32.3639 15.887 33.6038 15.3197C34.832 14.7568 35.8921 14.4025 35.9272 14.4844C35.9631 14.5653 34.9768 15.1102 33.7306 15.6137Z" fill="#F1AC0E"/>
<path d="M35.4582 20.207C33.829 20.4218 33.0027 20.4569 33 20.4335C33 20.4335 34.0664 20.1287 35.4079 19.8896C36.7386 19.6522 37.8535 19.5758 37.867 19.6639C37.8805 19.7511 36.7907 20.0316 35.4582 20.207Z" fill="#F1AC0E"/>
<path d="M29.4846 20.0883C27.8554 20.3032 27.0291 20.3383 27.0264 20.3149C27.0264 20.3149 28.0927 20.0101 29.4351 19.7709C30.765 19.5335 31.879 19.4571 31.8934 19.5452C31.9069 19.6324 30.8171 19.913 29.4846 20.0883Z" fill="#F1AC0E"/>
<path d="M35.2659 16.9541C33.6798 17.3821 32.8652 17.5269 32.8589 17.5035C32.8589 17.5035 33.8758 17.0611 35.1742 16.6466C36.4617 16.2357 37.5569 16.0127 37.582 16.0982C37.6072 16.1827 36.5633 16.6053 35.2659 16.9541Z" fill="#F1AC0E"/>
<path d="M26.9156 15.1591C25.7225 16.2893 25.0742 16.8036 25.0571 16.7857C25.0571 16.7857 25.7432 15.9126 26.69 14.9316C27.6286 13.9588 28.4864 13.2422 28.5494 13.3051C28.6114 13.3681 27.893 14.2348 26.9156 15.1591Z" fill="#F1AC0E"/>
<path d="M9.06954 19.0596C10.6493 19.4813 11.4226 19.7636 11.4163 19.787C11.4163 19.787 10.3193 19.662 8.99491 19.3725C7.68127 19.0856 6.62659 18.7314 6.64727 18.6442C6.66795 18.5588 7.77748 18.7134 9.06954 19.0596Z" fill="#EC6D18"/>
<path d="M10.5402 12.0955C11.6632 13.2859 12.1721 13.9324 12.155 13.9495C12.155 13.9495 11.2873 13.2661 10.3118 12.322C9.3452 11.3869 8.63399 10.5301 8.69783 10.4671C8.76077 10.4051 9.62214 11.1208 10.5402 12.0955Z" fill="#EC6D18"/>
<path d="M12.5223 8.96002C13.2218 10.1972 13.5096 10.8545 13.4889 10.8671C13.4889 10.8671 12.8811 10.1208 12.2481 9.12636C11.6196 8.14091 11.2051 7.26606 11.2815 7.2202C11.357 7.17434 11.9505 7.9476 12.5223 8.96002Z" fill="#EC6D18"/>
<path d="M15.5704 16.6607C16.6448 17.5895 17.1367 18.111 17.1214 18.1299C17.1214 18.1299 16.2978 17.6327 15.3681 16.9098C14.4447 16.1931 13.7604 15.5089 13.8162 15.4397C13.8719 15.3704 14.691 15.9 15.5704 16.6607Z" fill="#EC6D18"/>
<path d="M14.9794 20.2284C16.3686 20.5278 17.0492 20.749 17.0447 20.7724C17.0447 20.7724 16.0844 20.7319 14.921 20.544C13.7683 20.3579 12.8404 20.0872 12.8557 19.9991C12.8718 19.9119 13.8438 19.9829 14.9794 20.2284Z" fill="#EC6D18"/>
<path d="M8.02223 16.2021C9.20459 16.9907 9.75666 17.4465 9.74407 17.4672C9.74407 17.4672 8.86562 17.0761 7.85229 16.4746C6.84796 15.8784 6.0837 15.285 6.13045 15.2104C6.17721 15.1348 7.05566 15.5574 8.02223 16.2021Z" fill="#EC6D18"/>
<path d="M13.228 18.3517C14.4103 19.1393 14.9633 19.5961 14.9498 19.6159C14.9498 19.6159 14.0713 19.2256 13.058 18.6241C12.0537 18.0271 11.2894 17.4337 11.3371 17.3581C11.3838 17.2835 12.2614 17.7061 13.228 18.3517Z" fill="#EC6D18"/>
<path d="M19.3105 11.3581C19.5479 12.7598 19.5965 13.4756 19.5722 13.4801C19.5722 13.4801 19.2539 12.5719 18.9967 11.421C18.7405 10.2809 18.6479 9.31617 18.7351 9.29908C18.8214 9.2811 19.1163 10.2117 19.3105 11.3581Z" fill="#EC6D18"/>
<path d="M22.3191 5.55766C22.2193 7.19948 22.0961 8.01859 22.0719 8.01679C22.0719 8.01679 21.9766 6.90996 21.999 5.54597C22.0197 4.19367 22.1564 3.08324 22.2454 3.08594C22.3344 3.08954 22.4009 4.21435 22.3191 5.55766Z" fill="#EC6D18"/>
<path d="M22.6034 12.5932C22.3112 14.2117 22.0927 15.011 22.0693 15.0065C22.0693 15.0065 22.1053 13.8961 22.2869 12.5438C22.4668 11.2032 22.7338 10.1161 22.8219 10.1305C22.9091 10.144 22.8435 11.2688 22.6034 12.5932Z" fill="#EC6D18"/>
<path d="M29.6822 9.89939C28.8802 11.0737 28.4172 11.6203 28.3965 11.6068C28.3965 11.6068 28.7984 10.7329 29.4125 9.72675C30.0203 8.72871 30.6236 7.97074 30.6983 8.0193C30.772 8.06695 30.3386 8.94001 29.6822 9.89939Z" fill="#EC6D18"/>
<path d="M30.0125 14.2387C28.7842 15.3312 28.1207 15.8248 28.1045 15.8068C28.1045 15.8068 28.8166 14.9553 29.7931 14.004C30.7605 13.0609 31.6417 12.3703 31.7019 12.436C31.7622 12.5007 31.0168 13.345 30.0125 14.2387Z" fill="#EC6D18"/>
<mask id="mask11_516_2756" style="mask-type:luminance" maskUnits="userSpaceOnUse" x="27" y="20" width="6" height="2">
<path d="M27.0562 20.1509H32.1201V21.0275H27.0562V20.1509Z" fill="white"/>
</mask>
<g mask="url(#mask11_516_2756)">
<path d="M29.571 20.8101C27.9354 20.9666 27.1082 20.9729 27.1064 20.9486C27.1064 20.9486 28.1836 20.6825 29.5323 20.4909C30.8693 20.3012 31.9869 20.2635 31.9968 20.3525C32.0076 20.4397 30.9089 20.6816 29.571 20.8101Z" fill="#EC6D18"/>
</g>
<path d="M28.3885 19.3744C27.0632 19.7116 26.3798 19.8105 26.3735 19.7871C26.3735 19.7871 27.2178 19.405 28.2995 19.066C29.3721 18.7288 30.2893 18.567 30.3144 18.6524C30.3387 18.7378 29.4719 19.0984 28.3885 19.3744Z" fill="#EC6D18"/>
<path d="M34.8291 18.3682C33.2134 18.6667 32.3897 18.745 32.3853 18.7216C32.3853 18.7216 33.4354 18.3628 34.7626 18.0544C36.0789 17.7487 37.1875 17.6147 37.2064 17.702C37.2253 17.7883 36.1499 18.1246 34.8291 18.3682Z" fill="#EC6D18"/>
<path d="M25.1925 15.6406C24.5748 16.7304 24.2008 17.2411 24.1792 17.2294C24.1792 17.2294 24.4507 16.4238 24.9084 15.4914C25.3616 14.5671 25.8426 13.8612 25.9217 13.9026C25.9999 13.9431 25.6978 14.7496 25.1925 15.6406Z" fill="#EC6D18"/>
<mask id="mask12_516_2756" style="mask-type:luminance" maskUnits="userSpaceOnUse" x="18" y="19" width="5" height="3">
<path d="M18.9995 19.6899H22.9125V21.027H18.9995V19.6899Z" fill="white"/>
</mask>
<g mask="url(#mask12_516_2756)">
<path d="M20.9265 19.791C21.9794 19.791 22.8336 20.6946 22.8336 21.8096C22.8336 22.9245 21.9794 23.8281 20.9265 23.8281C19.8727 23.8281 19.0186 22.9245 19.0186 21.8096C19.0186 20.6946 19.8727 19.791 20.9265 19.791Z" fill="#FAF4A7"/>
</g>
<mask id="mask13_516_2756" style="mask-type:luminance" maskUnits="userSpaceOnUse" x="19" y="20" width="2" height="2">
<path d="M19.46 20.3804H20.6109V21.0268H19.46V20.3804Z" fill="white"/>
</mask>
<g mask="url(#mask13_516_2756)">
<path d="M20.0004 20.4658C20.2198 20.4658 20.397 20.9154 20.397 21.4702C20.397 22.0249 20.2198 22.4745 20.0004 22.4745C19.7811 22.4745 19.603 22.0249 19.603 21.4702C19.603 20.9154 19.7811 20.4658 20.0004 20.4658Z" fill="#F5F5E9"/>
</g>
<mask id="mask14_516_2756" style="mask-type:luminance" maskUnits="userSpaceOnUse" x="1" y="2" width="20" height="40">
<path d="M1.27588 2.19678H20.9408V41.3271H1.27588V2.19678Z" fill="white"/>
</mask>
<g mask="url(#mask14_516_2756)">
<path d="M20.9408 2.21436V41.3024C20.9408 41.3024 1.08793 41.6728 1.37566 21.7786C1.66338 2.21436 20.9408 2.21436 20.9408 2.21436Z" fill="white"/>
</g>
<mask id="mask15_516_2756" style="mask-type:luminance" maskUnits="userSpaceOnUse" x="9" y="4" width="12" height="15">
<path d="M9.79248 4.49854H20.9408V18.9998H9.79248V4.49854Z" fill="white"/>
</mask>
<g mask="url(#mask15_516_2756)">
<path d="M20.941 18.6555V4.5166C16.707 4.63978 12.8434 5.70795 9.9248 8.38018L19.9951 18.9846C20.2828 18.82 20.6119 18.6968 20.941 18.6555Z" fill="#FFD922"/>
</g>
<path d="M19.0502 19.477L8.6508 9.57129C5.69175 12.5726 4.41768 16.0657 4.33496 20.5875L18.3102 21.0802C18.392 20.4634 18.6797 19.9293 19.0502 19.477Z" fill="#FFD922"/>
<path d="M18.3102 22.1899L4.33496 22.6836C4.45814 27.2044 5.73221 30.6984 8.69216 33.6988L19.132 23.7526C18.6797 23.3408 18.392 22.7654 18.3102 22.1899Z" fill="#FFD922"/>
<mask id="mask16_516_2756" style="mask-type:luminance" maskUnits="userSpaceOnUse" x="9" y="24" width="12" height="15">
<path d="M9.79248 24.0635H20.9408V38.7949H9.79248V24.0635Z" fill="white"/>
</mask>
<g mask="url(#mask16_516_2756)">
<path d="M20.0365 24.2866L9.9248 34.891C12.8434 37.5623 16.707 38.6314 20.941 38.7546V24.533C20.6119 24.4916 20.3242 24.4098 20.0365 24.2866Z" fill="#FFD922"/>
</g>
<mask id="mask17_516_2756" style="mask-type:luminance" maskUnits="userSpaceOnUse" x="1" y="1" width="20" height="41">
<path d="M1.27588 1.9668H20.9408V41.5574H1.27588V1.9668Z" fill="white"/>
</mask>
<g mask="url(#mask17_516_2756)">
<path d="M20.9411 41.3033V39.7829C20.9411 39.7829 3.06095 40.5229 3.06095 21.7795C3.06095 3.03709 20.9411 3.448 20.9411 3.448V2.21529C20.9411 2.21529 1.37598 0.406229 1.37598 21.7391C1.37598 43.071 20.9411 41.3033 20.9411 41.3033Z" fill="#FFD922"/>
</g>
<path d="M8.31897 17.7312C8.33426 17.7779 8.32437 17.8301 8.2911 17.8894C8.25783 17.9479 8.20208 18.0072 8.12476 18.0692C8.04743 18.1304 7.95392 18.1888 7.84513 18.2437C7.73543 18.2985 7.61855 18.3462 7.49447 18.3866C7.36949 18.4271 7.2472 18.4568 7.12672 18.4756C7.00534 18.4954 6.89564 18.5026 6.79674 18.4981C6.69873 18.4936 6.61871 18.4774 6.55667 18.4496C6.49553 18.4217 6.45687 18.3848 6.44158 18.3381C6.4263 18.2913 6.43619 18.2392 6.46945 18.1807C6.50362 18.1223 6.55847 18.062 6.63579 18C6.71312 17.9389 6.80663 17.8804 6.91632 17.8256C7.02512 17.7707 7.14201 17.7231 7.26699 17.6826C7.39107 17.6421 7.51335 17.6125 7.63473 17.5936C7.75522 17.5738 7.86491 17.5666 7.96381 17.5711C8.06272 17.5756 8.14274 17.5918 8.20388 17.6197C8.26592 17.6475 8.30369 17.6844 8.31897 17.7312Z" fill="#FFA023"/>
<path d="M12.4681 16.1744C12.5643 16.2635 12.6506 16.3552 12.727 16.4505C12.8034 16.5458 12.8637 16.6375 12.9086 16.7256C12.9536 16.8137 12.9788 16.8911 12.986 16.9585C12.9922 17.0259 12.9788 17.0772 12.9455 17.114C12.9122 17.15 12.8619 17.168 12.7944 17.1671C12.727 17.1671 12.647 17.1482 12.5553 17.1113C12.4636 17.0745 12.3673 17.0223 12.2657 16.9549C12.1632 16.8866 12.0643 16.8083 11.9681 16.7202C11.8719 16.6321 11.7847 16.5404 11.7083 16.4442C11.6319 16.3489 11.5716 16.2572 11.5267 16.169C11.4817 16.0809 11.4565 16.0036 11.4502 15.9362C11.4439 15.8687 11.4574 15.8175 11.4907 15.7815C11.524 15.7447 11.5743 15.7267 11.6417 15.7276C11.7092 15.7276 11.7883 15.7465 11.88 15.7833C11.9717 15.8202 12.0688 15.8723 12.1704 15.9407C12.272 16.0081 12.3709 16.0863 12.4681 16.1744Z" fill="#FFA023"/>
<path d="M9.92102 28.6735C9.93631 28.7203 9.92642 28.7725 9.89315 28.8309C9.85898 28.8893 9.80414 28.9496 9.72681 29.0107C9.64948 29.0728 9.55597 29.1303 9.44628 29.1861C9.33749 29.2409 9.2206 29.2886 9.09652 29.329C8.97154 29.3686 8.84926 29.3983 8.72787 29.418C8.60739 29.4369 8.49769 29.445 8.39879 29.4405C8.30078 29.436 8.21986 29.4198 8.15872 29.392C8.09668 29.3641 8.05892 29.3272 8.04363 29.2805C8.02835 29.2337 8.03824 29.1807 8.07151 29.1222C8.10477 29.0638 8.16052 29.0035 8.23785 28.9424C8.31517 28.8812 8.40868 28.8228 8.51748 28.768C8.62717 28.7122 8.74406 28.6646 8.86814 28.625C8.99312 28.5845 9.1154 28.5549 9.23588 28.5351C9.35727 28.5162 9.46696 28.509 9.56587 28.5135C9.66387 28.518 9.74389 28.5342 9.80593 28.5612C9.86707 28.589 9.90574 28.6268 9.92102 28.6735Z" fill="#FFA023"/>
<path d="M14.841 8.2055C14.8752 8.33138 14.8986 8.45546 14.9121 8.57774C14.9247 8.69913 14.9265 8.80882 14.9175 8.90683C14.9076 9.00573 14.8878 9.08486 14.8572 9.1451C14.8258 9.20534 14.7871 9.24131 14.7394 9.25389C14.6918 9.26648 14.6396 9.25479 14.583 9.21793C14.5264 9.18196 14.4697 9.12262 14.4122 9.0426C14.3546 8.96257 14.3016 8.86637 14.2521 8.75398C14.2027 8.64248 14.1604 8.5229 14.1271 8.39702C14.093 8.27024 14.0696 8.14706 14.0561 8.02478C14.0426 7.9034 14.0408 7.7937 14.0507 7.6948C14.0606 7.59679 14.0804 7.51767 14.111 7.45742C14.1424 7.39718 14.1811 7.36122 14.2287 7.34863C14.2764 7.33604 14.3285 7.34773 14.3852 7.38459C14.4418 7.42056 14.4985 7.479 14.556 7.55993C14.6136 7.63995 14.6666 7.73616 14.7161 7.84765C14.7655 7.96004 14.8078 8.07873 14.841 8.2055Z" fill="#FFA023"/>
<path d="M15.0207 33.8498C15.036 33.8966 15.027 33.9496 14.9928 34.0081C14.9596 34.0665 14.9038 34.1267 14.8265 34.1879C14.7492 34.249 14.6557 34.3075 14.5469 34.3623C14.4372 34.4181 14.3203 34.4657 14.1962 34.5053C14.0712 34.5457 13.949 34.5754 13.8285 34.5952C13.7071 34.6141 13.5974 34.6213 13.4994 34.6168C13.4005 34.6123 13.3205 34.5961 13.2584 34.5682C13.1973 34.5412 13.1586 34.5035 13.1433 34.4567C13.1289 34.41 13.1379 34.3578 13.1712 34.2994C13.2054 34.2409 13.2611 34.1807 13.3384 34.1196C13.4158 34.0575 13.5084 34 13.6181 33.9442C13.7269 33.8894 13.8438 33.8417 13.9687 33.8013C14.0928 33.7617 14.216 33.7311 14.3365 33.7122C14.457 33.6925 14.5667 33.6853 14.6656 33.6898C14.7645 33.6943 14.8445 33.7104 14.9056 33.7383C14.9677 33.7662 15.0054 33.8031 15.0207 33.8498Z" fill="#FFA023"/>
<path d="M19.4145 13.554C19.4325 13.6835 19.4397 13.8094 19.437 13.9316C19.4352 14.0539 19.4226 14.1627 19.401 14.2589C19.3785 14.356 19.3489 14.4316 19.3102 14.4873C19.2724 14.5431 19.2293 14.5745 19.1798 14.5808C19.1313 14.5871 19.0818 14.5691 19.0297 14.5251C18.9784 14.4819 18.929 14.4163 18.8822 14.3291C18.8355 14.2427 18.795 14.1402 18.7599 14.0234C18.7249 13.9056 18.6988 13.7824 18.6817 13.6529C18.6637 13.5225 18.6565 13.3967 18.6592 13.2744C18.661 13.1521 18.6736 13.0433 18.6952 12.9471C18.7177 12.8509 18.7474 12.7745 18.786 12.7187C18.8238 12.663 18.8678 12.6324 18.9164 12.6252C18.9649 12.6189 19.0153 12.6378 19.0665 12.681C19.1178 12.7241 19.1673 12.7897 19.214 12.877C19.2608 12.9642 19.3012 13.0658 19.3363 13.1836C19.3714 13.3005 19.3974 13.4236 19.4145 13.554Z" fill="#FFA023"/>
<path d="M15.4329 23.5319C15.4473 23.5787 15.4383 23.6317 15.405 23.6902C15.3709 23.7486 15.3151 23.8089 15.2378 23.87C15.1605 23.9312 15.0679 23.9896 14.9582 24.0444C14.8494 24.0993 14.7325 24.1469 14.6075 24.1874C14.4834 24.2279 14.3612 24.2575 14.2398 24.2773C14.1193 24.2962 14.0096 24.3034 13.9107 24.2989C13.8118 24.2944 13.7318 24.2782 13.6706 24.2503C13.6086 24.2234 13.5708 24.1856 13.5555 24.1389C13.5402 24.0921 13.5492 24.04 13.5834 23.9815C13.6167 23.9231 13.6724 23.8628 13.7497 23.8017C13.8271 23.7396 13.9206 23.6812 14.0294 23.6264C14.1391 23.5715 14.256 23.5238 14.38 23.4834C14.505 23.4438 14.6273 23.4133 14.7478 23.3944C14.8692 23.3746 14.9789 23.3674 15.0769 23.3719C15.1758 23.3764 15.2558 23.3926 15.3178 23.4204C15.379 23.4483 15.4176 23.4852 15.4329 23.5319Z" fill="#FFA023"/>
<path d="M18.8694 30.6065C18.9009 30.7342 18.9216 30.8583 18.9332 30.9806C18.944 31.102 18.9431 31.2116 18.9323 31.3097C18.9207 31.4086 18.8991 31.4868 18.8667 31.5461C18.8352 31.6064 18.7948 31.6414 18.7471 31.6531C18.6995 31.6648 18.6482 31.6522 18.5916 31.6145C18.5358 31.5767 18.4801 31.5174 18.4243 31.4355C18.3686 31.3546 18.3164 31.2575 18.2697 31.1442C18.222 31.0318 18.1825 30.9113 18.151 30.7846C18.1195 30.6578 18.0989 30.5337 18.0881 30.4114C18.0773 30.29 18.0773 30.1794 18.089 30.0814C18.0997 29.9834 18.1222 29.9043 18.1537 29.845C18.1861 29.7856 18.2256 29.7506 18.2733 29.738C18.3209 29.7263 18.3722 29.7398 18.4288 29.7775C18.4846 29.8153 18.5403 29.8746 18.597 29.9556C18.6527 30.0374 18.704 30.1345 18.7516 30.2469C18.7984 30.3602 18.8379 30.4798 18.8694 30.6065Z" fill="#FFA023"/>
<mask id="mask18_516_2756" style="mask-type:luminance" maskUnits="userSpaceOnUse" x="1" y="1" width="41" height="21">
<path d="M1.50635 1.73633H41.097V21.4894H1.50635V1.73633Z" fill="white"/>
</mask>
<g mask="url(#mask18_516_2756)">
<path d="M40.9272 21.4892H1.53075C1.53075 21.4892 1.15761 1.46369 21.2083 1.75411C40.9272 2.04363 40.9272 21.4892 40.9272 21.4892Z" fill="white"/>
</g>
<mask id="mask19_516_2756" style="mask-type:luminance" maskUnits="userSpaceOnUse" x="23" y="10" width="16" height="12">
<path d="M23.8335 10.2529H38.7951V21.4894H23.8335V10.2529Z" fill="white"/>
</mask>
<g mask="url(#mask19_516_2756)">
<path d="M24.3577 21.4894H38.608C38.4839 17.2185 37.4068 13.3217 34.7139 10.3779L24.0259 20.5354C24.1913 20.8259 24.3154 21.1576 24.3577 21.4894Z" fill="#FFD922"/>
</g>
<path d="M23.5283 19.5822L33.5123 9.09196C30.4876 6.10684 26.9666 4.82198 22.4098 4.73926L21.9126 18.8359C22.5339 18.9186 23.0725 19.209 23.5283 19.5822Z" fill="#FFD922"/>
<path d="M20.7946 18.8359L20.2974 4.73926C15.7406 4.86334 12.2196 6.1482 9.1958 9.13422L19.2202 19.6649C19.6347 19.209 20.2147 18.9186 20.7946 18.8359Z" fill="#FFD922"/>
<mask id="mask20_516_2756" style="mask-type:luminance" maskUnits="userSpaceOnUse" x="4" y="10" width="15" height="12">
<path d="M4.03809 10.2529H18.7695V21.4894H4.03809V10.2529Z" fill="white"/>
</mask>
<g mask="url(#mask20_516_2756)">
<path d="M18.6813 20.5768L7.99334 10.3779C5.30134 13.3217 4.22418 17.2185 4.1001 21.4894H18.4332C18.4745 21.1576 18.5573 20.8672 18.6813 20.5768Z" fill="#FFD922"/>
</g>
<mask id="mask21_516_2756" style="mask-type:luminance" maskUnits="userSpaceOnUse" x="1" y="1" width="41" height="21">
<path d="M1.27588 1.73633H41.0967V21.4894H1.27588V1.73633Z" fill="white"/>
</mask>
<g mask="url(#mask21_516_2756)">
<path d="M1.5311 21.4895H3.06413C3.06413 21.4895 2.31785 3.45376 21.2086 3.45376C40.0985 3.45376 39.6849 21.4895 39.6849 21.4895H40.9275C40.9275 21.4895 42.7501 1.75439 21.25 1.75439C-0.250079 1.75439 1.5311 21.4895 1.5311 21.4895Z" fill="#FFD922"/>
</g>
<path d="M25.2892 8.75752C25.2415 8.7728 25.1885 8.76381 25.13 8.72965C25.0707 8.69548 25.0105 8.63973 24.9484 8.56151C24.8864 8.48328 24.8279 8.38977 24.7722 8.27918C24.7164 8.16949 24.6688 8.0508 24.6283 7.92582C24.5879 7.79994 24.5573 7.67676 24.5384 7.55448C24.5186 7.4331 24.5114 7.3225 24.5159 7.2227C24.5204 7.1229 24.5366 7.04197 24.5645 6.97993C24.5924 6.91789 24.6301 6.87923 24.6769 6.86395C24.7245 6.84866 24.7776 6.85855 24.836 6.89182C24.8954 6.92599 24.9556 6.98173 25.0177 7.05996C25.0797 7.13818 25.1381 7.23259 25.1939 7.34228C25.2496 7.45288 25.2973 7.57066 25.3377 7.69564C25.3782 7.82152 25.4088 7.9456 25.4277 8.06699C25.4474 8.18927 25.4546 8.29986 25.4501 8.39877C25.4456 8.49857 25.4295 8.57949 25.4016 8.64153C25.3737 8.70357 25.3359 8.74223 25.2892 8.75752Z" fill="#FFA023"/>
<path d="M26.8572 12.9429C26.7682 13.04 26.6756 13.1272 26.5793 13.2045C26.4831 13.2818 26.3905 13.343 26.3015 13.3879C26.2134 13.4329 26.1352 13.459 26.0668 13.4653C25.9994 13.4716 25.9473 13.4581 25.9104 13.4248C25.8744 13.3906 25.8564 13.3403 25.8564 13.2719C25.8573 13.2036 25.8762 13.1236 25.9131 13.031C25.95 12.9393 26.003 12.8413 26.0713 12.7388C26.1397 12.6363 26.2188 12.5356 26.3078 12.4384C26.3968 12.3413 26.4894 12.2541 26.5856 12.1768C26.6818 12.0995 26.7745 12.0383 26.8626 11.9934C26.9516 11.9484 27.0298 11.9223 27.0972 11.9161C27.1656 11.9098 27.2177 11.9232 27.2537 11.9565C27.2906 11.9907 27.3085 12.041 27.3076 12.1094C27.3076 12.1777 27.2888 12.2577 27.2519 12.3503C27.2141 12.4429 27.162 12.5401 27.0937 12.6426C27.0253 12.7451 26.9462 12.8458 26.8572 12.9429Z" fill="#FFA023"/>
<path d="M14.2603 10.3732C14.2136 10.3885 14.1605 10.3795 14.1012 10.3453C14.0427 10.3112 13.9825 10.2554 13.9204 10.1772C13.8584 10.0999 13.7991 10.0055 13.7442 9.89488C13.6885 9.78518 13.6408 9.6674 13.5994 9.54152C13.559 9.41564 13.5293 9.29246 13.5095 9.17018C13.4907 9.04879 13.4826 8.9382 13.4871 8.8384C13.4924 8.73859 13.5086 8.65857 13.5365 8.59563C13.5644 8.53359 13.6021 8.49493 13.6489 8.47964C13.6957 8.46436 13.7487 8.47425 13.808 8.50841C13.8665 8.54258 13.9276 8.59833 13.9888 8.67655C14.0508 8.75388 14.1102 8.84829 14.165 8.95888C14.2207 9.06857 14.2684 9.18636 14.3098 9.31224C14.3502 9.43722 14.3799 9.5613 14.3997 9.68268C14.4186 9.80496 14.4266 9.91556 14.4222 10.0154C14.4168 10.1143 14.4006 10.1952 14.3727 10.2572C14.3448 10.3202 14.308 10.3588 14.2603 10.3732Z" fill="#FFA023"/>
<path d="M34.889 15.3375C34.7622 15.3717 34.6372 15.395 34.5141 15.4085C34.3918 15.4211 34.2812 15.4229 34.1823 15.4139C34.0825 15.404 34.0034 15.3834 33.9422 15.3528C33.882 15.3213 33.8451 15.2818 33.8325 15.2341C33.8199 15.1864 33.8316 15.1343 33.8685 15.0768C33.9053 15.0192 33.9647 14.9617 34.0456 14.9041C34.1265 14.8457 34.2236 14.7917 34.336 14.7423C34.4484 14.6928 34.5689 14.6506 34.6966 14.6164C34.8234 14.5822 34.9483 14.558 35.0706 14.5454C35.1938 14.5319 35.3044 14.5301 35.4033 14.54C35.5022 14.549 35.5822 14.5696 35.6434 14.6011C35.7036 14.6317 35.7405 14.6712 35.7531 14.7189C35.7657 14.7665 35.754 14.8196 35.7171 14.8762C35.6802 14.9338 35.6209 14.9913 35.54 15.0498C35.459 15.1073 35.3619 15.1613 35.2496 15.2107C35.1363 15.2611 35.0167 15.3033 34.889 15.3375Z" fill="#FFA023"/>
<path d="M9.04254 15.5183C8.99578 15.5335 8.94273 15.5246 8.88339 15.4904C8.82495 15.4562 8.7638 15.4005 8.70266 15.3223C8.64062 15.244 8.58128 15.1505 8.52643 15.0399C8.47069 14.9302 8.42303 14.8115 8.38167 14.6866C8.34121 14.5607 8.31154 14.4375 8.29176 14.3152C8.27288 14.1938 8.26479 14.0832 8.26928 13.9834C8.27468 13.8836 8.29086 13.8027 8.31873 13.7407C8.34661 13.6786 8.38347 13.64 8.43113 13.6247C8.47788 13.6094 8.53093 13.6193 8.59027 13.6526C8.64872 13.6867 8.70986 13.7434 8.771 13.8207C8.83304 13.8989 8.89238 13.9933 8.94723 14.103C9.00297 14.2136 9.05063 14.3314 9.09199 14.4564C9.13245 14.5823 9.16212 14.7063 9.1819 14.8277C9.20078 14.95 9.20888 15.0606 9.20438 15.1595C9.19898 15.2593 9.1828 15.3402 9.15493 15.4023C9.12705 15.4643 9.08929 15.503 9.04254 15.5183Z" fill="#FFA023"/>
<path d="M29.4998 19.951C29.3694 19.968 29.2417 19.9761 29.1185 19.9734C28.9954 19.9707 28.8857 19.9591 28.7886 19.9366C28.6915 19.9141 28.615 19.8844 28.5584 19.8458C28.5026 19.8071 28.4712 19.763 28.4649 19.7145C28.4577 19.665 28.4766 19.6147 28.5206 19.5625C28.5647 19.5104 28.6303 19.4609 28.7175 19.4133C28.8056 19.3665 28.9081 19.3252 29.0268 19.2901C29.1446 19.255 29.2696 19.229 29.4 19.211C29.5303 19.1939 29.6571 19.1858 29.7803 19.1885C29.9035 19.1903 30.0141 19.2029 30.1112 19.2254C30.2083 19.2478 30.2847 19.2775 30.3405 19.3162C30.3971 19.3548 30.4286 19.3989 30.4349 19.4474C30.4421 19.4969 30.4232 19.5473 30.3791 19.5994C30.3351 19.6516 30.2694 19.701 30.1813 19.7478C30.0941 19.7954 29.9907 19.8368 29.8729 19.8718C29.7551 19.9069 29.6301 19.933 29.4998 19.951Z" fill="#FFA023"/>
<path d="M19.442 15.9335C19.3944 15.9479 19.3413 15.9389 19.2829 15.9047C19.2235 15.8705 19.1633 15.8148 19.1013 15.7366C19.0392 15.6592 18.9808 15.5648 18.925 15.4542C18.8693 15.3445 18.8216 15.2268 18.7812 15.1009C18.7407 14.9759 18.7101 14.8518 18.6912 14.7304C18.6715 14.6082 18.6643 14.4976 18.6688 14.3978C18.6733 14.2989 18.6895 14.2179 18.7173 14.1559C18.7452 14.093 18.783 14.0543 18.8297 14.0399C18.8774 14.0246 18.9304 14.0336 18.9889 14.0678C19.0482 14.1019 19.1084 14.1577 19.1705 14.2359C19.2325 14.3132 19.291 14.4077 19.3467 14.5182C19.4025 14.6279 19.4501 14.7457 19.4906 14.8716C19.531 14.9975 19.5616 15.1207 19.5805 15.2429C19.6003 15.3643 19.6075 15.4749 19.603 15.5747C19.5985 15.6745 19.5823 15.7546 19.5544 15.8175C19.5265 15.8795 19.4888 15.9182 19.442 15.9335Z" fill="#FFA023"/>
<path d="M12.3112 19.3996C12.1835 19.431 12.0585 19.4526 11.9354 19.4634C11.8131 19.4742 11.7016 19.4742 11.6027 19.4625C11.5038 19.4508 11.4247 19.4292 11.3644 19.3969C11.3051 19.3645 11.2691 19.3249 11.2565 19.2764C11.2448 19.2287 11.2583 19.1766 11.2961 19.1199C11.3338 19.0633 11.3941 19.0066 11.4759 18.9509C11.5586 18.8942 11.6557 18.8421 11.7699 18.7944C11.8832 18.7468 12.0046 18.7072 12.1323 18.6748C12.26 18.6434 12.3858 18.6218 12.5081 18.611C12.6313 18.6002 12.7419 18.6002 12.8408 18.6119C12.9397 18.6236 13.0197 18.6452 13.0791 18.6775C13.1393 18.7099 13.1753 18.7504 13.187 18.798C13.1987 18.8466 13.1861 18.8987 13.1483 18.9554C13.1096 19.012 13.0494 19.0678 12.9676 19.1244C12.8858 19.1811 12.7877 19.2332 12.6745 19.2809C12.5603 19.3285 12.4398 19.3681 12.3112 19.3996Z" fill="#FFA023"/>
<path d="M30.9232 45.7133C34.6609 45.9174 37.1919 46.019 38.5154 46.019C38.8292 46.019 39.0774 45.9282 39.2599 45.7457C39.4443 45.5614 39.5369 45.3123 39.5369 44.9976V43.1562H34.8326C33.3985 43.1562 32.3582 42.8325 31.7108 42.1851C31.0634 41.5359 30.7397 40.4948 30.7397 39.0633V38.4483C30.7397 37.0169 31.0634 35.9775 31.7108 35.3301C32.3582 34.681 33.3985 34.3555 34.8326 34.3555H42.0149V37.2219H35.649C34.8308 37.2219 34.4226 37.631 34.4226 38.4483V38.8583C34.4226 39.6765 34.8308 40.0847 35.649 40.0847H39.3355C40.6707 40.0847 41.6525 40.3994 42.281 41.027C42.9086 41.6555 43.2233 42.6374 43.2233 43.9726V44.9976C43.2233 46.3337 42.9086 47.3156 42.281 47.9432C41.6525 48.5717 40.6707 48.8855 39.3355 48.8855C38.6377 48.8855 37.9004 48.872 37.1236 48.8459L35.2426 48.7632C33.8489 48.693 32.4094 48.5977 30.9232 48.4755V45.7133Z" fill="#567343" fill-opacity="0.2"/>
<path d="M54.2718 34.3555H57.9546V44.7926C57.9546 46.224 57.6309 47.2652 56.9835 47.9144C56.3362 48.5618 55.295 48.8855 53.8617 48.8855H49.1539C47.7225 48.8855 46.6813 48.5618 46.0321 47.9144C45.3847 47.2652 45.061 46.224 45.061 44.7926V34.3555H48.7475V44.7926C48.7475 45.6108 49.1557 46.019 49.9739 46.019H53.0453C53.8626 46.019 54.2718 45.6108 54.2718 44.7926V34.3555Z" fill="#567343" fill-opacity="0.2"/>
<path d="M59.9808 45.7133C63.7185 45.9174 66.2495 46.019 67.5731 46.019C67.8869 46.019 68.135 45.9282 68.3175 45.7457C68.5019 45.5614 68.5945 45.3123 68.5945 44.9976V43.1562H63.8902C62.4561 43.1562 61.4158 42.8325 60.7684 42.1851C60.1211 41.5359 59.7974 40.4948 59.7974 39.0633V38.4483C59.7974 37.0169 60.1211 35.9775 60.7684 35.3301C61.4158 34.681 62.4561 34.3555 63.8902 34.3555H71.0725V37.2219H64.7066C63.8884 37.2219 63.4802 37.631 63.4802 38.4483V38.8583C63.4802 39.6765 63.8884 40.0847 64.7066 40.0847H68.3931C69.7283 40.0847 70.7101 40.3994 71.3386 41.027C71.9662 41.6555 72.2809 42.6374 72.2809 43.9726V44.9976C72.2809 46.3337 71.9662 47.3156 71.3386 47.9432C70.7101 48.5717 69.7283 48.8855 68.3931 48.8855C67.6953 48.8855 66.9581 48.872 66.1812 48.8459L64.3002 48.7632C62.9066 48.693 61.4671 48.5977 59.9808 48.4755V45.7133Z" fill="#567343" fill-opacity="0.2"/>
<path d="M86.6022 48.6805H82.9194V42.8469H77.8051V48.6805H74.1187V34.3555H77.8051V39.984H82.9194V34.3555H86.6022V48.6805Z" fill="#567343" fill-opacity="0.2"/>
<path d="M92.7431 48.6805H89.0566V34.3555H92.7431V39.984H94.5845L97.7746 34.3555H101.662L97.6524 41.4155L101.645 48.6805H97.7567L94.5845 42.8469H92.7431V48.6805Z" fill="#567343" fill-opacity="0.2"/>
<path d="M105.45 48.6805H101.458L106.882 34.3555H110.974L116.398 48.6805H112.406L111.485 46.1233H106.371L105.45 48.6805ZM107.292 43.4619H110.564L108.928 38.6533L107.292 43.4619Z" fill="#567343" fill-opacity="0.2"/>
<path d="M29.6673 45.4697C33.405 45.6738 35.9361 45.7754 37.2596 45.7754C37.5734 45.7754 37.8215 45.6846 38.0041 45.502C38.1884 45.3177 38.281 45.0687 38.281 44.754V42.9125H33.5767C32.1426 42.9125 31.1023 42.5888 30.455 41.9415C29.8076 41.2923 29.4839 40.2511 29.4839 38.8197V38.2047C29.4839 36.7733 29.8076 35.7339 30.455 35.0865C31.1023 34.4373 32.1426 34.1118 33.5767 34.1118H40.759V36.9783H34.3932C33.5749 36.9783 33.1667 37.3874 33.1667 38.2047V38.6147C33.1667 39.4329 33.5749 39.8411 34.3932 39.8411H38.0796C39.4148 39.8411 40.3967 40.1558 41.0252 40.7834C41.6528 41.4119 41.9675 42.3937 41.9675 43.7289V44.754C41.9675 46.0901 41.6528 47.0719 41.0252 47.6995C40.3967 48.328 39.4148 48.6418 38.0796 48.6418C37.3819 48.6418 36.6446 48.6283 35.8677 48.6022L33.9867 48.5195C32.5931 48.4494 31.1536 48.3541 29.6673 48.2318V45.4697Z" fill="#567343"/>
<path d="M53.0164 34.1118H56.6992V44.549C56.6992 45.9804 56.3755 47.0216 55.7282 47.6707C55.0808 48.3181 54.0396 48.6418 52.6064 48.6418H47.8985C46.4671 48.6418 45.4259 48.3181 44.7767 47.6707C44.1294 47.0216 43.8057 45.9804 43.8057 44.549V34.1118H47.4921V44.549C47.4921 45.3672 47.9003 45.7754 48.7185 45.7754H51.79C52.6073 45.7754 53.0164 45.3672 53.0164 44.549V34.1118Z" fill="#567343"/>
<path d="M58.7249 45.4697C62.4626 45.6738 64.9937 45.7754 66.3172 45.7754C66.631 45.7754 66.8792 45.6846 67.0617 45.502C67.246 45.3177 67.3386 45.0687 67.3386 44.754V42.9125H62.6344C61.2002 42.9125 60.1599 42.5888 59.5126 41.9415C58.8652 41.2923 58.5415 40.2511 58.5415 38.8197V38.2047C58.5415 36.7733 58.8652 35.7339 59.5126 35.0865C60.1599 34.4373 61.2002 34.1118 62.6344 34.1118H69.8166V36.9783H63.4508C62.6326 36.9783 62.2244 37.3874 62.2244 38.2047V38.6147C62.2244 39.4329 62.6326 39.8411 63.4508 39.8411H67.1372C68.4724 39.8411 69.4543 40.1558 70.0828 40.7834C70.7104 41.4119 71.0251 42.3937 71.0251 43.7289V44.754C71.0251 46.0901 70.7104 47.0719 70.0828 47.6995C69.4543 48.328 68.4724 48.6418 67.1372 48.6418C66.4395 48.6418 65.7022 48.6283 64.9253 48.6022L63.0444 48.5195C61.6507 48.4494 60.2112 48.3541 58.7249 48.2318V45.4697Z" fill="#567343"/>
<path d="M85.3464 48.4368H81.6635V42.6032H76.5492V48.4368H72.8628V34.1118H76.5492V39.7404H81.6635V34.1118H85.3464V48.4368Z" fill="#567343"/>
<path d="M91.4877 48.4368H87.8013V34.1118H91.4877V39.7404H93.3291L96.5193 34.1118H100.407L96.397 41.1718L100.389 48.4368H96.5013L93.3291 42.6032H91.4877V48.4368Z" fill="#567343"/>
<path d="M104.195 48.4368H100.203L105.626 34.1118H109.719L115.143 48.4368H111.15L110.23 45.8797H105.116L104.195 48.4368ZM106.036 43.2182H109.309L107.673 38.4097L106.036 43.2182Z" fill="#567343"/>
<path d="M141.676 61.9286C141.676 64.154 141.237 66.3576 140.386 68.4137C139.534 70.4697 138.286 72.3378 136.712 73.9114C135.139 75.485 133.27 76.7332 131.214 77.5849C129.158 78.4365 126.955 78.8748 124.729 78.8748C122.504 78.8748 120.3 78.4365 118.244 77.5849C116.188 76.7332 114.32 75.485 112.747 73.9114C111.173 72.3378 109.925 70.4697 109.073 68.4137C108.222 66.3576 107.783 64.154 107.783 61.9286L124.729 61.9286H141.676Z" fill="#FFD922"/>
<path d="M141.676 61.9288C141.676 59.7034 141.237 57.4998 140.386 55.4438C139.534 53.3878 138.286 51.5196 136.712 49.946C135.139 48.3724 133.27 47.1242 131.214 46.2725C129.158 45.4209 126.955 44.9826 124.729 44.9826V61.9288H141.676Z" fill="#6565D6"/>
<rect x="21.557" y="22.5536" width="102.674" height="38.8766" stroke="#567343" stroke-width="0.996835"/>
</svg>
