<svg width="45" height="45" viewBox="0 0 45 45" fill="none" xmlns="http://www.w3.org/2000/svg">
<path fill-rule="evenodd" clip-rule="evenodd" d="M32.3719 15.8766C32.4626 15.8464 32.5836 15.9069 32.7046 16.0732C32.7046 16.0732 32.7046 16.0732 38.1784 21.3958C38.4959 21.7133 38.4959 22.1972 38.1784 22.4391C38.1784 22.4391 38.1784 22.4391 32.7046 27.8524C32.5836 28.0036 32.4626 28.049 32.3719 28.0036C32.2812 27.9583 32.2207 27.8071 32.2207 27.6105V16.2244C32.2207 16.0278 32.2812 15.9069 32.3719 15.8766Z" fill="#ED1C24"/>
<path fill-rule="evenodd" clip-rule="evenodd" d="M23.0106 7H23.4037L23.7666 7.15121C23.7666 7.15121 23.7666 7.15121 29.4067 12.7308C29.6487 13.0484 29.5579 13.2752 29.1648 13.2752C29.1648 13.2752 29.1648 13.2752 26.821 13.2752C26.4279 13.2752 26.0952 13.6079 26.0952 14.001C26.0952 14.001 26.0952 14.001 26.0952 18.1441C26.0952 18.5373 25.7777 18.8548 25.2938 18.8548C25.2938 18.8548 25.2938 18.8548 21.196 18.8548C20.7878 18.8548 20.4702 18.5373 20.4702 18.1441C20.4702 18.1441 20.4702 18.1441 20.4702 14.001C20.4702 13.6079 20.1527 13.2752 19.7444 13.2752H17.2495C16.8412 13.2752 16.7656 13.0484 17.0075 12.7308C17.0075 12.7308 17.0075 12.7308 22.6477 7.15121L23.0106 7Z" fill="#ED1C24"/>
<path fill-rule="evenodd" clip-rule="evenodd" d="M14.1958 15.7551C14.2865 15.8155 14.347 15.9516 14.347 16.1482V27.7611C14.347 27.9728 14.2865 28.0938 14.1958 28.124C14.09 28.1694 13.9539 28.124 13.7875 28.003C13.7875 28.003 13.7875 28.003 8.23816 22.4385C7.92061 22.1966 7.92061 21.7127 8.23816 21.3952C8.23816 21.3952 8.23816 21.3952 13.7875 15.9063C13.9539 15.7551 14.09 15.7097 14.1958 15.7551Z" fill="#ED1C24"/>
<path fill-rule="evenodd" clip-rule="evenodd" d="M21.1964 24.9023C21.1964 24.9023 21.1964 24.9023 25.2942 24.9023C25.778 24.9023 26.1107 25.2199 26.1107 25.6282C26.1107 25.6282 26.1107 25.6282 26.1107 29.9981C26.1107 30.482 26.4282 30.7995 26.8214 30.7995H28.9988C29.4071 30.7995 29.5583 31.0263 29.2407 31.2683C29.2407 31.2683 29.2407 31.2683 23.7669 36.7572C23.6006 36.9235 23.404 36.9991 23.2075 36.9991C23.0109 36.9991 22.7992 36.9235 22.648 36.7572C22.648 36.7572 22.648 36.7572 17.1742 31.2683C16.8415 31.0263 17.0079 30.7995 17.401 30.7995C17.401 30.7995 17.401 30.7995 19.7448 30.7995C20.153 30.7995 20.4706 30.482 20.4706 29.9981C20.4706 29.9981 20.4706 29.9981 20.4706 25.6282C20.4706 25.2199 20.7881 24.9023 21.1964 24.9023Z" fill="#ED1C24"/>
</svg>
