<svg width="45" height="45" viewBox="0 0 45 45" fill="none" xmlns="http://www.w3.org/2000/svg">
<path d="M32.6409 24.2191L22.748 21.9689C20.1986 21.3907 18.4113 19.0835 18.4796 16.459C18.548 13.8346 20.4531 11.6244 23.0291 11.181C25.605 10.7376 28.1339 12.1845 29.0682 14.6364C30.0026 17.0883 29.0819 19.8616 26.8696 21.2594C26.8274 21.2911 26.8069 21.3443 26.8171 21.3962C26.8272 21.4481 26.866 21.4896 26.917 21.503L31.318 22.5036C31.4227 22.528 31.5319 22.4887 31.5974 22.403C33.7292 19.5744 34.1371 15.7963 32.6585 12.5743C31.1799 9.35235 28.0552 7.21013 24.5294 7.00135H24.1183C20.0094 6.9368 16.2106 9.18928 14.2814 12.8341C12.3521 16.479 12.6175 20.9021 14.9685 24.2879L23.7705 36.9153C23.8092 36.9685 23.8709 37 23.9365 37C24.0021 37 24.0638 36.9685 24.1025 36.9153L32.7674 24.5526C32.8134 24.4954 32.8257 24.418 32.7997 24.3493C32.7736 24.2806 32.7132 24.231 32.6409 24.2191Z" fill="#FFC627"/>
</svg>
