<svg width="35" height="35" viewBox="0 0 35 35" xmlns="http://www.w3.org/2000/svg">
<path d="M4.08864 12.1817C3.6801 15.9776 3.69831 20.3555 4.2668 24.136C4.58136 26.2278 6.28859 27.8314 8.39598 28.0147L10.5984 28.206C15.1908 28.6053 19.809 28.6053 24.4015 28.206L26.6039 28.0147C28.7113 27.8314 30.4186 26.2278 30.7331 24.136C31.3016 20.3555 31.3198 15.9779 30.9112 12.1819C30.8584 11.7419 30.799 11.3024 30.7331 10.8637C30.4186 8.77185 28.7113 7.16819 26.6039 6.98499L24.4015 6.79354C19.809 6.39434 15.1908 6.39434 10.5984 6.79354L8.39598 6.98499C6.28859 7.16819 4.58136 8.77185 4.2668 10.8637C4.20084 11.3023 4.14146 11.7417 4.08864 12.1817ZM10.7878 8.97283C15.2541 8.58458 19.7458 8.58458 24.212 8.97283L26.4144 9.16428C27.5144 9.25991 28.4056 10.097 28.5698 11.1889C28.5869 11.3023 28.6035 11.4158 28.6197 11.5293L20.5099 16.0348C18.638 17.0747 16.3618 17.0747 14.4899 16.0348L6.3802 11.5294C6.39633 11.4158 6.41293 11.3024 6.42998 11.1889C6.59418 10.097 7.48536 9.25991 8.58542 9.16428L10.7878 8.97283ZM28.8873 13.883C29.1702 17.1901 29.0644 20.5222 28.5698 23.8106C28.4056 24.9026 27.5144 25.7397 26.4144 25.8354L24.212 26.0268C19.7458 26.4151 15.2541 26.4151 10.7878 26.0268L8.58542 25.8354C7.48536 25.7397 6.59418 24.9026 6.42998 23.8106C5.93547 20.5222 5.82965 17.1902 6.11253 13.883L13.4276 17.9469C15.9602 19.354 19.0396 19.354 21.5722 17.9469L28.8873 13.883Z"/>
</svg>
