<svg width="50" height="40" viewBox="0 0 50 40" fill="none" xmlns="http://www.w3.org/2000/svg">
<g clip-path="url(#clip0_547_3972)">
<path d="M12.0906 34.8511V32.8655C12.0906 32.1042 11.6223 31.6079 10.8196 31.6079C10.4183 31.6079 9.98349 31.7403 9.68246 32.1705C9.44846 31.8065 9.11406 31.6079 8.61239 31.6079C8.27785 31.6079 7.94361 31.7071 7.67594 32.0712V31.6741H6.97363V34.8511H7.67594V33.0971C7.67594 32.5346 7.97697 32.2697 8.44527 32.2697C8.91327 32.2697 9.14758 32.5676 9.14758 33.0971V34.8511H9.84988V33.0971C9.84988 32.5346 10.1841 32.2697 10.6189 32.2697C11.0872 32.2697 11.3212 32.5676 11.3212 33.0971V34.8511H12.0906ZM22.4912 31.6741H21.3543V30.7144H20.652V31.6741H20.0165V32.3027H20.6518V33.759C20.6518 34.4872 20.9528 34.9173 21.7555 34.9173C22.0566 34.9173 22.3908 34.8181 22.6251 34.6857L22.4243 34.0899C22.2237 34.2223 21.9897 34.2554 21.8224 34.2554C21.488 34.2554 21.3543 34.0569 21.3543 33.7259V32.3027H22.4912V31.6741ZM28.4442 31.6078C28.0429 31.6078 27.7754 31.8065 27.6081 32.0712V31.6741H26.9058V34.8511H27.6081V33.064C27.6081 32.5346 27.8421 32.2367 28.2769 32.2367C28.4107 32.2367 28.578 32.2699 28.7117 32.3029L28.9124 31.6411C28.7786 31.6079 28.578 31.6079 28.4442 31.6079V31.6078ZM19.448 31.9388C19.1134 31.7071 18.6453 31.6079 18.1436 31.6079C17.3411 31.6079 16.8061 32.005 16.8061 32.6338C16.8061 33.1634 17.2073 33.4611 17.9096 33.5605L18.244 33.5936C18.6119 33.6597 18.8126 33.759 18.8126 33.9245C18.8126 34.1561 18.5451 34.3216 18.0768 34.3216C17.6086 34.3216 17.2407 34.1561 17.0065 33.9907L16.6721 34.5202C17.0401 34.7849 17.5417 34.9173 18.0432 34.9173C18.9797 34.9173 19.5149 34.4872 19.5149 33.8914C19.5149 33.3288 19.0801 33.0309 18.4111 32.9317L18.0768 32.8985C17.7757 32.8653 17.5417 32.7993 17.5417 32.6008C17.5417 32.3691 17.7757 32.2367 18.1436 32.2367C18.5451 32.2367 18.9463 32.4021 19.147 32.5014L19.448 31.9388ZM38.1093 31.6079C37.7079 31.6079 37.4404 31.8065 37.2731 32.0712V31.6741H36.5708V34.8511H37.2731V33.064C37.2731 32.5346 37.5073 32.2367 37.9419 32.2367C38.0758 32.2367 38.2431 32.2699 38.3769 32.3029L38.5775 31.6411C38.4437 31.6079 38.2431 31.6079 38.1093 31.6079ZM29.1465 33.2626C29.1465 34.2223 29.8153 34.9173 30.8521 34.9173C31.3203 34.9173 31.6547 34.8181 31.9891 34.5533L31.6547 33.9907C31.3872 34.1893 31.1197 34.2885 30.8186 34.2885C30.2501 34.2885 29.8488 33.8914 29.8488 33.2626C29.8488 32.667 30.2501 32.2697 30.8186 32.2367C31.1197 32.2367 31.3872 32.3359 31.6547 32.5346L31.9891 31.972C31.6547 31.7071 31.3203 31.6079 30.8521 31.6079C29.8153 31.6079 29.1465 32.3029 29.1465 33.2626ZM35.6345 33.2626V31.6741H34.9322V32.0712C34.6981 31.7734 34.3637 31.6079 33.9289 31.6079C33.0259 31.6079 32.3236 32.3029 32.3236 33.2626C32.3236 34.2223 33.0259 34.9173 33.9289 34.9173C34.397 34.9173 34.7316 34.7519 34.9322 34.454V34.8511H35.6345V33.2626ZM33.0593 33.2626C33.0593 32.7 33.4272 32.2367 34.0291 32.2367C34.5977 32.2367 34.9991 32.667 34.9991 33.2626C34.9991 33.8252 34.5977 34.2885 34.0291 34.2885C33.4272 34.2553 33.0593 33.8252 33.0593 33.2626ZM24.6652 31.6079C23.7287 31.6079 23.0598 32.2697 23.0598 33.2626C23.0598 34.2554 23.7286 34.9173 24.6985 34.9173C25.1667 34.9173 25.635 34.7849 26.0029 34.4872L25.6683 33.9907C25.4008 34.1893 25.0664 34.3216 24.732 34.3216C24.2973 34.3216 23.8625 34.1231 23.7621 33.5603H26.1367V33.2958C26.1702 32.2697 25.5683 31.6079 24.6652 31.6079ZM24.6652 32.2035C25.0998 32.2035 25.401 32.4684 25.4677 32.9648H23.7956C23.8625 32.5346 24.1635 32.2035 24.6652 32.2035ZM42.089 33.2626V30.4165H41.3867V32.0712C41.1526 31.7734 40.8182 31.6079 40.3834 31.6079C39.4804 31.6079 38.7781 32.3029 38.7781 33.2626C38.7781 34.2223 39.4804 34.9173 40.3834 34.9173C40.8517 34.9173 41.1861 34.7519 41.3867 34.454V34.8511H42.089V33.2626ZM39.514 33.2626C39.514 32.7 39.8817 32.2367 40.4838 32.2367C41.0523 32.2367 41.4536 32.667 41.4536 33.2626C41.4536 33.8252 41.0523 34.2885 40.4838 34.2885C39.8817 34.2553 39.514 33.8252 39.514 33.2626ZM16.0367 33.2626V31.6741H15.3344V32.0712C15.1003 31.7734 14.7659 31.6079 14.3311 31.6079C13.4281 31.6079 12.7258 32.3029 12.7258 33.2626C12.7258 34.2223 13.4281 34.9173 14.3311 34.9173C14.7994 34.9173 15.1338 34.7519 15.3344 34.454V34.8511H16.0367V33.2626ZM13.4281 33.2626C13.4281 32.7 13.796 32.2367 14.398 32.2367C14.9665 32.2367 15.3679 32.667 15.3679 33.2626C15.3679 33.8252 14.9665 34.2885 14.398 34.2885C13.796 34.2553 13.4281 33.8252 13.4281 33.2626Z" fill="black"/>
<path d="M19.2129 7.54834H29.7475V26.2796H19.2129V7.54834Z" fill="#FF5F00"/>
<path d="M19.8823 16.9139C19.8823 13.1081 21.6882 9.73246 24.4639 7.54819C22.424 5.9597 19.8489 5 17.0397 5C10.3843 5 5 10.3281 5 16.9139C5 23.4996 10.3843 28.8278 17.0396 28.8278C19.8488 28.8278 22.4239 27.8681 24.4639 26.2795C21.6882 24.1284 19.8823 20.7197 19.8823 16.9139Z" fill="#EB001B"/>
<path d="M43.961 16.9139C43.961 23.4996 38.5767 28.8278 31.9214 28.8278C29.1122 28.8278 26.5371 27.8681 24.4971 26.2795C27.3063 24.0954 29.0788 20.7197 29.0788 16.9139C29.0788 13.1081 27.2728 9.73246 24.4971 7.54819C26.537 5.9597 29.1122 5 31.9214 5C38.5767 5 43.961 10.3613 43.961 16.9139Z" fill="#F79E1B"/>
</g>
<defs>
<clipPath id="clip0_547_3972">
<rect width="39" height="30" fill="white" transform="translate(5 5)"/>
</clipPath>
</defs>
</svg>
