<svg width="200px" height="120px" viewBox="0 0 201 120" fill="none" xmlns="http://www.w3.org/2000/svg">
<path d="M73.1022 30.3904L63.5091 48.1677L58.0259 60.4739L65.564 67.9851L75.8428 85.0783L93.6597 90.5493H106.681L126.553 98.0707L139.574 92.5895L162.872 78.915V59.7715L156.705 48.1474L148.48 25.6055L132.034 14.6655H92.9699L80.6424 21.5028L73.1022 30.3904Z" fill="#FEF4D0"/>
<path d="M36.6728 39.5482C36.6728 39.5482 32.3839 38.5575 32.8925 41.3976C33.4011 44.2376 38.8152 51.4789 38.8152 51.4789C38.8152 51.4789 48.5161 59.7087 54.6199 60.9633C60.7236 62.2179 74.6321 64.4144 78.0502 63.8054C81.4683 63.1964 91.6107 60.7928 95.7511 57.7051C99.8915 54.6173 106.278 47.6136 107.942 43.7971C109.607 39.9806 113.202 30.5449 113.421 25.2281C113.641 19.9114 113.658 13.4538 113.35 11.7546L112.333 6.07041C112.333 6.07041 107.938 4.51132 108.347 6.78296C108.756 9.0546 41.5334 40.4353 41.5334 40.4353L36.6728 39.5482Z" fill="#94B7BD"/>
<path d="M36.6729 39.548C36.6729 39.548 61.2914 24.6717 70.2863 20.6461C79.2283 16.6327 108.447 7.36949 108.447 7.36949C108.447 7.36949 108.608 4.99634 109.161 11.3464C109.715 17.6964 108.144 28.5329 108.144 28.5329C108.144 28.5329 108.799 35.4534 102.726 44.1644C96.6525 52.8754 94.1113 55.0861 87.9506 56.7751C81.7898 58.4641 69.2649 60.7033 61.6189 57.3842C53.973 54.065 45.387 52.0796 41.8265 48.6123C38.2659 45.1449 36.6729 39.548 36.6729 39.548Z" fill="#FED9DB"/>
<path d="M83.7808 39.7155C84.3373 39.4015 84.2881 38.264 83.6707 37.1749C83.0534 36.0857 82.1018 35.4574 81.5453 35.7715C80.9888 36.0855 81.038 37.223 81.6554 38.3121C82.2727 39.4012 83.2243 40.0296 83.7808 39.7155Z" fill="black"/>
<path d="M65.9268 41.737C66.4833 41.423 66.4341 40.2855 65.8167 39.1964C65.1994 38.1072 64.2478 37.4789 63.6913 37.7929C63.1348 38.107 63.184 39.2445 63.8013 40.3336C64.4187 41.4227 65.3703 42.0511 65.9268 41.737Z" fill="black"/>
<path d="M76.5967 35.7236C77.1532 35.4095 77.104 34.272 76.4867 33.1829C75.8693 32.0938 74.9177 31.4655 74.3612 31.7795C73.8047 32.0936 73.854 33.2311 74.4713 34.3202C75.0886 35.4093 76.0402 36.0376 76.5967 35.7236Z" fill="black"/>
<path d="M74.9771 43.0495C75.5336 42.7355 75.4843 41.598 74.867 40.5089C74.2497 39.4197 73.2981 38.7914 72.7416 39.1054C72.185 39.4195 72.2343 40.557 72.8516 41.6461C73.469 42.7352 74.4206 43.3636 74.9771 43.0495Z" fill="black"/>
<path d="M85.2763 33.1114C85.8326 32.7988 85.7854 31.6629 85.1709 30.5744C84.5564 29.4858 83.6074 28.8568 83.0511 29.1693C82.4949 29.4819 82.5421 30.6178 83.1565 31.7064C83.771 32.795 84.7201 33.424 85.2763 33.1114Z" fill="black"/>
<path d="M101.586 52.5182C101.674 43.8518 104.543 38.6975 118.036 34.6678C120.987 33.8188 124.137 33.976 126.988 35.1144C140.278 41.095 149.206 47.1101 147.912 56.9985C147.192 62.5 143.316 69.2601 139.072 72.6199C134.451 76.274 129.182 76.8343 122.514 76.1907C121.11 76.0547 119.354 76.0892 118.038 75.7441C107.377 72.9446 101.479 63.241 101.586 52.5182Z" fill="#FD6769"/>
<path d="M137.053 35.7804C137.053 35.7804 138.844 35.7804 143.768 28.1921C141.084 30.4251 132.358 31.5396 132.358 31.5396C132.581 28.152 133.104 24.7907 133.92 21.4949C131.886 21.4949 129.444 23.2793 128.262 27.3496L127.652 30.4231C127.652 30.4231 115.123 26.8502 112.885 29.9765C117.361 30.4231 121.837 33.1007 121.837 33.1007C112.02 35.3785 110.885 38.5982 109.755 39.3533C115.572 36.6737 113.336 36.6737 124.746 37.3436C126.201 40.9713 125.194 45.3786 123.589 48.7789C123.53 49.8853 123.618 50.9945 123.851 52.0778C128.103 49.1748 132.354 39.128 132.354 39.128C132.354 39.128 136.38 40.4678 143.544 48.9515C144.885 44.0408 137.053 35.7804 137.053 35.7804Z" fill="#94B7BD"/>
<path d="M91.7453 51.5031C91.0026 50.2668 89.5703 49.2701 88.2641 49.5746C87.8083 49.6842 87.3546 50.346 86.9681 50.6708C85.9407 51.5578 85.2172 52.7432 84.8989 54.061C83.6924 58.5434 83.0087 66.6474 80.5937 71.3023C78.1786 75.9573 74.6405 83.5457 69.9792 85.4458C66.7316 86.7223 63.4132 87.8115 60.0403 88.7081L59.8918 88.7406C59.3851 88.8218 56.2295 89.3882 55.0372 90.9737C54.5677 91.4791 54.2375 92.0975 54.0789 92.7682C54.0225 93.0842 54.0419 93.409 54.1357 93.716C54.2294 94.023 54.3947 94.3035 54.6181 94.5344C56.922 96.3593 59.7932 97.3223 62.7341 97.2567C68.2621 97.0801 76.2966 97.1613 79.4909 95.7788C82.6852 94.3963 88.2966 90.5149 90.4533 86.205C93.0813 80.8909 94.6617 75.1225 95.1084 69.2134C95.4482 63.0055 94.2621 61.1946 93.6293 56.8016C93.3599 54.9282 92.7195 53.127 91.7453 51.5031Z" fill="#FCC812"/>
<path d="M88.565 50.2972C89.6718 54.7451 90.4083 58.7727 90.2293 63.3871C90.0543 67.8979 88.445 72.1042 86.4348 76.0932C84.7604 79.6344 82.5049 82.8716 79.7614 85.6711C76.797 88.5477 73.0899 90.2773 69.1367 91.3735C64.5121 92.6525 59.4541 92.9083 54.6912 93.227C54.6667 93.4177 54.6667 93.6108 54.6912 93.8015C63.0879 93.2432 72.6342 93.2128 79.3666 87.5408C82.4279 84.8116 84.9436 81.5286 86.7807 77.8655C88.8844 73.9292 90.6525 69.7737 91.1957 65.3075C91.8407 59.9928 90.1784 54.8202 88.9129 49.676C88.7668 49.6959 88.6315 49.7637 88.5284 49.8689L88.565 50.2972Z" fill="black"/>
<path d="M92.8965 49.3148C91.2343 48.6347 89.0593 48.7058 87.9871 49.9847C87.6127 50.4333 87.6575 51.4321 87.513 52.0411C87.1534 53.6893 87.3192 55.4084 87.9871 56.958C90.1376 62.3234 95.515 70.9045 96.5873 77.3418C97.6595 83.7792 99.8141 93.9701 96.5873 99.3315C94.3066 103.02 91.8156 106.575 89.1264 109.979C89.0871 110.029 89.045 110.076 89.0003 110.121C88.5588 110.58 85.8365 113.497 85.8365 115.96C85.7441 116.815 85.8781 117.679 86.2251 118.467C86.7846 119.303 87.4153 119.817 88.0807 119.823C91.7396 119.927 95.3197 118.751 98.2007 116.498C103.576 112.206 111.641 106.307 113.792 102.551C115.942 98.7955 118.628 90.7504 117.554 84.851C116.479 78.9517 113.792 70.9045 109.491 64.4672C105.19 58.0298 102.652 57.1082 98.7378 53.2044C97.0689 51.5336 95.0832 50.2114 92.8965 49.3148Z" fill="#FCC812"/>
<path d="M90.6833 53.2105C97.1939 59.1139 102.728 67.3519 105.218 75.7726C107.863 84.7394 107.353 94.9201 102.527 103.178C99.8816 107.703 90.4289 115.46 86.8013 119.202L87.1227 119.522C90.8867 117.377 100.256 108.725 102.889 104.666C105.503 100.631 107.142 96.044 107.676 91.2681C108.763 81.8953 105.599 72.0596 100.911 63.9596C98.3476 59.53 95.0108 56.1378 91.7901 52.1589C90.8343 51.1089 89.735 50.1986 88.5246 49.4548L87.9874 49.9827L90.6833 53.2105Z" fill="black"/>
<path d="M87.9874 49.9868L84.2173 48.3749L85.2956 45.6891L89.0637 44.6152L88.5245 49.4488L87.9874 49.9868Z" fill="black"/>
</svg>
