<svg width="400" height="238" viewBox="0 0 400 238" fill="none" xmlns="http://www.w3.org/2000/svg">
<path opacity="0.53" d="M36.4693 98.9838C41.636 94.5878 59.5986 95.0184 70.1083 95.0184C80.6181 95.0184 101.349 95.4834 107.054 102.717C112.759 109.95 96.9188 117.652 72.3989 117.652C47.879 117.652 21.1288 112.047 36.4693 98.9838Z" fill="#99ADF9"/>
<path d="M326.132 120.215C326.132 120.215 363.951 121.024 377.591 123.328C391.231 125.631 408.591 142.401 393.401 160.058C378.211 177.715 355.719 175.653 291.963 175.653C302.882 140.636 326.132 120.215 326.132 120.215Z" fill="#99ADF9"/>
<path d="M84.5361 128.416C84.5361 128.416 63.3831 124.946 34.1185 129.38C16.1387 132.106 -1.52682 141.711 0.10497 155.459C2.49023 175.604 50.5699 167.945 63.396 179.049C76.2222 190.153 48.2708 193.395 40.4304 205.02C32.5901 216.645 39.72 232.42 76.3513 234.818C112.983 237.216 226.795 238.439 253.088 235.141C279.382 231.843 295.532 201.05 253.665 184.491C188.295 171.174 84.5361 128.416 84.5361 128.416Z" fill="#99ADF9"/>
<path d="M344.925 136.304C344.925 170.287 294.365 197.838 200.204 197.838C106.042 197.838 58.1218 170.283 58.1218 136.304C58.1218 102.325 106.068 74.7695 200.204 74.7695C294.34 74.7695 344.925 102.321 344.925 136.304Z" fill="#F0F6FF"/>
<path opacity="0.36" d="M136.056 107.074C136.056 107.074 84.3337 112.284 80.6138 181.409C101.074 217.984 181.673 209.308 181.673 209.308C181.673 209.308 178.62 139.236 206.3 101.051C263.822 102.911 304.742 102.342 320.242 179.842C351.861 163.722 354.294 128.636 354.294 128.636C354.294 128.636 338.794 79.0365 316.164 73.4565C293.534 67.8766 256.955 74.6965 256.955 74.6965L136.056 107.074Z" fill="#FF97C9"/>
<g style="mix-blend-mode:multiply" opacity="0.64">
<path d="M300.092 111.302C300.092 127.934 265.338 141.419 200.634 141.419C135.931 141.419 102.955 127.934 102.955 111.302C102.955 94.67 135.914 81.1895 200.634 81.1895C265.355 81.1895 300.092 94.6786 300.092 111.302Z" fill="#E1ECFF"/>
</g>
<path d="M245.317 115.775C245.317 115.775 251.655 122.94 252.481 128.726C253.308 134.513 252.619 141.677 259.37 144.019C266.121 146.362 283.912 147.739 289.405 140.713C294.899 133.686 291.197 122.389 281.277 113.846C267.93 101.998 252.757 101.033 252.757 101.033L245.317 115.775Z" fill="#FEC272"/>
<g style="mix-blend-mode:multiply" opacity="0.45">
<path d="M243.336 129.613C243.336 129.613 271.753 127.417 271.107 97.3643C249.364 98.4406 238.2 113.635 238.2 113.635L243.336 129.613Z" fill="#FEC272"/>
</g>
<path d="M150.604 115.775C150.604 115.775 156.942 122.94 157.769 128.726C158.595 134.513 157.906 141.677 164.657 144.019C171.408 146.362 189.199 147.739 194.693 140.713C200.186 133.686 196.484 122.389 186.564 113.846C173.217 101.998 158.044 101.033 158.044 101.033L150.604 115.775Z" fill="#FEC272"/>
<g style="mix-blend-mode:multiply" opacity="0.45">
<path d="M157.162 107.982C157.162 107.982 171.882 132.39 198.447 118.315C187.722 99.3708 169.131 96.2148 169.131 96.2148L157.162 107.982Z" fill="#FEC272"/>
</g>
<path d="M234.093 10.3936C237.967 10.5227 250.286 9.62288 255.426 24.7869C260.567 39.9509 264.55 51.0075 271.49 60.9016C278.431 70.7956 285.5 88.7884 271.49 101.373C257.48 113.958 241.037 110.897 233.455 107.164C225.873 103.431 216.87 97.2616 219.058 76.1948C221.245 55.1279 227.927 42.2673 228.698 30.6984C229.468 19.1294 230.648 15.276 234.093 10.3936Z" fill="#FF8D76"/>
<path d="M197.926 0.0600475C218.037 -0.758 234.381 6.87999 241.821 17.0066C249.261 27.1331 253.601 51.7262 254.531 59.0628C255.461 66.3994 258.768 70.3261 262.281 75.1827C266.048 80.3924 272.511 96.4692 265.587 107.216C258.664 117.962 247.384 120.718 235.384 114.828C223.294 119.564 213.021 121.992 193.492 118.703C173.962 115.413 155.211 98.8329 150.436 65.5211C147.681 46.2324 147.646 22.6726 156.895 10.4105C172.321 6.18249 178.887 0.817818 197.926 0.0600475Z" fill="#FEC272"/>
<path d="M156.942 10.3936C152.809 10.5313 139.582 9.56689 134.071 25.8245C128.56 42.0821 124.302 53.9309 116.849 64.5397C109.396 75.1485 101.831 94.4372 116.849 107.939C131.867 121.441 149.502 118.135 157.631 114.139C165.76 110.144 175.404 103.53 173.062 80.9351C170.72 58.3398 163.555 44.5621 162.729 32.1622C161.902 19.7624 160.662 15.6291 156.942 10.3936Z" fill="#FF8D76"/>
<path d="M199.084 68.948C202.166 68.948 204.664 66.4497 204.664 63.368C204.664 60.2863 202.166 57.7881 199.084 57.7881C196.003 57.7881 193.504 60.2863 193.504 63.368C193.504 66.4497 196.003 68.948 199.084 68.948Z" fill="#1C3177"/>
<path d="M244.413 68.948C247.495 68.948 249.993 66.4497 249.993 63.368C249.993 60.2863 247.495 57.7881 244.413 57.7881C241.331 57.7881 238.833 60.2863 238.833 63.368C238.833 66.4497 241.331 68.948 244.413 68.948Z" fill="#1C3177"/>
<path d="M190.349 49.1991C189.918 47.1755 194.938 44.6869 197.496 42.8183C200.053 40.9497 203.907 40.235 205.934 43.645C207.962 47.0549 201.013 50.2625 198.451 50.8093C195.89 51.3561 190.805 51.4164 190.349 49.1991Z" fill="#FF8D76"/>
<path d="M249.988 48.4403C250.156 46.576 245.778 44.6041 243.491 43.0541C241.205 41.5041 237.942 41.0736 236.555 44.2941C235.169 47.5146 241.222 50.0247 243.397 50.3778C245.571 50.7308 249.803 50.4854 249.988 48.4403Z" fill="#FF8D76"/>
<path d="M226.209 81.6931C226.605 79.3681 243.001 78.5931 244.413 81.6931C245.825 84.793 241.399 92.7496 236.852 92.7496C232.306 92.7496 225.176 87.7897 226.209 81.6931Z" fill="#1C3177"/>
<path d="M237.287 86.1357C237.457 90.5537 237.256 94.9781 236.685 99.3623" stroke="#1C3177" stroke-width="7" stroke-miterlimit="10" stroke-linecap="round"/>
<g style="mix-blend-mode:multiply">
<path d="M173.759 144.037C173.759 144.037 175.688 138.87 173.329 134.225" stroke="#FEC272" stroke-width="7" stroke-miterlimit="10" stroke-linecap="round"/>
</g>
<g style="mix-blend-mode:multiply">
<path d="M188.979 143.004C189.625 140.031 189.214 136.927 187.817 134.225" stroke="#FEC272" stroke-width="7" stroke-miterlimit="10" stroke-linecap="round"/>
</g>
<g style="mix-blend-mode:multiply">
<path d="M268.472 144.037C268.472 144.037 270.401 138.87 268.041 134.225" stroke="#FEC272" stroke-width="7" stroke-miterlimit="10" stroke-linecap="round"/>
</g>
<g style="mix-blend-mode:multiply">
<path d="M283.692 143.004C284.34 140.032 283.931 136.927 282.534 134.225" stroke="#FEC272" stroke-width="7" stroke-miterlimit="10" stroke-linecap="round"/>
</g>
<path opacity="0.53" d="M309.353 196.637C314.52 192.237 332.478 192.668 342.992 192.668C353.506 192.668 374.233 193.137 379.938 200.37C385.642 207.604 369.802 215.302 345.282 215.302C320.763 215.302 294.03 209.7 309.353 196.637Z" fill="#99ADF9"/>
</svg>
