<svg width="35" height="35" viewBox="0 0 35 35" fill="none" xmlns="http://www.w3.org/2000/svg">
<path d="M28.204 21.1316L26.7457 18.7107C26.4394 18.1712 26.1623 17.1503 26.1623 16.5524V12.8628C26.1623 9.43574 24.1498 6.47533 21.2478 5.08991C20.4894 3.74824 19.0894 2.91699 17.4853 2.91699C15.8957 2.91699 14.4665 3.77741 13.7082 5.13366C10.8644 6.54824 8.89567 9.47949 8.89567 12.8628V16.5524C8.89567 17.1503 8.61859 18.1712 8.31234 18.6962L6.83942 21.1316C6.25609 22.1087 6.12484 23.1878 6.48942 24.1795C6.83942 25.1566 7.67067 25.9149 8.74984 26.2795C11.579 27.242 14.554 27.7087 17.529 27.7087C20.504 27.7087 23.479 27.242 26.3082 26.2941C27.329 25.9587 28.1165 25.1857 28.4957 24.1795C28.8748 23.1732 28.7728 22.0649 28.204 21.1316Z" fill="#5D5FEF"/>
<path d="M21.6263 29.1816C21.0138 30.8732 19.3951 32.0837 17.4992 32.0837C16.3471 32.0837 15.2096 31.617 14.4076 30.7857C13.9409 30.3482 13.5909 29.7649 13.3867 29.167C13.5763 29.1962 13.7659 29.2107 13.9701 29.2399C14.3055 29.2837 14.6555 29.3274 15.0055 29.3566C15.8367 29.4295 16.6826 29.4732 17.5284 29.4732C18.3596 29.4732 19.1909 29.4295 20.0076 29.3566C20.3138 29.3274 20.6201 29.3128 20.9117 29.2691C21.1451 29.2399 21.3784 29.2107 21.6263 29.1816Z" fill="#5D5FEF"/>
</svg>
