<svg width="31" height="30" viewBox="0 0 31 30" fill="none" xmlns="http://www.w3.org/2000/svg">
<path fill-rule="evenodd" clip-rule="evenodd" d="M24.3719 8.87663C24.4626 8.84639 24.5836 8.90687 24.7046 9.07321C24.7046 9.07321 24.7046 9.0732 30.1784 14.3958C30.4959 14.7133 30.4959 15.1972 30.1784 15.4391C30.1784 15.4391 30.1784 15.4391 24.7046 20.8524C24.5836 21.0036 24.4626 21.049 24.3719 21.0036C24.2812 20.9583 24.2207 20.8071 24.2207 20.6105V9.22441C24.2207 9.02784 24.2812 8.90687 24.3719 8.87663Z" fill="#ED1C24"/>
<path fill-rule="evenodd" clip-rule="evenodd" d="M15.0106 0H15.4037L15.7666 0.15121C15.7666 0.15121 15.7666 0.15121 21.4067 5.73084C21.6487 6.04839 21.5579 6.2752 21.1648 6.2752C21.1648 6.2752 21.1648 6.2752 18.821 6.2752C18.4279 6.2752 18.0952 6.60786 18.0952 7.00101C18.0952 7.00101 18.0952 7.00101 18.0952 11.1441C18.0952 11.5373 17.7777 11.8548 17.2938 11.8548C17.2938 11.8548 17.2938 11.8548 13.196 11.8548C12.7878 11.8548 12.4702 11.5373 12.4702 11.1441C12.4702 11.1441 12.4702 11.1441 12.4702 7.00101C12.4702 6.60786 12.1527 6.2752 11.7444 6.2752H9.24948C8.84121 6.2752 8.76561 6.04839 9.00754 5.73084C9.00754 5.73084 9.00754 5.73084 14.6477 0.15121L15.0106 0Z" fill="#ED1C24"/>
<path fill-rule="evenodd" clip-rule="evenodd" d="M6.19581 8.75506C6.28654 8.81555 6.34702 8.95164 6.34702 9.14821V20.7611C6.34702 20.9728 6.28654 21.0938 6.19581 21.124C6.08997 21.1694 5.95388 21.124 5.78755 21.003C5.78755 21.003 5.78755 21.003 0.238155 15.4385C-0.0793851 15.1966 -0.0793851 14.7127 0.238155 14.3952C0.238155 14.3952 0.238155 14.3952 5.78755 8.90627C5.95388 8.75506 6.08997 8.7097 6.19581 8.75506Z" fill="#ED1C24"/>
<path fill-rule="evenodd" clip-rule="evenodd" d="M13.1964 17.9023C13.1964 17.9023 13.1964 17.9023 17.2942 17.9023C17.778 17.9023 18.1107 18.2199 18.1107 18.6282C18.1107 18.6282 18.1107 18.6282 18.1107 22.9981C18.1107 23.482 18.4282 23.7995 18.8214 23.7995H20.9988C21.4071 23.7995 21.5583 24.0263 21.2407 24.2683C21.2407 24.2683 21.2407 24.2683 15.7669 29.7572C15.6006 29.9235 15.404 29.9991 15.2075 29.9991C15.0109 29.9991 14.7992 29.9235 14.648 29.7572C14.648 29.7572 14.648 29.7572 9.1742 24.2683C8.84154 24.0263 9.00787 23.7995 9.40101 23.7995C9.40101 23.7995 9.40101 23.7995 11.7448 23.7995C12.153 23.7995 12.4706 23.482 12.4706 22.9981C12.4706 22.9981 12.4706 22.9981 12.4706 18.6282C12.4706 18.2199 12.7881 17.9023 13.1964 17.9023Z" fill="#ED1C24"/>
</svg>
