<svg width="30" height="30" viewBox="0 0 30 30" fill="none" xmlns="http://www.w3.org/2000/svg">
<path fill-rule="evenodd" clip-rule="evenodd" d="M27.425 10.6872L26.1125 9.37471C25.4871 8.7422 24.6394 8.3789 23.75 8.36221H18.75V7.63721C18.75 5.73873 17.211 4.19971 15.3125 4.19971H5C4.48223 4.19971 4.0625 4.61944 4.0625 5.13721C4.0625 5.65497 4.48223 6.07471 5 6.07471H15.275C16.1379 6.07471 16.8375 6.77426 16.8375 7.63721V15.5497C16.8375 16.0675 17.2572 16.4872 17.775 16.4872C18.2928 16.4872 18.7125 16.0675 18.7125 15.5497V10.2372H23.7125C24.1268 10.2356 24.5239 10.4025 24.8125 10.6997L26.125 11.9497C26.304 12.1353 26.433 12.3632 26.5 12.6122H21.25C20.7322 12.6122 20.3125 13.0319 20.3125 13.5497C20.3125 14.0675 20.7322 14.4872 21.25 14.4872H26.5625V19.7997C26.5795 20.2248 26.4224 20.6385 26.1276 20.9452C25.8327 21.2519 25.4255 21.425 25 21.4247H23.6125C23.3049 19.9825 22.0309 18.9516 20.5562 18.9516C19.0816 18.9516 17.8076 19.9825 17.5 21.4247H10.825C10.4886 19.934 9.11589 18.9108 7.59116 19.0143C6.06643 19.1178 4.84459 20.317 4.71263 21.8395C4.58068 23.362 5.57799 24.7536 7.06219 25.1178C8.54638 25.4821 10.0746 24.7103 10.6625 23.2997H17.675C18.1622 24.4599 19.2979 25.2147 20.5562 25.2147C21.8146 25.2147 22.9503 24.4599 23.4375 23.2997H25C26.8985 23.2997 28.4375 21.7607 28.4375 19.8622V13.1247C28.4392 12.2096 28.0746 11.3318 27.425 10.6872ZM7.77516 23.1001C7.3555 23.1206 6.96585 22.8828 6.79204 22.5003C6.61823 22.1178 6.69546 21.668 6.98689 21.3653C7.27833 21.0627 7.72495 20.9685 8.11375 21.1278C8.50255 21.2871 8.75478 21.6675 8.75016 22.0876C8.75053 22.6325 8.31965 23.0799 7.77516 23.1001ZM19.6022 22.4641C19.7601 22.8487 20.1346 23.0998 20.5503 23.0998C21.1116 23.0999 21.5685 22.6485 21.5753 22.0873C21.5804 21.6717 21.3339 21.2941 20.9513 21.1315C20.5687 20.9689 20.1258 21.0535 19.8301 21.3456C19.5344 21.6378 19.4443 22.0796 19.6022 22.4641Z" />
<path d="M13.4375 11.25C13.4308 10.735 13.015 10.3192 12.5 10.3125H2.5C1.98223 10.3125 1.5625 10.7322 1.5625 11.25C1.5625 11.7678 1.98223 12.1875 2.5 12.1875H12.5C13.015 12.1808 13.4308 11.765 13.4375 11.25Z" />
<path d="M12.5 14.0625H6.25C5.73223 14.0625 5.3125 14.4822 5.3125 15C5.3125 15.5178 5.73223 15.9375 6.25 15.9375H12.5C13.0178 15.9375 13.4375 15.5178 13.4375 15C13.4375 14.4822 13.0178 14.0625 12.5 14.0625Z" />
</svg>
