<svg xmlns="http://www.w3.org/2000/svg" width="24" height="24" viewBox="0 0 24 24" fill="none">
  <path fill-rule="evenodd" clip-rule="evenodd" d="M5.89347 20.5888H11.8452C12.2793 20.5888 12.6311 20.9407 12.6311 21.3747C12.6311 21.8087 12.2793 22.1606 11.8452 22.1606H5.89347C3.19328 22.1548 1.00579 19.9673 1.00002 17.2671V6.9144C0.99724 5.6138 1.51124 4.36536 2.42894 3.44373C3.34664 2.5221 4.59286 2.00278 5.89347 2H9.93816C11.4602 2 12.694 3.23383 12.694 4.75584C12.6997 5.40741 13.2265 5.93421 13.8781 5.9399H17.9227C20.6229 5.94567 22.8104 8.13316 22.8162 10.8333C22.8222 11.2768 22.4735 11.6441 22.0303 11.6611C21.8248 11.6697 21.6248 11.594 21.4764 11.4516C21.328 11.3092 21.2442 11.1124 21.2444 10.9067C21.2584 10.0148 20.9153 9.15422 20.2915 8.5166C19.6676 7.87897 18.8148 7.51716 17.9227 7.51167H13.8781C12.3561 7.51167 11.1222 6.27784 11.1222 4.75584C11.1053 4.11246 10.5817 3.59815 9.93816 3.59273H5.89347C4.05896 3.59273 2.57179 5.07989 2.57179 6.9144V17.2671C2.57179 19.1016 4.05896 20.5888 5.89347 20.5888ZM15.7432 12.0908H19.9346C21.5741 12.0965 22.9 13.4272 22.9 15.0667V19.258C22.9 20.0445 22.5876 20.7988 22.0315 21.3549C21.4754 21.911 20.7211 22.2234 19.9346 22.2234H15.7432C14.1038 22.2235 12.7731 20.8975 12.7673 19.258V15.0667C12.7673 13.4231 14.0997 12.0908 15.7432 12.0908ZM19.9346 20.4735C20.6059 20.4735 21.1501 19.9293 21.1501 19.258V15.0667C21.1529 14.7425 21.0261 14.4306 20.7978 14.2004C20.5696 13.9702 20.2588 13.8407 19.9346 13.8407H15.7432C15.0661 13.8407 14.5172 14.3896 14.5172 15.0667V19.258C14.5172 19.5822 14.6467 19.893 14.877 20.1213C15.1072 20.3495 15.419 20.4763 15.7432 20.4735H19.9346ZM19.023 15.4441L17.2521 17.2569L16.6234 16.6596C16.4316 16.4133 16.1121 16.304 15.8096 16.381C15.507 16.458 15.2787 16.7068 15.228 17.0149C15.1773 17.3229 15.3137 17.6318 15.5756 17.8018L16.7596 18.9335C16.9071 19.0727 17.1017 19.1513 17.3045 19.1535C17.5178 19.1522 17.7216 19.0654 17.8704 18.9125L20.1861 16.5444C20.4899 16.2319 20.4829 15.7322 20.1704 15.4284C19.8579 15.1246 19.3582 15.1316 19.0544 15.4441H19.023Z" />
</svg>