<svg width="30" height="30" viewBox="0 0 30 30" fill="none" xmlns="http://www.w3.org/2000/svg">
<path fill-rule="evenodd" clip-rule="evenodd" d="M4.8125 6.4C5.34977 3.85235 7.59631 2.02801 10.2 2.025L10.2375 2C12.823 1.99907 15.0601 3.79916 15.6125 6.325H15.75C17.6485 6.325 19.1875 7.86402 19.1875 9.7625V10.4875H24.1875C25.0859 10.5207 25.9348 10.907 26.55 11.5625L27.8625 12.8125C28.5102 13.4533 28.8748 14.3264 28.875 15.2375V21.9875C28.875 23.886 27.336 25.425 25.4375 25.425H23.725C23.3243 26.7251 22.1229 27.612 20.7625 27.612C19.4021 27.612 18.2007 26.7251 17.8 25.425H11.7875C11.7293 25.4308 11.6707 25.4308 11.6125 25.425C11.2751 26.815 10.0304 27.7937 8.6 27.7937C7.16962 27.7937 5.92494 26.815 5.5875 25.425H5.4375H2.9375C2.42255 25.4183 2.00673 25.0025 2 24.4875V11.0125C2 7.65 3.5625 6.6625 4.8125 6.4ZM20.7625 22.9875C21.4121 22.9915 21.984 23.4166 22.175 24.0375C22.2246 24.1989 22.3006 24.351 22.4 24.4875C22.2984 24.618 22.222 24.7664 22.175 24.925C21.9875 25.5484 21.4135 25.9752 20.7625 25.9752C20.1115 25.9752 19.5375 25.5484 19.35 24.925C19.303 24.7664 19.2267 24.618 19.125 24.4875C19.2244 24.351 19.3004 24.1989 19.35 24.0375C19.5411 23.4166 20.1129 22.9915 20.7625 22.9875ZM8.59961 23.1125C9.23331 23.1203 9.79369 23.5256 9.99961 24.125C10.0494 24.2748 10.1256 24.4145 10.2246 24.5375C10.139 24.6723 10.0757 24.82 10.0371 24.975C9.88312 25.6448 9.28691 26.1195 8.59961 26.1195C7.91231 26.1195 7.3161 25.6448 7.16211 24.975C7.12821 24.8185 7.06455 24.67 6.97461 24.5375C7.06433 24.4041 7.13975 24.2617 7.19961 24.1125C7.40553 23.5131 7.96591 23.1078 8.59961 23.1V23.1125ZM10.2 11.175C8.19106 11.175 6.5625 9.54644 6.5625 7.5375C6.5625 5.52857 8.19106 3.9 10.2 3.9C12.2089 3.9 13.8375 5.52857 13.8375 7.5375C13.8375 8.50223 13.4543 9.42744 12.7721 10.1096C12.0899 10.7918 11.1647 11.175 10.2 11.175ZM15.65 8.1875C15.3271 10.9547 12.986 13.0435 10.2 13.05C7.48783 13.0384 5.18703 11.0557 4.775 8.375C4.3125 8.6375 3.875 9.3 3.875 11.0125V23.55H5.4375C5.51238 23.544 5.58762 23.544 5.6625 23.55C6.08758 22.2894 7.26962 21.4405 8.6 21.4405C9.93038 21.4405 11.1124 22.2894 11.5375 23.55C11.6207 23.544 11.7043 23.544 11.7875 23.55H17.8C18.2007 22.2499 19.4021 21.363 20.7625 21.363C22.1229 21.363 23.3243 22.2499 23.725 23.55H25.4375C25.8619 23.5468 26.267 23.3726 26.5611 23.0667C26.8552 22.7608 27.0135 22.3492 27 21.925V16.6125H21.6875C21.1697 16.6125 20.75 16.1928 20.75 15.675C20.75 15.1572 21.1697 14.7375 21.6875 14.7375H26.9375C26.8732 14.4874 26.7438 14.2589 26.5625 14.075L25.25 12.825C24.9614 12.5278 24.5643 12.3609 24.15 12.3625H19.15V17.675C19.15 18.1928 18.7303 18.6125 18.2125 18.6125C17.6947 18.6125 17.275 18.1928 17.275 17.675V9.7625C17.2783 9.34594 17.1152 8.94529 16.8218 8.64956C16.5284 8.35382 16.1291 8.18749 15.7125 8.1875H15.65Z" />
<path d="M8.77497 5.16245C8.52641 5.16267 8.28812 5.26159 8.11247 5.43745C7.93379 5.61156 7.83301 5.85047 7.83301 6.09995C7.83301 6.34944 7.93379 6.58834 8.11247 6.76245L9.26247 7.92495V8.97495C9.26247 9.49272 9.6822 9.91245 10.2 9.91245C10.7177 9.91245 11.1375 9.49272 11.1375 8.97495V7.72495C11.1427 7.32593 10.9847 6.9421 10.7 6.66245L9.44997 5.41245C9.27141 5.24098 9.03497 5.14284 8.78747 5.13745L8.77497 5.16245Z" />
</svg>
