<svg width="30" height="30" viewBox="0 0 30 30" fill="none" xmlns="http://www.w3.org/2000/svg">
<path fill-rule="evenodd" clip-rule="evenodd" d="M24.925 5.7062L17.55 1.6187C16.1008 0.793767 14.3242 0.793767 12.875 1.6187L5.5 5.7062C3.96285 6.55149 3.0056 8.16447 3 9.9187V17.8562C3.00441 18.6012 3.17524 19.3357 3.5 20.0062V20.0687C2.78789 21.593 3.10231 23.3996 4.2875 24.5937L7.075 27.2437C7.68206 27.8301 8.49345 28.1574 9.3375 28.1562C10.1747 28.1537 10.9795 27.8318 11.5875 27.2562L12.75 26.1437C14.2011 26.9612 15.9739 26.9612 17.425 26.1437L24.8 22.0562C26.3371 21.2109 27.2944 19.5979 27.3 17.8437V9.9187C27.3199 8.19051 26.414 6.58366 24.925 5.7062ZM11.575 24.8437L10.425 25.9437C9.85755 26.4946 8.95495 26.4946 8.3875 25.9437L5.6375 23.3187C5.02389 22.6839 4.84643 21.745 5.18601 20.9301C5.52558 20.1151 6.31718 19.58 7.2 19.5687C7.78557 19.5738 8.3461 19.807 8.7625 20.2187L9.4125 20.8687L10.05 20.2187C10.4664 19.807 11.0269 19.5738 11.6125 19.5687C12.4953 19.58 13.2869 20.1151 13.6265 20.9301C13.9661 21.745 13.7886 22.6839 13.175 23.3187L11.575 24.8437ZM23.9625 20.4687C24.9271 19.9546 25.5284 18.9493 25.525 17.8562L25.475 9.9187C25.4746 8.84972 24.896 7.8646 23.9625 7.3437L16.6875 3.2562C15.803 2.75719 14.722 2.75719 13.8375 3.2562L6.4625 7.3437C5.51938 7.85806 4.93042 8.84444 4.925 9.9187V17.8437C4.90661 18.0307 4.90661 18.2191 4.925 18.4062C6.27447 17.515 8.02553 17.515 9.375 18.4062C11.1082 17.2148 13.4673 17.5639 14.7812 19.2062C16.0951 20.8486 15.9178 23.2268 14.375 24.6562L14.2625 24.7687C15.0332 25.0252 15.876 24.9481 16.5875 24.5562L23.9625 20.4687Z" />
<path d="M21.338 8.76864L15.8255 11.8311C15.4387 12.0544 14.9622 12.0544 14.5755 11.8311L9.08795 8.76864C8.78428 8.60564 8.41671 8.61703 8.12371 8.79852C7.8307 8.98001 7.65678 9.30402 7.66746 9.64852C7.67813 9.99301 7.87178 10.3056 8.17545 10.4686L13.688 13.5436C13.8763 13.6369 14.073 13.7122 14.2755 13.7686V16.6686C14.2755 17.1864 14.6952 17.6061 15.213 17.6061C15.7307 17.6061 16.1505 17.1864 16.1505 16.6686V13.7061C16.3551 13.6509 16.5524 13.5711 16.738 13.4686L22.2505 10.4686C22.5506 10.3096 22.7412 10.0007 22.7487 9.66111C22.7563 9.32155 22.5796 9.00446 22.2868 8.83223C21.9941 8.66001 21.6311 8.65959 21.338 8.83114V8.76864Z" />
</svg>
