<svg width="25" height="24" viewBox="0 0 25 24" fill="none" xmlns="http://www.w3.org/2000/svg">
<path fill-rule="evenodd" clip-rule="evenodd" d="M20.8026 14.7618L21.4885 19.5265C21.538 19.8934 21.4265 20.2638 21.1826 20.5423C20.9387 20.8208 20.5862 20.9802 20.2161 20.9794H20.0265L15.2618 20.2936C14.6159 20.2046 14.0169 19.9066 13.5562 19.4453L4.7666 10.6467C3.05664 8.87627 3.08109 6.06204 4.82157 4.32157C6.56204 2.58109 9.37627 2.55664 11.1467 4.2666L19.9544 13.0562C20.4157 13.5169 20.7136 14.1159 20.8026 14.7618ZM14.5586 18.4887C14.8082 18.7284 15.1214 18.8913 15.461 18.958L20.1626 19.5807L19.5039 14.9151C19.4372 14.5756 19.2743 14.2623 19.0346 14.0127L10.236 5.22313C9.64316 4.61452 8.82957 4.27124 7.97994 4.27124C7.13031 4.27124 6.31673 4.61452 5.72389 5.22313C5.12927 5.81429 4.79492 6.61815 4.79492 7.45663C4.79492 8.2951 5.12927 9.09896 5.72389 9.69012L14.5586 18.4887Z" fill="white"/>
<path d="M8.40287 6.94728C8.13619 6.69879 7.72063 6.70612 7.46288 6.96386C7.20514 7.2216 7.19781 7.63717 7.4463 7.90384L11.2455 11.703C11.5097 11.967 11.9378 11.967 12.2021 11.703C12.466 11.4388 12.466 11.0107 12.2021 10.7465L8.40287 6.94728Z" fill="white"/>
</svg>
