<svg width="35" height="35" viewBox="0 0 35 35" xmlns="http://www.w3.org/2000/svg">
<path fill-rule="evenodd" clip-rule="evenodd" d="M8.51753 14.3739C11.124 20.0495 15.7623 24.5619 21.5281 27.0069L21.5463 27.0147L22.6602 27.5111C24.0787 28.1431 25.7459 27.6942 26.6553 26.4356L28.5138 23.8635C28.6273 23.7064 28.5979 23.488 28.4472 23.3662L25.2028 20.7488C25.0415 20.6187 24.8042 20.649 24.6809 20.8154L23.4182 22.5194C23.1115 22.9332 22.5577 23.077 22.0885 22.8647C17.7771 20.9134 14.3125 17.4489 12.3613 13.1375C12.149 12.6682 12.2928 12.1144 12.7066 11.8078L14.4105 10.5451C14.577 10.4217 14.6073 10.1845 14.4771 10.0232L11.8594 6.77836C11.7377 6.62754 11.5193 6.59826 11.3622 6.71168L8.77616 8.57858C7.50918 9.49323 7.063 11.1745 7.70971 12.597L8.51667 14.372C8.51696 14.3727 8.51725 14.3733 8.51753 14.3739ZM20.6649 29.017C14.3999 26.3575 9.36084 21.4532 6.5287 15.2847L6.52699 15.2811L5.71835 13.5023C4.64049 11.1314 5.38412 8.32936 7.49578 6.80495L10.0818 4.93805C11.1816 4.14412 12.7103 4.34918 13.5619 5.40485L16.1797 8.64971C17.0905 9.77871 16.8783 11.4389 15.7128 12.3025L14.7365 13.0261C16.3859 16.2262 18.9996 18.8401 22.1998 20.4894L22.9234 19.513C23.7871 18.3476 25.4472 18.1355 26.5763 19.0463L29.8206 21.6636C30.8766 22.5156 31.0815 24.0449 30.2868 25.1446L28.4283 27.7167C26.9127 29.8145 24.134 30.5626 21.77 29.5093L20.6649 29.017Z"/>
</svg>
