<svg width="619" height="128" viewBox="0 0 619 128" fill="none" xmlns="http://www.w3.org/2000/svg">
<path fill-rule="evenodd" clip-rule="evenodd" d="M26.7347 0C11.9695 0 0 11.9391 0 26.6667V101.333C0 116.061 11.9695 128 26.7347 128H235.265C250.031 128 262 116.061 262 101.333V26.6667C262 11.9391 250.031 0 235.265 0H26.7347ZM218.143 85.1899H229.918V57.8163C229.918 52.1427 228.095 48.0483 224.448 45.5331C220.801 43.0179 216.103 41.7605 210.355 41.7605C202.629 41.7605 196.108 43.9832 190.792 48.4283L195.242 55.8859C199.075 52.552 203.432 50.8851 208.315 50.8851C211.282 50.8851 213.662 51.5285 215.455 52.8152C217.247 54.1021 218.143 55.8275 218.143 57.9917V63.6947C215.053 60.2435 210.324 58.5181 203.958 58.5181C199.816 58.5181 196.17 59.6587 193.017 61.9397C189.927 64.2211 188.381 67.6427 188.381 72.2051C188.381 76.5917 189.957 80.0427 193.11 82.5579C196.324 85.0144 199.94 86.2429 203.958 86.2429C210.201 86.2429 214.929 84.4296 218.143 80.8032V85.1899ZM218.143 75.0125C216.227 77.4691 213.075 78.6976 208.686 78.6976C206.276 78.6976 204.267 78.1419 202.66 77.0304C201.053 75.9192 200.249 74.3984 200.249 72.4683C200.249 70.4795 201.053 68.9296 202.66 67.8181C204.267 66.6483 206.276 66.0635 208.686 66.0635C213.075 66.0635 216.227 67.2917 218.143 69.7483V75.0125ZM174.949 86.24C170.807 86.24 167.655 85.2456 165.492 83.2568C163.328 81.2683 162.247 78.4021 162.247 74.6587V52.5491H154.829V42.8104H162.247V31.2291H174.114V42.8104H183.201V52.5491H174.114V71.6757C174.114 73.0211 174.485 74.1323 175.227 75.0096C175.969 75.8869 176.957 76.3259 178.194 76.3259C180.048 76.3259 181.408 75.9163 182.273 75.0973L184.777 83.52C182.613 85.3333 179.337 86.24 174.949 86.24ZM136.475 85.1899H148.249V57.8163C148.249 52.1427 146.426 48.0483 142.779 45.5331C139.132 43.0179 134.435 41.7605 128.687 41.7605C120.96 41.7605 114.439 43.9832 109.124 48.4283L113.574 55.8859C117.406 52.552 121.764 50.8851 126.647 50.8851C129.614 50.8851 131.993 51.5285 133.786 52.8152C135.578 54.1021 136.475 55.8275 136.475 57.9917V63.6947C133.384 60.2435 128.656 58.5181 122.289 58.5181C118.148 58.5181 114.501 59.6587 111.349 61.9397C108.258 64.2211 106.713 67.6427 106.713 72.2051C106.713 76.5917 108.289 80.0427 111.441 82.5579C114.655 85.0144 118.271 86.2429 122.289 86.2429C128.532 86.2429 133.26 84.4296 136.475 80.8032V85.1899ZM136.475 75.0125C134.559 77.4691 131.406 78.6976 127.018 78.6976C124.607 78.6976 122.598 78.1419 120.991 77.0304C119.384 75.9192 118.58 74.3984 118.58 72.4683C118.58 70.4795 119.384 68.9296 120.991 67.8181C122.598 66.6483 124.607 66.0635 127.018 66.0635C131.406 66.0635 134.559 67.2917 136.475 69.7483V75.0125ZM97.9091 85.1869H86.1341V26.6667H97.9091V85.1869ZM43.8567 79.7509C47.4415 84.0792 52.0466 86.2435 57.6713 86.2435C63.5433 86.2435 68.3026 84.2547 71.9495 80.2773C75.6581 76.3 77.5124 70.8603 77.5124 63.9584C77.5124 57.0563 75.6581 51.6459 71.9495 47.7272C68.3026 43.7496 63.5433 41.7611 57.6713 41.7611C51.9848 41.7611 47.3798 43.896 43.8567 48.1659V42.8139H32.0816V101.334H43.8567V79.7509ZM62.1215 72.9075C60.0819 75.1885 57.3622 76.3291 53.9626 76.3291C52.1083 76.3291 50.1922 75.8613 48.2141 74.9253C46.2981 73.9896 44.8456 72.8491 43.8567 71.5037V56.5008C44.8456 55.1555 46.2981 54.0149 48.2141 53.0789C50.1302 52.1432 52.0466 51.6752 53.9626 51.6752C57.3622 51.6752 60.0819 52.8157 62.1215 55.0971C64.2231 57.3781 65.2741 60.332 65.2741 63.9584C65.2741 67.6432 64.2231 70.6264 62.1215 72.9075Z" fill="black"/>
<path d="M610.396 83.9618C606.376 88.1349 601.032 90.2214 594.369 90.2214C587.707 90.2214 582.366 88.1349 578.343 83.9618C574.382 79.7314 572.399 74.558 572.399 68.4414C572.399 62.3245 574.382 57.1797 578.343 53.0067C582.366 48.8336 587.707 46.7471 594.369 46.7471C601.032 46.7471 606.376 48.8336 610.396 53.0067C614.415 57.1797 616.427 62.3245 616.427 68.4414C616.427 74.558 614.415 79.7314 610.396 83.9618ZM586.615 77.1018C588.51 79.3886 591.095 80.5319 594.369 80.5319C597.644 80.5319 600.229 79.3886 602.124 77.1018C604.077 74.7581 605.054 71.8713 605.054 68.4414C605.054 65.0686 604.077 62.2389 602.124 59.9523C600.229 57.6084 597.644 56.4365 594.369 56.4365C591.095 56.4365 588.51 57.6084 586.615 59.9523C584.72 62.2389 583.772 65.0686 583.772 68.4414C583.772 71.8713 584.72 74.7581 586.615 77.1018Z" fill="black"/>
<path d="M564.207 89.1925H553.263V64.1539C553.263 59.0091 550.707 56.4365 545.596 56.4365C541.632 56.4365 538.474 58.0659 536.119 61.3242V89.1925H525.175V47.7759H536.119V53.1782C539.737 48.8907 544.592 46.7471 550.678 46.7471C555.161 46.7471 558.52 47.9189 560.761 50.2626C563.057 52.6065 564.207 55.8364 564.207 59.9523V89.1925Z" fill="black"/>
<path d="M511.025 83.9618C507.003 88.1349 501.662 90.2214 494.999 90.2214C488.336 90.2214 482.993 88.1349 478.973 83.9618C475.009 79.7314 473.026 74.558 473.026 68.4414C473.026 62.3245 475.009 57.1797 478.973 53.0067C482.993 48.8336 488.336 46.7471 494.999 46.7471C501.662 46.7471 507.003 48.8336 511.025 53.0067C515.045 57.1797 517.056 62.3245 517.056 68.4414C517.056 74.558 515.045 79.7314 511.025 83.9618ZM487.245 77.1018C489.14 79.3886 491.724 80.5319 494.999 80.5319C498.273 80.5319 500.858 79.3886 502.753 77.1018C504.706 74.7581 505.681 71.8713 505.681 68.4414C505.681 65.0686 504.706 62.2389 502.753 59.9523C500.858 57.6084 498.273 56.4365 494.999 56.4365C491.724 56.4365 489.14 57.6084 487.245 59.9523C485.347 62.2389 484.401 65.0686 484.401 68.4414C484.401 71.8713 485.347 74.7581 487.245 77.1018Z" fill="black"/>
<path d="M464.968 89.1925H453.94V63.0392C453.94 58.6375 451.87 56.4365 447.737 56.4365C445.956 56.4365 444.288 56.9226 442.739 57.8943C441.246 58.8661 440.038 59.9809 439.119 61.2386V89.1925H428.09V63.0392C428.09 58.6375 426.023 56.4365 421.887 56.4365C420.164 56.4365 418.528 56.9226 416.977 57.8943C415.425 58.8661 414.191 60.0094 413.271 61.3242V89.1925H402.33V47.7759H413.271V53.1782C414.305 51.6918 416.115 50.2626 418.7 48.8907C421.285 47.4617 424.012 46.7471 426.885 46.7471C432.916 46.7471 436.764 49.2623 438.431 54.2929C439.753 52.2349 441.703 50.4627 444.291 48.9766C446.931 47.4902 449.745 46.7471 452.732 46.7471C456.638 46.7471 459.653 47.8045 461.781 49.9198C463.906 51.9775 464.968 55.0932 464.968 59.2662V89.1925Z" fill="black"/>
<path d="M343.02 105.399L344.656 95.6241C345.692 96.0813 346.839 96.3099 348.105 96.3099C351.033 96.3099 352.957 95.3096 353.877 93.3087L355.428 89.7931L338.54 47.7764H350.258L361.113 76.5879L371.969 47.7764H383.772L364.215 95.9668C362.78 99.6256 360.769 102.169 358.184 103.599C355.6 105.085 352.354 105.885 348.448 106C346.437 106 344.629 105.8 343.02 105.399Z" fill="black"/>
<path d="M304.941 75.903C305.861 77.2178 307.212 78.3325 308.993 79.2472C310.771 80.1048 312.553 80.5335 314.334 80.5335C317.492 80.5335 320.048 79.4473 322.001 77.2751C323.954 75.0456 324.932 72.1303 324.932 68.5286C324.932 64.9272 323.954 62.0119 322.001 59.7824C320.048 57.5529 317.492 56.4381 314.334 56.4381C312.553 56.4381 310.771 56.8956 308.993 57.8103C307.212 58.725 305.861 59.8683 304.941 61.2402V75.903ZM304.941 89.1941H294V32H304.941V53.0941C308.216 48.8637 312.495 46.7487 317.78 46.7487C323.18 46.7487 327.601 48.721 331.047 52.6652C334.496 56.6097 336.219 61.8975 336.219 68.5286C336.219 75.2742 334.496 80.5906 331.047 84.478C327.601 88.308 323.18 90.223 317.78 90.223C312.611 90.223 308.332 88.1079 304.941 83.8778V89.1941Z" fill="black"/>
</svg>
