<svg xmlns="http://www.w3.org/2000/svg" width="20" height="20" viewBox="0 0 20 20" fill="none">
  <path fill-rule="evenodd" clip-rule="evenodd" d="M2.58008 0H6.75008C7.99272 0 9.00008 1.00736 9.00008 2.25V4.42C9.00008 5.66264 7.99272 6.67 6.75008 6.67H2.58008C1.33744 6.67 0.330078 5.66264 0.330078 4.42V2.25C0.330078 1.00736 1.33744 0 2.58008 0ZM6.75008 5.17C7.16204 5.16461 7.49469 4.83196 7.50008 4.42V2.25C7.49469 1.83804 7.16204 1.50539 6.75008 1.5H2.58008C2.16812 1.50539 1.83546 1.83804 1.83008 2.25V4.42C1.83546 4.83196 2.16812 5.16461 2.58008 5.17H6.75008Z" />
  <path fill-rule="evenodd" clip-rule="evenodd" d="M13.9199 0H17.4199C18.6626 0 19.6699 1.00736 19.6699 2.25V9.08C19.6699 10.3226 18.6626 11.33 17.4199 11.33H13.9199C13.3224 11.3327 12.7485 11.0965 12.326 10.6739C11.9035 10.2514 11.6673 9.67755 11.6699 9.08V2.25C11.6699 1.00736 12.6773 0 13.9199 0ZM17.4199 9.83C17.8342 9.83 18.1699 9.49421 18.1699 9.08V2.25C18.1646 1.83804 17.8319 1.50539 17.4199 1.5H13.9199C13.5057 1.5 13.1699 1.83579 13.1699 2.25V9.08C13.1672 9.27973 13.2454 9.47208 13.3866 9.61333C13.5279 9.75457 13.7202 9.83272 13.9199 9.83H17.4199Z" />
  <path fill-rule="evenodd" clip-rule="evenodd" d="M13.9202 14H17.4202C18.6628 14 19.6702 15.0074 19.6702 16.25V17.75C19.6702 18.9926 18.6628 20 17.4202 20H13.9202C12.6775 20 11.6702 18.9926 11.6702 17.75V16.25C11.6702 15.0074 12.6775 14 13.9202 14ZM17.4202 18.5C17.8321 18.4946 18.1648 18.162 18.1702 17.75V16.25C18.1648 15.838 17.8321 15.5054 17.4202 15.5H13.9202C13.506 15.5 13.1702 15.8358 13.1702 16.25V17.75C13.1702 18.1642 13.506 18.5 13.9202 18.5H17.4202Z" />
  <path fill-rule="evenodd" clip-rule="evenodd" d="M2.58008 9.33008H6.75008C7.99272 9.33008 9.00008 10.3374 9.00008 11.5801V17.7501C9.00008 18.9927 7.99272 20.0001 6.75008 20.0001H2.58008C1.33744 20.0001 0.330078 18.9927 0.330078 17.7501V11.5801C0.330078 10.3374 1.33744 9.33008 2.58008 9.33008ZM6.75008 18.5001C7.16204 18.4947 7.49469 18.162 7.50008 17.7501V11.5801C7.49469 11.1681 7.16204 10.8355 6.75008 10.8301H2.58008C2.16812 10.8355 1.83546 11.1681 1.83008 11.5801V17.7501C1.83546 18.162 2.16812 18.4947 2.58008 18.5001H6.75008Z" />
</svg>