<svg width="20" height="20" viewBox="0 0 20 20" fill="none" xmlns="http://www.w3.org/2000/svg">
<path d="M8.83333 6.15863H3.83333C3.3731 6.15863 3 6.53173 3 6.99196C3 7.4522 3.3731 7.8253 3.83333 7.8253H8.83333C9.29357 7.8253 9.66667 7.4522 9.66667 6.99196C9.66667 6.53173 9.29357 6.15863 8.83333 6.15863Z" fill="#567343"/>
<path d="M7.16667 11.8003C6.46166 11.7982 5.81615 12.1951 5.5 12.8253H3.83333C3.3731 12.8253 3 13.1984 3 13.6586C3 14.1189 3.3731 14.492 3.83333 14.492H5.5C5.91283 15.2999 6.85066 15.6892 7.71431 15.4112C8.57797 15.1332 9.11253 14.2698 8.97648 13.3728C8.84043 12.4757 8.07392 11.8098 7.16667 11.8003Z" fill="#567343"/>
<path d="M11.9336 8.71695C12.5785 8.71599 13.1759 8.37777 13.5086 7.82528H17.1669C17.6271 7.82528 18.0002 7.45219 18.0002 6.99195C18.0002 6.53171 17.6271 6.15862 17.1669 6.15862H13.6502C13.2982 5.29276 12.3577 4.82316 11.454 5.06195C10.5503 5.30075 9.96466 6.1736 10.0862 7.10036C10.2078 8.02713 10.9989 8.71936 11.9336 8.71695Z" fill="#567343"/>
<path d="M17.167 12.8253H10.5003C10.0401 12.8253 9.66699 13.1984 9.66699 13.6586C9.66699 14.1188 10.0401 14.4919 10.5003 14.4919H17.167C17.6272 14.4919 18.0003 14.1188 18.0003 13.6586C18.0003 13.1984 17.6272 12.8253 17.167 12.8253V12.8253Z" fill="#567343"/>
</svg>
