<svg width="24" height="24" viewBox="0 0 24 24" fill="none" xmlns="http://www.w3.org/2000/svg">
<path d="M21.8413 13.0101L17.2013 8.3601C16.8989 8.08179 16.4337 8.08179 16.1313 8.3601L11.5213 13.0101C11.3332 13.3002 11.3678 13.6813 11.605 13.9328C11.8423 14.1843 12.2207 14.241 12.5213 14.0701L15.7413 10.8501V19.7501C15.7413 20.1643 16.0771 20.5001 16.4913 20.5001C16.9055 20.5001 17.2413 20.1643 17.2413 19.7501V10.5601L20.7513 14.0701C21.0441 14.3626 21.5185 14.3626 21.8113 14.0701C22.1122 13.7856 22.1256 13.3111 21.8413 13.0101Z" fill="#64748B"/>
<path d="M11.5213 9.22C11.2285 8.92755 10.7541 8.92755 10.4613 9.22L7.27129 12.44V3.75C7.27129 3.33579 6.93551 3 6.52129 3C6.10708 3 5.77129 3.33579 5.77129 3.75V12.75L2.26129 9.22C1.96578 8.94464 1.50528 8.95277 1.21967 9.23838C0.934059 9.52399 0.925934 9.98449 1.20129 10.28L5.84129 14.93C6.13753 15.2236 6.61505 15.2236 6.91129 14.93L11.5213 10.28C11.8137 9.98718 11.8137 9.51282 11.5213 9.22Z" fill="#64748B"/>
</svg>
