<svg xmlns="http://www.w3.org/2000/svg" width="24" height="24" viewBox="0 0 24 24" fill="none">
<path fill-rule="evenodd" clip-rule="evenodd" d="M5.80952 2H18.1905C20.2944 2 22 3.70558 22 5.80952V18.1905C22 20.2944 20.2944 22 18.1905 22H5.80952C3.70558 22 2 20.2944 2 18.1905V5.80952C2 3.70558 3.70558 2 5.80952 2ZM18.1905 20.5714C19.5054 20.5714 20.5714 19.5054 20.5714 18.1905V5.80952C20.5714 4.49456 19.5054 3.42857 18.1905 3.42857H5.80952C4.49456 3.42857 3.42857 4.49456 3.42857 5.80952V18.1905C3.42857 19.5054 4.49456 20.5714 5.80952 20.5714H18.1905Z"/>
<path d="M17.2381 8.9043H14.3809C13.9865 8.9043 13.6667 9.22409 13.6667 9.61858C13.6667 10.0131 13.9865 10.3329 14.3809 10.3329H15.2667L11.8762 13.7233L9.97142 11.8186C9.46597 11.3149 8.64831 11.3149 8.14285 11.8186L5.65714 14.2281C5.37861 14.507 5.37861 14.9588 5.65714 15.2376C5.79036 15.3725 5.97231 15.448 6.1619 15.4472C6.3517 15.4491 6.53406 15.3734 6.66666 15.2376L9.01904 12.8852L10.9238 14.79C11.4325 15.2948 12.2532 15.2948 12.7619 14.79L16.4857 11.0662V12.4757C16.4857 12.8702 16.8055 13.19 17.2 13.19C17.5945 13.19 17.9143 12.8702 17.9143 12.4757V9.61858C17.9101 9.24039 17.6155 8.92916 17.2381 8.9043V8.9043Z" />
</svg>