<svg viewBox="0 0 298 210" fill="none" xmlns="http://www.w3.org/2000/svg">
<path d="M188.542 49.4427C188.542 49.4427 172.797 25.6246 161.676 20.6079C150.554 15.5912 134.512 19.4282 134.512 19.4282C134.512 19.4282 122.406 26.6135 117.483 35.4714C112.561 44.3293 105.078 70.3132 103.6 83.4022C102.123 96.4913 99.2642 99.5408 103.203 102.889C107.143 106.238 106.157 108.006 121.215 105.939C136.145 103.744 150.863 100.288 165.209 95.6065C176.725 91.571 187.778 87.3262 191.784 79.0704C199.762 62.6303 188.542 49.4427 188.542 49.4427Z" fill="#FD6769"/>
<path d="M169.519 26.2421C169.519 26.2421 167.584 -0.453563 176.145 0.821876C181.755 7.41568 182.245 16.9635 182.245 16.9635C182.245 16.9635 189.922 17.7491 193.368 21.9846C195.335 28.8726 193.367 32.4152 193.367 32.4152C197.578 32.6741 201.695 33.7778 205.471 35.6605C208.423 40.7787 206.949 43.43 206.949 43.43C206.949 43.43 205.077 44.7099 198.682 45.7943C194.476 45.298 190.227 45.2951 186.021 45.7857L169.519 26.2421Z" fill="#94B7BD"/>
<path d="M150.529 67.1863C151.925 66.0885 152.611 64.6329 152.062 63.9352C151.514 63.2375 149.937 63.5618 148.542 64.6597C147.146 65.7575 146.46 67.2131 147.008 67.9108C147.557 68.6085 149.133 68.2841 150.529 67.1863Z" fill="white"/>
<path d="M165.526 60.639C166.922 59.5411 167.608 58.0856 167.059 57.3878C166.511 56.6901 164.934 57.0145 163.539 58.1123C162.143 59.2101 161.457 60.6657 162.005 61.3634C162.554 62.0611 164.131 61.7368 165.526 60.639Z" fill="white"/>
<path d="M159.787 47.3606C161.183 46.2628 161.869 44.8072 161.32 44.1095C160.771 43.4118 159.195 43.7362 157.799 44.834C156.404 45.9318 155.717 47.3874 156.266 48.0851C156.815 48.7828 158.391 48.4585 159.787 47.3606Z" fill="white"/>
<path d="M142.878 48.5491C144.273 47.4513 144.96 45.9957 144.411 45.298C143.862 44.6003 142.286 44.9246 140.89 46.0225C139.495 47.1203 138.808 48.5759 139.357 49.2736C139.906 49.9713 141.482 49.647 142.878 48.5491Z" fill="white"/>
<path d="M131.458 62.8387C132.853 61.7408 133.54 60.2853 132.991 59.5875C132.442 58.8898 130.866 59.2142 129.47 60.312C128.075 61.4098 127.388 62.8654 127.937 63.5631C128.486 64.2608 130.062 63.9365 131.458 62.8387Z" fill="white"/>
<path d="M126.578 84.6033C127.974 83.5055 128.66 82.0499 128.111 81.3522C127.562 80.6545 125.986 80.9788 124.59 82.0767C123.195 83.1745 122.508 84.6301 123.057 85.3278C123.606 86.0255 125.182 85.7011 126.578 84.6033Z" fill="white"/>
<path d="M164.184 75.0301C165.58 73.9323 166.266 72.4767 165.717 71.779C165.168 71.0812 163.592 71.4056 162.196 72.5034C160.801 73.6012 160.114 75.0568 160.663 75.7545C161.212 76.4523 162.788 76.1279 164.184 75.0301Z" fill="white"/>
<path d="M148.154 83.1712C149.55 82.0734 150.236 80.6178 149.687 79.9201C149.139 79.2224 147.562 79.5467 146.167 80.6445C144.771 81.7424 144.085 83.1979 144.633 83.8956C145.182 84.5934 146.758 84.269 148.154 83.1712Z" fill="white"/>
</svg>
