<svg aria-hidden="true" style="position: absolute; width: 0; height: 0; overflow: hidden;" version="1.1" xmlns="http://www.w3.org/2000/svg" xmlns:xlink="http://www.w3.org/1999/xlink">
<defs>
<symbol id="icon-account" viewBox="0 0 32 32">
<path fill="#567343" style="fill: var(--color1, #567343)" d="M23.58 20.71l0.24 1.14c0.227 0.986 0.003 2.021-0.612 2.824s-1.557 1.289-2.568 1.326h-9.28c-1.011-0.037-1.952-0.523-2.568-1.326s-0.84-1.839-0.612-2.824l0.24-1.14c0.276-1.543 1.603-2.677 3.17-2.71h8.82c1.567 0.033 2.894 1.167 3.17 2.71zM20.64 24.49c0.508-0.006 0.986-0.241 1.3-0.64v0.010c0.386-0.484 0.536-1.114 0.41-1.72l-0.24-1.14c-0.133-0.845-0.845-1.477-1.7-1.51h-8.82c-0.855 0.033-1.567 0.665-1.7 1.51l-0.24 1.14c-0.123 0.603 0.027 1.229 0.41 1.71 0.314 0.399 0.792 0.634 1.3 0.64h9.28z"></path>
<path fill="#567343" style="fill: var(--color1, #567343)" d="M16.5 16h-1c-2.209 0-4-1.791-4-4v-2.64c-0.003-0.892 0.35-1.748 0.981-2.379s1.487-0.984 2.379-0.981h2.28c0.892-0.003 1.748 0.35 2.379 0.981s0.984 1.487 0.981 2.379v2.64c0 2.209-1.791 4-4 4zM14.86 7.5c-1.027 0-1.86 0.833-1.86 1.86v2.64c0 1.381 1.119 2.5 2.5 2.5h1c1.381 0 2.5-1.119 2.5-2.5v-2.64c0-0.493-0.196-0.966-0.545-1.315s-0.822-0.545-1.315-0.545h-2.28z"></path>
</symbol>
<symbol id="icon-apple" viewBox="0 0 54 32">
<path fill="#fef4d0" style="fill: var(--color2, #fef4d0)" d="M40.087 19.649l-10.574-1.522-13.154 2.337-6.544 1.793-3.016 3.315 1.423 4.021 9.047 2.011 13.201 0.815 9.616-1.304 5.235-3.695-0.683-2.989-4.551-4.782z"></path>
<path fill="#fd6769" style="fill: var(--color3, #fd6769)" d="M28.52 7.575c0 0-4.959 0-6.418 1.167s-4.377 4.085-3.793 7.003c0.584 2.918 3.793 10.503 7.877 12.254s7.586 2.333 9.628 0.875 5.011-2.177 6.127-6.418c1.459-5.543 0-11.962-0.583-13.421-0.485-1.212-2.626-3.793-4.085-4.084s-3.501-0.876-4.96 0.292c-1.195 0.884-2.465 1.665-3.793 2.332z"></path>
<path fill="#000" style="fill: var(--color4, #000)" d="M27.005 2.72c0.528 0.096 1.009 0.363 1.37 0.76 0.357 0.512 0.561 1.113 0.591 1.736 0.169 1.33-0.366 2.821-0.737 4.11-0.156 0.543 1.302 0.543 1.459 0 0.438-1.524 0.34-3.038 0.085-4.601-0.082-0.698-0.364-1.358-0.814-1.899-0.464-0.483-1.064-0.813-1.72-0.946-0.549-0.125-0.782 0.718-0.233 0.844l-0.002-0.003z"></path>
</symbol>
<symbol id="icon-banana" viewBox="0 0 28 32">
<path fill="#fcc812" style="fill: var(--color5, #fcc812)" d="M16.734 11.291c-0.003-0.283-0.146-0.592-0.397-0.668-0.088-0.026-0.23 0.042-0.327 0.060-0.261 0.051-0.499 0.182-0.683 0.375-0.644 0.646-1.558 1.958-2.424 2.514s-2.21 1.503-3.183 1.371c-0.673-0.1-1.34-0.238-1.997-0.415-0.010-0.003-0.019-0.005-0.028-0.009-0.093-0.035-0.682-0.247-1.039-0.093-0.129 0.040-0.246 0.113-0.339 0.212-0.041 0.048-0.070 0.105-0.084 0.167s-0.014 0.125 0.001 0.186c0.209 0.535 0.597 0.979 1.099 1.255 0.95 0.509 2.297 1.307 2.972 1.383s2.004-0.037 2.792-0.559c0.966-0.648 1.8-1.475 2.457-2.436 0.669-1.023 0.647-1.447 0.973-2.257 0.14-0.345 0.21-0.715 0.206-1.087z"></path>
<path fill="#000" style="fill: var(--color4, #000)" d="M16.316 10.777c-0.251 0.865-0.524 1.623-1.009 2.39-0.474 0.751-1.16 1.309-1.892 1.792-0.631 0.439-1.33 0.769-2.068 0.978-0.783 0.2-1.579 0.133-2.353-0.067-0.906-0.234-1.784-0.684-2.619-1.095-0.023 0.030-0.042 0.063-0.057 0.098 1.471 0.725 3.084 1.651 4.777 1.342 0.785-0.166 1.533-0.479 2.203-0.923 0.743-0.464 1.452-1.001 1.984-1.708 0.632-0.841 0.863-1.883 1.153-2.881-0.027-0.011-0.056-0.012-0.084-0.005l-0.036 0.078z"></path>
<path fill="#fcc812" style="fill: var(--color5, #fcc812)" d="M17.143 11.033c-0.213-0.279-0.587-0.478-0.894-0.365-0.107 0.040-0.198 0.214-0.282 0.303-0.223 0.245-0.364 0.554-0.404 0.883-0.166 1.123-0.104 3.108-0.557 4.309s-1.094 3.145-2.167 3.743c-0.748 0.405-1.518 0.767-2.307 1.084-0.011 0.005-0.023 0.009-0.035 0.012-0.12 0.034-0.866 0.265-1.109 0.685-0.1 0.137-0.162 0.297-0.182 0.465 0.012 0.197 0.068 0.346 0.179 0.412 0.607 0.375 1.327 0.524 2.035 0.422 1.329-0.206 3.27-0.423 4.003-0.852s1.978-1.536 2.379-2.645c0.401-1.108 0.738-2.741 0.648-4.256s-0.429-1.92-0.705-2.967c-0.117-0.447-0.322-0.866-0.602-1.232z"></path>
<path fill="#000" style="fill: var(--color4, #000)" d="M16.386 11.48c0.516 1.64 0.638 3.582 0.228 5.259-0.436 1.785-1.526 3.467-3.153 4.4-0.892 0.511-3.249 0.909-4.23 1.192l0.023 0.086c0.847 0.003 3.279-0.556 4.121-0.99 0.839-0.431 1.568-1.052 2.129-1.812 1.106-1.489 1.542-3.472 1.549-5.308 0.003-1.005-0.224-1.908-0.377-2.9-0.058-0.272-0.153-0.534-0.284-0.779l-0.144 0.039 0.137 0.812z"></path>
<path fill="#000" style="fill: var(--color4, #000)" d="M16.249 10.668l-0.477-0.642 0.446-0.352 0.741 0.185-0.567 0.77-0.143 0.040z"></path>
</symbol>
<symbol id="icon-bowl-of-fruit" viewBox="0 0 54 32">
<path fill="#fef4d0" style="fill: var(--color2, #fef4d0)" d="M41.721 18.849l-10.574-1.522-13.154 2.337-6.544 1.793-3.016 3.315 1.423 4.021 9.047 2.011 13.201 0.815 9.616-1.304 5.235-3.695-0.683-2.989-4.552-4.782z"></path>
<path fill="#100174" style="fill: var(--color6, #100174)" d="M12.639 15.217l2.847-3.067 2.592-1.463 4.853-0.819h3.125l5.451 0.702 3.258 0.585 3.922 0.819 2.326 2.165 0.815 1.543-4.472 3.256-22.536 1.58-2.182-5.302z"></path>
<path fill="#fed9db" style="fill: var(--color7, #fed9db)" d="M18.873 9.962c-0.046-0.525 0.018-0.483 0.291-0.888 0.359-0.533 1.024-1.445 1.714-1.505 0.888-0.078 0.865 0.047 1.641 0.472 0.271 0.147 0.721 1.21 0.749 1.536 0.050 0.579-0.271 1.106-0.604 1.531-0.364 0.467-0.766 0.806-1.401 0.862-0.397 0.038-0.795-0.058-1.131-0.272-0.619-0.343-1.193-0.977-1.259-1.736z"></path>
<path fill="#fed9db" style="fill: var(--color7, #fed9db)" d="M14.339 10.944c-0.046-0.525 0.018-0.483 0.291-0.889 0.359-0.533 1.024-1.445 1.714-1.505 0.888-0.078 0.868 0.047 1.641 0.472 0.271 0.148 0.721 1.21 0.749 1.536 0.050 0.579-0.271 1.106-0.604 1.531-0.363 0.467-0.766 0.806-1.401 0.862-0.397 0.038-0.795-0.058-1.131-0.272-0.619-0.343-1.195-0.978-1.259-1.737z"></path>
<path fill="#fed9db" style="fill: var(--color7, #fed9db)" d="M15.872 18.213c-0.040-0.456 0.016-0.42 0.253-0.771 0.312-0.463 0.89-1.255 1.488-1.307 0.772-0.068 0.751 0.041 1.425 0.41 0.233 0.128 0.626 1.050 0.651 1.334 0.044 0.503-0.238 0.961-0.525 1.33-0.315 0.405-0.665 0.7-1.217 0.749-0.344 0.033-0.69-0.049-0.982-0.235-0.538-0.299-1.036-0.85-1.094-1.51z"></path>
<path fill="#fed9db" style="fill: var(--color7, #fed9db)" d="M13.665 9.917c0.403 0.339 0.326 0.354 0.42 0.834 0.122 0.631 0.296 1.748-0.149 2.279-0.573 0.684-0.646 0.58-1.494 0.828-0.295 0.086-1.364-0.345-1.615-0.556-0.444-0.374-0.588-0.978-0.654-1.511-0.073-0.588-0.028-1.112 0.38-1.602 0.253-0.308 0.602-0.522 0.991-0.61 0.683-0.195 1.536-0.152 2.12 0.337z"></path>
<path fill="#fed9db" style="fill: var(--color7, #fed9db)" d="M17.387 14.854c0.046 0.525-0.018 0.483-0.291 0.888-0.36 0.535-1.025 1.445-1.716 1.505-0.888 0.078-0.865-0.047-1.641-0.472-0.271-0.147-0.721-1.21-0.749-1.536-0.050-0.579 0.271-1.106 0.604-1.531 0.364-0.467 0.766-0.806 1.401-0.862 0.397-0.038 0.794 0.058 1.131 0.272 0.621 0.343 1.194 0.977 1.261 1.737z"></path>
<path fill="#fed9db" style="fill: var(--color7, #fed9db)" d="M21.141 12.494c0.403 0.339 0.328 0.355 0.421 0.835 0.122 0.631 0.296 1.748-0.149 2.279-0.573 0.684-0.646 0.579-1.494 0.828-0.295 0.086-1.364-0.345-1.615-0.556-0.445-0.374-0.588-0.978-0.654-1.511-0.073-0.588-0.028-1.112 0.38-1.602 0.253-0.308 0.602-0.523 0.991-0.61 0.683-0.195 1.536-0.152 2.119 0.337z"></path>
<path fill="#94b7bd" style="fill: var(--color8, #94b7bd)" d="M16.659 8.050c-0.46-1.163-0.284-2.989 0-4.173 0.293-1.223 0.851-2.294 1.495-3.372-0.024-0.435-0.326-0.649-0.529-0.31-0.684 1.194-1.2 2.476-1.533 3.812-0.088 0.49-0.145 0.985-0.17 1.482-0.007 0.188-0.007 0.385 0 0.598 0.028 0.749 0.152 1.491 0.368 2.209 0.013 0.022 0.030 0.041 0.050 0.057s0.044 0.027 0.068 0.033c0.048 0.010 0.108-0.020 0.249-0.090l0.001-0.245z"></path>
<path fill="#94b7bd" style="fill: var(--color8, #94b7bd)" d="M14.575 5.104l-0.367-0.489v-0.738l0.245-1.228 0.488 0.614 0.493 0.734c0 0 0.122 0.123 0.122 0.489s0.123 0.489 0.123 0.489l0.24 0.663 0.005 0.442-0.98-0.489-0.368-0.487z"></path>
<path fill="#fcc812" style="fill: var(--color5, #fcc812)" d="M36.498 5.976c0 0-1.335-0.295-1.972 1.215s-1.016 3.106-1.743 4.014c-0.726 0.908-2.181 2.293-2.047 3.196s0.024 4.736 2.566 5.713 4.259 0.539 5.159-0.026c0.9-0.565 3.127-2.126 3.292-3.504s0.633-2.372-0.145-3.487c-0.779-1.116-2.336-2.916-2.728-3.904s-0.913-2.019-1.345-2.445c-0.315-0.296-0.663-0.555-1.036-0.772z"></path>
<path fill="#fd6769" style="fill: var(--color3, #fd6769)" d="M39.596 3.277l-0.574-0.057-0.593 0.135-0.401 0.154-0.717 0.412-0.45 0.37c0.112-0.228 0.166-0.559 0.313-0.815 0.205-0.51 0.53-0.963 0.948-1.319l0.973-1.232-0.579-0.094-0.278 0.293c0 0-0.651 1.050-1.067 1.491-0.281 0.424-0.523 0.872-0.724 1.338l-0.354 0.818-0.258 0.9 0.019 0.255-0.336 1.304c0.247-0.098 0.507-0.157 0.773-0.176-0.014-0.359-0.010-0.719 0.014-1.077 0.051-0.297 0.126-0.59 0.225-0.874l0.879-0.204c0.353 0.025 0.708 0.028 1.062 0.009 0.438-0.034 0.856-0.194 1.204-0.461l1.261-1.036-1.338-0.133z"></path>
<path fill="#fff" style="fill: var(--color9, #fff)" d="M23.16 19.057c0.117 0 0.211-0.158 0.211-0.352s-0.094-0.352-0.211-0.352c-0.117 0-0.211 0.158-0.211 0.352s0.095 0.352 0.211 0.352z"></path>
<path fill="#fff" style="fill: var(--color9, #fff)" d="M25.69 21.592c0.117 0 0.211-0.158 0.211-0.352s-0.094-0.352-0.211-0.352c-0.117 0-0.211 0.158-0.211 0.352s0.094 0.352 0.211 0.352z"></path>
<path fill="#94b7bd" style="fill: var(--color8, #94b7bd)" d="M23.722 4.906c-1.265 12.532-2.671 11.405-2.179 14.573 0.292 1.886 3.163 4.913 6.607 3.804 4.147-1.338 4.538-3.896 4.85-5.844 0.409-2.549-3.655-9.292-6.185-12.532-1.284-1.643-2.961-1.314-3.093-0.002z"></path>
<path fill="#fff" style="fill: var(--color9, #fff)" d="M24.143 13.284c0.117 0 0.211-0.158 0.211-0.352s-0.094-0.352-0.211-0.352c-0.117 0-0.211 0.158-0.211 0.352s0.095 0.352 0.211 0.352z"></path>
<path fill="#fff" style="fill: var(--color9, #fff)" d="M23.44 16.241c0.117 0 0.211-0.158 0.211-0.352s-0.095-0.352-0.211-0.352c-0.117 0-0.211 0.158-0.211 0.352s0.094 0.352 0.211 0.352z"></path>
<path fill="#fff" style="fill: var(--color9, #fff)" d="M24.706 19.762c0.117 0 0.211-0.158 0.211-0.352s-0.095-0.352-0.211-0.352c-0.117 0-0.211 0.158-0.211 0.352s0.094 0.352 0.211 0.352z"></path>
<path fill="#fff" style="fill: var(--color9, #fff)" d="M26.393 19.057c0.117 0 0.211-0.158 0.211-0.352s-0.095-0.352-0.211-0.352c-0.117 0-0.211 0.158-0.211 0.352s0.094 0.352 0.211 0.352z"></path>
<path fill="#fff" style="fill: var(--color9, #fff)" d="M25.409 17.086c0.117 0 0.211-0.158 0.211-0.352s-0.094-0.352-0.211-0.352c-0.117 0-0.211 0.158-0.211 0.352s0.094 0.352 0.211 0.352z"></path>
<path fill="#000" style="fill: var(--color4, #000)" d="M23.089 2.301c0.141 0.281 0.493 0.492 0.562 0.845 0.050 0.253 0.122 0.476 0 0.704-0.375 0.7-0.281 0.845-0.703 1.69-0.137 0.272-0.545 0.454-0.844 0.706 0.281 0.282 0.488 0.422 0.844 0.423 0.279 0 0.452-0.407 0.703-0.282 0.38 0.19 0.492 0.536 0.793 0.831 0.028 0.027 0.063 0.045 0.102 0.053s0.078 0.004 0.114-0.010c0.036-0.014 0.068-0.039 0.090-0.071s0.036-0.069 0.038-0.108c0.038-0.559-0.108-1.543-0.158-2.1 0.279 0.187 0.492 0.457 0.608 0.773 0.003 0.008 0.007 0.015 0.012 0.021s0.012 0.011 0.019 0.015c0.007 0.004 0.015 0.006 0.023 0.006s0.016-0.001 0.024-0.003c0.010-0.003 0.018-0.009 0.025-0.017s0.012-0.017 0.014-0.027c0.1-0.407 0.128-0.828 0.084-1.244 0.426 0.28 0.783 0.653 1.044 1.092 0.017 0.028 0.044 0.048 0.075 0.056s0.065 0.003 0.093-0.014c0.016-0.010 0.029-0.023 0.039-0.038 0.313-0.471 0.722-0.91 1.27-1-0.564-0.109-1.109-0.66-1.636-0.887s-1.045-0.142-1.334-0.64c-0.016-0.024-0.027-0.052-0.030-0.080 0.003-0.038 0.017-0.074 0.040-0.104l0.488-0.761c-0.008-0.109-0.008-0.109-0.138-0.237-0.28 0.112-0.573-0.012-0.855-0.012-0.277 0.122-0.559 0.244-0.843 0.141l-0.562 0.283z"></path>
<path fill="#fd6769" style="fill: var(--color3, #fd6769)" d="M12.639 17.693l0.543 2.554 1.194 1.956 2.007 1.522 2.17 1.413 5.1 1.685 6.239 1.141 4.666-1.141 2.875-1.685 2.659-2.011 1.736-4.293v-3.152l-7.867 2.554h-6.728l-6.131-0.543-8.464-2.5v2.5z"></path>
</symbol>
<symbol id="icon-box-of-products" viewBox="0 0 54 32">
<path fill="#fef4d0" style="fill: var(--color2, #fef4d0)" d="M41.51 3.177l-9.944-3.196-4.625 1.522-7.863 5.48c0 0-6.823-1.37-8.557 0s-3.469 10.502-3.469 10.502l6.415 5.124 13.82-1.166 9.552 1.628 8.231 1.008 2.724-15.542-6.285-5.359z"></path>
<path fill="#fcc812" style="fill: var(--color5, #fcc812)" d="M36.408 11.323c0.019-0.24-0.079-0.514-0.285-0.598-0.072-0.029-0.198 0.017-0.282 0.024-0.224 0.022-0.436 0.114-0.605 0.263-0.597 0.492-1.47 1.527-2.247 1.926s-1.987 1.087-2.801 0.897c-0.563-0.14-1.117-0.312-1.66-0.515l-0.023-0.010c-0.076-0.037-0.558-0.265-0.872-0.163-0.113 0.023-0.217 0.076-0.303 0.152-0.038 0.037-0.067 0.083-0.084 0.134s-0.021 0.105-0.013 0.157c0.135 0.47 0.431 0.878 0.835 1.153 0.765 0.509 1.845 1.295 2.41 1.413s1.7 0.134 2.407-0.243c0.867-0.468 1.637-1.098 2.267-1.857 0.645-0.81 0.659-1.171 0.998-1.828 0.145-0.281 0.233-0.589 0.258-0.904z"></path>
<path fill="#000" style="fill: var(--color4, #000)" d="M36.094 10.854c-0.279 0.711-0.569 1.329-1.038 1.938-0.459 0.598-1.085 1.011-1.74 1.359-0.569 0.319-1.186 0.542-1.827 0.657-0.678 0.105-1.347-0.017-1.987-0.25-0.749-0.272-1.458-0.725-2.134-1.141-0.021 0.024-0.039 0.050-0.054 0.078 1.19 0.734 2.484 1.65 3.943 1.53 0.677-0.075 1.334-0.278 1.937-0.598 0.665-0.331 1.306-0.727 1.811-1.281 0.6-0.66 0.876-1.522 1.199-2.342-0.022-0.011-0.047-0.015-0.071-0.011l-0.037 0.061z"></path>
<path fill="#fcc812" style="fill: var(--color5, #fcc812)" d="M36.774 11.138c-0.159-0.253-0.461-0.453-0.729-0.38-0.094 0.025-0.184 0.163-0.262 0.234-0.208 0.189-0.351 0.439-0.411 0.713-0.227 0.936-0.326 2.62-0.804 3.598s-1.168 2.569-2.122 2.989c-0.665 0.28-1.346 0.521-2.039 0.722-0.010 0.003-0.020 0.005-0.030 0.007-0.104 0.020-0.754 0.153-0.992 0.489-0.095 0.107-0.16 0.237-0.189 0.378-0.005 0.168 0.031 0.298 0.12 0.364 0.485 0.367 1.083 0.552 1.69 0.524 1.139-0.065 2.802-0.088 3.455-0.391s1.794-1.136 2.217-2.041 0.837-2.257 0.876-3.546c0.039-1.289-0.217-1.659-0.368-2.567-0.064-0.388-0.204-0.76-0.413-1.093z"></path>
<path fill="#000" style="fill: var(--color4, #000)" d="M36.099 11.454c0.31 1.429 0.265 3.082-0.21 4.466-0.507 1.474-1.559 2.807-3.009 3.462-0.795 0.359-2.821 0.502-3.674 0.66l0.013 0.074c0.716 0.072 2.819-0.2 3.567-0.497 0.743-0.296 1.408-0.761 1.941-1.359 1.051-1.168 1.574-2.809 1.72-4.361 0.081-0.849-0.043-1.63-0.095-2.483-0.028-0.235-0.089-0.464-0.181-0.682l-0.124 0.021 0.053 0.699z"></path>
<path fill="#000" style="fill: var(--color4, #000)" d="M36.046 10.756l-0.354-0.583 0.405-0.261 0.614 0.217-0.539 0.604-0.125 0.022z"></path>
<path fill="#94b7bd" style="fill: var(--color8, #94b7bd)" d="M22.787 8.538c-1.34 0.185-2.419 0.812-2.998 1.526-0.469 1.11 0.461 2.382 1.899 4.040 1.2 1.667 2.659 3.321 4.077 5.101 0.415 0.519 0.826 1.049 1.228 1.593 0.119 0.163 0.63-0.224 0.686-0.417-0.292-1.638-0.397-1.835-1.214-4.142-0.38-1.552-1.064-3.164-1.682-4.577-0.516-1.716-1.35-2.711-1.997-3.124z"></path>
<path fill="#fd6769" style="fill: var(--color3, #fd6769)" d="M20.813 9.208l-0.886-0.68c-0.052-0.040-0.088-0.098-0.1-0.163l-0.096-0.495c0 0-0.151-0.782-0.026-0.997 0.028-0.048 0.137-0.318 0.191-0.304 0.141 0.037 0.234 0.571 0.317 0.69 0.194 0.278 0.71 0.757 0.825 1.075 0.024 0.165 0.029 0.333 0.013 0.499l0.19 0.186-0.428 0.19z"></path>
<path fill="#fed9db" style="fill: var(--color7, #fed9db)" d="M26.139 15.322c0.016-1.587 0.539-2.531 3.001-3.269 0.538-0.155 1.113-0.127 1.633 0.082 2.424 1.096 4.053 2.197 3.817 4.008-0.131 1.008-0.839 2.245-1.613 2.861-0.843 0.669-1.804 0.772-3.021 0.652-0.256-0.024-0.577-0.018-0.814-0.081-1.947-0.511-3.021-2.288-3.004-4.252z"></path>
<path fill="#94b7bd" style="fill: var(--color8, #94b7bd)" d="M32.61 12.257c0 0 0.325 0 1.225-1.39-0.488 0.409-2.082 0.614-2.082 0.614 0.040-0.62 0.135-1.236 0.283-1.84-0.373 0-0.814 0.326-1.031 1.072l-0.109 0.563c0 0-2.286-0.652-2.694-0.082 0.814 0.082 1.633 0.572 1.633 0.572-1.79 0.417-1.997 1.007-2.204 1.145 1.061-0.489 0.651-0.489 2.735-0.368 0.265 0.665 0.081 1.472-0.211 2.094-0.011 0.203 0.005 0.406 0.048 0.604 0.776-0.531 1.551-2.372 1.551-2.372s0.735 0.246 2.041 1.799c0.244-0.899-1.185-2.412-1.185-2.412z"></path>
<path fill="#fcc812" style="fill: var(--color5, #fcc812)" d="M19.408 12.784c-0.326 1.747-2.175 4.608-0.366 6.976 0.875 1.145 3.969 1.467 3.969 1.467s1.078-0.122 1.711 0.259c0.114-0.042 0.223-0.097 0.326-0.163l-0.17-1.096c0 0 0.839-2.934-0.355-4.546-0.564-1.13-3.62-2.464-3.975-2.617-0.022-0.009-0.039-0.026-0.049-0.047-0.036-0.079-0.131-0.272-0.194-0.312-0.187-0.108-0.725-0.062-0.896 0.079z"></path>
<path fill="#fd6769" style="fill: var(--color3, #fd6769)" d="M17.683 10.172c0.163 0.326 0.348 1.375 0.348 1.375l0.896 0.253c0 0 0.744 0.856 0.724 1.231 0.071 0.041 0.114-0.015 0.326 0-0.111-0.311-0.027-0.72 0.054-0.964 0.118-0.345 1.198-0.791 1.198-0.791l0.369-1.24c0 0-1.009 0.067-1.242 0.284-0.271 0.252-0.38 0.798-0.76 1.269-0.099-0.411-0.311-0.787-0.612-1.084-0.238-0.233-0.974-0.332-1.301-0.334z"></path>
<path fill="#100174" style="fill: var(--color6, #100174)" d="M45.086 7.522l-0.757 0.040-3.085 4.229-3.086 4.066-1.352 1.058h-18.246l-7.501-9.98-0.711 0.106 4.019 5.075 3.735 5.811v14.114h18.757v-13.574l8.227-10.945z"></path>
<path fill="#94b7bd" style="fill: var(--color8, #94b7bd)" d="M33.726 21.47h-12.017v5.205h12.017v-5.205z"></path>
</symbol>
<symbol id="icon-cart" viewBox="0 0 32 32">
<path fill="#567343" style="fill: var(--color1, #567343)" d="M7.174 7.2h1.032l0.052 0.010c1.431 0.028 2.682 0.974 3.097 2.344l0.206 0.712h10.769c0.951 0.004 1.854 0.418 2.478 1.136 0.622 0.722 0.898 1.68 0.754 2.622l-0.619 4.274c-0.206 1.638-1.591 2.873-3.242 2.891h-6.071c-1.45-0.005-2.728-0.956-3.149-2.344l-2.612-8.807c-0.2-0.756-0.881-1.284-1.662-1.291h-1.032c-0.428 0-0.774-0.347-0.774-0.774s0.347-0.774 0.774-0.774zM13.968 18.351c0.219 0.735 0.895 1.239 1.662 1.239h6.071c0.855-0.009 1.578-0.633 1.714-1.476l0.62-4.285c0.084-0.499-0.053-1.009-0.377-1.398s-0.801-0.617-1.306-0.625h-10.325l1.941 6.546z"></path>
<path fill="#567343" style="fill: var(--color1, #567343)" d="M15.393 22.429c-0.57 0-1.032 0.462-1.032 1.032s0.462 1.032 1.032 1.032c0.57 0 1.032-0.462 1.032-1.032s-0.462-1.032-1.032-1.032z"></path>
<path fill="#567343" style="fill: var(--color1, #567343)" d="M21.587 22.429c-0.57 0-1.032 0.462-1.032 1.032s0.462 1.032 1.032 1.032c0.57 0 1.032-0.462 1.032-1.032s-0.462-1.032-1.032-1.032z"></path>
</symbol>
<symbol id="icon-cherry" viewBox="0 0 29 32">
<path fill="#fd6769" style="fill: var(--color3, #fd6769)" d="M5.86 22.366c0-0.676 0.022-1.872 0.307-2.438 0.348-0.691 0.882-1.272 1.543-1.678s1.42-0.62 2.196-0.619c1.152 0 1.894 0.502 2.65 1.253 0.762 0.756 1.116 0.557 1.255 2.645 0.050 0.747-0.404 1.765-0.708 2.476-0.085 0.199-0.226 0.368-0.406 0.489-0.934 0.631-1.472 1.211-2.792 1.211-1.188 0-1.889-0.182-2.65-0.975-0.719-0.749-0.836-1.252-1.395-2.366z"></path>
<path fill="#fd6769" style="fill: var(--color3, #fd6769)" d="M19.882 22.855c-0.678 0-1.876-0.022-2.442-0.307-0.693-0.348-1.275-0.881-1.681-1.54s-0.621-1.418-0.62-2.192c0-1.15 0.503-1.89 1.255-2.646 0.758-0.761 0.558-1.114 2.65-1.253 0.748-0.050 1.768 0.403 2.481 0.707 0.199 0.085 0.369 0.226 0.49 0.405 0.632 0.932 1.213 1.47 1.213 2.787 0 1.185-0.182 1.885-0.977 2.646-0.751 0.722-1.254 0.837-2.37 1.394z"></path>
<path fill="#000" style="fill: var(--color4, #000)" d="M17.657 15.381l-0.167-0.27c-0.664-1.063-1.415-2.269-2.338-3.231-0.188-0.195-0.367-0.378-0.541-0.555-0.646-0.621-1.236-1.3-1.76-2.027 0.022-0.038 0.047-0.079 0.074-0.123 0.258-0.424 0.69-1.135 0.28-1.992-0.366-0.765-0.909-1.119-1.452-0.947l-0.039 0.018c-0.079 0.048-0.148 0.113-0.201 0.189s-0.091 0.162-0.11 0.253c-0.114 0.495 0.195 1.204 0.577 1.871-0.573-0.367-1.181-0.675-1.816-0.919-0.155-0.042-0.318-0.044-0.473-0.007l-0.018 0.003c-0.124 0.023-0.238 0.081-0.33 0.168s-0.156 0.197-0.186 0.32c-0.007 0.11 0.011 0.22 0.052 0.322s0.104 0.194 0.185 0.269c0.287 0.298 0.632 0.535 1.014 0.695s0.793 0.239 1.207 0.234c0.248-0 0.494-0.029 0.735-0.086-0.379 0.908-0.762 1.938-1.141 3.070-0.782 2.342-1.539 4.813-1.507 7.063 0.001 0.046 0.020 0.090 0.054 0.122s0.078 0.049 0.124 0.049h0.003c0.026-0.007 0.028-0.051 0.026-0.148-0.033-2.195 0.858-4.663 1.63-6.977 0.377-1.135 0.762-2.169 1.142-3.077 0.508 0.678 1.069 1.314 1.678 1.903 0.173 0.177 0.352 0.358 0.538 0.553 0.898 0.936 1.64 2.125 2.295 3.175l0.169 0.27c0.651 1.041 0.807 1.244 1.055 2.205 0.024 0.092 0.116 0.233 0.207 0.209 0.094-0.023 0.095-0.115 0.070-0.209-0.258-1.005-0.372-1.326-1.038-2.391zM11.741 6.774c0.016-0.086 0.065-0.162 0.136-0.212 0.51-0.141 0.875 0.49 1.010 0.771 0.324 0.677-0.004 1.234-0.253 1.643v-0.001c-0.255-0.399-1.029-1.614-0.893-2.201zM9.647 8.487c-0.114-0.124-0.163-0.221-0.15-0.295 0.017-0.050 0.047-0.096 0.087-0.131s0.088-0.060 0.141-0.071l0.018-0.003c0.062-0.012 0.124-0.019 0.187-0.022 0.047 0 0.093 0.007 0.138 0.021 0.486 0.135 1.994 0.99 2.129 1.174 0.020 0.034 0.034 0.057 0.043 0.074-0.46 0.109-0.941 0.098-1.395-0.033s-0.867-0.377-1.198-0.715l-0 0.001z"></path>
</symbol>
<symbol id="icon-favorite" viewBox="0 0 32 32">
<path fill="#567343" style="fill: var(--color1, #567343)" d="M16.1 24.8c-0.5 0-1.1-0.2-1.5-0.6-6.5-5.7-6.6-5.8-6.6-5.9l-0.1-0.1c-1.2-1.2-1.9-2.9-1.9-4.6v-0.2c0.1-3.6 3-6.4 6.6-6.4 1.1 0 2.6 0.6 3.5 1.8 0.9-1.2 2.5-1.8 3.6-1.8 3.6 0 6.4 2.8 6.6 6.4v0.2c0 1.8-0.7 3.4-1.9 4.7l-0.1 0.1c-0.1 0.1-0.9 0.8-6.6 5.9-0.5 0.3-1 0.5-1.6 0.5zM9.5 18c0.4 0.4 2.4 1.8 6.1 5 0.3 0.3 0.7 0.3 1 0 3.8-3.4 6-5.3 6.5-5.7l0.1-0.1c1-1 1.5-2.3 1.5-3.6v-0.2c-0.1-2.8-2.3-4.9-5.1-4.9-0.7 0-2.1 0.5-2.6 1.6-0.2 0.4-0.6 0.6-1 0.6s-0.8-0.2-1-0.6c-0.5-1-1.8-1.6-2.6-1.6-2.7 0-5 2.2-5.1 4.9v0.3c0 1.3 0.6 2.6 1.5 3.5l0.7 0.8z"></path>
</symbol>
<symbol id="icon-fruit-mix" viewBox="0 0 54 32">
<path fill="#fef4d0" style="fill: var(--color2, #fef4d0)" d="M19.494 8.104l-2.558 4.741-1.462 3.282 2.010 2.003 2.741 4.558 4.751 1.459h3.472l5.299 2.006 3.472-1.462 6.213-3.647v-5.105l-1.645-3.1-2.193-6.011-4.386-2.917h-10.417l-3.287 1.823-2.011 2.37z"></path>
<path fill="#94b7bd" style="fill: var(--color8, #94b7bd)" d="M9.779 10.546c0 0-1.144-0.264-1.008 0.493s1.579 2.688 1.579 2.688c0 0 2.587 2.195 4.215 2.529s5.337 0.92 6.248 0.758c0.912-0.162 3.616-0.803 4.72-1.627s2.807-2.691 3.251-3.709c0.444-1.018 1.403-3.534 1.461-4.952s0.063-3.14-0.019-3.593l-0.271-1.516c0 0-1.172-0.416-1.063 0.19s-17.817 8.974-17.817 8.974l-1.296-0.237z"></path>
<path fill="#fed9db" style="fill: var(--color7, #fed9db)" d="M9.779 10.546c0 0 6.565-3.967 8.964-5.040 2.385-1.070 10.176-3.54 10.176-3.54s0.043-0.633 0.19 1.060c0.148 1.693-0.271 4.583-0.271 4.583s0.175 1.845-1.445 4.168c-1.62 2.323-2.297 2.912-3.94 3.363s-4.983 1.048-7.022 0.162c-2.039-0.885-4.329-1.415-5.278-2.339s-1.374-2.417-1.374-2.417z"></path>
<path fill="#000" style="fill: var(--color4, #000)" d="M22.342 10.591c0.148-0.084 0.135-0.387-0.029-0.678s-0.418-0.458-0.567-0.374c-0.148 0.084-0.135 0.387 0.029 0.678s0.418 0.458 0.567 0.374z"></path>
<path fill="#000" style="fill: var(--color4, #000)" d="M17.58 11.13c0.148-0.084 0.135-0.387-0.029-0.678s-0.418-0.458-0.567-0.374c-0.148 0.084-0.135 0.387 0.029 0.678s0.418 0.458 0.567 0.374z"></path>
<path fill="#000" style="fill: var(--color4, #000)" d="M20.426 9.526c0.148-0.084 0.135-0.387-0.029-0.678s-0.418-0.458-0.567-0.374c-0.148 0.084-0.135 0.387 0.029 0.678s0.418 0.458 0.567 0.374z"></path>
<path fill="#000" style="fill: var(--color4, #000)" d="M19.994 11.48c0.148-0.084 0.135-0.387-0.029-0.678s-0.418-0.458-0.567-0.374c-0.148 0.084-0.135 0.387 0.029 0.678s0.418 0.458 0.567 0.374z"></path>
<path fill="#000" style="fill: var(--color4, #000)" d="M22.74 8.83c0.148-0.083 0.136-0.386-0.028-0.677s-0.417-0.458-0.565-0.375c-0.148 0.083-0.136 0.386 0.028 0.677s0.417 0.458 0.565 0.375z"></path>
<path fill="#fd6769" style="fill: var(--color3, #fd6769)" d="M27.090 14.005c0.023-2.311 0.789-3.686 4.387-4.76 0.787-0.226 1.627-0.184 2.387 0.119 3.544 1.595 5.925 3.199 5.58 5.836-0.192 1.467-1.226 3.27-2.357 4.166-1.232 0.974-2.637 1.124-4.415 0.952-0.374-0.036-0.843-0.027-1.194-0.119-2.843-0.747-4.416-3.334-4.387-6.194z"></path>
<path fill="#94b7bd" style="fill: var(--color8, #94b7bd)" d="M36.547 9.541c0 0 0.478 0 1.791-2.024-0.716 0.595-3.043 0.893-3.043 0.893 0.059-0.903 0.199-1.8 0.417-2.679-0.542 0-1.194 0.476-1.509 1.561l-0.163 0.82c0 0-3.341-0.953-3.938-0.119 1.194 0.119 2.387 0.833 2.387 0.833-2.618 0.607-2.921 1.466-3.222 1.667 1.551-0.715 0.955-0.715 3.998-0.536 0.388 0.967 0.119 2.143-0.309 3.049-0.016 0.295 0.008 0.591 0.070 0.88 1.134-0.774 2.267-3.453 2.267-3.453s1.074 0.357 2.984 2.62c0.358-1.31-1.731-3.512-1.731-3.512z"></path>
<path fill="#fcc812" style="fill: var(--color5, #fcc812)" d="M24.465 13.734c-0.198-0.33-0.58-0.595-0.928-0.514-0.122 0.029-0.243 0.206-0.346 0.292-0.274 0.237-0.467 0.553-0.552 0.904-0.322 1.195-0.504 3.356-1.148 4.598s-1.588 3.265-2.831 3.772c-0.866 0.34-1.751 0.631-2.65 0.87l-0.040 0.009c-0.135 0.022-0.977 0.173-1.295 0.596-0.125 0.135-0.213 0.3-0.256 0.479-0.015 0.084-0.010 0.171 0.015 0.253s0.069 0.157 0.129 0.218c0.614 0.487 1.38 0.743 2.164 0.726 1.474-0.047 3.617-0.025 4.468-0.394s2.348-1.404 2.923-2.553c0.701-1.417 1.122-2.955 1.241-4.531 0.091-1.655-0.226-2.138-0.394-3.31-0.072-0.5-0.243-0.98-0.502-1.413z"></path>
<path fill="#000" style="fill: var(--color4, #000)" d="M23.617 13.413c0.295 1.186 0.492 2.26 0.444 3.491-0.047 1.203-0.476 2.325-1.012 3.388-0.447 0.944-1.048 1.808-1.78 2.554-0.791 0.767-1.779 1.228-2.833 1.521-1.233 0.341-2.582 0.409-3.852 0.494-0.007 0.051-0.007 0.102 0 0.153 2.239-0.149 4.785-0.157 6.58-1.67 0.816-0.728 1.487-1.603 1.977-2.58 0.561-1.050 1.032-2.158 1.177-3.349 0.172-1.417-0.271-2.797-0.609-4.168-0.039 0.005-0.075 0.023-0.103 0.051l0.010 0.114z"></path>
<path fill="#fcc812" style="fill: var(--color5, #fcc812)" d="M24.772 13.151c-0.443-0.181-1.023-0.162-1.309 0.179-0.1 0.12-0.088 0.386-0.126 0.548-0.096 0.44-0.052 0.898 0.126 1.311 0.573 1.431 2.007 3.719 2.293 5.436s0.86 4.434 0 5.864c-0.608 0.984-1.272 1.932-1.99 2.839-0.010 0.013-0.022 0.026-0.034 0.038-0.118 0.122-0.844 0.9-0.844 1.557-0.025 0.228 0.011 0.458 0.104 0.669 0.149 0.223 0.317 0.36 0.495 0.362 0.976 0.028 1.93-0.286 2.699-0.887 1.433-1.145 3.584-2.718 4.158-3.719s1.29-3.147 1.003-4.72c-0.287-1.573-1.003-3.719-2.15-5.436s-1.824-1.962-2.868-3.003c-0.445-0.446-0.975-0.798-1.558-1.037z"></path>
<path fill="#000" style="fill: var(--color4, #000)" d="M24.182 14.189c1.736 1.574 3.212 3.771 3.876 6.017 0.705 2.391 0.569 5.106-0.718 7.308-0.705 1.207-3.226 3.275-4.194 4.273l0.086 0.085c1.004-0.572 3.502-2.879 4.204-3.962 0.697-1.076 1.134-2.299 1.277-3.573 0.29-2.499-0.554-5.122-1.804-7.282-0.684-1.181-1.573-2.086-2.432-3.147-0.255-0.28-0.548-0.523-0.871-0.721l-0.143 0.141 0.719 0.861z"></path>
<path fill="#000" style="fill: var(--color4, #000)" d="M23.463 13.33l-1.005-0.43 0.288-0.716 1.005-0.286-0.144 1.289-0.143 0.143z"></path>
</symbol>
<symbol id="icon-inst" viewBox="0 0 32 32">
<path fill="#567343" style="fill: var(--color1, #567343)" d="M21.333 9.333c0-0.736 0.597-1.333 1.333-1.333s1.333 0.597 1.333 1.333-0.597 1.333-1.333 1.333c-0.736 0-1.333-0.597-1.333-1.333z"></path>
<path fill="#567343" style="fill: var(--color1, #567343)" d="M16 9.667c-3.498 0-6.333 2.835-6.333 6.333s2.836 6.333 6.333 6.333c3.498 0 6.333-2.835 6.333-6.333s-2.835-6.333-6.333-6.333zM11.667 16c0-2.393 1.94-4.333 4.333-4.333s4.333 1.94 4.333 4.333c0 2.393-1.94 4.333-4.333 4.333s-4.333-1.94-4.333-4.333z"></path>
<path fill="#567343" style="fill: var(--color1, #567343)" d="M23.011 3.777c-4.622-0.517-9.4-0.517-14.022 0-2.683 0.3-4.849 2.413-5.164 5.11-0.553 4.726-0.553 9.5 0 14.226 0.315 2.697 2.481 4.81 5.164 5.11 4.622 0.517 9.4 0.517 14.022 0 2.683-0.3 4.848-2.413 5.164-5.11 0.553-4.726 0.553-9.5 0-14.226-0.315-2.697-2.481-4.81-5.164-5.11zM9.211 5.765c4.474-0.5 9.103-0.5 13.578 0 1.774 0.198 3.194 1.598 3.4 3.355 0.535 4.571 0.535 9.189 0 13.761-0.206 1.757-1.626 3.156-3.4 3.355-4.474 0.5-9.103 0.5-13.578 0-1.774-0.198-3.194-1.598-3.4-3.355-0.535-4.571-0.535-9.189 0-13.761 0.205-1.757 1.626-3.156 3.4-3.355z"></path>
</symbol>
<symbol id="icon-liqpay" viewBox="0 0 64 32">
<path fill="#000" style="fill: var(--color4, #000)" d="M52.186 19.518l-0.138-0.121c-0.335-0.293-0.394-0.827-0.089-1.17l3.585-4.193c0.286-0.343 0.808-0.403 1.143-0.091l0.138 0.121c0.335 0.292 0.394 0.827 0.089 1.169l-3.585 4.192c-0.286 0.343-0.788 0.383-1.143 0.091z"></path>
<path fill="#000" style="fill: var(--color4, #000)" opacity="0.4" d="M55.062 14.761l-0.069-0.081-0.552 0.645 0.059 0.070c0.946 0.967 0.542 1.945 0.325 2.288l0.079-0.091c0.128-0.151 0.325-0.383 0.532-0.635 0.217-0.383 0.522-1.291-0.374-2.197z"></path>
<path fill="#000" style="fill: var(--color4, #000)" opacity="0.4" d="M56.244 16.020l0.148-0.171c0.010-0.020 0.029-0.041 0.039-0.061-0.157 0.181-0.325 0.373-0.483 0.564 0.118-0.131 0.217-0.242 0.296-0.332z"></path>
<path fill="#000" style="fill: var(--color4, #000)" d="M56.934 14.166l-3.586-4.192c-0.286-0.344-0.808-0.404-1.143-0.091l-0.138 0.12c-0.335 0.292-0.394 0.827-0.089 1.169l3.093 3.588c0.897 0.917 0.591 1.824 0.365 2.207 0.177-0.212 0.354-0.424 0.522-0.615 0.158-0.191 0.325-0.383 0.483-0.564s0.306-0.353 0.404-0.464c0.345-0.342 0.394-0.816 0.089-1.158h0.001z"></path>
<path fill="#000" style="fill: var(--color4, #000)" d="M56.737 19.518l-0.138-0.121c-0.335-0.293-0.394-0.827-0.089-1.17l3.585-4.193c0.286-0.343 0.808-0.403 1.143-0.091l0.138 0.121c0.335 0.292 0.394 0.827 0.089 1.169l-3.586 4.192c-0.286 0.343-0.788 0.383-1.143 0.091z"></path>
<path fill="#000" style="fill: var(--color4, #000)" opacity="0.4" d="M59.653 14.72l-0.069-0.081-0.552 0.645 0.059 0.070c0.946 0.967 0.542 1.945 0.325 2.288l0.079-0.091c0.128-0.151 0.325-0.383 0.532-0.635 0.217-0.383 0.522-1.291-0.374-2.197z"></path>
<path fill="#000" style="fill: var(--color4, #000)" opacity="0.4" d="M60.786 16.020l0.148-0.171c0.009-0.020 0.029-0.041 0.039-0.061-0.157 0.181-0.325 0.373-0.483 0.564 0.118-0.131 0.227-0.242 0.296-0.332z"></path>
<path fill="#000" style="fill: var(--color4, #000)" d="M61.476 14.166l-3.586-4.192c-0.286-0.344-0.807-0.404-1.143-0.091l-0.138 0.12c-0.335 0.293-0.394 0.827-0.089 1.17l3.093 3.588c0.897 0.917 0.591 1.824 0.365 2.207 0.177-0.212 0.354-0.423 0.522-0.615 0.157-0.192 0.325-0.383 0.483-0.564s0.305-0.352 0.404-0.464c0.345-0.342 0.394-0.816 0.089-1.159z"></path>
<path fill="#000" style="fill: var(--color4, #000)" d="M17.52 9.641c0.936 0 1.763 0.211 2.453 0.614 0.7 0.423 1.231 1.018 1.606 1.774 0.375 0.766 0.562 1.673 0.562 2.711 0 1.118-0.217 2.096-0.66 2.892-0.433 0.806-1.063 1.391-1.881 1.764 0.424 0.141 0.768 0.463 1.054 0.937l0.493 0.756c0.099 0.172 0.157 0.333 0.157 0.504 0 0.212-0.078 0.393-0.246 0.524s-0.365 0.212-0.581 0.212c-0.167 0-0.325-0.041-0.473-0.121-0.138-0.081-0.266-0.202-0.365-0.353l-0.807-1.371c-0.128-0.222-0.296-0.384-0.503-0.484s-0.473-0.161-0.808-0.161c-0.955 0-1.773-0.212-2.472-0.615-0.699-0.423-1.231-1.018-1.606-1.774-0.374-0.776-0.561-1.683-0.561-2.711 0-1.038 0.197-1.935 0.561-2.711 0.374-0.766 0.916-1.35 1.606-1.774 0.7-0.423 1.517-0.614 2.473-0.614h-0zM41.113 9.65c0.236 0 0.423 0.101 0.591 0.312l2.827 3.588 2.817-3.588c0.167-0.202 0.374-0.302 0.61-0.302 0.207 0 0.394 0.081 0.561 0.252s0.247 0.352 0.247 0.595c0 0.181-0.069 0.373-0.207 0.544l-3.142 3.921v3.921c0 0.292-0.079 0.514-0.247 0.685-0.167 0.171-0.374 0.242-0.631 0.242-0.266 0-0.492-0.081-0.659-0.242s-0.247-0.383-0.247-0.685v-3.921l-3.122-3.931c-0.138-0.171-0.207-0.352-0.207-0.544 0-0.222 0.079-0.423 0.246-0.595s0.365-0.252 0.561-0.252h0.001zM28.326 9.731c1.044 0 1.852 0.262 2.433 0.806 0.581 0.524 0.877 1.28 0.877 2.238s-0.296 1.713-0.877 2.247c-0.581 0.544-1.389 0.806-2.433 0.806h-2.472v3.044c0 0.292-0.079 0.514-0.246 0.675-0.168 0.171-0.384 0.252-0.66 0.252-0.266-0.010-0.492-0.091-0.64-0.261-0.167-0.172-0.246-0.394-0.246-0.676v-8.275c0-0.272 0.078-0.484 0.236-0.635 0.158-0.141 0.365-0.222 0.631-0.222h3.398zM10.151 9.65c0.266 0 0.502 0.081 0.66 0.252 0.168 0.171 0.247 0.383 0.247 0.655v8.305c0 0.272-0.079 0.504-0.247 0.675s-0.384 0.252-0.66 0.252c-0.256 0-0.473-0.081-0.64-0.252s-0.247-0.393-0.247-0.675v-8.305c0-0.272 0.079-0.484 0.247-0.655s0.374-0.252 0.64-0.252zM36.236 9.641c0.197 0 0.374 0.050 0.542 0.141 0.167 0.101 0.295 0.242 0.384 0.434l3.832 8.395c0.039 0.131 0.069 0.242 0.069 0.373 0 0.212-0.089 0.393-0.256 0.555-0.168 0.141-0.365 0.221-0.591 0.221-0.138 0-0.286-0.040-0.414-0.121s-0.237-0.212-0.305-0.373l-0.837-1.894h-4.847l-0.837 1.895c-0.079 0.171-0.177 0.292-0.306 0.373s-0.266 0.121-0.423 0.121c-0.207 0-0.414-0.080-0.581-0.222-0.177-0.141-0.256-0.333-0.256-0.555 0-0.121 0.030-0.252 0.079-0.373l3.823-8.395c0.078-0.181 0.207-0.333 0.384-0.434 0.167-0.101 0.344-0.141 0.542-0.141zM2.497 9.66c0.266 0 0.502 0.081 0.66 0.252 0.167 0.171 0.246 0.383 0.246 0.655v7.65h3.872c0.551 0 0.837 0.252 0.837 0.746s-0.286 0.746-0.837 0.746h-4.827c-0.266 0-0.473-0.080-0.62-0.231-0.138-0.141-0.217-0.353-0.217-0.615v-8.295c0-0.272 0.079-0.484 0.246-0.655s0.375-0.252 0.641-0.252zM17.499 11.072c-0.906 0-1.606 0.313-2.108 0.938-0.502 0.635-0.758 1.522-0.758 2.711s0.255 2.076 0.758 2.711c0.502 0.635 1.212 0.948 2.108 0.948s1.596-0.313 2.098-0.948c0.503-0.635 0.758-1.541 0.758-2.711 0-1.189-0.256-2.076-0.758-2.711s-1.193-0.938-2.099-0.938zM36.236 11.768l-1.822 4.193h3.655l-1.832-4.193zM28.099 11.152h-2.246v3.276l2.246 0.010c1.221 0 1.842-0.555 1.842-1.643s-0.621-1.643-1.842-1.643l-0.001-0.001z"></path>
</symbol>
<symbol id="icon-mail" viewBox="0 0 32 32">
<path fill="#567343" style="fill: var(--color1, #567343)" d="M3.738 11.138c-0.374 3.471-0.357 7.473 0.163 10.93 0.288 1.913 1.848 3.379 3.775 3.546l2.014 0.175c4.199 0.365 8.421 0.365 12.62 0l2.014-0.175c1.927-0.168 3.488-1.634 3.775-3.546 0.52-3.456 0.536-7.459 0.163-10.929-0.048-0.402-0.103-0.804-0.163-1.205-0.288-1.913-1.849-3.379-3.775-3.546l-2.014-0.175c-4.199-0.365-8.421-0.365-12.62 0l-2.014 0.175c-1.927 0.168-3.488 1.634-3.775 3.546-0.060 0.401-0.115 0.803-0.163 1.205zM9.863 8.204c4.083-0.355 8.19-0.355 12.274 0l2.014 0.175c1.006 0.087 1.821 0.853 1.971 1.851 0.016 0.104 0.031 0.207 0.046 0.311l-7.415 4.119c-1.711 0.951-3.793 0.951-5.504 0l-7.415-4.119c0.015-0.104 0.030-0.208 0.045-0.311 0.15-0.998 0.965-1.764 1.971-1.851l2.014-0.175zM26.411 12.693c0.259 3.024 0.162 6.070-0.29 9.077-0.15 0.998-0.965 1.764-1.971 1.851l-2.014 0.175c-4.083 0.355-8.19 0.355-12.274 0l-2.014-0.175c-1.006-0.087-1.821-0.853-1.971-1.851-0.452-3.007-0.549-6.053-0.29-9.077l6.688 3.716c2.316 1.287 5.131 1.287 7.447 0l6.688-3.716z"></path>
</symbol>
<symbol id="icon-mastercard" viewBox="0 0 40 32">
<path fill="#000" style="fill: var(--color4, #000)" d="M9.672 27.881v-1.588c0-0.609-0.375-1.006-1.017-1.006-0.321 0-0.669 0.106-0.91 0.45-0.187-0.291-0.455-0.45-0.856-0.45-0.268 0-0.535 0.079-0.749 0.371v-0.318h-0.562v2.542h0.562v-1.403c0-0.45 0.241-0.662 0.615-0.662s0.562 0.238 0.562 0.662v1.403h0.562v-1.403c0-0.45 0.267-0.662 0.615-0.662 0.375 0 0.562 0.238 0.562 0.662v1.403h0.616zM17.993 25.339h-0.91v-0.768h-0.562v0.768h-0.508v0.503h0.508v1.165c0 0.583 0.241 0.927 0.883 0.927 0.241 0 0.508-0.079 0.696-0.185l-0.161-0.477c-0.16 0.106-0.348 0.132-0.482 0.132-0.268 0-0.374-0.159-0.374-0.424v-1.139h0.91v-0.503zM22.755 25.286c-0.321 0-0.535 0.159-0.669 0.371v-0.318h-0.562v2.542h0.562v-1.43c0-0.424 0.187-0.662 0.535-0.662 0.107 0 0.241 0.027 0.348 0.053l0.161-0.529c-0.107-0.027-0.268-0.027-0.375-0.027v-0zM15.558 25.551c-0.268-0.185-0.642-0.265-1.044-0.265-0.642 0-1.070 0.318-1.070 0.821 0 0.424 0.321 0.662 0.883 0.741l0.268 0.026c0.294 0.053 0.455 0.132 0.455 0.265 0 0.185-0.214 0.318-0.589 0.318s-0.669-0.132-0.856-0.265l-0.268 0.424c0.294 0.212 0.696 0.318 1.097 0.318 0.749 0 1.177-0.344 1.177-0.821 0-0.45-0.348-0.688-0.883-0.768l-0.267-0.027c-0.241-0.027-0.428-0.079-0.428-0.238 0-0.185 0.187-0.291 0.482-0.291 0.321 0 0.642 0.132 0.803 0.212l0.241-0.45zM30.487 25.286c-0.321 0-0.535 0.159-0.669 0.371v-0.318h-0.562v2.542h0.562v-1.43c0-0.424 0.187-0.662 0.535-0.662 0.107 0 0.241 0.027 0.348 0.053l0.16-0.529c-0.107-0.027-0.268-0.027-0.375-0.027zM23.317 26.61c0 0.768 0.535 1.324 1.364 1.324 0.375 0 0.642-0.079 0.91-0.291l-0.268-0.45c-0.214 0.159-0.428 0.238-0.669 0.238-0.455 0-0.776-0.318-0.776-0.821 0-0.476 0.321-0.794 0.776-0.821 0.241 0 0.455 0.079 0.669 0.238l0.268-0.45c-0.268-0.212-0.535-0.291-0.91-0.291-0.829 0-1.364 0.556-1.364 1.324zM28.508 26.61v-1.271h-0.562v0.318c-0.187-0.238-0.455-0.371-0.803-0.371-0.722 0-1.284 0.556-1.284 1.324s0.562 1.324 1.284 1.324c0.374 0 0.642-0.132 0.803-0.371v0.318h0.562v-1.271zM26.447 26.61c0-0.45 0.294-0.821 0.776-0.821 0.455 0 0.776 0.344 0.776 0.821 0 0.45-0.321 0.821-0.776 0.821-0.482-0.027-0.776-0.371-0.776-0.821zM19.732 25.286c-0.749 0-1.284 0.529-1.284 1.324s0.535 1.324 1.311 1.324c0.375 0 0.749-0.106 1.044-0.344l-0.268-0.397c-0.214 0.159-0.482 0.265-0.749 0.265-0.348 0-0.696-0.159-0.776-0.609h1.9v-0.212c0.027-0.821-0.455-1.35-1.177-1.35zM19.732 25.763c0.348 0 0.589 0.212 0.642 0.609h-1.338c0.054-0.344 0.294-0.609 0.696-0.609zM33.671 26.61v-2.277h-0.562v1.324c-0.187-0.238-0.455-0.371-0.803-0.371-0.722 0-1.284 0.556-1.284 1.324s0.562 1.324 1.284 1.324c0.375 0 0.642-0.132 0.803-0.371v0.318h0.562v-1.271zM31.611 26.61c0-0.45 0.294-0.821 0.776-0.821 0.455 0 0.776 0.344 0.776 0.821 0 0.45-0.321 0.821-0.776 0.821-0.482-0.027-0.776-0.371-0.776-0.821zM12.829 26.61v-1.271h-0.562v0.318c-0.187-0.238-0.455-0.371-0.803-0.371-0.722 0-1.284 0.556-1.284 1.324s0.562 1.324 1.284 1.324c0.375 0 0.642-0.132 0.803-0.371v0.318h0.562v-1.271zM10.742 26.61c0-0.45 0.294-0.821 0.776-0.821 0.455 0 0.776 0.344 0.776 0.821 0 0.45-0.321 0.821-0.776 0.821-0.482-0.027-0.776-0.371-0.776-0.821z"></path>
<path fill="#ff5f00" style="fill: var(--color10, #ff5f00)" d="M15.37 6.039h8.428v14.985h-8.428v-14.985z"></path>
<path fill="#eb001b" style="fill: var(--color11, #eb001b)" d="M15.906 13.531c0-3.045 1.445-5.745 3.665-7.493-1.632-1.271-3.692-2.039-5.939-2.039-5.324 0-9.632 4.262-9.632 9.531s4.307 9.531 9.632 9.531c2.247 0 4.307-0.768 5.939-2.039-2.221-1.721-3.665-4.448-3.665-7.492z"></path>
<path fill="#f79e1b" style="fill: var(--color12, #f79e1b)" d="M35.169 13.531c0 5.269-4.307 9.531-9.632 9.531-2.247 0-4.307-0.768-5.939-2.039 2.247-1.747 3.665-4.448 3.665-7.492s-1.445-5.745-3.665-7.493c1.632-1.271 3.692-2.039 5.939-2.039 5.324 0 9.632 4.289 9.632 9.531z"></path>
</symbol>
<symbol id="icon-phone" viewBox="0 0 32 32">
<path fill="#567343" style="fill: var(--color1, #567343)" d="M7.787 13.142c2.383 5.189 6.624 9.315 11.895 11.55l0.017 0.007 1.018 0.454c1.297 0.578 2.821 0.167 3.653-0.983l1.699-2.352c0.104-0.144 0.077-0.343-0.061-0.455l-2.966-2.393c-0.147-0.119-0.364-0.091-0.477 0.061l-1.154 1.558c-0.28 0.378-0.787 0.51-1.216 0.316-3.942-1.784-7.11-4.952-8.893-8.893-0.194-0.429-0.063-0.935 0.316-1.216l1.558-1.154c0.152-0.113 0.18-0.33 0.061-0.477l-2.393-2.967c-0.111-0.138-0.311-0.165-0.455-0.061l-2.364 1.707c-1.158 0.836-1.566 2.373-0.975 3.674l0.738 1.623c0 0.001 0.001 0.001 0.001 0.002zM18.894 26.53c-5.728-2.432-10.335-6.915-12.925-12.555l-0.002-0.003-0.739-1.626c-0.985-2.168-0.306-4.73 1.625-6.123l2.364-1.707c1.006-0.726 2.403-0.538 3.182 0.427l2.393 2.967c0.833 1.032 0.639 2.55-0.427 3.34l-0.893 0.662c1.508 2.926 3.898 5.316 6.824 6.824l0.662-0.893c0.79-1.066 2.307-1.259 3.34-0.427l2.966 2.393c0.965 0.779 1.153 2.177 0.426 3.183l-1.699 2.352c-1.386 1.918-3.926 2.602-6.088 1.639l-1.010-0.45z"></path>
</symbol>
<symbol id="icon-search" viewBox="0 0 32 32">
<path fill="none" stroke="#567343" style="stroke: var(--color1, #567343)" stroke-linejoin="miter" stroke-linecap="butt" stroke-miterlimit="4" stroke-width="1.6" d="M25.6 14.4c0 4.418-3.582 8-8 8s-8-3.582-8-8c0-4.418 3.582-8 8-8s8 3.582 8 8z"></path>
<path fill="#567343" style="fill: var(--color1, #567343)" d="M6.256 24.722c-0.329 0.295-0.357 0.801-0.062 1.13s0.801 0.357 1.13 0.062l-1.068-1.192zM11.877 19.686l-5.621 5.037 1.068 1.192 5.621-5.037-1.068-1.192z"></path>
</symbol>
<symbol id="icon-strawberry" viewBox="0 0 45 32">
<path fill="#fd6769" style="fill: var(--color3, #fd6769)" d="M28.73 7.534c0 0-2.399-3.629-4.094-4.394s-4.139-0.18-4.139-0.18-1.845 1.095-2.595 2.445c-0.75 1.35-1.89 5.309-2.116 7.304s-0.661 2.459-0.060 2.969c0.6 0.51 0.45 0.78 2.745 0.465 2.275-0.334 4.518-0.861 6.704-1.574 1.755-0.615 3.439-1.262 4.050-2.52 1.216-2.505-0.494-4.515-0.494-4.515z"></path>
<path fill="#94b7bd" style="fill: var(--color8, #94b7bd)" d="M25.831 3.999c0 0-0.295-4.068 1.010-3.874 0.855 1.005 0.93 2.46 0.93 2.46s1.17 0.12 1.695 0.765c0.3 1.050-0 1.589-0 1.589 0.642 0.039 1.269 0.208 1.844 0.495 0.45 0.78 0.225 1.184 0.225 1.184s-0.285 0.195-1.26 0.36c-0.641-0.076-1.288-0.076-1.929-0.001l-2.515-2.978z"></path>
<path fill="#fff" style="fill: var(--color9, #fff)" d="M22.938 10.238c0.213-0.167 0.317-0.389 0.234-0.495s-0.324-0.057-0.536 0.11c-0.213 0.167-0.317 0.389-0.234 0.495s0.324 0.057 0.537-0.11z"></path>
<path fill="#fff" style="fill: var(--color9, #fff)" d="M25.223 9.24c0.213-0.167 0.317-0.389 0.234-0.495s-0.324-0.057-0.536 0.11c-0.213 0.167-0.317 0.389-0.234 0.495s0.324 0.057 0.537-0.11z"></path>
<path fill="#fff" style="fill: var(--color9, #fff)" d="M24.349 7.217c0.213-0.167 0.317-0.389 0.234-0.495s-0.324-0.057-0.537 0.11c-0.213 0.167-0.317 0.389-0.234 0.495s0.324 0.057 0.537-0.11z"></path>
<path fill="#fff" style="fill: var(--color9, #fff)" d="M21.772 7.398c0.213-0.167 0.317-0.389 0.234-0.495s-0.324-0.057-0.537 0.11c-0.213 0.167-0.317 0.389-0.234 0.495s0.324 0.057 0.537-0.11z"></path>
<path fill="#fff" style="fill: var(--color9, #fff)" d="M20.032 9.575c0.213-0.167 0.317-0.389 0.234-0.495s-0.324-0.057-0.537 0.11c-0.213 0.167-0.317 0.389-0.234 0.495s0.324 0.057 0.537-0.11z"></path>
<path fill="#fff" style="fill: var(--color9, #fff)" d="M19.288 12.892c0.213-0.167 0.317-0.389 0.234-0.495s-0.324-0.057-0.537 0.11c-0.213 0.167-0.317 0.389-0.234 0.495s0.324 0.057 0.537-0.11z"></path>
<path fill="#fff" style="fill: var(--color9, #fff)" d="M25.018 11.433c0.213-0.167 0.317-0.389 0.234-0.495s-0.324-0.057-0.537 0.11c-0.213 0.167-0.317 0.389-0.234 0.495s0.324 0.057 0.537-0.11z"></path>
<path fill="#fff" style="fill: var(--color9, #fff)" d="M22.576 12.674c0.213-0.167 0.317-0.389 0.234-0.495s-0.324-0.057-0.536 0.11c-0.213 0.167-0.317 0.389-0.234 0.495s0.324 0.057 0.537-0.11z"></path>
</symbol>
<symbol id="icon-tg" viewBox="0 0 32 32">
<path fill="#567343" style="fill: var(--color1, #567343)" d="M7.717 18.693l-4.237-1.427c-0.050-0.020-0.164-0.067-0.219-0.093-0.119-0.057-0.282-0.143-0.453-0.265-0.312-0.221-0.825-0.68-0.918-1.428-0.117-0.938 0.579-1.506 0.882-1.713 0.19-0.13 0.374-0.223 0.506-0.283 0.068-0.031 0.125-0.054 0.168-0.071 0.022-0.008 0.040-0.015 0.054-0.020l22.303-8.75c0.020-0.008 0.047-0.019 0.080-0.032 0.066-0.026 0.157-0.059 0.266-0.094 0.209-0.067 0.521-0.15 0.858-0.175 0.313-0.024 0.808-0.011 1.252 0.278 0.52 0.338 0.741 0.896 0.741 1.483 0 0.065-0.006 0.13-0.019 0.195l-3.974 20.034c-0.012 0.060-0.029 0.12-0.052 0.177l-0.001 0.002-0.001 0.002-0.002 0.005-0.005 0.011-0.013 0.029c-0.010 0.022-0.022 0.049-0.038 0.081-0.031 0.063-0.076 0.146-0.135 0.24-0.116 0.183-0.303 0.43-0.578 0.65-0.281 0.225-0.659 0.425-1.134 0.49s-0.983-0.015-1.506-0.243c-0.074-0.032-0.144-0.074-0.209-0.123l-4.353-3.337-3.774 2.354c-0.026 0.017-0.058 0.038-0.096 0.060-0.075 0.043-0.18 0.096-0.31 0.14-0.244 0.082-0.633 0.149-1.059-0.012-0.004-0.001-0.007-0.002-0.011-0.004-0.083-0.029-0.162-0.067-0.237-0.113-0.149-0.093-0.277-0.215-0.387-0.355-0.213-0.271-0.408-0.669-0.593-1.253-0.149-0.473-0.825-2.124-1.494-3.727-0.328-0.786-0.646-1.539-0.883-2.096-0.097-0.228-0.18-0.423-0.244-0.574-0.059-0.009-0.118-0.022-0.176-0.042zM26.568 6.491l-0.003 0.001c-0.011 0.005-0.022 0.009-0.033 0.014l-22.312 8.753c-0.012 0.005-0.023 0.009-0.035 0.013l-0.012 0.005c-0.014 0.006-0.038 0.015-0.068 0.029-0.017 0.008-0.035 0.016-0.053 0.025 0.025 0.014 0.049 0.026 0.070 0.036s0.036 0.016 0.045 0.020l4.19 1.411c0.077 0.026 0.148 0.060 0.214 0.101l13.849-8.107c0.010-0.006 0.023-0.014 0.039-0.023 0.031-0.018 0.075-0.041 0.126-0.068 0.096-0.049 0.25-0.121 0.423-0.175 0.12-0.037 0.476-0.142 0.86-0.019 0.237 0.076 0.482 0.24 0.642 0.516 0.079 0.138 0.122 0.276 0.142 0.402 0.054 0.199 0.046 0.396 0.003 0.566-0.092 0.366-0.349 0.651-0.583 0.87-0.2 0.187-2.794 2.688-5.353 5.157-1.276 1.231-2.539 2.45-3.483 3.362l-0.62 0.599 7.829 6.002c0.179 0.064 0.286 0.061 0.335 0.054 0.058-0.008 0.106-0.031 0.155-0.070 0.055-0.044 0.102-0.103 0.138-0.159l0.001-0.002 3.854-19.431c-0.057 0.014-0.115 0.030-0.171 0.048-0.063 0.020-0.115 0.039-0.15 0.053-0.017 0.007-0.029 0.012-0.036 0.014l-0.002 0.001zM15.286 23.016l-1.562-1.198-0.379 2.408 1.941-1.21zM12.291 19.442l1.553-1.5c0.944-0.911 2.207-2.131 3.484-3.362l1.297-1.251-8.693 5.089 0.047 0.11c0.237 0.559 0.556 1.315 0.887 2.105 0.247 0.591 0.505 1.212 0.74 1.788l0.377-2.401c0.036-0.232 0.149-0.432 0.309-0.579z"></path>
</symbol>
<symbol id="icon-visa" viewBox="0 0 40 32">
<path d="M26.052 12.248c-0.62-0.226-1.275-0.339-1.935-0.335-2.133 0-3.64 1.075-3.651 2.617-0.013 1.133 1.071 1.772 1.891 2.151 0.841 0.389 1.123 0.635 1.12 0.983-0.005 0.529-0.672 0.769-1.292 0.769-0.852 0-1.317-0.119-2.033-0.416l-0.265-0.124-0.303 1.776c0.519 0.216 1.453 0.401 2.419 0.417 2.268 0 3.751-1.068 3.768-2.709 0.019-0.905-0.568-1.589-1.803-2.155-0.751-0.367-1.216-0.612-1.216-0.984 0-0.329 0.399-0.681 1.232-0.681 0.555-0.013 1.106 0.091 1.617 0.305l0.2 0.089 0.303-1.716-0.052 0.012zM31.588 12.057h-1.667c-0.519 0-0.909 0.143-1.136 0.657l-3.205 7.261h2.268l0.453-1.191 2.768 0.003c0.065 0.279 0.265 1.188 0.265 1.188h2l-1.747-7.919zM17.399 11.991h2.161l-1.352 7.923h-2.159l1.349-7.925v0.003zM11.912 16.357l0.224 1.1 2.112-5.4h2.289l-3.401 7.908h-2.284l-1.867-6.696c-0.030-0.11-0.101-0.205-0.199-0.265-0.673-0.348-1.386-0.611-2.123-0.785l0.029-0.167h3.479c0.472 0.019 0.852 0.167 0.979 0.671l0.76 3.639 0.001-0.004zM28.921 17.165l0.861-2.216c-0.011 0.024 0.177-0.457 0.287-0.755l0.148 0.684 0.5 2.285-1.796 0.001z"></path>
</symbol>
<symbol id="icon-Logo" viewBox="0 0 64 32">
<path fill="#ee8d13" style="fill: var(--color13, #ee8d13)" d="M0.316 12.435c-1.006-3.336 0.82-6.944 4.079-8.059s6.717 0.686 7.724 4.022c1.006 3.336-0.82 6.944-4.079 8.059s-6.718-0.686-7.724-4.022z"></path>
<path fill="#faf4a7" style="fill: var(--color14, #faf4a7)" d="M0.603 12.279c-0.928-3.077 0.791-6.416 3.84-7.459s6.273 0.606 7.202 3.682c0.928 3.077-0.791 6.416-3.84 7.459s-6.273-0.606-7.201-3.682z"></path>
<path fill="#f9f5e1" style="fill: var(--color15, #f9f5e1)" d="M7.184 7.283c0 0 0.751-1.484 1.334-1.627s2.233 0.304 2.029 1.551c-0.148 0.757-1.464 1.312-1.464 1.312s1.564-0.984 1.791-0.592c0.228 0.392 1.034 1.308 0.502 1.991s-1.008 0.501-1.008 0.501 2.136 0.060 0.823 2.415c-0.989 1.773-2.259 0.143-2.259 0.143s1.038 0.961 0.661 1.528c-0.376 0.567-0.919 0.34-1.628-0.7 0 0 0.927 1.486-0.644 2.202-1.251 0.314-1.561-1.274-1.561-1.274s-0.263 1.435-1.297 1.192c-1.034-0.243-3.278-1.949-3.053-2.567s0.526-0.861 0.526-0.861-1.273 0.448-1.41-1.002c-0.104-1.102 1.253-1.323 1.253-1.323s-1.562-0.129-1.097-1.28c0.464-1.151 0.62-1.519 1.097-1.331s0.543 0.155 0.543 0.155c0 0-0.658-0.383-0.634-0.543s1.481-2.605 2.775-0.854c0.495 0.67 0.667 1.070 0.667 1.070s-0.774-1.531-0.711-1.93c0.064-0.398 2.64-1.227 3.235-0.581 0.332 0.36-0.040 1.148-0.472 2.404z"></path>
<path fill="#ef8a13" style="fill: var(--color16, #ef8a13)" d="M5.842 13.784c-0.085-1.188 0.011-2.501 0.282-2.613s0.97 1.204 1.401 2.138c0.552 1.197 0.968 2.293-0.25 2.568-1.277 0.289-1.337-0.764-1.433-2.093z"></path>
<path fill="#ef8a13" style="fill: var(--color16, #ef8a13)" d="M5.714 9.824c-0.253 0.334-3.37-2.164-3.564-2.588s0.068-0.719 1.116-1.467c1.048-0.748 2.803 3.638 2.449 4.055z"></path>
<path fill="#ef8a13" style="fill: var(--color16, #ef8a13)" d="M5.74 10.923c0.273 0.14 0.079 3.989-0.394 4.617-0.617 0.819-4.507-1.144-3.677-2.443 0.227-0.62 4.071-2.174 4.071-2.174z"></path>
<path fill="#ef8a13" style="fill: var(--color16, #ef8a13)" d="M6.242 9.834c-0.33-0.165-1.776-3.917-1.541-4.422s2.075-1.222 2.779-0.401c0.704 0.821-0.908 4.989-1.238 4.824z"></path>
<path fill="#ef8a13" style="fill: var(--color16, #ef8a13)" d="M5.551 10.628c0.061 0.346-3.774 2-4.235 1.861s-0.974-0.857-0.532-1.714c0.373-0.723 4.706-0.493 4.767-0.147z"></path>
<path fill="#ef8a13" style="fill: var(--color16, #ef8a13)" d="M5.52 10.322c-0.081 0.25-4.561-0.337-4.716-0.883-0.098-0.346 0.186-1.309 0.75-1.789s4.047 2.421 3.966 2.671z"></path>
<path fill="#f1ac0e" style="fill: var(--color17, #f1ac0e)" d="M2.141 9.292c0.461 0.162 0.685 0.264 0.683 0.271 0 0-0.324-0.062-0.713-0.179-0.385-0.116-0.691-0.246-0.683-0.271s0.335 0.047 0.713 0.179z"></path>
<path fill="#f1ac0e" style="fill: var(--color17, #f1ac0e)" d="M3.326 7.359c0.32 0.37 0.464 0.57 0.459 0.575 0 0-0.251-0.215-0.53-0.51-0.277-0.292-0.478-0.557-0.459-0.575s0.268 0.207 0.53 0.51z"></path>
<path fill="#f1ac0e" style="fill: var(--color17, #f1ac0e)" d="M4.136 6.639c0.193 0.379 0.271 0.579 0.265 0.582 0 0-0.172-0.231-0.349-0.536-0.175-0.303-0.288-0.57-0.264-0.583s0.19 0.226 0.349 0.536z"></path>
<path fill="#f1ac0e" style="fill: var(--color17, #f1ac0e)" d="M4.438 8.462c0.267 0.331 0.383 0.511 0.378 0.516 0 0-0.216-0.191-0.451-0.454-0.233-0.261-0.398-0.499-0.378-0.516s0.233 0.182 0.45 0.454z"></path>
<path fill="#f1ac0e" style="fill: var(--color17, #f1ac0e)" d="M3.728 9.71c0.404 0.131 0.6 0.217 0.598 0.224 0 0-0.285-0.041-0.625-0.132-0.338-0.090-0.606-0.198-0.598-0.224s0.294 0.025 0.625 0.132z"></path>
<path fill="#f1ac0e" style="fill: var(--color17, #f1ac0e)" d="M4.093 10.514c0.424 0.019 0.637 0.050 0.636 0.057 0 0-0.285 0.036-0.637 0.039-0.349 0.003-0.637-0.030-0.636-0.057s0.29-0.054 0.637-0.039z"></path>
<path fill="#f1ac0e" style="fill: var(--color17, #f1ac0e)" d="M2.569 8.454c0.343 0.251 0.503 0.394 0.498 0.4 0 0-0.258-0.128-0.553-0.321-0.293-0.191-0.513-0.378-0.498-0.4s0.272 0.116 0.553 0.321z"></path>
<path fill="#f1ac0e" style="fill: var(--color17, #f1ac0e)" d="M4.098 9.163c0.343 0.251 0.503 0.394 0.498 0.4 0 0-0.258-0.128-0.553-0.321-0.293-0.191-0.514-0.378-0.498-0.4s0.272 0.115 0.553 0.321z"></path>
<path fill="#f1ac0e" style="fill: var(--color17, #f1ac0e)" d="M4.504 7.783c0.237 0.353 0.338 0.543 0.332 0.547 0 0-0.198-0.209-0.41-0.49-0.21-0.28-0.354-0.531-0.332-0.547s0.216 0.202 0.41 0.491z"></path>
<path fill="#f1ac0e" style="fill: var(--color17, #f1ac0e)" d="M5.262 6.045c0.132 0.405 0.177 0.614 0.17 0.617 0 0-0.134-0.255-0.26-0.584-0.126-0.327-0.195-0.608-0.17-0.617s0.153 0.253 0.26 0.584z"></path>
<path fill="#f1ac0e" style="fill: var(--color17, #f1ac0e)" d="M4.565 12.999c0.279-0.405 0.437-0.596 0.443-0.592 0 0-0.147 0.298-0.363 0.644-0.214 0.343-0.421 0.606-0.443 0.592s0.135-0.313 0.363-0.644z"></path>
<path fill="#f1ac0e" style="fill: var(--color17, #f1ac0e)" d="M3.968 14.442c0.234-0.433 0.37-0.64 0.377-0.636 0 0-0.114 0.312-0.291 0.68-0.176 0.364-0.262 0.715-0.398 0.621-0.022-0.015 0.122-0.311 0.313-0.665z"></path>
<path fill="#f1ac0e" style="fill: var(--color17, #f1ac0e)" d="M5.127 14.328c0.127-0.476 0.212-0.708 0.219-0.706 0 0-0.038 0.33-0.126 0.729-0.087 0.395-0.090 0.756-0.244 0.697-0.025-0.009 0.047-0.33 0.151-0.719z"></path>
<path fill="#f1ac0e" style="fill: var(--color17, #f1ac0e)" d="M2.833 12.918c0.393-0.296 0.603-0.426 0.607-0.421 0 0-0.233 0.236-0.548 0.496-0.312 0.257-0.537 0.54-0.621 0.398-0.014-0.022 0.24-0.231 0.561-0.473z"></path>
<path fill="#f1ac0e" style="fill: var(--color17, #f1ac0e)" d="M2.972 13.649c0.354-0.341 0.547-0.496 0.552-0.491 0 0-0.203 0.263-0.484 0.558-0.278 0.293-0.467 0.6-0.569 0.47-0.016-0.021 0.21-0.259 0.501-0.538z"></path>
<path fill="#f1ac0e" style="fill: var(--color17, #f1ac0e)" d="M4.429 12.297c0.355-0.341 0.548-0.496 0.552-0.491 0 0-0.203 0.263-0.484 0.558-0.279 0.293-0.468 0.6-0.569 0.47-0.016-0.021 0.21-0.259 0.5-0.538z"></path>
<path fill="#f1ac0e" style="fill: var(--color17, #f1ac0e)" d="M2.265 10.486c0.489-0.046 0.737-0.047 0.737-0.040 0 0-0.322 0.079-0.726 0.135-0.4 0.056-0.739 0.178-0.737 0.013 0-0.027 0.326-0.072 0.726-0.109z"></path>
<path fill="#f1ac0e" style="fill: var(--color17, #f1ac0e)" d="M4.251 10.996c0.47-0.143 0.712-0.194 0.714-0.187 0 0-0.3 0.142-0.684 0.278-0.381 0.135-0.688 0.323-0.719 0.161-0.005-0.026 0.305-0.135 0.689-0.252z"></path>
<path fill="#f1ac0e" style="fill: var(--color17, #f1ac0e)" d="M2.127 11.893c0.476-0.124 0.72-0.165 0.721-0.158 0 0-0.305 0.13-0.695 0.25-0.386 0.119-0.701 0.295-0.725 0.132-0.004-0.026 0.31-0.122 0.699-0.224z"></path>
<path fill="#f1ac0e" style="fill: var(--color17, #f1ac0e)" d="M1.868 11.299c0.483-0.093 0.729-0.118 0.73-0.111 0 0-0.313 0.11-0.709 0.205-0.393 0.095-0.718 0.249-0.732 0.085-0.002-0.027 0.317-0.103 0.712-0.179z"></path>
<path fill="#ec6d18" style="fill: var(--color18, #ec6d18)" d="M2.662 9.66c0.472 0.126 0.704 0.211 0.702 0.218 0 0-0.328-0.038-0.724-0.124-0.393-0.086-0.708-0.192-0.702-0.218s0.338 0.021 0.724 0.124z"></path>
<path fill="#ec6d18" style="fill: var(--color18, #ec6d18)" d="M3.102 7.576c0.336 0.357 0.488 0.55 0.483 0.555 0 0-0.26-0.205-0.551-0.487-0.289-0.28-0.502-0.536-0.483-0.555s0.276 0.196 0.551 0.487z"></path>
<path fill="#ec6d18" style="fill: var(--color18, #ec6d18)" d="M3.695 6.637c0.209 0.37 0.295 0.567 0.289 0.571 0 0-0.182-0.223-0.371-0.521-0.188-0.295-0.312-0.557-0.289-0.57s0.2 0.218 0.371 0.521z"></path>
<path fill="#ec6d18" style="fill: var(--color18, #ec6d18)" d="M4.606 8.942c0.321 0.278 0.469 0.434 0.464 0.44 0 0-0.246-0.149-0.524-0.365-0.276-0.215-0.481-0.419-0.464-0.44s0.261 0.138 0.524 0.365z"></path>
<path fill="#ec6d18" style="fill: var(--color18, #ec6d18)" d="M4.43 10.010c0.415 0.090 0.619 0.156 0.618 0.163 0 0-0.287-0.012-0.635-0.068-0.345-0.056-0.622-0.137-0.618-0.163s0.295-0.005 0.635 0.068z"></path>
<path fill="#ec6d18" style="fill: var(--color18, #ec6d18)" d="M3.951 10.799c0.418-0.074 0.632-0.090 0.633-0.082 0 0-0.27 0.097-0.614 0.177-0.34 0.079-0.628 0.109-0.633 0.082s0.272-0.116 0.614-0.177z"></path>
<path fill="#ec6d18" style="fill: var(--color18, #ec6d18)" d="M2.349 8.805c0.353 0.236 0.519 0.373 0.515 0.379 0 0-0.263-0.117-0.566-0.297-0.301-0.178-0.529-0.356-0.515-0.378s0.276 0.104 0.566 0.297z"></path>
<path fill="#ec6d18" style="fill: var(--color18, #ec6d18)" d="M3.906 9.448c0.354 0.236 0.519 0.372 0.515 0.378 0 0-0.263-0.117-0.566-0.297-0.301-0.178-0.529-0.356-0.515-0.379s0.276 0.104 0.566 0.297z"></path>
<path fill="#ec6d18" style="fill: var(--color18, #ec6d18)" d="M5.725 7.355c0.071 0.42 0.086 0.634 0.078 0.635 0 0-0.095-0.272-0.172-0.616-0.077-0.341-0.104-0.63-0.078-0.635s0.114 0.273 0.172 0.616z"></path>
<path fill="#ec6d18" style="fill: var(--color18, #ec6d18)" d="M5.299 12.127c0.186-0.455 0.3-0.676 0.307-0.673 0 0-0.080 0.323-0.217 0.707-0.136 0.381-0.282 0.683-0.307 0.673s0.065-0.335 0.217-0.707z"></path>
<path fill="#ec6d18" style="fill: var(--color18, #ec6d18)" d="M4.805 13.902c0.107-0.481 0.182-0.717 0.189-0.715 0 0-0.024 0.332-0.095 0.734-0.070 0.399-0.058 0.759-0.214 0.707-0.025-0.008 0.032-0.332 0.12-0.725z"></path>
<path fill="#ec6d18" style="fill: var(--color18, #ec6d18)" d="M3.429 13.873c0.34-0.356 0.526-0.519 0.531-0.514 0 0-0.192 0.271-0.46 0.578-0.266 0.305-0.442 0.62-0.548 0.494-0.017-0.020 0.2-0.267 0.477-0.558z"></path>
<path fill="#ec6d18" style="fill: var(--color18, #ec6d18)" d="M4.407 11.882c0.427-0.245 0.651-0.348 0.655-0.342 0 0-0.261 0.206-0.605 0.424-0.341 0.217-0.599 0.469-0.666 0.318-0.011-0.024 0.267-0.2 0.616-0.4z"></path>
<path fill="#ec6d18" style="fill: var(--color18, #ec6d18)" d="M2.132 10.848c0.487-0.067 0.734-0.078 0.735-0.071 0 0-0.319 0.092-0.72 0.166-0.397 0.073-0.731 0.21-0.736 0.045-0.001-0.027 0.322-0.085 0.72-0.139z"></path>
<path fill="#ec6d18" style="fill: var(--color18, #ec6d18)" d="M3.51 11.557c0.464-0.163 0.703-0.224 0.706-0.217 0 0-0.294 0.155-0.672 0.307-0.375 0.151-0.674 0.352-0.712 0.191-0.006-0.026 0.299-0.148 0.678-0.281z"></path>
<path fill="#ec6d18" style="fill: var(--color18, #ec6d18)" d="M1.77 11.678c0.478-0.113 0.723-0.149 0.725-0.142 0 0-0.308 0.123-0.7 0.235-0.388 0.111-0.707 0.28-0.728 0.116-0.003-0.026 0.312-0.116 0.703-0.209z"></path>
<path fill="#faf4a7" style="fill: var(--color14, #faf4a7)" d="M6.208 9.879c0.315 0 0.571 0.27 0.571 0.604s-0.255 0.604-0.571 0.604c-0.315 0-0.57-0.27-0.57-0.604s0.255-0.604 0.57-0.604z"></path>
<path fill="#f5f5e9" style="fill: var(--color19, #f5f5e9)" d="M5.931 10.081c0.065 0 0.119 0.135 0.119 0.301s-0.053 0.301-0.119 0.301c-0.066 0-0.119-0.135-0.119-0.301s0.053-0.301 0.119-0.301z"></path>
<path fill="#ee8d13" style="fill: var(--color13, #ee8d13)" d="M0.335 12.597c-1.026-3.397 0.836-7.072 4.157-8.207s6.845 0.698 7.871 4.096c1.025 3.397-0.836 7.072-4.157 8.207s-6.845-0.698-7.871-4.096z"></path>
<path fill="#faf4a7" style="fill: var(--color14, #faf4a7)" d="M0.628 12.438c-0.946-3.133 0.806-6.534 3.913-7.596s6.393 0.617 7.339 3.75c0.946 3.133-0.806 6.534-3.914 7.596s-6.393-0.617-7.338-3.75z"></path>
<path fill="#f9f5e1" style="fill: var(--color15, #f9f5e1)" d="M7.334 7.35c0 0 0.766-1.511 1.359-1.657s2.275 0.309 2.068 1.58c-0.151 0.771-1.492 1.336-1.492 1.336s1.594-1.002 1.826-0.603c0.232 0.399 1.053 1.332 0.512 2.027s-1.027 0.51-1.027 0.51 2.177 0.061 0.839 2.459c-1.007 1.806-2.302 0.146-2.302 0.146s1.058 0.978 0.674 1.556c-0.384 0.577-0.937 0.346-1.659-0.712 0 0 0.945 1.513-0.656 2.243-1.276 0.32-1.591-1.298-1.591-1.298s-0.267 1.462-1.321 1.214c-1.054-0.247-3.34-1.985-3.111-2.614s0.537-0.877 0.537-0.877-1.297 0.456-1.437-1.020c-0.106-1.122 1.277-1.347 1.277-1.347s-1.592-0.132-1.118-1.303c0.473-1.171 0.631-1.547 1.118-1.355s0.553 0.158 0.553 0.158-0.671-0.39-0.646-0.553c0.025-0.163 1.509-2.653 2.827-0.87 0.504 0.683 0.68 1.090 0.68 1.090s-0.789-1.559-0.724-1.965c0.065-0.406 2.691-1.249 3.297-0.592 0.338 0.367-0.041 1.17-0.481 2.448z"></path>
<path fill="#ef8a13" style="fill: var(--color16, #ef8a13)" d="M9.054 8.939c-0.936 0.684-2.205 1.147-2.244 1.108-0.043-0.043 0.506-2.11 0.982-2.837 0.724-1.107 1.474-1.992 2.534-0.844 0.805 0.872-0.224 1.808-1.271 2.574z"></path>
<path fill="#ef8a13" style="fill: var(--color16, #ef8a13)" d="M5.836 9.938c-0.257 0.34-3.434-2.204-3.632-2.635s0.069-0.732 1.137-1.494c1.068-0.762 2.857 3.705 2.495 4.13z"></path>
<path fill="#ef8a13" style="fill: var(--color16, #ef8a13)" d="M6.374 9.948c-0.336-0.168-1.81-3.989-1.571-4.504s2.115-1.245 2.832-0.409c0.717 0.836-0.926 5.080-1.262 4.912z"></path>
<path fill="#ef8a13" style="fill: var(--color16, #ef8a13)" d="M5.638 10.445c-0.082 0.255-4.647-0.344-4.806-0.899-0.1-0.352 0.189-1.333 0.764-1.821s4.124 2.466 4.042 2.721z"></path>
<path fill="#ef8a13" style="fill: var(--color16, #ef8a13)" d="M7.050 10.452c-0.145-0.318 3.39-2.174 3.841-2.187s1.245 1.082 0.793 1.77c-0.452 0.688-4.49 0.736-4.635 0.417z"></path>
<path fill="#f1ac0e" style="fill: var(--color17, #f1ac0e)" d="M2.195 9.396c0.47 0.165 0.699 0.269 0.696 0.276 0 0-0.33-0.064-0.726-0.183-0.392-0.118-0.704-0.25-0.696-0.276s0.342 0.048 0.726 0.183z"></path>
<path fill="#f1ac0e" style="fill: var(--color17, #f1ac0e)" d="M3.402 7.427c0.326 0.377 0.473 0.581 0.468 0.586 0 0-0.255-0.219-0.54-0.52-0.282-0.297-0.488-0.567-0.468-0.586s0.273 0.211 0.54 0.52z"></path>
<path fill="#f1ac0e" style="fill: var(--color17, #f1ac0e)" d="M4.227 6.694c0.197 0.386 0.276 0.589 0.27 0.593 0 0-0.176-0.235-0.355-0.546-0.178-0.309-0.293-0.58-0.27-0.593s0.194 0.23 0.355 0.546z"></path>
<path fill="#f1ac0e" style="fill: var(--color17, #f1ac0e)" d="M4.536 8.551c0.272 0.338 0.39 0.521 0.385 0.526 0 0-0.22-0.194-0.459-0.462-0.237-0.266-0.405-0.508-0.385-0.526s0.237 0.186 0.459 0.462z"></path>
<path fill="#f1ac0e" style="fill: var(--color17, #f1ac0e)" d="M3.811 9.822c0.412 0.133 0.612 0.221 0.61 0.228 0 0-0.29-0.042-0.637-0.134-0.344-0.092-0.617-0.202-0.61-0.228s0.3 0.025 0.637 0.134z"></path>
<path fill="#f1ac0e" style="fill: var(--color17, #f1ac0e)" d="M2.631 8.542c0.35 0.255 0.512 0.401 0.508 0.407 0 0-0.263-0.13-0.563-0.327-0.298-0.195-0.523-0.385-0.508-0.407s0.277 0.118 0.563 0.327z"></path>
<path fill="#f1ac0e" style="fill: var(--color17, #f1ac0e)" d="M4.188 9.265c0.35 0.255 0.512 0.401 0.508 0.407 0 0-0.262-0.13-0.563-0.327-0.298-0.195-0.523-0.385-0.508-0.407s0.277 0.118 0.563 0.327z"></path>
<path fill="#f1ac0e" style="fill: var(--color17, #f1ac0e)" d="M4.603 7.86c0.241 0.36 0.344 0.552 0.338 0.557 0 0-0.202-0.212-0.418-0.5-0.214-0.285-0.36-0.541-0.338-0.557s0.22 0.206 0.418 0.5z"></path>
<path fill="#f1ac0e" style="fill: var(--color17, #f1ac0e)" d="M5.376 6.090c0.134 0.412 0.18 0.626 0.173 0.628 0 0-0.136-0.26-0.266-0.595-0.128-0.332-0.199-0.619-0.173-0.628s0.156 0.258 0.266 0.595z"></path>
<path fill="#f1ac0e" style="fill: var(--color17, #f1ac0e)" d="M7.29 6.050c-0.052 0.499-0.1 0.746-0.107 0.746 0 0-0.015-0.338 0.009-0.754 0.024-0.412 0.080-0.748 0.107-0.746s0.033 0.345-0.010 0.753z"></path>
<path fill="#f1ac0e" style="fill: var(--color17, #f1ac0e)" d="M6.536 7.047c-0.052 0.499-0.1 0.746-0.107 0.746 0 0-0.015-0.338 0.010-0.753 0.024-0.412 0.080-0.748 0.107-0.746s0.033 0.346-0.010 0.754z"></path>
<path fill="#f1ac0e" style="fill: var(--color17, #f1ac0e)" d="M8.74 6.797c-0.26 0.347-0.407 0.507-0.414 0.503 0 0 0.134-0.261 0.334-0.559 0.198-0.296 0.391-0.519 0.414-0.503s-0.121 0.276-0.334 0.56z"></path>
<path fill="#f1ac0e" style="fill: var(--color17, #f1ac0e)" d="M9.618 6.93c-0.26 0.347-0.407 0.507-0.414 0.503 0 0 0.134-0.261 0.334-0.559 0.198-0.296 0.391-0.519 0.414-0.503s-0.121 0.276-0.334 0.56z"></path>
<path fill="#f1ac0e" style="fill: var(--color17, #f1ac0e)" d="M9.399 8.411c-0.388 0.317-0.597 0.458-0.601 0.453 0 0 0.228-0.25 0.538-0.527 0.307-0.275 0.584-0.473 0.601-0.453s-0.22 0.268-0.538 0.527z"></path>
<path fill="#f1ac0e" style="fill: var(--color17, #f1ac0e)" d="M10.242 8.721c-0.464 0.188-0.705 0.261-0.708 0.255 0 0 0.292-0.171 0.669-0.344 0.374-0.172 0.697-0.279 0.708-0.255s-0.29 0.191-0.669 0.344z"></path>
<path fill="#f1ac0e" style="fill: var(--color17, #f1ac0e)" d="M10.768 10.12c-0.497 0.065-0.748 0.076-0.749 0.069 0 0 0.325-0.093 0.734-0.166 0.406-0.072 0.745-0.096 0.749-0.069s-0.328 0.112-0.734 0.166z"></path>
<path fill="#f1ac0e" style="fill: var(--color17, #f1ac0e)" d="M8.948 10.084c-0.497 0.065-0.748 0.076-0.749 0.069 0 0 0.325-0.093 0.734-0.166 0.405-0.072 0.745-0.096 0.749-0.069s-0.328 0.112-0.734 0.166z"></path>
<path fill="#f1ac0e" style="fill: var(--color17, #f1ac0e)" d="M10.71 9.129c-0.483 0.13-0.732 0.175-0.734 0.167 0 0 0.31-0.135 0.706-0.261 0.392-0.125 0.726-0.193 0.734-0.167s-0.31 0.155-0.706 0.261z"></path>
<path fill="#f1ac0e" style="fill: var(--color17, #f1ac0e)" d="M8.165 8.582c-0.364 0.344-0.561 0.501-0.566 0.496 0 0 0.209-0.266 0.498-0.565 0.286-0.297 0.547-0.515 0.567-0.496s-0.2 0.283-0.498 0.565z"></path>
<path fill="#ec6d18" style="fill: var(--color18, #ec6d18)" d="M2.726 9.771c0.481 0.129 0.717 0.215 0.715 0.222 0 0-0.334-0.038-0.738-0.126-0.4-0.087-0.722-0.195-0.715-0.222s0.344 0.021 0.738 0.127z"></path>
<path fill="#ec6d18" style="fill: var(--color18, #ec6d18)" d="M3.174 7.648c0.342 0.363 0.497 0.56 0.492 0.565 0 0-0.264-0.208-0.562-0.496-0.295-0.285-0.511-0.546-0.492-0.565s0.282 0.199 0.561 0.496z"></path>
<path fill="#ec6d18" style="fill: var(--color18, #ec6d18)" d="M3.778 6.693c0.213 0.377 0.301 0.577 0.295 0.581 0 0-0.185-0.227-0.378-0.531-0.192-0.3-0.318-0.567-0.295-0.581s0.204 0.222 0.378 0.53z"></path>
<path fill="#ec6d18" style="fill: var(--color18, #ec6d18)" d="M4.707 9.040c0.327 0.283 0.477 0.442 0.473 0.448 0 0-0.251-0.152-0.534-0.372-0.281-0.218-0.49-0.427-0.473-0.448s0.267 0.14 0.535 0.372z"></path>
<path fill="#ec6d18" style="fill: var(--color18, #ec6d18)" d="M4.527 10.127c0.423 0.091 0.631 0.159 0.629 0.166 0 0-0.293-0.012-0.647-0.070-0.351-0.057-0.634-0.139-0.629-0.166s0.301-0.005 0.647 0.070z"></path>
<path fill="#ec6d18" style="fill: var(--color18, #ec6d18)" d="M2.407 8.9c0.36 0.24 0.529 0.379 0.525 0.386 0 0-0.268-0.119-0.577-0.303-0.306-0.182-0.539-0.363-0.525-0.385s0.282 0.106 0.577 0.302z"></path>
<path fill="#ec6d18" style="fill: var(--color18, #ec6d18)" d="M3.993 9.555c0.36 0.24 0.529 0.379 0.525 0.385 0 0-0.268-0.119-0.577-0.302-0.306-0.182-0.539-0.363-0.524-0.386s0.282 0.106 0.576 0.303z"></path>
<path fill="#ec6d18" style="fill: var(--color18, #ec6d18)" d="M5.847 7.424c0.072 0.427 0.087 0.645 0.080 0.647 0 0-0.097-0.277-0.175-0.628-0.078-0.347-0.106-0.641-0.080-0.647s0.116 0.278 0.175 0.628z"></path>
<path fill="#ec6d18" style="fill: var(--color18, #ec6d18)" d="M6.764 5.656c-0.030 0.5-0.068 0.75-0.075 0.749 0 0-0.029-0.337-0.022-0.753 0.006-0.412 0.048-0.751 0.075-0.75s0.047 0.344 0.022 0.753z"></path>
<path fill="#ec6d18" style="fill: var(--color18, #ec6d18)" d="M6.851 7.8c-0.089 0.493-0.156 0.737-0.163 0.735 0 0 0.011-0.338 0.066-0.751 0.055-0.409 0.136-0.74 0.163-0.735s0.007 0.347-0.067 0.751z"></path>
<path fill="#ec6d18" style="fill: var(--color18, #ec6d18)" d="M9.008 6.979c-0.244 0.358-0.386 0.524-0.392 0.52 0 0 0.123-0.266 0.31-0.573 0.185-0.304 0.369-0.535 0.392-0.52s-0.11 0.281-0.31 0.573z"></path>
<path fill="#ec6d18" style="fill: var(--color18, #ec6d18)" d="M9.109 8.301c-0.374 0.333-0.577 0.483-0.581 0.478 0 0 0.217-0.259 0.515-0.549 0.295-0.287 0.563-0.498 0.582-0.478s-0.209 0.277-0.515 0.549z"></path>
<path fill="#ec6d18" style="fill: var(--color18, #ec6d18)" d="M8.974 10.304c-0.498 0.048-0.751 0.050-0.751 0.042 0 0 0.328-0.081 0.739-0.139 0.407-0.058 0.748-0.069 0.751-0.042s-0.332 0.1-0.739 0.139z"></path>
<path fill="#ec6d18" style="fill: var(--color18, #ec6d18)" d="M8.614 9.867c-0.404 0.103-0.612 0.133-0.614 0.126 0 0 0.257-0.116 0.587-0.22 0.327-0.103 0.606-0.152 0.614-0.126s-0.257 0.136-0.587 0.22z"></path>
<path fill="#ec6d18" style="fill: var(--color18, #ec6d18)" d="M10.576 9.56c-0.492 0.091-0.743 0.115-0.745 0.108 0 0 0.32-0.109 0.725-0.203 0.401-0.093 0.739-0.134 0.745-0.107s-0.322 0.129-0.725 0.203z"></path>
<path fill="#ec6d18" style="fill: var(--color18, #ec6d18)" d="M7.64 8.729c-0.188 0.332-0.302 0.488-0.309 0.484 0 0 0.083-0.246 0.222-0.53 0.138-0.282 0.285-0.497 0.309-0.484s-0.068 0.258-0.222 0.53z"></path>
<path fill="#faf4a7" style="fill: var(--color14, #faf4a7)" d="M6.339 9.993c0.321 0 0.581 0.275 0.581 0.615s-0.26 0.615-0.581 0.615c-0.321 0-0.581-0.275-0.581-0.615s0.26-0.615 0.581-0.615z"></path>
<path fill="#f5f5e9" style="fill: var(--color19, #f5f5e9)" d="M6.057 10.199c0.067 0 0.121 0.137 0.121 0.306s-0.054 0.306-0.121 0.306c-0.067 0-0.121-0.137-0.121-0.306s0.054-0.306 0.121-0.306z"></path>
<path fill="#fff" style="fill: var(--color9, #fff)" d="M6.344 4.637v11.913c0 0-6.050 0.113-5.963-5.95 0.088-5.962 5.963-5.962 5.963-5.962z"></path>
<path fill="#ffd922" style="fill: var(--color20, #ffd922)" d="M6.344 9.647v-4.309c-1.29 0.038-2.468 0.363-3.357 1.177l3.069 3.232c0.088-0.050 0.188-0.088 0.288-0.1z"></path>
<path fill="#ffd922" style="fill: var(--color20, #ffd922)" d="M5.768 9.898l-3.169-3.019c-0.902 0.915-1.29 1.979-1.315 3.357l4.259 0.15c0.025-0.188 0.113-0.351 0.226-0.489z"></path>
<path fill="#ffd922" style="fill: var(--color20, #ffd922)" d="M5.542 10.724l-4.259 0.15c0.038 1.378 0.426 2.443 1.328 3.357l3.182-3.031c-0.138-0.125-0.226-0.301-0.25-0.476z"></path>
<path fill="#ffd922" style="fill: var(--color20, #ffd922)" d="M6.068 11.364l-3.082 3.232c0.889 0.814 2.067 1.14 3.357 1.177v-4.334c-0.1-0.013-0.188-0.038-0.276-0.075z"></path>
<path fill="#ffd922" style="fill: var(--color20, #ffd922)" d="M6.344 16.549v-0.463c0 0-5.449 0.226-5.449-5.487s5.449-5.587 5.449-5.587v-0.376c0 0-5.963-0.551-5.963 5.95s5.963 5.962 5.963 5.962z"></path>
<path fill="#ffa023" style="fill: var(--color21, #ffa023)" d="M2.497 9.366c0.005 0.014 0.002 0.030-0.009 0.048s-0.027 0.036-0.051 0.055c-0.024 0.019-0.052 0.036-0.085 0.053s-0.069 0.031-0.107 0.044c-0.038 0.012-0.075 0.021-0.112 0.027s-0.070 0.008-0.101 0.007c-0.030-0.001-0.054-0.006-0.073-0.015s-0.030-0.020-0.035-0.034c-0.005-0.014-0.002-0.030 0.008-0.048s0.027-0.036 0.051-0.055c0.024-0.019 0.052-0.036 0.086-0.053s0.069-0.031 0.107-0.044c0.038-0.012 0.075-0.021 0.112-0.027s0.070-0.008 0.1-0.007 0.055 0.006 0.073 0.015c0.019 0.009 0.030 0.020 0.035 0.034z"></path>
<path fill="#ffa023" style="fill: var(--color21, #ffa023)" d="M3.762 8.891c0.029 0.027 0.056 0.055 0.079 0.084s0.042 0.057 0.055 0.084c0.014 0.027 0.021 0.050 0.024 0.071s-0.002 0.036-0.012 0.047c-0.010 0.011-0.025 0.016-0.046 0.016s-0.045-0.006-0.073-0.017-0.057-0.027-0.088-0.048c-0.031-0.021-0.061-0.045-0.091-0.072s-0.056-0.055-0.079-0.084c-0.023-0.029-0.042-0.057-0.055-0.084s-0.021-0.050-0.023-0.071c-0.002-0.021 0.002-0.036 0.012-0.047s0.025-0.017 0.046-0.016c0.021 0 0.045 0.006 0.073 0.017s0.058 0.027 0.088 0.048c0.031 0.021 0.061 0.044 0.091 0.071z"></path>
<path fill="#ffa023" style="fill: var(--color21, #ffa023)" d="M2.985 12.701c0.005 0.014 0.002 0.030-0.009 0.048s-0.027 0.036-0.051 0.055c-0.024 0.019-0.052 0.036-0.086 0.053s-0.069 0.031-0.107 0.044c-0.038 0.012-0.075 0.021-0.112 0.027s-0.070 0.008-0.1 0.007c-0.030-0.001-0.055-0.006-0.073-0.015s-0.030-0.020-0.035-0.034c-0.005-0.014-0.002-0.030 0.009-0.048s0.027-0.036 0.051-0.055c0.024-0.019 0.052-0.036 0.085-0.053s0.069-0.032 0.107-0.044c0.038-0.012 0.075-0.021 0.112-0.027s0.070-0.008 0.101-0.007c0.030 0.001 0.054 0.006 0.073 0.015s0.030 0.020 0.035 0.034z"></path>
<path fill="#ffa023" style="fill: var(--color21, #ffa023)" d="M4.485 6.463c0.010 0.038 0.018 0.076 0.022 0.113s0.004 0.070 0.002 0.1c-0.003 0.030-0.009 0.054-0.018 0.073s-0.021 0.029-0.036 0.033-0.030 0-0.048-0.011c-0.017-0.011-0.035-0.029-0.052-0.053s-0.034-0.054-0.049-0.088c-0.015-0.034-0.028-0.070-0.038-0.109s-0.018-0.076-0.022-0.113c-0.004-0.037-0.005-0.070-0.002-0.101s0.009-0.054 0.018-0.072c0.010-0.018 0.021-0.029 0.036-0.033s0.030-0 0.048 0.011c0.017 0.011 0.035 0.029 0.052 0.053s0.034 0.054 0.049 0.088c0.015 0.034 0.028 0.070 0.038 0.109z"></path>
<path fill="#ffa023" style="fill: var(--color21, #ffa023)" d="M4.54 14.278c0.005 0.014 0.002 0.030-0.008 0.048s-0.027 0.036-0.051 0.055-0.052 0.036-0.085 0.053c-0.033 0.017-0.069 0.032-0.107 0.044s-0.075 0.021-0.112 0.027c-0.037 0.006-0.070 0.008-0.1 0.007s-0.055-0.006-0.073-0.015c-0.019-0.008-0.030-0.020-0.035-0.034s-0.002-0.030 0.009-0.048c0.010-0.018 0.027-0.036 0.051-0.055s0.052-0.036 0.085-0.053c0.033-0.017 0.069-0.031 0.107-0.044s0.075-0.021 0.112-0.027c0.037-0.006 0.070-0.008 0.1-0.007s0.055 0.006 0.073 0.015c0.019 0.008 0.030 0.020 0.035 0.034z"></path>
<path fill="#ffa023" style="fill: var(--color21, #ffa023)" d="M5.879 8.093c0.005 0.039 0.008 0.078 0.007 0.115s-0.004 0.070-0.011 0.1c-0.007 0.030-0.016 0.053-0.028 0.070s-0.025 0.027-0.040 0.029c-0.015 0.002-0.030-0.004-0.046-0.017s-0.031-0.033-0.045-0.060c-0.014-0.026-0.027-0.058-0.037-0.093s-0.019-0.073-0.024-0.113c-0.005-0.040-0.008-0.078-0.007-0.115s0.004-0.070 0.011-0.1c0.007-0.029 0.016-0.053 0.028-0.070s0.025-0.026 0.040-0.028c0.015-0.002 0.030 0.004 0.046 0.017s0.031 0.033 0.045 0.060c0.014 0.027 0.027 0.058 0.037 0.093s0.019 0.073 0.024 0.113z"></path>
<path fill="#ffa023" style="fill: var(--color21, #ffa023)" d="M4.665 11.134c0.004 0.014 0.002 0.030-0.008 0.048s-0.027 0.036-0.051 0.055-0.052 0.036-0.085 0.053c-0.033 0.017-0.069 0.031-0.107 0.044s-0.075 0.021-0.112 0.027c-0.037 0.006-0.070 0.008-0.1 0.007s-0.055-0.006-0.073-0.015c-0.019-0.008-0.030-0.020-0.035-0.034s-0.002-0.030 0.009-0.048c0.010-0.018 0.027-0.036 0.051-0.055s0.052-0.037 0.085-0.053c0.033-0.017 0.069-0.031 0.107-0.044s0.075-0.021 0.112-0.027c0.037-0.006 0.070-0.008 0.1-0.007s0.055 0.006 0.073 0.015c0.019 0.008 0.030 0.020 0.035 0.034z"></path>
<path fill="#ffa023" style="fill: var(--color21, #ffa023)" d="M5.713 13.29c0.010 0.039 0.016 0.077 0.019 0.114s0.003 0.070-0 0.1c-0.004 0.030-0.010 0.054-0.020 0.072s-0.022 0.029-0.036 0.033-0.030-0-0.047-0.012c-0.017-0.012-0.034-0.030-0.051-0.055s-0.033-0.054-0.047-0.089c-0.015-0.034-0.027-0.071-0.036-0.11s-0.016-0.076-0.019-0.114c-0.003-0.037-0.003-0.071 0-0.101s0.010-0.054 0.020-0.072c0.010-0.018 0.022-0.029 0.036-0.033s0.030 0.001 0.047 0.012c0.017 0.012 0.034 0.030 0.051 0.054s0.033 0.055 0.047 0.089c0.014 0.035 0.026 0.071 0.036 0.11z"></path>
<path fill="#fff" style="fill: var(--color9, #fff)" d="M12.435 10.511h-12.007c0 0-0.114-6.103 5.997-6.014 6.010 0.088 6.010 6.014 6.010 6.014z"></path>
<path fill="#ffd922" style="fill: var(--color20, #ffd922)" d="M7.385 10.511h4.343c-0.038-1.302-0.366-2.489-1.187-3.386l-3.257 3.096c0.050 0.089 0.088 0.19 0.101 0.291z"></path>
<path fill="#ffd922" style="fill: var(--color20, #ffd922)" d="M7.132 9.93l3.043-3.197c-0.922-0.91-1.995-1.301-3.384-1.327l-0.152 4.296c0.189 0.025 0.353 0.114 0.492 0.227z"></path>
<path fill="#ffd922" style="fill: var(--color20, #ffd922)" d="M6.299 9.702l-0.152-4.296c-1.389 0.038-2.462 0.429-3.383 1.339l3.055 3.209c0.126-0.139 0.303-0.227 0.48-0.253z"></path>
<path fill="#ffd922" style="fill: var(--color20, #ffd922)" d="M5.655 10.233l-3.257-3.108c-0.82 0.897-1.149 2.085-1.187 3.386h4.368c0.013-0.101 0.038-0.19 0.076-0.278z"></path>
<path fill="#ffd922" style="fill: var(--color20, #ffd922)" d="M0.429 10.511h0.467c0 0-0.227-5.497 5.53-5.497s5.631 5.497 5.631 5.497h0.379c0 0 0.555-6.014-5.997-6.014s-6.010 6.014-6.010 6.014z"></path>
<path fill="#ffa023" style="fill: var(--color21, #ffa023)" d="M7.669 6.631c-0.015 0.005-0.031 0.002-0.048-0.008s-0.036-0.027-0.055-0.051-0.037-0.052-0.054-0.086c-0.017-0.033-0.031-0.070-0.044-0.108s-0.022-0.076-0.027-0.113c-0.006-0.037-0.008-0.071-0.007-0.101s0.006-0.055 0.015-0.074 0.020-0.031 0.034-0.035c0.015-0.005 0.031-0.002 0.049 0.009s0.036 0.027 0.055 0.051c0.019 0.024 0.037 0.053 0.054 0.086s0.032 0.070 0.044 0.108c0.012 0.038 0.022 0.076 0.027 0.113s0.008 0.071 0.007 0.101c-0.001 0.030-0.006 0.055-0.015 0.074s-0.020 0.031-0.034 0.035z"></path>
<path fill="#ffa023" style="fill: var(--color21, #ffa023)" d="M8.147 7.906c-0.027 0.030-0.055 0.056-0.085 0.080s-0.058 0.042-0.085 0.056c-0.027 0.014-0.051 0.022-0.072 0.024s-0.036-0.002-0.048-0.012c-0.011-0.010-0.016-0.026-0.016-0.047s0.006-0.045 0.017-0.073c0.011-0.028 0.027-0.058 0.048-0.089s0.045-0.062 0.072-0.092c0.027-0.030 0.055-0.056 0.085-0.080s0.058-0.042 0.084-0.056c0.027-0.014 0.051-0.022 0.072-0.024s0.037 0.002 0.048 0.012c0.011 0.010 0.017 0.026 0.016 0.047s-0.006 0.045-0.017 0.073c-0.012 0.028-0.027 0.058-0.048 0.089s-0.045 0.062-0.072 0.092z"></path>
<path fill="#ffa023" style="fill: var(--color21, #ffa023)" d="M4.308 7.123c-0.014 0.005-0.030 0.002-0.049-0.008s-0.036-0.027-0.055-0.051c-0.019-0.024-0.037-0.052-0.054-0.086s-0.031-0.069-0.044-0.108c-0.012-0.038-0.021-0.076-0.027-0.113s-0.008-0.071-0.007-0.101c0.002-0.030 0.007-0.055 0.015-0.074s0.020-0.031 0.034-0.035c0.014-0.005 0.030-0.002 0.049 0.009s0.036 0.027 0.055 0.051c0.019 0.024 0.037 0.052 0.054 0.086s0.032 0.069 0.044 0.108c0.012 0.038 0.021 0.076 0.027 0.113s0.008 0.071 0.007 0.101c-0.002 0.030-0.007 0.055-0.015 0.074s-0.020 0.031-0.034 0.035z"></path>
<path fill="#ffa023" style="fill: var(--color21, #ffa023)" d="M10.595 8.636c-0.039 0.010-0.077 0.018-0.114 0.022s-0.071 0.004-0.101 0.002c-0.030-0.003-0.055-0.009-0.073-0.019s-0.030-0.022-0.033-0.036-0-0.030 0.011-0.048c0.011-0.018 0.029-0.035 0.054-0.053s0.054-0.034 0.089-0.049c0.034-0.015 0.071-0.028 0.11-0.038s0.077-0.018 0.114-0.022c0.038-0.004 0.071-0.005 0.101-0.002s0.055 0.009 0.073 0.019c0.018 0.009 0.030 0.021 0.033 0.036s0 0.031-0.011 0.048c-0.011 0.018-0.029 0.035-0.054 0.053s-0.054 0.034-0.089 0.049c-0.035 0.015-0.071 0.028-0.11 0.039z"></path>
<path fill="#ffa023" style="fill: var(--color21, #ffa023)" d="M2.718 8.691c-0.014 0.005-0.030 0.002-0.049-0.008s-0.036-0.027-0.055-0.051c-0.019-0.024-0.037-0.052-0.054-0.086s-0.031-0.070-0.044-0.108c-0.012-0.038-0.021-0.076-0.027-0.113s-0.008-0.071-0.007-0.101c0.002-0.030 0.007-0.055 0.015-0.074s0.020-0.031 0.034-0.035c0.014-0.005 0.030-0.002 0.049 0.008s0.036 0.028 0.055 0.051c0.019 0.024 0.037 0.053 0.054 0.086s0.031 0.070 0.044 0.108c0.012 0.038 0.021 0.076 0.027 0.113s0.008 0.071 0.007 0.101c-0.002 0.030-0.007 0.055-0.015 0.074s-0.020 0.031-0.034 0.035z"></path>
<path fill="#ffa023" style="fill: var(--color21, #ffa023)" d="M8.952 10.042c-0.040 0.005-0.079 0.008-0.116 0.007s-0.071-0.004-0.101-0.011c-0.030-0.007-0.053-0.016-0.070-0.028s-0.027-0.025-0.029-0.040c-0.002-0.015 0.004-0.030 0.017-0.046s0.033-0.031 0.060-0.045c0.027-0.014 0.058-0.027 0.094-0.038s0.074-0.019 0.114-0.024c0.040-0.005 0.078-0.008 0.116-0.007s0.071 0.004 0.101 0.011c0.030 0.007 0.053 0.016 0.070 0.028s0.027 0.025 0.029 0.040c0.002 0.015-0.004 0.030-0.017 0.046s-0.033 0.031-0.060 0.045c-0.027 0.015-0.058 0.027-0.094 0.038s-0.074 0.019-0.114 0.024z"></path>
<path fill="#ffa023" style="fill: var(--color21, #ffa023)" d="M5.887 8.818c-0.015 0.004-0.031 0.002-0.049-0.009s-0.036-0.027-0.055-0.051c-0.019-0.024-0.037-0.052-0.054-0.086s-0.032-0.069-0.044-0.108c-0.012-0.038-0.022-0.076-0.027-0.113s-0.008-0.071-0.007-0.101c0.001-0.030 0.006-0.055 0.015-0.074s0.020-0.031 0.034-0.035c0.015-0.005 0.031-0.002 0.049 0.008s0.036 0.027 0.055 0.051c0.019 0.024 0.037 0.052 0.054 0.086s0.031 0.069 0.044 0.108c0.012 0.038 0.022 0.076 0.027 0.113s0.008 0.071 0.007 0.101c-0.001 0.030-0.006 0.055-0.015 0.074s-0.020 0.031-0.034 0.035z"></path>
<path fill="#ffa023" style="fill: var(--color21, #ffa023)" d="M3.714 9.874c-0.039 0.010-0.077 0.016-0.115 0.019s-0.071 0.003-0.101-0-0.054-0.010-0.073-0.020c-0.018-0.010-0.029-0.022-0.033-0.037s0.001-0.030 0.012-0.048c0.011-0.017 0.030-0.035 0.055-0.052s0.055-0.033 0.090-0.048c0.035-0.015 0.072-0.027 0.11-0.036s0.077-0.016 0.115-0.019c0.038-0.003 0.071-0.003 0.101 0s0.055 0.010 0.073 0.020c0.018 0.010 0.029 0.022 0.033 0.037s-0 0.031-0.012 0.048c-0.012 0.017-0.030 0.034-0.055 0.052s-0.055 0.033-0.089 0.048c-0.035 0.015-0.072 0.027-0.111 0.036z"></path>
<path fill="#567343" style="fill: var(--color1, #567343)" opacity="0.2" d="M9.386 17.894c1.139 0.062 1.91 0.093 2.314 0.093 0.096 0 0.171-0.028 0.227-0.083s0.084-0.132 0.084-0.228v-0.561h-1.434c-0.437 0-0.754-0.099-0.951-0.296s-0.296-0.515-0.296-0.951v-0.187c0-0.436 0.099-0.753 0.296-0.95s0.514-0.297 0.951-0.297h2.189v0.874h-1.94c-0.249 0-0.374 0.125-0.374 0.374v0.125c0 0.249 0.124 0.374 0.374 0.374h1.123c0.407 0 0.706 0.096 0.898 0.287s0.287 0.491 0.287 0.898v0.312c0 0.407-0.096 0.706-0.287 0.898s-0.491 0.287-0.898 0.287c-0.213 0-0.437-0.004-0.674-0.012l-0.573-0.025c-0.425-0.021-0.863-0.050-1.316-0.088v-0.842z"></path>
<path fill="#567343" style="fill: var(--color1, #567343)" opacity="0.2" d="M16.502 14.432h1.122v3.181c0 0.436-0.099 0.754-0.296 0.951s-0.515 0.296-0.951 0.296h-1.435c-0.436 0-0.754-0.099-0.951-0.296s-0.296-0.515-0.296-0.951v-3.181h1.123v3.181c0 0.249 0.124 0.374 0.374 0.374h0.936c0.249 0 0.374-0.124 0.374-0.374v-3.181z"></path>
<path fill="#567343" style="fill: var(--color1, #567343)" opacity="0.2" d="M18.242 17.894c1.139 0.062 1.91 0.093 2.314 0.093 0.096 0 0.171-0.028 0.227-0.083s0.084-0.132 0.084-0.228v-0.561h-1.434c-0.437 0-0.754-0.099-0.951-0.296s-0.296-0.515-0.296-0.951v-0.187c0-0.436 0.099-0.753 0.296-0.95s0.514-0.297 0.951-0.297h2.189v0.874h-1.94c-0.249 0-0.374 0.125-0.374 0.374v0.125c0 0.249 0.124 0.374 0.374 0.374h1.124c0.407 0 0.706 0.096 0.898 0.287s0.287 0.491 0.287 0.898v0.312c0 0.407-0.096 0.706-0.287 0.898s-0.491 0.287-0.898 0.287c-0.213 0-0.437-0.004-0.674-0.012l-0.573-0.025c-0.425-0.021-0.863-0.050-1.316-0.088v-0.842z"></path>
<path fill="#567343" style="fill: var(--color1, #567343)" opacity="0.2" d="M26.355 18.798h-1.122v-1.778h-1.559v1.778h-1.123v-4.366h1.123v1.715h1.559v-1.715h1.122v4.366z"></path>
<path fill="#567343" style="fill: var(--color1, #567343)" opacity="0.2" d="M28.226 18.798h-1.123v-4.366h1.123v1.715h0.561l0.972-1.715h1.185l-1.222 2.152 1.217 2.214h-1.185l-0.967-1.778h-0.561v1.778z"></path>
<path fill="#567343" style="fill: var(--color1, #567343)" opacity="0.2" d="M32.099 18.798h-1.217l1.653-4.366h1.247l1.653 4.366h-1.217l-0.281-0.779h-1.559l-0.281 0.779zM32.66 17.207h0.997l-0.499-1.465-0.499 1.465z"></path>
<path fill="#567343" style="fill: var(--color1, #567343)" d="M9.003 17.819c1.139 0.062 1.91 0.093 2.314 0.093 0.096 0 0.171-0.028 0.227-0.083s0.084-0.132 0.084-0.228v-0.561h-1.434c-0.437 0-0.754-0.099-0.951-0.296s-0.296-0.515-0.296-0.951v-0.187c0-0.436 0.099-0.753 0.296-0.95s0.514-0.297 0.951-0.297h2.189v0.874h-1.94c-0.249 0-0.374 0.125-0.374 0.374v0.125c0 0.249 0.124 0.374 0.374 0.374h1.124c0.407 0 0.706 0.096 0.898 0.287s0.287 0.491 0.287 0.898v0.312c0 0.407-0.096 0.706-0.287 0.898s-0.491 0.287-0.898 0.287c-0.213 0-0.437-0.004-0.674-0.012l-0.573-0.025c-0.425-0.021-0.863-0.050-1.316-0.088v-0.842z"></path>
<path fill="#567343" style="fill: var(--color1, #567343)" d="M16.119 14.358h1.122v3.181c0 0.436-0.099 0.754-0.296 0.951s-0.515 0.296-0.951 0.296h-1.435c-0.436 0-0.754-0.099-0.951-0.296s-0.296-0.515-0.296-0.951v-3.181h1.123v3.181c0 0.249 0.124 0.374 0.374 0.374h0.936c0.249 0 0.374-0.124 0.374-0.374v-3.181z"></path>
<path fill="#567343" style="fill: var(--color1, #567343)" d="M17.859 17.819c1.139 0.062 1.91 0.093 2.314 0.093 0.096 0 0.171-0.028 0.227-0.083s0.084-0.132 0.084-0.228v-0.561h-1.434c-0.437 0-0.754-0.099-0.951-0.296s-0.296-0.515-0.296-0.951v-0.187c0-0.436 0.099-0.753 0.296-0.95s0.514-0.297 0.951-0.297h2.189v0.874h-1.94c-0.249 0-0.374 0.125-0.374 0.374v0.125c0 0.249 0.124 0.374 0.374 0.374h1.123c0.407 0 0.706 0.096 0.898 0.287s0.287 0.491 0.287 0.898v0.312c0 0.407-0.096 0.706-0.287 0.898s-0.491 0.287-0.898 0.287c-0.213 0-0.437-0.004-0.674-0.012l-0.573-0.025c-0.425-0.021-0.863-0.050-1.316-0.088v-0.842z"></path>
<path fill="#567343" style="fill: var(--color1, #567343)" d="M25.972 18.724h-1.122v-1.778h-1.559v1.778h-1.124v-4.366h1.124v1.715h1.559v-1.715h1.122v4.366z"></path>
<path fill="#567343" style="fill: var(--color1, #567343)" d="M27.844 18.724h-1.123v-4.366h1.123v1.715h0.561l0.972-1.715h1.185l-1.222 2.152 1.217 2.214h-1.185l-0.967-1.778h-0.561v1.778z"></path>
<path fill="#567343" style="fill: var(--color1, #567343)" d="M31.716 18.724h-1.217l1.653-4.366h1.247l1.653 4.366h-1.217l-0.281-0.779h-1.559l-0.281 0.779zM32.278 17.133h0.997l-0.499-1.465-0.499 1.465z"></path>
<path fill="#ffd922" style="fill: var(--color20, #ffd922)" d="M43.139 22.835c0 0.678-0.134 1.35-0.393 1.976s-0.64 1.196-1.119 1.675c-0.48 0.48-1.049 0.86-1.676 1.12s-1.298 0.393-1.976 0.393c-0.678 0-1.35-0.134-1.976-0.393s-1.196-0.64-1.676-1.12c-0.48-0.48-0.86-1.049-1.12-1.675s-0.393-1.298-0.393-1.976h10.329z"></path>
<path fill="#6565d6" style="fill: var(--color22, #6565d6)" d="M43.139 22.835c0-0.678-0.134-1.35-0.393-1.976s-0.64-1.196-1.119-1.675c-0.48-0.48-1.049-0.86-1.676-1.12s-1.298-0.393-1.976-0.393v5.165h5.164z"></path>
</symbol>
</defs>
</svg>
