<svg xmlns="http://www.w3.org/2000/svg" width="15" height="18" viewBox="0 0 15 18" fill="none">
  <path d="M13.5965 4.59618C13.1954 4.59618 12.8703 4.92134 12.8703 5.32244V13.4491C12.8703 15.1601 11.4832 16.5472 9.77222 16.5472H4.55056C2.83955 16.5472 1.4525 15.1601 1.4525 13.4491V5.32244C1.4525 4.92134 1.12735 4.59618 0.726251 4.59618C0.325154 4.59618 1.19536e-08 4.92134 0 5.32244V13.4491C0.0252075 15.9697 2.07578 17.9998 4.59653 17.9997H9.81818C12.321 17.9748 14.3438 15.9519 14.3687 13.4491V5.32244C14.3691 5.12159 14.2864 4.92954 14.14 4.79194C13.9937 4.65434 13.797 4.58347 13.5965 4.59618Z" />
  <path fill-rule="evenodd" clip-rule="evenodd" d="M13.5965 3.29111H0.726251C0.325154 3.29111 0 2.96596 0 2.56486C0 2.16376 0.325154 1.83861 0.726251 1.83861H3.16241L4.24719 0.6619C4.66186 0.240316 5.22786 0.00200028 5.8192 1.68589e-10H8.50358C9.0863 -7.21334e-06 9.64515 0.231472 10.0572 0.643514L11.1604 1.83861H13.5965C13.9976 1.83861 14.3228 2.16376 14.3228 2.56486C14.3228 2.96596 13.9976 3.29111 13.5965 3.29111ZM8.50292 1.45261H5.81855C5.63477 1.45267 5.45767 1.52154 5.32213 1.64566L5.14746 1.82952H9.17402L8.99935 1.64566C8.8648 1.51996 8.68705 1.45083 8.50292 1.45261Z" />
  <path d="M3.71387 6.24221V9.00013C3.71387 9.38092 4.02256 9.68961 4.40335 9.68961C4.78413 9.68961 5.09283 9.38092 5.09283 9.00013V6.24221C5.09283 5.86142 4.78413 5.55273 4.40335 5.55273C4.02256 5.55273 3.71387 5.86142 3.71387 6.24221Z" />
  <path d="M6.47168 6.24221V13.5967C6.47168 13.9774 6.78037 14.2861 7.16116 14.2861C7.54195 14.2861 7.85064 13.9774 7.85064 13.5967V6.24221C7.85064 5.86142 7.54195 5.55273 7.16116 5.55273C6.78037 5.55273 6.47168 5.86142 6.47168 6.24221Z" />
  <path d="M9.22949 6.24221V9.00013C9.22949 9.38092 9.53818 9.68961 9.91897 9.68961C10.2998 9.68961 10.6085 9.38092 10.6085 9.00013V6.24221C10.6085 5.86142 10.2998 5.55273 9.91897 5.55273C9.53818 5.55273 9.22949 5.86142 9.22949 6.24221Z" />
</svg>