<svg width="35" height="35" viewBox="0 0 35 35" fill="none" xmlns="http://www.w3.org/2000/svg">
<path d="M31.3545 22.6045C31.7628 22.6045 32.0837 22.9253 32.0837 23.3337V24.792C32.0837 27.2128 30.1295 29.167 27.7087 29.167C27.7087 26.7607 25.7399 24.792 23.3337 24.792C20.9274 24.792 18.9587 26.7607 18.9587 29.167H16.042C16.042 26.7607 14.0732 24.792 11.667 24.792C9.26074 24.792 7.29199 26.7607 7.29199 29.167C4.87116 29.167 2.91699 27.2128 2.91699 24.792V21.8753C2.91699 21.0732 3.57324 20.417 4.37533 20.417H18.2295C20.242 20.417 21.8753 18.7837 21.8753 16.7712V8.75033C21.8753 7.94824 22.5316 7.29199 23.3337 7.29199H24.5587C25.6087 7.29199 26.5712 7.86074 27.0962 8.76491L28.0295 10.3982C28.1607 10.6316 27.9857 10.9378 27.7087 10.9378C25.6962 10.9378 24.0628 12.5712 24.0628 14.5837V18.9587C24.0628 20.9712 25.6962 22.6045 27.7087 22.6045H31.3545Z" fill="#5D5FEF"/>
<path d="M11.6667 32.0833C13.2775 32.0833 14.5833 30.7775 14.5833 29.1667C14.5833 27.5558 13.2775 26.25 11.6667 26.25C10.0558 26.25 8.75 27.5558 8.75 29.1667C8.75 30.7775 10.0558 32.0833 11.6667 32.0833Z" fill="#5D5FEF"/>
<path d="M23.3337 32.0833C24.9445 32.0833 26.2503 30.7775 26.2503 29.1667C26.2503 27.5558 24.9445 26.25 23.3337 26.25C21.7228 26.25 20.417 27.5558 20.417 29.1667C20.417 30.7775 21.7228 32.0833 23.3337 32.0833Z" fill="#5D5FEF"/>
<path d="M32.0833 18.2729V20.4167H27.7083C26.9062 20.4167 26.25 19.7604 26.25 18.9583V14.5833C26.25 13.7812 26.9062 13.125 27.7083 13.125H29.5896L31.7042 16.8292C31.9521 17.2667 32.0833 17.7625 32.0833 18.2729Z" fill="#5D5FEF"/>
<path d="M19.0743 2.91699H8.29727C5.68685 2.91699 3.49935 4.78366 3.0181 7.26283H9.39102C9.94518 7.26283 10.3827 7.71491 10.3827 8.26908C10.3827 8.82324 9.94518 9.26074 9.39102 9.26074H2.91602V11.2732H6.70768C7.26185 11.2732 7.71393 11.7253 7.71393 12.2795C7.71393 12.8337 7.26185 13.2712 6.70768 13.2712H2.91602V15.2837H4.03893C4.5931 15.2837 5.04518 15.7357 5.04518 16.2899C5.04518 16.8441 4.5931 17.2816 4.03893 17.2816H2.91602V17.617C2.91602 18.4191 3.57227 19.0753 4.37435 19.0753H17.7181C19.2056 19.0753 20.416 17.8649 20.416 16.3774V4.25866C20.416 3.51491 19.8181 2.91699 19.0743 2.91699Z" fill="#5D5FEF"/>
<path d="M3.01842 7.26282H2.79967H1.37051C0.816341 7.26282 0.364258 7.7149 0.364258 8.26907C0.364258 8.82323 0.816341 9.26073 1.37051 9.26073H2.69759H2.91634V8.29823C2.91634 7.94823 2.96009 7.59823 3.01842 7.26282Z" fill="#5D5FEF"/>
<path d="M2.69759 11.2732H1.37051C0.816341 11.2732 0.364258 11.7253 0.364258 12.2794C0.364258 12.8336 0.816341 13.2711 1.37051 13.2711H2.69759H2.91634V11.2732H2.69759Z" fill="#5D5FEF"/>
<path d="M2.69759 15.2832H1.37051C0.816341 15.2832 0.364258 15.7353 0.364258 16.2895C0.364258 16.8436 0.816341 17.2811 1.37051 17.2811H2.69759H2.91634V15.2832H2.69759Z" fill="#5D5FEF"/>
</svg>
