<svg width="30" height="30" viewBox="0 0 30 30" fill="none" xmlns="http://www.w3.org/2000/svg">
<path d="M24.6409 17.2191L14.748 14.9689C12.1986 14.3907 10.4113 12.0835 10.4796 9.45903C10.548 6.83457 12.4531 4.62442 15.0291 4.18101C17.605 3.7376 20.1339 5.18454 21.0682 7.6364C22.0026 10.0883 21.0819 12.8616 18.8696 14.2594C18.8274 14.2911 18.8069 14.3443 18.8171 14.3962C18.8272 14.4481 18.866 14.4896 18.917 14.503L23.318 15.5036C23.4227 15.528 23.5319 15.4887 23.5974 15.403C25.7292 12.5744 26.1371 8.79631 24.6585 5.57433C23.1799 2.35235 20.0552 0.210132 16.5294 0.00135136H16.1183C12.0094 -0.0632018 8.2106 2.18928 6.28138 5.83413C4.35215 9.47897 4.6175 13.9021 6.9685 17.2879L15.7705 29.9153C15.8092 29.9685 15.8709 30 15.9365 30C16.0021 30 16.0638 29.9685 16.1025 29.9153L24.7674 17.5526C24.8134 17.4954 24.8257 17.418 24.7997 17.3493C24.7736 17.2806 24.7132 17.231 24.6409 17.2191Z" fill="#FFC627"/>
</svg>
