<svg width="50" height="40" viewBox="0 0 50 40" fill="none" xmlns="http://www.w3.org/2000/svg">
<path d="M32.5651 15.3101C31.7903 15.0278 30.9713 14.8861 30.1467 14.8918C27.4801 14.8918 25.5967 16.2351 25.5834 18.1634C25.5667 19.5801 26.9217 20.3784 27.9467 20.8518C28.9984 21.3384 29.3501 21.6451 29.3467 22.0801C29.3401 22.7418 28.5067 23.0418 27.7317 23.0418C26.6667 23.0418 26.0851 22.8934 25.1901 22.5218L24.8584 22.3668L24.4801 24.5868C25.1284 24.8568 26.2967 25.0884 27.5034 25.1084C30.3384 25.1084 32.1917 23.7734 32.2134 21.7218C32.2367 20.5901 31.5034 19.7351 29.9601 19.0284C29.0217 18.5701 28.4401 18.2634 28.4401 17.7984C28.4401 17.3868 28.9384 16.9468 29.9801 16.9468C30.6733 16.93 31.3623 17.0601 32.0017 17.3284L32.2517 17.4401L32.6301 15.2951L32.5651 15.3101ZM39.4851 15.0718H37.4017C36.7534 15.0718 36.2651 15.2501 35.9817 15.8934L31.9751 24.9701H34.8101L35.3767 23.4818L38.8367 23.4851C38.9184 23.8334 39.1684 24.9701 39.1684 24.9701H41.6684L39.4851 15.0718ZM21.7484 14.9884H24.4501L22.7601 24.8918H20.0617L21.7484 14.9851V14.9884ZM14.8901 20.4468L15.1701 21.8218L17.8101 15.0718H20.6717L16.4201 24.9568H13.5651L11.2317 16.5868C11.194 16.4487 11.1052 16.3302 10.9834 16.2551C10.1424 15.8207 9.25132 15.491 8.33008 15.2734L8.36674 15.0651H12.7151C13.3051 15.0884 13.7801 15.2734 13.9384 15.9034L14.8884 20.4518L14.8901 20.4468ZM36.1517 21.4568L37.2284 18.6868C37.2151 18.7168 37.4501 18.1151 37.5867 17.7434L37.7717 18.5984L38.3967 21.4551H36.1501L36.1517 21.4568Z" fill="black"/>
</svg>
