<svg xmlns="http://www.w3.org/2000/svg" width="183" height="183" viewBox="0 0 183 183" fill="none">
  <circle cx="91.5" cy="91.5" r="91.5" fill="#AFAF37"/>
  <circle cx="91.5" cy="91.5" r="86.5" fill="#CFCF43"/>
  <circle cx="91.5" cy="91.5" r="83.5" fill="#FEFBE3"/>
  <path d="M70.0972 64.7339C76.0972 57.9339 84.2638 58.5672 87.5972 59.7339C89.0972 60.2339 90.156 61.3515 90.5972 62.2339C91.5972 64.2339 91.5972 69.7339 89.5972 74.7339C87.5972 79.7339 86.0972 90.2339 86.0972 92.7339C86.0972 95.2339 87.0972 101.234 87.5972 102.734C88.0972 104.234 89.0972 111.234 89.5972 114.234C90.0972 117.234 89.5972 120.234 88.0972 121.734C86.3975 123.434 85.0972 123.734 74.5972 124.234C57.5972 124.734 54.5972 117.234 52.5972 112.234C50.5972 107.234 54.0972 90.7339 56.0972 86.7339C58.0972 82.7339 62.5972 73.2339 70.0972 64.7339Z" fill="#E5D395"/>
  <path d="M79.0977 85.7341C80.6977 83.7341 84.0977 83.234 85.5977 83.7341C87.0977 84.7341 86.0977 86.7341 86.0977 86.7341C86.0977 86.7341 84.5977 90.2341 84.5977 93.2341C84.5977 96.2341 86.0977 99.2341 86.0977 101.234C86.0977 103.234 84.5977 103.234 84.0977 103.234C83.5977 103.234 80.5977 102.234 79.0977 100.734C77.5977 99.2341 76.5977 95.7341 76.5977 93.2341C76.5977 90.7341 77.0977 88.2341 79.0977 85.7341Z" fill="#4A0908"/>
  <path d="M113.157 64.7339C107.157 57.9339 98.9901 58.5672 95.6567 59.7339C94.1567 60.2339 93.0979 61.3515 92.6567 62.2339C91.6567 64.2339 91.6567 69.7339 93.6567 74.7339C95.6567 79.7339 97.1567 90.2339 97.1567 92.7339C97.1567 95.2339 96.1567 101.234 95.6567 102.734C95.1567 104.234 94.1567 111.234 93.6567 114.234C93.1567 117.234 93.6567 120.234 95.1567 121.734C96.8564 123.434 98.1567 123.734 108.657 124.234C125.657 124.734 128.657 117.234 130.657 112.234C132.657 107.234 129.157 90.7339 127.157 86.7339C125.157 82.7339 120.657 73.2339 113.157 64.7339Z" fill="#E5D395"/>
  <path d="M104.156 85.7341C102.556 83.7341 99.1562 83.234 97.6562 83.7341C96.1562 84.7341 97.1562 86.7341 97.1562 86.7341C97.1562 86.7341 98.6562 90.2341 98.6562 93.2341C98.6562 96.2341 97.1562 99.2341 97.1562 101.234C97.1562 103.234 98.6562 103.234 99.1562 103.234C99.6562 103.234 102.656 102.234 104.156 100.734C105.656 99.2341 106.656 95.7341 106.656 93.2341C106.656 90.7341 106.156 88.2341 104.156 85.7341Z" fill="#4A0908"/>
</svg>