<svg xmlns="http://www.w3.org/2000/svg" width="183" height="183" viewBox="0 0 183 183" fill="none">
  <circle cx="91.5" cy="91.5" r="91.5" transform="rotate(-90 91.5 91.5)" fill="#F8C644"/>
  <circle cx="91.5" cy="91.5" r="86.5" transform="rotate(-90 91.5 91.5)" fill="#FBE9C3"/>
  <circle cx="91.5" cy="91.5" r="83.5" transform="rotate(-90 91.5 91.5)" fill="#F8DB44"/>
  <path d="M73.7578 13.8676C86.8597 9.87405 100.88 10.0557 113.874 14.3874L93.0009 77L73.7578 13.8676Z" fill="#F2BC30"/>
  <path d="M122.278 18.28C135.296 22.5405 146.665 30.7454 154.81 41.7573L101.749 81.006L122.278 18.28Z" fill="#F2BC30"/>
  <path d="M159.26 50.8836C166.979 62.1986 170.986 75.6348 170.726 89.3293L104.738 88.0767L159.26 50.8836Z" fill="#F2BC30"/>
  <path d="M170.902 98.2277C170.293 111.911 165.442 125.066 157.022 135.869L104.967 95.2937L170.902 98.2277Z" fill="#F2BC30"/>
  <path d="M152.144 142.119C143.932 153.082 132.514 161.218 119.471 165.401L99.3183 102.553L152.144 142.119Z" fill="#F2BC30"/>
  <path d="M112.86 168.658C99.8062 172.806 85.7853 172.791 72.7409 168.613L92.8715 105.758L112.86 168.658Z" fill="#F2BC30"/>
  <path d="M66.0193 166.61C52.8928 162.698 41.3084 154.799 32.8723 144.009L84.8681 103.358L66.0193 166.61Z" fill="#F2BC30"/>
  <path d="M26.3258 136.026C18.1186 125.06 13.5264 111.812 13.1859 98.1194L79.1655 96.4786L26.3258 136.026Z" fill="#F2BC30"/>
  <path d="M12.7537 88.4389C12.5623 74.7432 16.6366 61.3273 24.4118 50.051L78.7473 87.5163L12.7537 88.4389Z" fill="#F2BC30"/>
  <path d="M30.7138 41.3849C38.8311 30.3523 50.1798 22.1185 63.1864 17.825L83.875 80.4986L30.7138 41.3849Z" fill="#F2BC30"/>
  <circle cx="92" cy="92" r="10" transform="rotate(-90 92 92)" fill="#FEFCE6"/>
</svg>