<svg xmlns="http://www.w3.org/2000/svg" width="183" height="183" viewBox="0 0 183 183" fill="none">
  <circle cx="91.5" cy="91.5" r="91.5" transform="rotate(90 91.5 91.5)" fill="#453D0E"/>
  <circle cx="91.5" cy="91.5" r="86.5" transform="rotate(90 91.5 91.5)" fill="#A8CE5D"/>
  <circle cx="91.5" cy="91.5" r="79.5" transform="rotate(90 91.5 91.5)" fill="#CBE86E"/>
  <path d="M147.5 88C140.5 88.0002 134 89.9998 133 92C134 93.9998 139.9 95.6001 147.5 96.0001C157 96.5001 161.5 93.9998 161 92C160.499 89.9998 156.014 87.9998 147.5 88Z" fill="#B0CA5C"/>
  <path d="M144.756 71.7575C138.031 73.7007 132.342 77.4259 131.936 79.6251C133.452 81.2688 139.564 81.1685 146.977 79.4433C156.242 77.2868 159.871 73.6357 158.836 71.8532C157.8 70.0705 152.936 69.394 144.756 71.7575Z" fill="#B0CA5C"/>
  <path d="M136.282 56.7454C130.541 60.7506 126.354 66.1095 126.678 68.3221C128.643 69.3901 134.397 67.3269 140.859 63.3067C148.937 58.2814 151.197 53.6561 149.643 52.3021C148.088 50.9478 143.265 51.8736 136.282 56.7454Z" fill="#B0CA5C"/>
  <path d="M124.959 45.0829C120.288 50.2967 117.44 56.4722 118.263 58.5517C120.419 59.1413 125.548 55.8148 130.917 50.4212C137.629 43.6791 138.77 38.659 136.946 37.697C135.123 36.7349 130.64 38.7409 124.959 45.0829Z" fill="#B0CA5C"/>
  <path d="M109.534 37.5954C106.969 44.1083 106.447 50.8888 107.941 52.5524C110.168 52.355 113.82 47.4521 116.977 40.5277C120.925 31.8721 120.248 26.7688 118.204 26.501C116.16 26.2332 112.655 29.6732 109.534 37.5954Z" fill="#B0CA5C"/>
  <path d="M93.2712 34.3288C92.5703 41.2937 93.909 47.9612 95.7989 49.1565C97.8889 48.3618 100.072 42.6518 101.231 35.13C102.68 25.7279 100.643 21 98.6031 21.2973C96.5629 21.5946 94.1237 25.8569 93.2712 34.3288Z" fill="#B0CA5C"/>
  <path d="M76.2999 36.8342C77.6449 43.7038 80.856 49.6985 83.0111 50.2956C84.7815 48.9301 85.2185 42.8325 84.151 35.2973C82.8167 25.8782 79.4984 21.9423 77.6319 22.8172C75.7651 23.6923 74.664 28.4781 76.2999 36.8342Z" fill="#B0CA5C"/>
  <path d="M60.8252 42.7543C64.2828 48.8409 69.232 53.5049 71.4651 53.3864C72.7101 51.5292 71.1873 45.6087 67.7813 38.8029C63.5238 30.2956 59.1271 27.6178 57.6352 29.0403C56.1431 30.4631 56.6194 35.3509 60.8252 42.7543Z" fill="#B0CA5C"/>
  <path d="M48.8883 54.1237C54.0157 58.8893 60.1381 61.8498 62.2322 61.0656C62.8613 58.92 59.6293 53.7311 54.3349 48.2639C47.7169 41.43 42.7186 40.1977 41.7234 42.0029C40.728 43.8085 42.6515 48.327 48.8883 54.1237Z" fill="#B0CA5C"/>
  <path d="M39.5303 68.7C45.7753 71.8624 52.4775 73.015 54.2733 71.6824C54.2847 69.4465 49.7441 65.3533 43.1446 61.5629C34.8953 56.8249 29.7511 57.0224 29.2937 59.0324C28.8363 61.0428 31.934 64.8534 39.5303 68.7Z" fill="#B0CA5C"/>
  <path d="M35.5781 85.2953C42.5002 86.3371 49.2254 85.3272 50.512 83.4982C49.8208 81.3717 44.2247 78.9111 36.7689 77.3843C27.4492 75.4758 22.6271 77.2785 22.8239 79.3304C23.0207 81.3827 27.1582 84.0281 35.5781 85.2953Z" fill="#B0CA5C"/>
  <path d="M36.6368 101.987C43.5701 101.022 49.7323 98.145 50.447 96.0261C49.1809 94.1832 43.1167 93.4114 35.5341 94.0628C26.0558 94.877 21.9434 97.9738 22.7143 99.8856C23.4854 101.798 28.2034 103.16 36.6368 101.987Z" fill="#B0CA5C"/>
  <path d="M41.951 117.582C48.2499 114.528 53.2264 109.893 53.2537 107.657C51.4815 106.294 45.4744 107.428 38.4611 110.383C29.6946 114.077 26.736 118.29 28.0584 119.872C29.3809 121.453 34.2893 121.296 41.951 117.582Z" fill="#B0CA5C"/>
  <path d="M51.9283 130.26C57.1003 125.543 60.5554 119.685 59.9465 117.533C57.86 116.73 52.4224 119.523 46.5374 124.349C39.1812 130.381 37.5411 135.26 39.2581 136.401C40.9754 137.542 45.6371 135.997 51.9283 130.26Z" fill="#B0CA5C"/>
  <path d="M66.0198 140.592C69.3889 134.456 70.7646 127.796 69.4927 125.957C67.2584 125.871 63.0159 130.272 59.0073 136.741C53.9965 144.828 54.0222 149.976 56.0158 150.5C58.0097 151.024 61.9216 148.055 66.0198 140.592Z" fill="#B0CA5C"/>
  <path d="M82.0468 145.838C83.4717 138.984 82.8371 132.213 81.0824 130.827C78.9208 131.399 76.153 136.85 74.2142 144.209C71.7908 153.408 73.3227 158.323 75.3824 158.241C77.4425 158.158 80.3137 154.174 82.0468 145.838Z" fill="#B0CA5C"/>
  <path d="M98.9186 146.454C98.3592 139.476 95.8467 133.157 93.7731 132.32C91.8595 133.476 90.7357 139.485 90.944 147.093C91.2045 156.603 94.0563 160.889 96.0098 160.23C97.9636 159.572 99.599 154.941 98.9186 146.454Z" fill="#B0CA5C"/>
  <path d="M114.182 141.551C111.691 135.009 107.509 129.646 105.284 129.424C103.771 131.07 104.375 137.153 106.706 144.398C109.62 153.454 113.558 156.77 115.249 155.591C116.94 154.411 117.213 149.508 114.182 141.551Z" fill="#B0CA5C"/>
  <path d="M128.582 132.356C124.229 126.874 118.621 123.027 116.433 123.488C115.489 125.514 117.904 131.13 122.317 137.331C127.832 145.082 132.589 147.051 133.844 145.416C135.099 143.781 133.877 139.024 128.582 132.356Z" fill="#B0CA5C"/>
  <path d="M140.081 119.571C134.435 115.433 128.011 113.204 126.022 114.226C125.646 116.43 129.459 121.208 135.352 126.024C142.719 132.043 147.826 132.687 148.605 130.778C149.384 128.869 146.949 124.605 140.081 119.571Z" fill="#B0CA5C"/>
  <path d="M146.316 105.067C139.757 102.621 132.968 102.223 131.332 103.748C131.57 105.971 136.539 109.532 143.52 112.563C152.247 116.351 157.337 115.581 157.567 113.533C157.797 111.484 154.294 108.042 146.316 105.067Z" fill="#B0CA5C"/>
  <circle cx="91.5" cy="91.5" r="29.5" transform="rotate(90 91.5 91.5)" fill="#F6FBB3"/>
  <path d="M128.998 82C125.998 82 124.998 84 123.998 85C122.998 86.5 125.998 87 128.998 87C131.998 87 131.998 84.5 131.998 84C131.998 83.5 131.548 82 128.998 82Z" fill="#490A09"/>
  <path d="M125.832 69.7586C122.929 70.5171 122.468 72.705 121.753 73.9254C121.165 75.6295 124.194 75.3547 127.096 74.5961C129.999 73.8375 129.367 71.4188 129.24 70.935C129.114 70.4513 128.299 69.1139 125.832 69.7586Z" fill="#490A09"/>
  <path d="M117.8 59.7915C115.387 61.5742 115.771 63.777 115.561 65.1756C115.648 66.9762 118.358 65.5957 120.771 63.8129C123.184 62.0302 121.698 60.0195 121.401 59.6174C121.104 59.2152 119.851 58.2765 117.8 59.7915Z" fill="#490A09"/>
  <path d="M108.19 53.4303C106.431 55.8606 107.465 57.8433 107.689 59.2397C108.318 60.9292 110.482 58.7921 112.241 56.3617C114 53.9314 111.974 52.4657 111.569 52.1726C111.164 51.8794 109.685 51.3649 108.19 53.4303Z" fill="#490A09"/>
  <path d="M97.8304 48.6814C96.4831 51.3618 97.8209 53.1535 98.2653 54.4961C99.1564 56.0633 100.95 53.6074 102.298 50.927C103.645 48.2465 101.411 47.1238 100.965 46.8992C100.518 46.6746 98.9754 46.4035 97.8304 48.6814Z" fill="#490A09"/>
  <path d="M86.7081 48.983C86.3889 51.9659 88.2711 53.1731 89.159 54.2738C90.5441 55.4277 91.3605 52.498 91.6797 49.515C91.999 46.5321 89.5131 46.266 89.016 46.2128C88.5188 46.1596 86.9794 46.4479 86.7081 48.983Z" fill="#490A09"/>
  <path d="M75.2072 51.7754C75.6899 54.7363 77.8247 55.4015 78.9725 56.2276C80.6139 56.9733 80.6247 53.9319 80.1421 50.971C79.6595 48.0101 77.192 48.4123 76.6986 48.4927C76.2051 48.5731 74.7971 49.2591 75.2072 51.7754Z" fill="#490A09"/>
  <path d="M65.9413 59.2946C67.6306 61.7737 69.8465 61.4739 71.236 61.7372C73.0387 61.7189 71.7625 58.9582 70.0732 56.479C68.3839 53.9999 66.3179 55.4077 65.9047 55.6892C65.4915 55.9708 64.5056 57.1877 65.9413 59.2946Z" fill="#490A09"/>
  <path d="M58.1663 68.9795C60.446 70.9297 62.506 70.06 63.9159 69.9502C65.6509 69.4605 63.6963 67.1303 61.4167 65.1801C59.1371 63.2299 57.5119 65.1296 57.1869 65.5095C56.8618 65.8895 56.229 67.3221 58.1663 68.9795Z" fill="#490A09"/>
  <path d="M54.0269 80.136C56.5949 81.687 58.4849 80.4921 59.8578 80.1531C61.4893 79.3861 59.1799 77.4071 56.612 75.8561C54.044 74.3051 52.7515 76.445 52.493 76.873C52.2345 77.301 51.8446 78.8179 54.0269 80.136Z" fill="#490A09"/>
  <path d="M52.8805 93.5116C55.8158 94.1316 57.2075 92.3814 58.3926 91.6097C59.681 90.3487 56.8491 89.2395 53.9139 88.6195C50.9786 87.9995 50.462 90.4456 50.3586 90.9348C50.2553 91.424 50.3861 92.9847 52.8805 93.5116Z" fill="#490A09"/>
  <path d="M54.8497 105.653C57.8225 105.249 58.5447 103.133 59.4013 102.008C60.1907 100.387 57.1507 100.295 54.1779 100.698C51.2051 101.101 51.541 103.578 51.6082 104.074C51.6754 104.569 52.3234 105.995 54.8497 105.653Z" fill="#490A09"/>
  <path d="M60.5544 116.757C63.3216 115.599 63.4717 113.368 64.0079 112.059C64.351 110.289 61.3907 110.987 58.6234 112.145C55.8562 113.304 56.8216 115.61 57.0147 116.071C57.2078 116.532 58.2027 117.742 60.5544 116.757Z" fill="#490A09"/>
  <path d="M69.0054 125.513C71.3136 123.597 70.8054 121.419 70.936 120.011C70.7472 118.218 68.1197 119.75 65.8115 121.666C63.5033 123.583 65.1003 125.506 65.4197 125.891C65.7391 126.276 67.0439 127.142 69.0054 125.513Z" fill="#490A09"/>
  <path d="M78.7382 131.183C80.6209 128.847 79.6914 126.814 79.5404 125.407C79.0001 123.687 76.7281 125.709 74.8454 128.045C72.9627 130.381 74.9091 131.95 75.2984 132.263C75.6876 132.577 77.1382 133.168 78.7382 131.183Z" fill="#490A09"/>
  <path d="M91.683 132.292C92.4423 129.39 90.7604 127.916 90.0461 126.696C88.848 125.348 87.605 128.124 86.8458 131.027C86.0866 133.929 88.5052 134.562 88.9889 134.688C89.4727 134.815 91.0378 134.759 91.683 132.292Z" fill="#490A09"/>
  <path d="M102.934 131.195C102.871 128.196 100.85 127.238 99.8292 126.26C98.3084 125.292 97.872 128.302 97.9356 131.301C97.9992 134.3 100.499 134.247 100.998 134.237C101.498 134.226 102.989 133.744 102.934 131.195Z" fill="#490A09"/>
  <path d="M113.136 126.338C112.122 123.514 109.901 123.25 108.622 122.647C106.872 122.213 107.416 125.205 108.431 128.028C109.445 130.852 111.798 130.006 112.268 129.837C112.739 129.668 113.998 128.737 113.136 126.338Z" fill="#490A09"/>
  <path d="M120.895 116.705C118.791 114.566 116.664 115.255 115.25 115.243C113.479 115.582 115.226 118.072 117.33 120.211C119.433 122.35 121.216 120.597 121.572 120.246C121.929 119.896 122.682 118.523 120.895 116.705Z" fill="#490A09"/>
  <path d="M127.759 106.401C125.41 104.534 123.383 105.478 121.978 105.638C120.262 106.19 122.299 108.448 124.648 110.315C126.996 112.182 128.552 110.225 128.863 109.833C129.174 109.442 129.755 107.987 127.759 106.401Z" fill="#490A09"/>
  <path d="M130.207 94.618C127.436 93.4694 125.746 94.9342 124.439 95.4751C122.941 96.4779 125.521 98.0884 128.293 99.237C131.064 100.386 132.021 98.0761 132.213 97.6142C132.404 97.1523 132.562 95.5941 130.207 94.618Z" fill="#490A09"/>
</svg>