<svg xmlns="http://www.w3.org/2000/svg" width="183" height="183" viewBox="0 0 183 183" fill="none">
  <circle cx="91.5" cy="91.5" r="91.5" transform="rotate(-180 91.5 91.5)" fill="#C96A27"/>
  <circle cx="91.5" cy="91.5" r="86.5" transform="rotate(-180 91.5 91.5)" fill="#FBE9C3"/>
  <circle cx="91.5" cy="91.5" r="83.5" transform="rotate(-180 91.5 91.5)" fill="#F8AF44"/>
  <path d="M13.8676 109.243C9.87405 96.1413 10.0557 82.1215 14.3874 69.1274L77 90L13.8676 109.243Z" fill="#F28230"/>
  <path d="M18.279 60.722C22.5395 47.7044 30.7444 36.3348 41.7563 28.1896L81.005 81.2512L18.279 60.722Z" fill="#F28230"/>
  <path d="M50.8836 23.7397C62.1986 16.021 75.6348 12.0138 89.3293 12.2738L88.0767 78.2619L50.8836 23.7397Z" fill="#F28230"/>
  <path d="M98.2277 12.0979C111.911 12.7068 125.066 17.5578 135.869 25.9784L95.2937 78.0327L98.2277 12.0979Z" fill="#F28230"/>
  <path d="M142.119 30.8563C153.082 39.0675 161.218 50.4861 165.401 63.529L102.553 83.6817L142.119 30.8563Z" fill="#F28230"/>
  <path d="M168.657 70.14C172.806 83.1938 172.79 97.2147 168.612 110.259L105.757 90.1285L168.657 70.14Z" fill="#F28230"/>
  <path d="M166.61 116.981C162.698 130.107 154.799 141.692 144.009 150.128L103.358 98.1319L166.61 116.981Z" fill="#F28230"/>
  <path d="M136.025 156.674C125.059 164.881 111.811 169.474 98.1184 169.814L96.4776 103.835L136.025 156.674Z" fill="#F28230"/>
  <path d="M88.4389 170.245C74.7432 170.437 61.3272 166.362 50.051 158.587L87.5163 104.252L88.4389 170.245Z" fill="#F28230"/>
  <path d="M41.3849 152.286C30.3523 144.169 22.1185 132.82 17.825 119.814L80.4986 99.125L41.3849 152.286Z" fill="#F28230"/>
  <circle cx="92" cy="91" r="10" transform="rotate(-180 92 91)" fill="#FEFCE6"/>
</svg>