<svg width="679" height="679" viewBox="0 0 679 679" fill="none" xmlns="http://www.w3.org/2000/svg">
<g clip-path="url(#clip0_44_342)">
<path d="M746.9 -67.9H-67.9V746.9H746.9V-67.9Z" fill="white"/>
<path d="M746.9 -67.9H-67.9V746.9H746.9V-67.9Z" fill="white"/>
<path d="M746.9 -67.9H-67.9V746.9H746.9V-67.9Z" fill="#567343"/>
<mask id="mask0_44_342" style="mask-type:luminance" maskUnits="userSpaceOnUse" x="76" y="193" width="75" height="155">
<path d="M76.2827 193.641H150.263V347.044H76.2827V193.641Z" fill="white"/>
</mask>
<g mask="url(#mask0_44_342)">
<path fill-rule="evenodd" clip-rule="evenodd" d="M80.0582 294.44C68.031 254.576 89.8555 211.457 128.806 198.137C167.756 184.813 209.077 206.329 221.104 246.193C233.131 286.06 211.303 329.176 172.357 342.499C133.406 355.823 92.0822 334.307 80.0582 294.44Z" fill="#EE8D13"/>
</g>
<mask id="mask1_44_342" style="mask-type:luminance" maskUnits="userSpaceOnUse" x="80" y="199" width="71" height="142">
<path d="M80.4741 199.509H150.264V340.338H80.4741V199.509Z" fill="white"/>
</mask>
<g mask="url(#mask1_44_342)">
<path fill-rule="evenodd" clip-rule="evenodd" d="M83.4932 292.57C72.4024 255.804 92.9466 215.897 129.382 203.435C165.821 190.972 204.348 210.675 215.439 247.437C226.53 284.204 205.982 324.11 169.547 336.573C133.112 349.035 94.5839 329.336 83.4932 292.57Z" fill="#FAF4A7"/>
</g>
<mask id="mask2_44_342" style="mask-type:luminance" maskUnits="userSpaceOnUse" x="82" y="201" width="69" height="137">
<path d="M82.1506 201.185H150.263V337.823H82.1506V201.185Z" fill="white"/>
</mask>
<g mask="url(#mask2_44_342)">
<path d="M162.127 232.876C162.127 232.876 171.106 215.144 178.064 213.435C185.022 211.732 204.744 217.066 202.315 231.975C200.547 241.023 184.822 247.657 184.822 247.657C184.822 247.657 203.51 235.898 206.228 240.577C208.952 245.257 218.579 256.207 212.23 264.367C205.884 272.53 200.19 270.356 200.19 270.356C200.19 270.356 225.718 271.076 210.03 299.214C198.215 320.4 183.031 300.92 183.031 300.92C183.031 300.92 195.432 312.4 190.929 319.175C186.43 325.95 179.947 323.236 171.479 310.815C171.479 310.815 182.556 328.57 163.781 337.129C148.826 340.885 145.126 321.9 145.126 321.9C145.126 321.9 141.989 339.051 129.631 336.147C117.273 333.246 90.4612 312.859 93.1463 305.475C95.8347 298.097 99.4366 295.183 99.4366 295.183C99.4366 295.183 84.2266 300.533 82.586 283.208C81.3417 270.035 97.5603 267.402 97.5603 267.402C97.5603 267.402 78.8957 265.857 84.446 252.11C89.993 238.361 91.8496 233.956 97.5603 236.209C103.271 238.462 104.044 238.063 104.044 238.063C104.044 238.063 96.1785 233.488 96.4732 231.573C96.7712 229.657 114.175 200.442 129.631 221.366C135.548 229.375 137.601 234.156 137.601 234.156C137.601 234.156 128.35 215.861 129.11 211.097C129.873 206.336 160.663 196.437 167.769 204.152C171.734 208.455 167.288 217.875 162.127 232.876Z" fill="#F9F5E1"/>
</g>
<mask id="mask3_44_342" style="mask-type:luminance" maskUnits="userSpaceOnUse" x="145" y="279" width="6" height="58">
<path d="M145.021 279.144H150.263V336.147H145.021V279.144Z" fill="white"/>
</mask>
<g mask="url(#mask3_44_342)">
<path fill-rule="evenodd" clip-rule="evenodd" d="M146.098 310.56C145.08 296.368 146.229 280.674 149.468 279.338C152.709 278.002 161.063 293.726 166.21 304.889C172.805 319.188 177.772 332.286 163.217 335.574C147.961 339.022 147.234 326.448 146.098 310.56Z" fill="#EF8A13"/>
</g>
<path fill-rule="evenodd" clip-rule="evenodd" d="M144.569 263.237C141.55 267.225 104.299 237.372 101.974 232.316C99.6463 227.26 102.783 223.72 115.308 214.781C127.83 205.842 148.803 258.253 144.569 263.237Z" fill="#EF8A13"/>
<path fill-rule="evenodd" clip-rule="evenodd" d="M144.87 276.371C148.132 278.044 145.82 324.041 140.168 331.54C132.794 341.321 86.306 317.872 96.2277 302.344C98.9423 294.937 144.87 276.371 144.87 276.371Z" fill="#EF8A13"/>
<mask id="mask4_44_342" style="mask-type:luminance" maskUnits="userSpaceOnUse" x="131" y="201" width="20" height="64">
<path d="M131.609 201.185H150.263V264.056H131.609V201.185Z" fill="white"/>
</mask>
<g mask="url(#mask4_44_342)">
<path fill-rule="evenodd" clip-rule="evenodd" d="M150.869 263.358C146.927 261.387 129.644 216.556 132.453 210.511C135.256 204.469 157.254 195.903 165.663 205.714C174.076 215.524 154.812 265.329 150.869 263.358Z" fill="#EF8A13"/>
</g>
<path fill-rule="evenodd" clip-rule="evenodd" d="M142.614 272.838C143.341 276.974 97.5179 296.738 92.0036 295.075C86.4893 293.415 80.366 284.839 85.6511 274.596C90.1077 265.955 141.887 268.705 142.614 272.838Z" fill="#EF8A13"/>
<path fill-rule="evenodd" clip-rule="evenodd" d="M142.241 269.183C141.278 272.176 87.7402 265.153 85.8803 258.633C84.7047 254.504 88.1004 242.991 94.8459 237.26C101.588 231.527 143.204 266.191 142.241 269.183Z" fill="#EF8A13"/>
<path d="M101.866 256.875C107.381 258.816 110.056 260.034 110.03 260.116C110.03 260.116 106.153 259.373 101.513 257.975C96.912 256.59 93.2511 255.034 93.3493 254.733C93.4476 254.429 97.3573 255.29 101.866 256.875Z" fill="#F1AC0E"/>
<path d="M116.022 233.776C119.85 238.2 121.572 240.591 121.507 240.646C121.507 240.646 118.511 238.072 115.174 234.552C111.863 231.065 109.457 227.895 109.689 227.679C109.925 227.466 112.895 230.158 116.022 233.776Z" fill="#F1AC0E"/>
<path d="M125.701 225.177C128.013 229.706 128.94 232.096 128.865 232.136C128.865 232.136 126.808 229.379 124.696 225.731C122.607 222.113 121.258 218.923 121.536 218.769C121.815 218.619 123.812 221.474 125.701 225.177Z" fill="#F1AC0E"/>
<path d="M129.32 246.966C132.506 250.925 133.901 253.076 133.835 253.132C133.835 253.132 131.258 250.853 128.449 247.713C125.665 244.595 123.694 241.75 123.937 241.543C124.176 241.337 126.717 243.724 129.32 246.966Z" fill="#F1AC0E"/>
<path d="M120.826 261.871C125.656 263.433 128 264.465 127.974 264.547C127.974 264.547 124.572 264.059 120.505 262.975C116.471 261.901 113.265 260.604 113.357 260.296C113.445 259.995 116.873 260.594 120.826 261.871Z" fill="#F1AC0E"/>
<path d="M125.191 271.482C130.263 271.705 132.797 272.075 132.794 272.163C132.794 272.163 129.385 272.595 125.177 272.628C121.002 272.667 117.571 272.265 117.574 271.947C117.581 271.629 121.045 271.299 125.191 271.482Z" fill="#F1AC0E"/>
<path d="M106.981 246.864C111.081 249.861 112.987 251.573 112.937 251.645C112.937 251.645 109.859 250.116 106.333 247.811C102.836 245.529 100.2 243.292 100.376 243.03C100.557 242.768 103.628 244.412 106.981 246.864Z" fill="#F1AC0E"/>
<path d="M125.246 255.336C129.346 258.335 131.252 260.044 131.203 260.116C131.203 260.116 128.125 258.587 124.598 256.285C121.101 254 118.462 251.763 118.642 251.504C118.822 251.239 121.89 252.883 125.246 255.336Z" fill="#F1AC0E"/>
<path d="M130.109 238.848C132.941 243.069 134.146 245.332 134.078 245.381C134.078 245.381 131.707 242.889 129.179 239.52C126.667 236.176 124.952 233.17 125.21 232.987C125.466 232.8 127.794 235.397 130.109 238.848Z" fill="#F1AC0E"/>
<path d="M139.163 218.082C140.738 222.918 141.278 225.423 141.196 225.449C141.196 225.449 139.598 222.407 138.086 218.471C136.586 214.568 135.754 211.208 136.052 211.1C136.347 210.992 137.876 214.126 139.163 218.082Z" fill="#F1AC0E"/>
<path d="M130.829 301.172C134.166 296.332 136.052 294.053 136.124 294.102C136.124 294.102 134.372 297.665 131.789 301.801C129.228 305.9 126.756 309.047 126.491 308.87C126.225 308.697 128.098 305.131 130.829 301.172Z" fill="#F1AC0E"/>
<path d="M123.694 318.419C126.491 313.245 128.118 310.776 128.197 310.815C128.197 310.815 126.838 314.548 124.716 318.939C122.617 323.295 121.582 327.479 119.955 326.366C119.696 326.186 121.412 322.653 123.694 318.419Z" fill="#F1AC0E"/>
<path d="M137.549 317.06C139.071 311.375 140.086 308.595 140.168 308.618C140.168 308.618 139.713 312.564 138.662 317.328C137.624 322.05 137.585 326.363 135.744 325.655C135.45 325.544 136.301 321.706 137.549 317.06Z" fill="#F1AC0E"/>
<path d="M110.138 300.209C114.837 296.676 117.345 295.114 117.397 295.183C117.397 295.183 114.611 298.006 110.852 301.11C107.125 304.185 104.44 307.557 103.428 305.861C103.265 305.593 106.297 303.097 110.138 300.209Z" fill="#F1AC0E"/>
<path d="M111.795 308.949C116.029 304.879 118.334 303.022 118.393 303.084C118.393 303.084 115.966 306.225 112.607 309.758C109.28 313.261 107.02 316.932 105.812 315.373C105.619 315.125 108.327 312.282 111.795 308.949Z" fill="#F1AC0E"/>
<path d="M129.212 292.789C133.449 288.716 135.754 286.862 135.813 286.925C135.813 286.925 133.383 290.065 130.027 293.598C126.697 297.102 124.437 300.772 123.232 299.214C123.036 298.962 125.744 296.119 129.212 292.789Z" fill="#F1AC0E"/>
<path d="M103.353 271.142C109.201 270.598 112.155 270.582 112.165 270.667C112.165 270.667 108.314 271.61 103.487 272.281C98.7065 272.949 94.6592 274.413 94.6821 272.442C94.6854 272.124 98.5722 271.587 103.353 271.142Z" fill="#F1AC0E"/>
<path d="M127.08 277.242C132.702 275.536 135.594 274.927 135.617 275.012C135.617 275.012 132.034 276.708 127.44 278.332C122.892 279.947 119.218 282.193 118.845 280.254C118.786 279.943 122.486 278.64 127.08 277.242Z" fill="#F1AC0E"/>
<path d="M101.699 287.963C107.384 286.483 110.298 285.991 110.318 286.077C110.318 286.077 106.67 287.625 102.017 289.063C97.4032 290.491 93.6441 292.586 93.3494 290.635C93.3002 290.32 97.0495 289.171 101.699 287.963Z" fill="#F1AC0E"/>
<path d="M98.6116 280.867C104.381 279.753 107.322 279.452 107.335 279.537C107.335 279.537 103.595 280.85 98.8604 281.99C94.1648 283.12 90.278 284.97 90.1077 283.005C90.0815 282.687 93.8963 281.777 98.6116 280.867Z" fill="#F1AC0E"/>
<path d="M108.094 261.275C113.74 262.785 116.503 263.794 116.484 263.879C116.484 263.879 112.561 263.43 107.829 262.395C103.134 261.367 99.3646 260.1 99.4367 259.792C99.512 259.481 103.477 260.038 108.094 261.275Z" fill="#EC6D18"/>
<path d="M113.353 236.37C117.365 240.63 119.185 242.942 119.123 243.004C119.123 243.004 116.022 240.558 112.538 237.182C109.08 233.838 106.542 230.774 106.768 230.551C106.991 230.325 110.072 232.889 113.353 236.37Z" fill="#EC6D18"/>
<path d="M120.433 225.158C122.935 229.582 123.963 231.929 123.887 231.975C123.887 231.975 121.716 229.307 119.454 225.75C117.207 222.227 115.727 219.1 115.999 218.936C116.271 218.769 118.39 221.536 120.433 225.158Z" fill="#EC6D18"/>
<path d="M131.327 252.696C135.168 256.02 136.926 257.883 136.867 257.952C136.867 257.952 133.927 256.174 130.603 253.587C127.306 251.023 124.86 248.577 125.06 248.331C125.259 248.083 128.183 249.975 131.327 252.696Z" fill="#EC6D18"/>
<path d="M129.218 265.454C134.179 266.525 136.615 267.317 136.599 267.402C136.599 267.402 133.164 267.255 129.009 266.583C124.889 265.919 121.572 264.95 121.628 264.635C121.687 264.324 125.158 264.58 129.218 265.454Z" fill="#EC6D18"/>
<path d="M123.491 274.888C128.488 274.003 131.042 273.817 131.058 273.902C131.058 273.902 127.827 275.064 123.724 276.014C119.657 276.954 116.222 277.311 116.156 277C116.091 276.689 119.405 275.611 123.491 274.888Z" fill="#EC6D18"/>
<path d="M104.352 251.056C108.576 253.875 110.55 255.509 110.504 255.581C110.504 255.581 107.364 254.183 103.746 252.032C100.154 249.9 97.4228 247.778 97.5931 247.51C97.7601 247.238 100.897 248.751 104.352 251.056Z" fill="#EC6D18"/>
<path d="M122.957 258.744C127.182 261.56 129.156 263.194 129.11 263.266C129.11 263.266 125.97 261.868 122.352 259.717C118.759 257.585 116.029 255.463 116.199 255.191C116.366 254.923 119.503 256.436 122.957 258.744Z" fill="#EC6D18"/>
<path d="M144.694 233.737C145.545 238.75 145.715 241.308 145.63 241.324C145.63 241.324 144.491 238.079 143.574 233.96C142.657 229.883 142.326 226.435 142.64 226.373C142.948 226.31 144.003 229.637 144.694 233.737Z" fill="#EC6D18"/>
<path d="M139.612 290.759C141.835 285.317 143.194 282.684 143.276 282.717C143.276 282.717 142.323 286.574 140.682 291.168C139.058 295.723 137.316 299.325 137.018 299.211C136.72 299.099 137.791 295.212 139.612 290.759Z" fill="#EC6D18"/>
<path d="M133.704 311.965C134.981 306.221 135.879 303.399 135.964 303.418C135.964 303.418 135.672 307.38 134.827 312.184C133.989 316.949 134.133 321.258 132.267 320.629C131.969 320.531 132.653 316.657 133.704 311.965Z" fill="#EC6D18"/>
<path d="M117.26 311.621C121.32 307.371 123.544 305.419 123.606 305.478C123.606 305.478 121.314 308.716 118.108 312.39C114.932 316.035 112.829 319.797 111.556 318.291C111.353 318.052 113.939 315.095 117.26 311.621Z" fill="#EC6D18"/>
<path d="M128.95 287.828C134.048 284.904 136.73 283.667 136.773 283.742C136.773 283.742 133.658 286.198 129.546 288.808C125.469 291.401 122.388 294.41 121.592 292.606C121.464 292.318 124.781 290.219 128.95 287.828Z" fill="#EC6D18"/>
<path d="M101.755 275.467C107.574 274.671 110.527 274.534 110.541 274.619C110.541 274.619 106.732 275.723 101.938 276.6C97.1904 277.471 93.2086 279.105 93.1464 277.134C93.1398 276.816 96.9972 276.115 101.755 275.467Z" fill="#EC6D18"/>
<path d="M118.229 283.942C123.769 281.997 126.635 281.266 126.664 281.348C126.664 281.348 123.154 283.195 118.635 285.016C114.156 286.82 110.583 289.223 110.125 287.301C110.056 286.993 113.697 285.533 118.229 283.942Z" fill="#EC6D18"/>
<path d="M97.4327 285.386C103.147 284.03 106.071 283.601 106.09 283.686C106.09 283.686 102.41 285.156 97.7274 286.496C93.0874 287.825 89.2824 289.839 89.027 287.881C88.9877 287.57 92.76 286.496 97.4327 285.386Z" fill="#EC6D18"/>
<mask id="mask5_44_342" style="mask-type:luminance" maskUnits="userSpaceOnUse" x="143" y="263" width="8" height="17">
<path d="M143.344 263.217H150.263V279.144H143.344V263.217Z" fill="white"/>
</mask>
<g mask="url(#mask5_44_342)">
<path d="M150.466 263.889C154.232 263.889 157.284 267.12 157.284 271.106C157.284 275.094 154.232 278.326 150.466 278.326C146.704 278.326 143.652 275.094 143.652 271.106C143.652 267.12 146.704 263.889 150.466 263.889Z" fill="#FAF4A7"/>
</g>
<path d="M147.159 266.302C147.942 266.302 148.577 267.91 148.577 269.894C148.577 271.878 147.942 273.486 147.159 273.486C146.373 273.486 145.738 271.878 145.738 269.894C145.738 267.91 146.373 266.302 147.159 266.302Z" fill="#F5F5E9"/>
<mask id="mask6_44_342" style="mask-type:luminance" maskUnits="userSpaceOnUse" x="466" y="420" width="128" height="65">
<path d="M466.662 420.567H593.031V484.066H466.662V420.567Z" fill="white"/>
</mask>
<g mask="url(#mask6_44_342)">
<path d="M592.972 420.567C592.972 455.64 564.694 484.066 529.794 484.066C494.895 484.066 466.721 455.64 466.721 420.567H592.972Z" fill="#FFD922"/>
</g>
<mask id="mask7_44_342" style="mask-type:luminance" maskUnits="userSpaceOnUse" x="529" y="357" width="65" height="64">
<path d="M529.68 357.307H593.179V420.806H529.68V357.307Z" fill="white"/>
</mask>
<g mask="url(#mask7_44_342)">
<path d="M529.68 420.806V357.307C564.736 357.307 593.179 385.736 593.179 420.806H529.68Z" fill="#6565D6"/>
</g>
<mask id="mask8_44_342" style="mask-type:luminance" maskUnits="userSpaceOnUse" x="76" y="193" width="153" height="77">
<path d="M76.2827 193.641H228.01V269.763H76.2827V193.641Z" fill="white"/>
</mask>
<g mask="url(#mask8_44_342)">
<path fill-rule="evenodd" clip-rule="evenodd" d="M80.2875 296.372C68.0311 255.774 90.2715 211.863 129.962 198.3C169.652 184.731 211.762 206.644 224.018 247.241C236.272 287.838 214.031 331.749 174.341 345.316C134.651 358.882 92.5407 336.972 80.2875 296.372Z" fill="#EE8D13"/>
</g>
<mask id="mask9_44_342" style="mask-type:luminance" maskUnits="userSpaceOnUse" x="80" y="199" width="143" height="71">
<path d="M80.4741 199.509H222.142V269.763H80.4741V199.509Z" fill="white"/>
</mask>
<g mask="url(#mask9_44_342)">
<path fill-rule="evenodd" clip-rule="evenodd" d="M83.7879 294.469C72.4844 257.028 93.4215 216.389 130.551 203.693C167.681 191.005 206.942 211.068 218.245 248.508C229.546 285.946 208.609 326.589 171.479 339.281C134.353 351.973 95.0882 331.91 83.7879 294.469Z" fill="#FAF4A7"/>
</g>
<mask id="mask10_44_342" style="mask-type:luminance" maskUnits="userSpaceOnUse" x="82" y="201" width="136" height="69">
<path d="M82.1506 201.185H217.951V269.763H82.1506V201.185Z" fill="white"/>
</mask>
<g mask="url(#mask10_44_342)">
<path d="M163.918 233.678C163.918 233.678 173.067 215.619 180.16 213.88C187.249 212.145 207.345 217.577 204.869 232.761C203.068 241.976 187.043 248.731 187.043 248.731C187.043 248.731 206.087 236.753 208.861 241.52C211.634 246.288 221.445 257.438 214.974 265.748C208.507 274.059 202.705 271.846 202.705 271.846C202.705 271.846 228.72 272.579 212.731 301.234C200.694 322.81 185.219 302.973 185.219 302.973C185.219 302.973 197.858 314.663 193.271 321.562C188.683 328.462 182.079 325.698 173.447 313.049C173.447 313.049 184.734 331.13 165.605 339.847C150.362 343.672 146.593 324.336 146.593 324.336C146.593 324.336 143.397 341.802 130.803 338.848C118.209 335.891 90.8903 315.131 93.6245 307.613C96.362 300.095 100.036 297.128 100.036 297.128C100.036 297.128 84.5345 302.577 82.8645 284.934C81.5973 271.521 98.1204 268.836 98.1204 268.836C98.1204 268.836 79.1021 267.265 84.7572 253.263C90.4122 239.264 92.3016 234.775 98.1204 237.07C103.942 239.366 104.732 238.957 104.732 238.957C104.732 238.957 96.7124 234.3 97.0169 232.349C97.3181 230.4 115.053 200.648 130.803 221.955C136.832 230.112 138.924 234.981 138.924 234.981C138.924 234.981 129.5 216.349 130.273 211.497C131.049 206.647 162.425 196.571 169.668 204.424C173.706 208.808 169.177 218.402 163.918 233.678Z" fill="#F9F5E1"/>
</g>
<path fill-rule="evenodd" clip-rule="evenodd" d="M184.479 252.66C173.3 260.837 158.129 266.364 157.661 265.896C157.143 265.385 163.705 240.685 169.39 231.988C178.038 218.759 187 208.183 199.672 221.9C209.29 232.316 196.991 243.508 184.479 252.66Z" fill="#EF8A13"/>
<path fill-rule="evenodd" clip-rule="evenodd" d="M146.026 264.596C142.952 268.656 104.99 238.256 102.62 233.105C100.249 227.957 103.445 224.352 116.205 215.249C128.966 206.146 150.342 259.52 146.026 264.596Z" fill="#EF8A13"/>
<path fill-rule="evenodd" clip-rule="evenodd" d="M152.448 264.72C148.43 262.713 130.819 217.057 133.678 210.904C136.537 204.748 158.951 196.028 167.523 206.018C176.096 216.006 156.462 266.728 152.448 264.72Z" fill="#EF8A13"/>
<mask id="mask11_44_342" style="mask-type:luminance" maskUnits="userSpaceOnUse" x="85" y="237" width="60" height="33">
<path d="M85.5037 237.231H144.183V269.763H85.5037V237.231Z" fill="white"/>
</mask>
<g mask="url(#mask11_44_342)">
<path fill-rule="evenodd" clip-rule="evenodd" d="M143.652 270.654C142.673 273.702 88.1168 266.547 86.2209 259.907C85.0224 255.702 88.4835 243.976 95.3534 238.141C102.227 232.303 144.635 267.605 143.652 270.654Z" fill="#EF8A13"/>
</g>
<mask id="mask12_44_342" style="mask-type:luminance" maskUnits="userSpaceOnUse" x="160" y="243" width="58" height="27">
<path d="M160.11 243.937H217.951V269.763H160.11V243.937Z" fill="white"/>
</mask>
<g mask="url(#mask12_44_342)">
<path fill-rule="evenodd" clip-rule="evenodd" d="M160.532 270.745C158.803 266.94 201.044 244.772 206.434 244.608C211.827 244.441 221.31 257.533 215.914 265.758C210.517 273.981 162.258 274.55 160.532 270.745Z" fill="#EF8A13"/>
</g>
<path d="M102.508 258.119C108.13 260.093 110.858 261.334 110.829 261.42C110.829 261.42 106.88 260.66 102.151 259.235C97.4622 257.827 93.7325 256.243 93.8308 255.935C93.9323 255.627 97.9141 256.505 102.508 258.119Z" fill="#F1AC0E"/>
<path d="M116.936 234.595C120.836 239.097 122.591 241.534 122.525 241.592C122.525 241.592 119.473 238.97 116.071 235.384C112.698 231.831 110.243 228.606 110.482 228.386C110.724 228.167 113.75 230.908 116.936 234.595Z" fill="#F1AC0E"/>
<path d="M126.798 225.839C129.156 230.449 130.099 232.882 130.024 232.925C130.024 232.925 127.925 230.115 125.777 226.402C123.645 222.715 122.27 219.47 122.555 219.313C122.836 219.159 124.873 222.063 126.798 225.839Z" fill="#F1AC0E"/>
<path d="M130.489 248.024C133.734 252.058 135.155 254.248 135.086 254.304C135.086 254.304 132.46 251.983 129.598 248.787C126.762 245.614 124.755 242.716 125.001 242.506C125.246 242.297 127.833 244.726 130.489 248.024Z" fill="#F1AC0E"/>
<path d="M121.828 263.208C126.752 264.796 129.14 265.847 129.117 265.932C129.117 265.932 125.649 265.434 121.503 264.331C117.394 263.237 114.126 261.914 114.218 261.603C114.309 261.292 117.803 261.904 121.828 263.208Z" fill="#F1AC0E"/>
<path d="M107.721 247.922C111.903 250.974 113.841 252.719 113.792 252.791C113.792 252.791 110.655 251.233 107.063 248.888C103.5 246.563 100.812 244.284 100.995 244.019C101.176 243.75 104.306 245.427 107.721 247.922Z" fill="#F1AC0E"/>
<path d="M126.333 256.55C130.515 259.602 132.453 261.348 132.404 261.42C132.404 261.42 129.267 259.861 125.672 257.516C122.113 255.192 119.421 252.912 119.604 252.647C119.788 252.379 122.915 254.052 126.333 256.55Z" fill="#F1AC0E"/>
<path d="M131.291 239.762C134.176 244.058 135.404 246.363 135.335 246.413C135.335 246.413 132.918 243.875 130.341 240.443C127.784 237.038 126.035 233.979 126.301 233.789C126.559 233.603 128.93 236.245 131.291 239.762Z" fill="#F1AC0E"/>
<path d="M140.519 218.612C142.123 223.534 142.673 226.088 142.591 226.114C142.591 226.114 140.961 223.013 139.418 219.005C137.889 215.033 137.041 211.611 137.346 211.5C137.647 211.392 139.206 214.584 140.519 218.612Z" fill="#F1AC0E"/>
<path d="M163.394 218.137C162.775 224.097 162.202 227.057 162.117 227.05C162.117 227.05 161.94 223.006 162.228 218.046C162.513 213.127 163.188 209.109 163.509 209.136C163.83 209.159 163.898 213.262 163.394 218.137Z" fill="#F1AC0E"/>
<path d="M154.389 230.047C153.77 236.006 153.197 238.966 153.109 238.957C153.109 238.957 152.935 234.916 153.224 229.955C153.508 225.037 154.183 221.019 154.504 221.042C154.825 221.068 154.894 225.174 154.389 230.047Z" fill="#F1AC0E"/>
<path d="M180.72 227.07C177.619 231.216 175.85 233.134 175.778 233.082C175.778 233.082 177.376 229.965 179.767 226.399C182.134 222.862 184.443 220.197 184.708 220.384C184.97 220.57 183.257 223.681 180.72 227.07Z" fill="#F1AC0E"/>
<path d="M191.218 228.652C188.117 232.797 186.348 234.716 186.276 234.664C186.276 234.664 187.874 231.546 190.265 227.98C192.632 224.444 194.941 221.778 195.206 221.965C195.468 222.152 193.755 225.263 191.218 228.652Z" fill="#F1AC0E"/>
<path d="M188.595 246.347C183.955 250.132 181.463 251.825 181.407 251.757C181.407 251.757 184.132 248.77 187.832 245.46C191.499 242.175 194.81 239.805 195.019 240.05C195.232 240.292 192.39 243.253 188.595 246.347Z" fill="#F1AC0E"/>
<path d="M198.667 250.051C193.12 252.297 190.242 253.174 190.206 253.093C190.206 253.093 193.69 251.046 198.205 248.98C202.678 246.93 206.539 245.64 206.667 245.938C206.798 246.232 203.205 248.217 198.667 250.051Z" fill="#F1AC0E"/>
<path d="M204.961 266.777C199.027 267.559 196.018 267.687 196.008 267.602C196.008 267.602 199.892 266.492 204.777 265.621C209.624 264.756 213.684 264.478 213.733 264.799C213.782 265.117 209.813 266.138 204.961 266.777Z" fill="#F1AC0E"/>
<path d="M183.205 266.344C177.272 267.127 174.262 267.255 174.252 267.17C174.252 267.17 178.136 266.06 183.025 265.189C187.868 264.324 191.925 264.046 191.977 264.367C192.026 264.684 188.058 265.706 183.205 266.344Z" fill="#F1AC0E"/>
<path d="M204.26 254.93C198.484 256.488 195.517 257.015 195.494 256.93C195.494 256.93 199.198 255.319 203.926 253.81C208.615 252.313 212.603 251.501 212.695 251.812C212.787 252.12 208.985 253.659 204.26 254.93Z" fill="#F1AC0E"/>
<path d="M173.85 248.394C169.504 252.51 167.144 254.383 167.081 254.317C167.081 254.317 169.58 251.138 173.028 247.565C176.446 244.022 179.57 241.412 179.799 241.642C180.025 241.871 177.409 245.027 173.85 248.394Z" fill="#F1AC0E"/>
<path d="M108.857 262.598C114.611 264.134 117.427 265.162 117.404 265.247C117.404 265.247 113.409 264.792 108.586 263.738C103.802 262.693 99.9606 261.403 100.036 261.086C100.111 260.774 104.152 261.338 108.857 262.598Z" fill="#EC6D18"/>
<path d="M114.214 237.237C118.304 241.573 120.158 243.927 120.095 243.989C120.095 243.989 116.936 241.501 113.383 238.063C109.863 234.657 107.272 231.536 107.505 231.307C107.734 231.081 110.871 233.688 114.214 237.237Z" fill="#EC6D18"/>
<path d="M121.432 225.816C123.979 230.322 125.027 232.715 124.952 232.761C124.952 232.761 122.738 230.043 120.433 226.422C118.144 222.833 116.634 219.647 116.913 219.48C117.188 219.313 119.349 222.129 121.432 225.816Z" fill="#EC6D18"/>
<path d="M132.532 253.862C136.445 257.245 138.236 259.144 138.181 259.213C138.181 259.213 135.181 257.402 131.795 254.769C128.432 252.159 125.941 249.667 126.144 249.415C126.347 249.163 129.33 251.092 132.532 253.862Z" fill="#EC6D18"/>
<path d="M130.381 266.855C135.44 267.946 137.919 268.751 137.902 268.836C137.902 268.836 134.405 268.689 130.168 268.005C125.97 267.327 122.591 266.341 122.646 266.02C122.705 265.703 126.245 265.961 130.381 266.855Z" fill="#EC6D18"/>
<path d="M105.043 252.192C109.349 255.064 111.359 256.724 111.313 256.799C111.313 256.799 108.114 255.375 104.424 253.184C100.766 251.013 97.9829 248.852 98.1532 248.58C98.3234 248.305 101.523 249.844 105.043 252.192Z" fill="#EC6D18"/>
<path d="M124.002 260.021C128.308 262.89 130.322 264.553 130.273 264.625C130.273 264.625 127.073 263.204 123.383 261.014C119.726 258.839 116.942 256.678 117.116 256.403C117.286 256.131 120.482 257.67 124.002 260.021Z" fill="#EC6D18"/>
<path d="M146.154 234.552C147.018 239.657 147.195 242.264 147.107 242.28C147.107 242.28 145.948 238.973 145.011 234.782C144.078 230.63 143.741 227.116 144.058 227.054C144.373 226.988 145.447 230.377 146.154 234.552Z" fill="#EC6D18"/>
<path d="M157.11 213.425C156.747 219.404 156.298 222.388 156.21 222.381C156.21 222.381 155.863 218.35 155.945 213.383C156.02 208.458 156.518 204.414 156.842 204.424C157.166 204.437 157.408 208.533 157.11 213.425Z" fill="#EC6D18"/>
<path d="M158.145 239.048C157.081 244.942 156.285 247.853 156.2 247.837C156.2 247.837 156.331 243.793 156.993 238.868C157.647 233.986 158.62 230.027 158.941 230.079C159.258 230.128 159.019 234.225 158.145 239.048Z" fill="#EC6D18"/>
<path d="M183.925 229.238C181.004 233.514 179.318 235.505 179.243 235.456C179.243 235.456 180.706 232.273 182.943 228.609C185.156 224.974 187.354 222.214 187.625 222.391C187.894 222.564 186.316 225.744 183.925 229.238Z" fill="#EC6D18"/>
<path d="M185.127 245.041C180.654 249.019 178.238 250.817 178.179 250.751C178.179 250.751 180.772 247.65 184.328 244.186C187.851 240.751 191.06 238.236 191.28 238.475C191.499 238.711 188.785 241.786 185.127 245.041Z" fill="#EC6D18"/>
<mask id="mask13_44_342" style="mask-type:luminance" maskUnits="userSpaceOnUse" x="174" y="266" width="19" height="4">
<path d="M174.36 266.57H192.802V269.763H174.36V266.57Z" fill="white"/>
</mask>
<g mask="url(#mask13_44_342)">
<path d="M183.519 268.971C177.563 269.54 174.55 269.563 174.544 269.475C174.544 269.475 178.467 268.506 183.378 267.808C188.248 267.117 192.318 266.98 192.354 267.304C192.393 267.621 188.392 268.502 183.519 268.971Z" fill="#EC6D18"/>
</g>
<path d="M179.213 263.745C174.387 264.972 171.898 265.333 171.875 265.247C171.875 265.247 174.95 263.856 178.889 262.621C182.796 261.393 186.136 260.804 186.227 261.115C186.316 261.426 183.159 262.739 179.213 263.745Z" fill="#EC6D18"/>
<path d="M202.669 260.08C196.784 261.167 193.785 261.452 193.768 261.367C193.768 261.367 197.593 260.061 202.426 258.937C207.22 257.824 211.258 257.336 211.326 257.654C211.395 257.968 207.479 259.193 202.669 260.08Z" fill="#EC6D18"/>
<path d="M167.576 250.149C165.326 254.117 163.964 255.977 163.885 255.935C163.885 255.935 164.874 253.001 166.541 249.605C168.191 246.239 169.943 243.669 170.231 243.819C170.516 243.967 169.416 246.904 167.576 250.149Z" fill="#EC6D18"/>
<mask id="mask14_44_342" style="mask-type:luminance" maskUnits="userSpaceOnUse" x="145" y="264" width="15" height="6">
<path d="M145.021 264.894H159.272V269.763H145.021V264.894Z" fill="white"/>
</mask>
<g mask="url(#mask14_44_342)">
<path d="M152.038 265.261C155.873 265.261 158.983 268.551 158.983 272.612C158.983 276.672 155.873 279.963 152.038 279.963C148.2 279.963 145.09 276.672 145.09 272.612C145.09 268.551 148.2 265.261 152.038 265.261Z" fill="#FAF4A7"/>
</g>
<mask id="mask15_44_342" style="mask-type:luminance" maskUnits="userSpaceOnUse" x="146" y="267" width="5" height="3">
<path d="M146.698 267.409H150.889V269.763H146.698V267.409Z" fill="white"/>
</mask>
<g mask="url(#mask15_44_342)">
<path d="M148.666 267.72C149.465 267.72 150.11 269.357 150.11 271.377C150.11 273.398 149.465 275.035 148.666 275.035C147.867 275.035 147.218 273.398 147.218 271.377C147.218 269.357 147.867 267.72 148.666 267.72Z" fill="#F5F5E9"/>
</g>
<mask id="mask16_44_342" style="mask-type:luminance" maskUnits="userSpaceOnUse" x="152" y="271" width="380" height="151">
<path d="M152.13 271.007H531.405V274.734H152.13V271.007ZM527.679 274.734H531.405V284.23H527.679V274.734ZM527.679 284.23H531.405V417.819H527.679V284.23ZM152.13 274.734H155.856V417.819H152.13V274.734ZM152.13 417.819H531.405V421.546H152.13V417.819Z" fill="white"/>
</mask>
<g mask="url(#mask16_44_342)">
<path d="M152.13 271.007H531.412V421.277H152.13V271.007Z" fill="white"/>
</g>
<mask id="mask17_44_342" style="mask-type:luminance" maskUnits="userSpaceOnUse" x="80" y="201" width="73" height="143">
<path d="M80.4741 201.185H152.091V343.691H80.4741V201.185Z" fill="white"/>
</mask>
<g mask="url(#mask17_44_342)">
<path d="M152.091 201.251V343.603C152.091 343.603 79.7897 344.952 80.8376 272.5C81.8854 201.251 152.091 201.251 152.091 201.251Z" fill="white"/>
</g>
<mask id="mask18_44_342" style="mask-type:luminance" maskUnits="userSpaceOnUse" x="111" y="209" width="42" height="54">
<path d="M111.49 209.568H152.091V262.379H111.49V209.568Z" fill="white"/>
</mask>
<g mask="url(#mask18_44_342)">
<path d="M152.091 261.125V209.633C136.671 210.082 122.601 213.972 111.972 223.704L148.646 262.323C149.694 261.724 150.892 261.275 152.091 261.125Z" fill="#FFD922"/>
</g>
<path d="M145.204 264.118L107.331 228.043C96.5551 238.973 91.9151 251.694 91.6139 268.162L142.509 269.956C142.807 267.71 143.855 265.765 145.204 264.118Z" fill="#FFD922"/>
<path d="M142.509 273.997L91.6139 275.795C92.0625 292.259 96.7025 304.984 107.482 315.911L145.502 279.688C143.855 278.188 142.807 276.093 142.509 273.997Z" fill="#FFD922"/>
<mask id="mask19_44_342" style="mask-type:luminance" maskUnits="userSpaceOnUse" x="111" y="280" width="42" height="55">
<path d="M111.49 280.821H152.091V334.47H111.49V280.821Z" fill="white"/>
</mask>
<g mask="url(#mask19_44_342)">
<path d="M148.797 281.633L111.972 320.252C122.601 329.981 136.671 333.874 152.091 334.323V282.53C150.892 282.38 149.844 282.082 148.797 281.633Z" fill="#FFD922"/>
</g>
<mask id="mask20_44_342" style="mask-type:luminance" maskUnits="userSpaceOnUse" x="80" y="200" width="73" height="145">
<path d="M80.4741 200.347H152.091V344.53H80.4741V200.347Z" fill="white"/>
</mask>
<g mask="url(#mask20_44_342)">
<path d="M152.091 343.603V338.066C152.091 338.066 86.9739 340.761 86.9739 272.5C86.9739 204.244 152.091 205.74 152.091 205.74V201.251C152.091 201.251 80.8375 194.662 80.8375 272.353C80.8375 350.041 152.091 343.603 152.091 343.603Z" fill="#FFD922"/>
</g>
<path d="M106.123 257.759C106.179 257.929 106.143 258.119 106.022 258.335C105.901 258.548 105.698 258.764 105.416 258.99C105.134 259.213 104.794 259.425 104.398 259.625C103.998 259.825 103.572 259.998 103.12 260.146C102.665 260.293 102.22 260.401 101.781 260.47C101.339 260.542 100.94 260.568 100.579 260.552C100.223 260.535 99.9311 260.477 99.7052 260.375C99.4825 260.274 99.3417 260.139 99.286 259.969C99.2304 259.799 99.2664 259.609 99.3875 259.396C99.512 259.183 99.7117 258.964 99.9933 258.738C100.275 258.515 100.615 258.302 101.015 258.103C101.411 257.903 101.837 257.729 102.292 257.582C102.744 257.435 103.189 257.326 103.631 257.258C104.07 257.186 104.47 257.159 104.83 257.176C105.19 257.192 105.481 257.251 105.704 257.353C105.93 257.454 106.068 257.588 106.123 257.759Z" fill="#FFA023"/>
<path d="M121.235 252.091C121.585 252.415 121.9 252.749 122.178 253.096C122.456 253.443 122.676 253.777 122.84 254.098C123.003 254.419 123.095 254.7 123.121 254.946C123.144 255.192 123.095 255.378 122.974 255.512C122.853 255.643 122.669 255.709 122.424 255.706C122.178 255.706 121.887 255.637 121.553 255.503C121.219 255.368 120.868 255.178 120.498 254.933C120.125 254.684 119.765 254.399 119.414 254.078C119.064 253.757 118.746 253.423 118.468 253.073C118.19 252.726 117.97 252.392 117.807 252.071C117.643 251.75 117.551 251.468 117.528 251.223C117.505 250.977 117.554 250.791 117.676 250.66C117.797 250.525 117.98 250.46 118.226 250.463C118.471 250.463 118.76 250.532 119.094 250.666C119.428 250.8 119.781 250.99 120.151 251.239C120.521 251.485 120.881 251.77 121.235 252.091Z" fill="#FFA023"/>
<path d="M111.958 297.609C112.014 297.78 111.978 297.97 111.857 298.182C111.732 298.395 111.533 298.615 111.251 298.837C110.969 299.063 110.629 299.273 110.229 299.476C109.833 299.676 109.408 299.849 108.956 299.996C108.501 300.14 108.055 300.249 107.613 300.321C107.174 300.389 106.775 300.419 106.415 300.402C106.058 300.386 105.763 300.327 105.54 300.226C105.314 300.124 105.177 299.99 105.121 299.82C105.066 299.649 105.102 299.456 105.223 299.243C105.344 299.03 105.547 298.811 105.829 298.588C106.11 298.366 106.451 298.153 106.847 297.953C107.246 297.75 107.672 297.577 108.124 297.432C108.579 297.285 109.024 297.177 109.463 297.105C109.905 297.036 110.305 297.01 110.665 297.026C111.022 297.043 111.313 297.102 111.539 297.2C111.762 297.302 111.903 297.439 111.958 297.609Z" fill="#FFA023"/>
<path d="M129.876 223.069C130.001 223.527 130.086 223.979 130.135 224.424C130.181 224.866 130.188 225.266 130.155 225.623C130.119 225.983 130.047 226.271 129.935 226.49C129.821 226.71 129.68 226.841 129.506 226.887C129.333 226.933 129.143 226.89 128.937 226.756C128.73 226.625 128.524 226.409 128.315 226.117C128.105 225.826 127.912 225.475 127.732 225.066C127.552 224.66 127.398 224.225 127.277 223.766C127.152 223.304 127.067 222.856 127.018 222.41C126.969 221.968 126.962 221.569 126.998 221.209C127.034 220.852 127.106 220.564 127.218 220.344C127.332 220.125 127.473 219.994 127.647 219.948C127.82 219.902 128.01 219.945 128.216 220.079C128.423 220.21 128.629 220.423 128.838 220.718C129.048 221.009 129.241 221.359 129.421 221.765C129.601 222.175 129.755 222.607 129.876 223.069Z" fill="#FFA023"/>
<path d="M130.531 316.461C130.587 316.631 130.554 316.824 130.43 317.037C130.309 317.25 130.106 317.469 129.824 317.692C129.542 317.914 129.202 318.127 128.806 318.327C128.406 318.53 127.98 318.704 127.529 318.848C127.073 318.995 126.628 319.103 126.189 319.175C125.747 319.244 125.348 319.27 124.991 319.254C124.631 319.237 124.339 319.178 124.113 319.077C123.891 318.979 123.75 318.841 123.694 318.671C123.642 318.501 123.674 318.311 123.796 318.098C123.92 317.885 124.123 317.666 124.405 317.443C124.686 317.217 125.024 317.007 125.423 316.804C125.819 316.605 126.245 316.431 126.7 316.284C127.152 316.14 127.601 316.028 128.039 315.96C128.478 315.888 128.878 315.861 129.238 315.878C129.598 315.894 129.889 315.953 130.112 316.055C130.338 316.156 130.476 316.29 130.531 316.461Z" fill="#FFA023"/>
<path d="M146.534 242.545C146.599 243.017 146.626 243.475 146.616 243.921C146.609 244.366 146.563 244.762 146.485 245.113C146.403 245.466 146.295 245.741 146.154 245.944C146.016 246.147 145.859 246.262 145.679 246.285C145.502 246.308 145.322 246.242 145.132 246.082C144.946 245.925 144.766 245.686 144.595 245.368C144.425 245.054 144.278 244.68 144.15 244.255C144.022 243.826 143.927 243.377 143.865 242.906C143.8 242.431 143.773 241.972 143.783 241.527C143.79 241.082 143.836 240.685 143.914 240.335C143.996 239.985 144.104 239.706 144.245 239.503C144.382 239.3 144.543 239.189 144.72 239.163C144.897 239.14 145.08 239.209 145.267 239.366C145.453 239.523 145.633 239.762 145.804 240.08C145.974 240.397 146.121 240.767 146.249 241.196C146.377 241.622 146.472 242.071 146.534 242.545Z" fill="#FFA023"/>
<path d="M132.031 278.886C132.083 279.056 132.051 279.249 131.93 279.462C131.805 279.675 131.602 279.894 131.32 280.117C131.039 280.34 130.702 280.552 130.302 280.752C129.906 280.952 129.48 281.125 129.025 281.273C128.573 281.42 128.128 281.528 127.686 281.6C127.247 281.669 126.848 281.695 126.487 281.679C126.127 281.662 125.836 281.604 125.613 281.502C125.387 281.404 125.25 281.266 125.194 281.096C125.138 280.926 125.171 280.736 125.295 280.523C125.417 280.31 125.62 280.091 125.901 279.868C126.183 279.642 126.523 279.429 126.92 279.23C127.319 279.03 127.745 278.856 128.197 278.709C128.652 278.565 129.097 278.453 129.536 278.385C129.978 278.313 130.377 278.286 130.734 278.303C131.095 278.319 131.386 278.378 131.612 278.48C131.835 278.581 131.975 278.715 132.031 278.886Z" fill="#FFA023"/>
<path d="M144.546 304.65C144.661 305.115 144.736 305.566 144.779 306.012C144.818 306.454 144.815 306.853 144.775 307.21C144.733 307.57 144.654 307.855 144.536 308.071C144.422 308.291 144.274 308.418 144.101 308.461C143.927 308.504 143.741 308.458 143.534 308.32C143.331 308.183 143.128 307.967 142.925 307.669C142.722 307.374 142.532 307.02 142.362 306.608C142.188 306.198 142.044 305.76 141.93 305.298C141.815 304.836 141.74 304.384 141.701 303.939C141.661 303.497 141.661 303.094 141.704 302.737C141.743 302.38 141.825 302.092 141.94 301.876C142.058 301.66 142.202 301.532 142.375 301.486C142.549 301.444 142.735 301.493 142.942 301.63C143.145 301.768 143.348 301.984 143.554 302.279C143.757 302.577 143.944 302.93 144.117 303.34C144.287 303.752 144.432 304.188 144.546 304.65Z" fill="#FFA023"/>
<mask id="mask21_44_342" style="mask-type:luminance" maskUnits="userSpaceOnUse" x="81" y="199" width="145" height="73">
<path d="M81.3124 199.509H225.495V271.446H81.3124V199.509Z" fill="white"/>
</mask>
<g mask="url(#mask21_44_342)">
<path d="M224.88 271.446H81.4041C81.4041 271.446 80.0452 198.516 153.066 199.574C224.88 200.629 224.88 271.446 224.88 271.446Z" fill="white"/>
</g>
<mask id="mask22_44_342" style="mask-type:luminance" maskUnits="userSpaceOnUse" x="162" y="230" width="56" height="42">
<path d="M162.625 230.525H217.112V271.446H162.625V230.525Z" fill="white"/>
</mask>
<g mask="url(#mask22_44_342)">
<path d="M164.534 271.446H216.431C215.979 255.892 212.057 241.701 202.249 230.98L163.325 267.972C163.928 269.03 164.38 270.238 164.534 271.446Z" fill="#FFD922"/>
</g>
<path d="M161.515 264.501L197.875 226.297C186.859 215.426 174.036 210.747 157.441 210.445L155.63 261.783C157.893 262.084 159.854 263.142 161.515 264.501Z" fill="#FFD922"/>
<path d="M151.557 261.783L149.746 210.445C133.151 210.897 120.328 215.577 109.316 226.451L145.823 264.802C147.333 263.142 149.445 262.084 151.557 261.783Z" fill="#FFD922"/>
<mask id="mask23_44_342" style="mask-type:luminance" maskUnits="userSpaceOnUse" x="90" y="230" width="55" height="42">
<path d="M90.5333 230.525H144.183V271.446H90.5333V230.525Z" fill="white"/>
</mask>
<g mask="url(#mask23_44_342)">
<path d="M143.862 268.122L104.938 230.98C95.134 241.701 91.2112 255.892 90.7593 271.446H142.958C143.109 270.238 143.41 269.18 143.862 268.122Z" fill="#FFD922"/>
</g>
<mask id="mask24_44_342" style="mask-type:luminance" maskUnits="userSpaceOnUse" x="80" y="199" width="146" height="73">
<path d="M80.4741 199.509H225.495V271.446H80.4741V199.509Z" fill="white"/>
</mask>
<g mask="url(#mask24_44_342)">
<path d="M81.404 271.446H86.987C86.987 271.446 84.2692 205.763 153.066 205.763C221.86 205.763 220.354 271.446 220.354 271.446H224.879C224.879 271.446 231.517 199.574 153.217 199.574C74.9172 199.574 81.404 271.446 81.404 271.446Z" fill="#FFD922"/>
</g>
<path d="M167.926 225.079C167.753 225.135 167.559 225.102 167.347 224.978C167.13 224.853 166.911 224.65 166.685 224.365C166.459 224.08 166.246 223.74 166.043 223.337C165.84 222.938 165.667 222.505 165.519 222.05C165.372 221.592 165.261 221.143 165.192 220.698C165.12 220.256 165.094 219.853 165.11 219.49C165.126 219.126 165.185 218.831 165.287 218.606C165.388 218.38 165.526 218.239 165.696 218.183C165.87 218.127 166.063 218.163 166.276 218.285C166.492 218.409 166.711 218.612 166.937 218.897C167.163 219.182 167.376 219.526 167.579 219.925C167.782 220.328 167.956 220.757 168.103 221.212C168.25 221.67 168.362 222.122 168.43 222.564C168.502 223.01 168.529 223.413 168.512 223.773C168.496 224.136 168.437 224.431 168.335 224.657C168.234 224.883 168.096 225.024 167.926 225.079Z" fill="#FFA023"/>
<path d="M173.637 240.322C173.313 240.676 172.975 240.993 172.625 241.275C172.275 241.556 171.937 241.779 171.613 241.943C171.292 242.107 171.007 242.202 170.759 242.224C170.513 242.247 170.323 242.198 170.189 242.077C170.058 241.953 169.992 241.769 169.992 241.52C169.996 241.272 170.064 240.98 170.199 240.643C170.333 240.309 170.526 239.952 170.775 239.579C171.024 239.205 171.312 238.839 171.636 238.485C171.96 238.131 172.298 237.814 172.648 237.532C172.998 237.25 173.336 237.028 173.656 236.864C173.981 236.7 174.266 236.605 174.511 236.582C174.76 236.56 174.95 236.609 175.081 236.73C175.215 236.854 175.281 237.038 175.277 237.287C175.277 237.535 175.209 237.827 175.074 238.164C174.937 238.501 174.747 238.855 174.498 239.228C174.249 239.602 173.961 239.968 173.637 240.322Z" fill="#FFA023"/>
<path d="M127.761 230.963C127.591 231.019 127.398 230.986 127.181 230.862C126.969 230.738 126.749 230.535 126.523 230.25C126.297 229.968 126.081 229.624 125.881 229.221C125.678 228.822 125.505 228.393 125.354 227.935C125.207 227.476 125.099 227.028 125.027 226.582C124.958 226.14 124.929 225.737 124.945 225.374C124.965 225.01 125.024 224.719 125.125 224.49C125.227 224.264 125.364 224.123 125.534 224.067C125.705 224.012 125.898 224.048 126.114 224.172C126.327 224.297 126.549 224.5 126.772 224.784C126.998 225.066 127.214 225.41 127.414 225.813C127.617 226.212 127.791 226.641 127.941 227.1C128.088 227.555 128.197 228.007 128.269 228.449C128.337 228.894 128.367 229.297 128.35 229.66C128.331 230.02 128.272 230.315 128.17 230.541C128.069 230.77 127.935 230.911 127.761 230.963Z" fill="#FFA023"/>
<path d="M202.888 249.042C202.426 249.166 201.971 249.252 201.522 249.301C201.077 249.346 200.674 249.353 200.314 249.32C199.951 249.284 199.663 249.209 199.44 249.098C199.22 248.983 199.086 248.839 199.04 248.665C198.995 248.492 199.037 248.302 199.171 248.092C199.306 247.883 199.522 247.673 199.816 247.464C200.111 247.251 200.465 247.054 200.874 246.874C201.283 246.694 201.722 246.54 202.187 246.416C202.649 246.291 203.104 246.203 203.549 246.157C203.998 246.108 204.401 246.101 204.761 246.137C205.121 246.17 205.413 246.246 205.635 246.36C205.855 246.471 205.989 246.616 206.035 246.789C206.081 246.963 206.038 247.156 205.904 247.362C205.769 247.572 205.553 247.781 205.259 247.994C204.964 248.204 204.61 248.4 204.201 248.58C203.788 248.764 203.353 248.918 202.888 249.042Z" fill="#FFA023"/>
<path d="M108.759 249.7C108.589 249.756 108.396 249.723 108.18 249.599C107.967 249.474 107.744 249.271 107.521 248.986C107.296 248.701 107.079 248.361 106.88 247.958C106.677 247.559 106.503 247.126 106.352 246.671C106.205 246.213 106.097 245.764 106.025 245.319C105.956 244.877 105.927 244.474 105.943 244.111C105.963 243.747 106.022 243.452 106.123 243.227C106.225 243.001 106.359 242.86 106.533 242.804C106.703 242.748 106.896 242.784 107.112 242.906C107.325 243.03 107.548 243.236 107.77 243.518C107.996 243.803 108.212 244.147 108.412 244.546C108.615 244.949 108.789 245.378 108.939 245.833C109.087 246.291 109.195 246.743 109.267 247.185C109.336 247.631 109.365 248.033 109.349 248.394C109.329 248.757 109.27 249.052 109.169 249.278C109.067 249.504 108.929 249.645 108.759 249.7Z" fill="#FFA023"/>
<path d="M183.261 265.843C182.786 265.906 182.321 265.935 181.872 265.925C181.424 265.915 181.024 265.873 180.67 265.791C180.317 265.709 180.038 265.601 179.832 265.46C179.629 265.319 179.515 265.159 179.492 264.982C179.465 264.802 179.534 264.619 179.695 264.429C179.855 264.239 180.094 264.059 180.412 263.885C180.733 263.715 181.106 263.564 181.538 263.437C181.967 263.309 182.422 263.214 182.897 263.148C183.372 263.086 183.834 263.057 184.282 263.067C184.731 263.073 185.134 263.119 185.487 263.201C185.841 263.283 186.119 263.391 186.322 263.532C186.529 263.672 186.643 263.833 186.666 264.01C186.692 264.19 186.623 264.373 186.463 264.563C186.303 264.753 186.064 264.933 185.743 265.103C185.425 265.277 185.048 265.428 184.619 265.555C184.191 265.683 183.735 265.778 183.261 265.843Z" fill="#FFA023"/>
<path d="M146.632 251.213C146.458 251.265 146.265 251.233 146.052 251.108C145.836 250.984 145.617 250.781 145.391 250.496C145.165 250.214 144.952 249.87 144.749 249.468C144.546 249.068 144.373 248.639 144.225 248.181C144.078 247.726 143.967 247.274 143.898 246.832C143.826 246.386 143.8 245.984 143.816 245.62C143.832 245.26 143.891 244.965 143.993 244.739C144.094 244.51 144.232 244.369 144.402 244.317C144.576 244.261 144.769 244.294 144.982 244.418C145.198 244.543 145.417 244.746 145.643 245.031C145.869 245.312 146.082 245.656 146.285 246.059C146.488 246.458 146.662 246.887 146.809 247.346C146.956 247.804 147.068 248.253 147.136 248.698C147.208 249.14 147.235 249.543 147.218 249.906C147.202 250.27 147.143 250.561 147.041 250.791C146.94 251.016 146.802 251.157 146.632 251.213Z" fill="#FFA023"/>
<path d="M120.662 263.836C120.197 263.951 119.742 264.029 119.293 264.069C118.848 264.108 118.442 264.108 118.082 264.065C117.722 264.023 117.433 263.944 117.214 263.826C116.998 263.708 116.867 263.564 116.821 263.388C116.778 263.214 116.828 263.024 116.965 262.818C117.103 262.612 117.322 262.405 117.62 262.202C117.921 261.996 118.275 261.806 118.691 261.632C119.103 261.459 119.545 261.315 120.01 261.197C120.475 261.082 120.934 261.004 121.379 260.964C121.828 260.925 122.23 260.925 122.591 260.968C122.951 261.01 123.242 261.089 123.458 261.207C123.678 261.325 123.809 261.472 123.851 261.646C123.894 261.822 123.848 262.012 123.711 262.219C123.57 262.425 123.35 262.628 123.052 262.834C122.754 263.04 122.397 263.23 121.985 263.404C121.569 263.577 121.13 263.722 120.662 263.836Z" fill="#FFA023"/>
<path d="M188.444 359.667C202.056 360.41 211.273 360.78 216.093 360.78C217.236 360.78 218.14 360.449 218.805 359.785C219.476 359.113 219.813 358.206 219.813 357.06V350.354H202.681C197.458 350.354 193.67 349.175 191.312 346.818C188.954 344.453 187.776 340.662 187.776 335.449V333.209C187.776 327.996 188.954 324.21 191.312 321.853C193.67 319.489 197.458 318.303 202.681 318.303H228.838V328.742H205.654C202.674 328.742 201.188 330.232 201.188 333.209V334.702C201.188 337.682 202.674 339.168 205.654 339.168H219.08C223.942 339.168 227.518 340.314 229.807 342.6C232.093 344.889 233.239 348.465 233.239 353.327V357.06C233.239 361.926 232.093 365.502 229.807 367.788C227.518 370.076 223.942 371.219 219.08 371.219C216.539 371.219 213.854 371.17 211.024 371.075L204.174 370.774C199.099 370.518 193.856 370.171 188.444 369.726V359.667Z" fill="#FFBB7C" fill-opacity="0.302"/>
<path d="M273.477 318.303H286.889V356.314C286.889 361.527 285.71 365.319 283.352 367.683C280.995 370.04 277.203 371.219 271.983 371.219H254.838C249.625 371.219 245.833 370.04 243.469 367.683C241.111 365.319 239.933 361.527 239.933 356.314V318.303H253.358V356.314C253.358 359.293 254.845 360.78 257.824 360.78H269.01C271.987 360.78 273.477 359.293 273.477 356.314V318.303Z" fill="#FFBB7C" fill-opacity="0.302"/>
<path d="M294.266 359.667C307.878 360.41 317.096 360.78 321.916 360.78C323.059 360.78 323.963 360.449 324.628 359.785C325.299 359.113 325.636 358.206 325.636 357.06V350.354H308.504C303.281 350.354 299.492 349.175 297.135 346.818C294.777 344.453 293.598 340.662 293.598 335.449V333.209C293.598 327.996 294.777 324.21 297.135 321.853C299.492 319.489 303.281 318.303 308.504 318.303H334.661V328.742H311.477C308.497 328.742 307.011 330.232 307.011 333.209V334.702C307.011 337.682 308.497 339.168 311.477 339.168H324.903C329.765 339.168 333.341 340.314 335.63 342.6C337.915 344.889 339.062 348.465 339.062 353.327V357.06C339.062 361.926 337.915 365.502 335.63 367.788C333.341 370.076 329.765 371.219 324.903 371.219C322.362 371.219 319.676 371.17 316.847 371.075L309.997 370.774C304.922 370.518 299.679 370.171 294.266 369.726V359.667Z" fill="#FFBB7C" fill-opacity="0.302"/>
<path d="M391.219 370.473H377.806V349.228H359.181V370.473H345.755V318.303H359.181V338.802H377.806V318.303H391.219V370.473Z" fill="#FFBB7C" fill-opacity="0.302"/>
<path d="M413.583 370.473H400.157V318.303H413.583V338.802H420.289L431.907 318.303H446.066L431.462 344.015L446 370.473H431.842L420.289 349.228H413.583V370.473Z" fill="#FFBB7C" fill-opacity="0.302"/>
<path d="M459.861 370.473H445.322L465.074 318.303H479.979L499.731 370.473H485.192L481.839 361.16H463.214L459.861 370.473ZM466.567 351.467H478.486L472.527 333.955L466.567 351.467Z" fill="#FFBB7C" fill-opacity="0.302"/>
<path d="M183.871 358.778C197.483 359.521 206.7 359.891 211.52 359.891C212.663 359.891 213.567 359.56 214.232 358.896C214.903 358.224 215.24 357.317 215.24 356.171V349.465H198.108C192.885 349.465 189.097 348.286 186.739 345.929C184.381 343.564 183.203 339.773 183.203 334.56V332.32C183.203 327.107 184.381 323.322 186.739 320.964C189.097 318.6 192.885 317.414 198.108 317.414H224.265V327.853H201.081C198.101 327.853 196.615 329.343 196.615 332.32V333.813C196.615 336.793 198.101 338.279 201.081 338.279H214.507C219.369 338.279 222.945 339.425 225.234 341.711C227.52 344 228.666 347.576 228.666 352.438V356.171C228.666 361.037 227.52 364.613 225.234 366.899C222.945 369.187 219.369 370.33 214.507 370.33C211.966 370.33 209.281 370.281 206.451 370.186L199.601 369.885C194.526 369.629 189.283 369.282 183.871 368.837V358.778Z" fill="white"/>
<path d="M268.904 317.414H282.316V355.425C282.316 360.638 281.137 364.43 278.779 366.794C276.422 369.151 272.63 370.33 267.41 370.33H250.265C245.052 370.33 241.26 369.151 238.896 366.794C236.538 364.43 235.36 360.638 235.36 355.425V317.414H248.785V355.425C248.785 358.404 250.272 359.891 253.251 359.891H264.437C267.414 359.891 268.904 358.404 268.904 355.425V317.414Z" fill="white"/>
<path d="M289.693 358.778C303.305 359.521 312.523 359.891 317.343 359.891C318.486 359.891 319.39 359.56 320.055 358.896C320.726 358.224 321.063 357.317 321.063 356.171V349.465H303.931C298.708 349.465 294.919 348.286 292.562 345.929C290.204 343.564 289.025 339.773 289.025 334.56V332.32C289.025 327.107 290.204 323.322 292.562 320.964C294.919 318.6 298.708 317.414 303.931 317.414H330.088V327.853H306.904C303.924 327.853 302.438 329.343 302.438 332.32V333.813C302.438 336.793 303.924 338.279 306.904 338.279H320.33C325.192 338.279 328.768 339.425 331.057 341.711C333.342 344 334.489 347.576 334.489 352.438V356.171C334.489 361.037 333.342 364.613 331.057 366.899C328.768 369.187 325.192 370.33 320.33 370.33C317.789 370.33 315.103 370.281 312.274 370.186L305.424 369.885C300.349 369.629 295.106 369.282 289.693 368.837V358.778Z" fill="white"/>
<path d="M386.646 369.584H373.233V348.339H354.608V369.584H341.183V317.414H354.608V337.913H373.233V317.414H386.646V369.584Z" fill="white"/>
<path d="M409.01 369.584H395.584V317.414H409.01V337.913H415.716L427.334 317.414H441.493L426.889 343.126L441.427 369.584H427.269L415.716 348.339H409.01V369.584Z" fill="white"/>
<path d="M455.288 369.584H440.749L460.501 317.414H475.406L495.158 369.584H480.619L477.266 360.271H458.641L455.288 369.584ZM461.994 350.578H473.913L467.954 333.066L461.994 350.578Z" fill="white"/>
</g>
<defs>
<clipPath id="clip0_44_342">
<rect width="679" height="679" fill="white"/>
</clipPath>
</defs>
</svg>
